<?xml version="1.0" encoding="UTF-8"?><svg id="Layer_2" xmlns="http://www.w3.org/2000/svg" viewBox="0 0 174.87 91.34"><g id="Capa_1"><path d="m57.7,39.81c0,12.59-.01,25.18.02,37.77,0,1.26-.35,1.76-1.67,1.71-5.46-.22-4.59,1.03-4.61-4.4-.03-10.03.17-20.06.17-30.09,0-13.82-.14-27.63-.19-41.45-.01-3.5-.31-2.99,3-3.04.58,0,1.16.05,1.73,0,1.18-.11,1.59.37,1.56,1.55-.06,2.63-.02,5.27-.02,7.9,0,10.02,0,20.05,0,30.07Z"/><path d="m112.23,39.78c0,12.24.01,24.48-.03,36.72,0,.89-.3,2.5-.66,2.56-1.59.27-3.27.18-4.88-.03-.24-.03-.42-1.45-.42-2.23-.03-8.89-.02-17.77-.02-26.66,0-15.46,0-30.92.02-46.37,0-1.11.03-3.08.43-3.18,1.54-.4,3.24-.25,4.87-.17.23.01.58.71.62,1.12.1.98.05,1.97.05,2.96,0,11.77,0,23.53,0,35.3h.02Z"/><path d="m153.11,39.78c0,12.36,0,24.71-.02,37.07,0,.77-.16,2.15-.44,2.21-1.27.24-2.61.14-3.91.06-.16-.01-.36-.67-.4-1.04-.07-.57-.03-1.15-.03-1.73,0-24.38,0-48.76,0-73.14,0-2.69,1.68-3.9,4.1-2.78.45.21.67,1.34.67,2.05.05,8.32.03,16.64.03,24.96,0,4.12,0,8.24,0,12.36Z"/><path d="m167,39.92c0,12.34-.04,24.68.04,37.03.01,1.81-.41,2.46-2.31,2.37-1.66-.08-2.63-.12-2.63-2.29.07-24.93.08-49.86,0-74.79,0-2.35,1.33-1.85,2.67-1.97,1.65-.15,2.28.32,2.27,2.13-.08,12.51-.04,25.01-.04,37.52Z"/><path d="m59.31,39.79c0-12.34,0-24.67.02-37.01,0-.77.13-2.15.43-2.22,1.26-.27,2.6-.2,3.91-.12.17.01.42.82.42,1.25.02,9.94,0,19.87,0,29.81,0,1.21.03,2.43.03,3.64,0,13.99-.05,27.98.05,41.98.02,2.08-.87,2.17-2.48,2.2-1.68.02-2.46-.22-2.44-2.24.1-12.43.05-24.86.05-37.28Z"/><path d="m9.38,39.52c0-12.27,0-24.54,0-36.8,0-2.15,1.98-3.36,3.86-2.32.28.16.49.62.54.97.09.65.05,1.31.05,1.97,0,24.37,0,48.74.02,73.11,0,1.67.12,3.02-2.34,2.88-1.75-.1-2.17-.59-2.17-2.28.07-12.51.04-25.03.04-37.54Z"/><path d="m31.06,39.76c0,12.34,0,24.69,0,37.03,0,2.18-1.96,3.43-3.8,2.33-.39-.23-.55-1.1-.55-1.68-.05-3.37-.02-6.75-.02-10.12,0-21.48,0-42.96,0-64.45,0-2.38,1.54-3.47,3.68-2.47.39.18.64,1.03.66,1.58.07,2.55.03,5.1.03,7.65,0,10.04,0,20.08,0,30.12Z"/><path d="m118.53,39.75c0,12.26,0,24.53,0,36.79,0,2.83-.28,2.97-3.1,2.75-1.63-.13-1.27-1.19-1.27-2.1-.02-8.72,0-17.44,0-26.16,0-16.05,0-32.1,0-48.15,0-2.39,1.54-3.5,3.68-2.47.46.22.67,1.34.68,2.05.05,7.16.03,14.32.03,21.48,0,5.27,0,10.54,0,15.8Z"/><path d="m125.02,39.76c0-12.35,0-24.7,0-37.05,0-2.11,2.07-3.36,3.88-2.3.27.16.44.64.5,1,.09.48.04.98.04,1.48,0,24.61,0,49.23.03,73.84,0,1.72-.14,2.72-2.33,2.62-1.77-.08-2.17-.6-2.16-2.28.07-12.43.04-24.86.04-37.3Z"/><path d="m34.11,39.77c0-12.36,0-24.71,0-37.07,0-1.22-.28-2.55,1.75-2.44,1.13.06,1.74.3,1.57,1.53-.03.24,0,.49,0,.74,0,24.8,0,49.59-.02,74.39,0,1,.57,2.41-1.46,2.38-1.36-.02-2.02-.36-1.85-1.8.06-.49,0-.99,0-1.48,0-12.08,0-24.17,0-36.25Z"/><path d="m76.48,39.76c0,12.43,0,24.87.01,37.3,0,1.35.04,2.46-1.88,2.23-1.01-.12-1.54-.35-1.46-1.44.04-.57,0-1.15,0-1.73,0-16.3,0-32.61,0-48.91,0-8.26,0-16.52,0-24.78,0-1.17-.18-2.21,1.67-2.21,1.88,0,1.65,1.08,1.65,2.23,0,12.43,0,24.87,0,37.3Z"/><path d="m93.53.47c0,11.24-.03,22.46,0,33.69.05,14.22.18,28.45.21,42.67,0,.8-.4,2.13-.92,2.31-1.29.45-2.42.29-2.4-1.78.15-15.38.21-30.76.22-46.13,0-9.34-.11-18.67-.16-28.01-.02-3.08,0-3.08,3.05-2.73Z"/><path d="m157.57,39.74c0,12.43,0,24.85-.03,37.28,0,.73-.14,1.77-.61,2.11-1.03.74-2.16-.06-2.21-1.42-.04-1.15-.01-2.3-.01-3.46,0-23.78,0-47.57.02-71.35,0-.84.01-2,.52-2.45,1.03-.93,2.32.08,2.32,1.76.02,7.74,0,15.47,0,23.21,0,4.77,0,9.55,0,14.32Z"/><path d="m0,39.77c0-12.43-.01-24.86.03-37.28,0-.71.23-1.91.63-2.05C1.72.08,3.07-.04,2.89,1.87c-.05.57,0,1.15,0,1.73,0,24.12,0,48.23,0,72.35,0,.58-.04,1.16,0,1.73.09,1.12-.28,1.6-1.51,1.62C-.02,79.31,0,78.53,0,77.55c.01-9.55,0-19.1,0-28.64,0-3.05,0-6.09,0-9.14Z"/><path d="m135.81,39.92c0,12.44-.02,24.88.02,37.32,0,1.33-.12,2.4-1.81,1.97-.46-.12-.86-.7-1.17-1.16-.15-.23-.03-.64-.03-.97,0-24.8,0-49.59.04-74.39,0-.8.41-2.03.99-2.29.98-.45,2.03-.23,1.99,1.45-.1,3.7-.03,7.41-.03,11.12,0,8.98,0,17.96,0,26.94Z"/><path d="m20.16,40.02c0,12.1,0,24.2,0,36.31,0,.58.17,1.24-.06,1.71-.25.5-.86,1.13-1.33,1.14-.49.02-1.13-.54-1.46-1.02-.23-.34-.07-.96-.07-1.45,0-24.62,0-49.23.03-73.85,0-.83.06-1.99.57-2.41,1.1-.9,2.31.07,2.31,1.79.01,7.99,0,15.97,0,23.96,0,4.61,0,9.22,0,13.83Z"/><path d="m137.41,39.51c0-12.11,0-24.21,0-36.32,0-.66-.16-1.39.07-1.95.18-.43.87-.87,1.35-.88.49-.01,1.28.37,1.44.78.25.65.11,1.46.11,2.2,0,24.38,0,48.75,0,73.13,0,.16.02.33,0,.49-.1,1.06.36,2.38-1.59,2.33-1.83-.04-1.37-1.28-1.38-2.23-.03-7.58-.01-15.15-.01-22.73,0-4.94,0-9.88,0-14.82Z"/><path d="m174.85,39.89c0,12.44,0,24.87.01,37.31,0,1.28-.04,2.43-1.77,2-.47-.12-1.09-.71-1.15-1.14-.16-1.21-.07-2.46-.07-3.7,0-23.8,0-47.6.03-71.4,0-.87.17-2.16.73-2.53,1.28-.83,2.2.03,2.2,1.91,0,12.52,0,25.04,0,37.56Z"/><path d="m98.12.44c.04.64.1,1.29.1,1.94,0,24.85,0,49.69,0,74.54,0,1.18.36,2.72-1.71,2.28-.45-.1-.9-.69-1.12-1.16-.19-.41-.05-.97-.05-1.46,0-24.45,0-48.89,0-73.34,0-2.97.01-2.97,2.77-2.8Z"/><path d="m85.96,39.52c0-12.34-.01-24.67.04-37.01,0-.73.38-1.92.88-2.11,1.29-.48,2.04.02,2.02,1.69-.09,7.49-.04,14.97-.04,22.46,0,17.04,0,34.09,0,51.13,0,.74-.05,1.49,0,2.22.08,1.12-.47,1.38-1.48,1.38-1.08,0-1.43-.42-1.42-1.46.03-5.02,0-10.05,0-15.07,0-7.74,0-15.49,0-23.23Z"/><path d="m6.29,39.75c0,12.19,0,24.38,0,36.56,0,.66.08,1.34-.05,1.97-.07.35-.51.62-.79.93-.31-.3-.84-.57-.89-.91-.14-.97-.1-1.97-.1-2.95,0-24.21,0-48.42,0-72.63,0-.49-.1-1.03.06-1.47.13-.36.55-.8.89-.85.25-.03.75.48.83.82.14.63.05,1.31.05,1.97,0,12.19,0,24.38,0,36.56Z"/><path d="m24.99,39.75c0,12.5,0,25.01,0,37.51,0,.33.1.72-.04.97-.23.39-.63.68-.96,1.01-.24-.33-.65-.65-.7-1-.11-.89-.05-1.81-.05-2.71,0-24.11,0-48.21,0-72.32,0-.41-.11-.87.03-1.22.23-.58.63-1.1.95-1.64.28.55.81,1.1.82,1.65.05,11.85.04,23.7.04,35.54,0,.74,0,1.48,0,2.22-.03,0-.06,0-.08,0Z"/><path d="m43.51,39.49c0-12.09,0-24.18,0-36.28,0-.66-.08-1.34.06-1.97.08-.35.52-.84.83-.85.29-.02.79.44.89.78.16.53.06,1.14.06,1.72,0,15.3,0,30.6,0,45.9,0,9.27,0,18.54,0,27.81,0,.58.09,1.18-.05,1.72-.09.35-.5.85-.78.86-.3.01-.84-.44-.89-.75-.14-.88-.11-1.8-.11-2.7,0-12.08,0-24.16,0-36.24Z"/><path d="m120.51,60.93c-.13-.88-.36-1.76-.36-2.64-.02-18.52-.02-37.05-.02-55.57,0-.49-.1-1.02.05-1.47.12-.36.53-.84.83-.86.3-.02.77.43.9.77.16.44.06.97.06,1.47,0,19.02,0,38.04-.01,57.06,0,.78-.23,1.57-.36,2.35-.36-.37-.72-.74-1.08-1.1Z"/><path d="m48.31,39.76c0,12.35.01,24.7-.03,37.05,0,.79-.39,1.58-.59,2.38-.29-.81-.83-1.62-.83-2.43.02-9.1.21-18.19.2-27.29-.02-15.38-.17-30.77-.2-46.15,0-.98.53-1.97.81-2.95.21.95.61,1.9.61,2.85.04,12.18.03,24.37.03,36.55Z"/><path d="m168.57,39.52c0-12.03,0-24.05,0-36.08,0-.33-.06-.67.01-.99.18-.71.42-1.4.64-2.1.27.66.78,1.32.79,1.99.04,24.96.03,49.92.03,74.88,0,.41.06.86-.08,1.22-.12.3-.49.5-.74.75-.21-.29-.54-.56-.6-.88-.1-.56-.04-1.15-.04-1.72,0-12.36,0-24.71,0-37.07Z"/><path d="m145.2,40.02c0,12.27.01,24.55-.03,36.82,0,.78-.41,1.57-.63,2.35-.28-.82-.79-1.65-.79-2.47-.04-24.47-.04-48.93,0-73.4,0-.99.51-1.98.78-2.96.22.94.63,1.89.63,2.83.04,12.27.03,24.55.03,36.82Z"/><path d="m84.4,39.81c0,12.26,0,24.53,0,36.79,0,.16.04.34,0,.49-.2.7-.43,1.4-.65,2.1-.27-.66-.78-1.32-.78-1.99-.04-17.53-.02-35.06-.02-52.6,0-7.07,0-14.14,0-21.22,0-.49-.09-1.01.03-1.48.14-.55.47-1.04.71-1.56.24.51.69,1.02.69,1.53.05,7.22.03,14.44.03,21.66,0,5.42,0,10.84,0,16.26h0Z"/><path d="m103.18,39.7c0-12.01,0-24.03,0-36.04,0-.58-.09-1.17.03-1.72.12-.55.46-1.05.7-1.57.25.51.72,1.03.71,1.54-.05,14.22-.19,28.45-.21,42.67,0,9.77.15,19.53.24,29.3.01,1.23.07,2.47-.03,3.7-.04.55-.42,1.08-.64,1.62-.27-.57-.61-1.13-.8-1.72-.12-.37-.02-.82-.02-1.23,0-12.18,0-24.36,0-36.53Z"/><path d="m69.7,26.81c.14.78.4,1.56.4,2.34.03,15.86.03,31.73-.01,47.59,0,.81-.51,1.62-.78,2.43-.2-.8-.56-1.59-.56-2.39-.03-15.62-.03-31.23-.01-46.85,0-.81.15-1.62.23-2.43.25-.23.49-.47.74-.7Z"/><path d="m66.7,29.82c.13.78.38,1.56.38,2.34.02,14.88.02,29.75-.01,44.63,0,.8-.37,1.59-.56,2.39-.27-.81-.78-1.62-.79-2.42-.05-14.63-.04-29.26-.02-43.89,0-.8.22-1.61.33-2.41.22-.21.45-.42.67-.63Z"/><path d="m120.51,60.93c.36.37.72.74,1.08,1.1.12,3.09.28,6.18.36,9.27.06,2.29.04,4.58-.03,6.87-.01.35-.43.88-.76.97-.25.07-.96-.42-.96-.66.06-5.85.19-11.71.3-17.56Z"/><path d="m66.7,29.82c-.22.21-.45.42-.67.63-.11-.46-.33-.93-.33-1.39-.02-7.06-.02-14.12,0-21.19,0-.46.23-.92.35-1.38.25.24.5.47.74.71.1,1.78.26,3.56.28,5.34.04,4.89.03,9.78,0,14.67,0,.87-.24,1.74-.37,2.61Z"/><path d="m72.11,82.34c2.05.02,3.17,1.47,2.15,3.22-.59,1.01,0,1.29.19,1.99.24.93.01,2.83-.29,2.89-1.4.28-2.93.18-4.34-.12-.2-.04-.39-2.15.08-2.85.53-.79.48-1.01.06-1.77-1.06-1.92-.06-3.36,2.16-3.35Zm2.31,6.41c-1.23-.75-1.9-1.46-2.57-1.46-.43,0-1.17,1.03-1.19,1.62-.01.43.9,1.22,1.43,1.25.57.03,1.17-.66,2.33-1.4Zm-2.49-6.13c-.6.89-1.34,1.57-1.21,1.9.25.62,1,1.04,1.55,1.55.41-.56,1.09-1.09,1.14-1.68.04-.43-.74-.94-1.48-1.76Z"/><path d="m69.7,26.81c-.25.23-.49.47-.74.7.03-6.01.05-12.02.08-18.04.24.23.48.46.72.69.12,3.93.29,7.86.33,11.79.02,1.62-.25,3.23-.39,4.85Z"/><path d="m116.47,86.55c.57-1.27.81-2.94,1.77-3.73,1.8-1.48,3.86-.42,4.31,1.93.41,2.17.93,4.57-1.27,5.99-2.55,1.64-4.53-.24-4.81-4.19Zm5.08.21c0-.49.06-.99-.01-1.46-.16-1.07-.42-2.35-1.82-2-.68.17-1.35,1.18-1.62,1.95-.28.8-.28,1.83-.02,2.64.28.86.86,2.08,1.55,2.27,1.6.44,1.59-1.16,1.9-2.18.11-.37.02-.81.01-1.21Z"/><path d="m56.82,87.66c-.46,0-.94-.03-1.41,0-1.7.14-2.69-.5-2.64-2.34.03-1.49.25-2.81,2.14-2.98,2.01-.18,3.11.54,3.28,2.38.1,1.06.08,2.14,0,3.2-.2,2.75-1.83,3.69-5.05,2.61,1.86-.41,4.21.05,3.68-2.87Zm-.92-4.75c-.32,0-.65,0-.97-.01-.38.75-1.16,1.58-1.04,2.24.13.74,1.08,1.33,1.67,1.99.51-.65,1.39-1.28,1.43-1.95.05-.73-.69-1.5-1.09-2.26Z"/><path d="m108.26,90.93c1.64-1.11,4.04.07,3.82-2.23-.08-.8-1.42-1.47-2.01-2.03.55-.62,1.28-1.43,2.01-2.25-.95-.56-1.9-1.13-3.46-2.06,1.57.21,2.89.06,3.71.62.54.37.37,1.8.46,2.75.04.45-.22,1.02-.03,1.36,1.34,2.33.53,3.89-2.18,4.01-.56.02-1.12-.08-2.33-.17Z"/><path d="m102.28,90.09c1.23.13,2.24.23,3.24.34,0,.14,0,.28,0,.42h-5.39c1-1.12,1.96-1.91,2.55-2.91.68-1.14,1.39-2.48,1.36-3.71-.01-.53-1.88-1-3.46-1.78,1.7-.03,2.99-.6,4.19.6,1.22,1.23.71,2.58,0,3.78-.66,1.1-1.55,2.06-2.47,3.26Z"/><path d="m45.93,83.47c3.06-1.91,3.54-1.21,3.38,1.74-.09,1.55.01,3.12-.06,4.67-.02.39-.37.77-.57,1.15-.24-.41-.67-.81-.7-1.24-.09-1.39-.11-2.79-.01-4.18.09-1.4-.1-2.42-2.04-2.14Z"/><path d="m96.54,83.4c-1.35-.16-2.41-.28-3.48-.4v-.64c1.25,0,2.5-.09,3.72.06.31.04.85.9.75,1.22-.67,2.26-1.45,4.48-2.27,6.69-.11.31-.64.46-.98.68-.02-.36-.14-.75-.04-1.06.72-2.14,1.49-4.27,2.3-6.56Z"/><path d="m85.68,82.5h4.92c-1.16,3.08-2.22,5.9-3.28,8.71-.31-.11-.62-.23-.94-.34.86-2.45,1.72-4.9,2.62-7.46-1.27-.17-2.34-.31-3.42-.45.03-.15.06-.31.09-.46Z"/><path d="m125.64,83.1c.64-.24,1.28-.65,1.93-.67.43,0,1.23.53,1.25.85.11,2.28.08,4.56.03,6.85,0,.3-.36.6-.55.89-.25-.32-.69-.63-.71-.97-.09-1.3-.03-2.61-.05-3.91-.02-1.34.53-3.05-1.9-3.05Z"/><path d="m64.92,83.4c-1.38-.16-2.44-.28-3.5-.4.05-.32.05-.45.08-.46,4.42-.83,4.76-.5,3.62,3.7-.38,1.41-.94,2.77-1.48,4.13-.11.29-.51.46-.78.68-.07-.37-.3-.79-.2-1.11.7-2.14,1.46-4.26,2.26-6.54Z"/><path d="m81.45,83.38c-1.15-.12-2.18-.23-3.21-.34v-.39h4.74c-1.04,2.83-2.09,5.7-3.15,8.57-.31-.1-.62-.2-.94-.3.84-2.47,1.68-4.95,2.56-7.53Z"/><path d="m69.76,10.16c-.24-.23-.48-.46-.72-.69-.1-2.76-.22-5.53-.27-8.29,0-.27.41-.55.63-.83.23.27.66.55.65.81-.06,3-.18,6-.29,9Z"/><path d="m66.8,7.2c-.25-.24-.5-.47-.74-.71-.12-1.77-.26-3.54-.32-5.31,0-.27.42-.55.64-.82.23.26.66.53.65.79-.03,2.02-.15,4.04-.24,6.06Z"/></g></svg>