<?xml version="1.0" encoding="UTF-8"?><svg id="Layer_2" xmlns="http://www.w3.org/2000/svg" viewBox="0 0 549.24 469.64"><g id="Capa_1"><path d="m493.52,383.74h3.82c.8.75,1.59,1.49,2.35,2.2.78.04,1.5.07,2.24.11,1.18,1.35,2.38,2.73,4.29,2.11,1.5,1.5,2.79,2.79,4.09,4.09.99.26,1.98.51,2.97.77,1.21,2.57,4.98,1.13,6.09,3.91h2.11q1.77,2.15.14,4.45h-4.35c-.81-.76-1.6-1.5-2.39-2.24h-17.47c-.86-.78-1.66-1.5-2.46-2.24h-17.48c-.58-.58-1.1-1.1-1.79-1.79-2.63-.89-5.54-.17-8.39-.33-2.53-.14-5.07-.03-7.41-.03-.71-.71-1.23-1.23-1.88-1.88-2.69-.8-5.59-.17-8.46-.3-2.52-.12-5.05-.02-7.31-.02-.78-.78-1.3-1.3-1.84-1.84-2.45-.75-4.99-.27-7.5-.35-2.15-.07-4.31-.02-6.11-.02-.85-.85-1.37-1.37-1.89-1.89-.69-.11-1.38-.29-2.06-.3-2.93-.03-5.85-.03-8.78,0-.31,0-.62.26-1.22.54-.17.81-.37,1.81-.6,2.95-1.68,1.69-3.48,3.52-5.32,5.29-.19.18-.71.02-1.07.02,0-.37.15-.85-.03-1.08-.64-.82-1.39-1.54-2.33-2.54,1.18-.36,2.16-.66,3.76-1.15.56-.55,1.69-1.48,2.59-2.6.38-.48.5-1.38.36-2-.13-.61-.73-1.57-1.15-1.58-3.66-.13-7.33-.07-10.85-.07-.92-.82-1.72-1.54-2.57-2.31h-10.84c-.62-.62-1.14-1.14-1.73-1.73-1.65-.8-3.49-.2-5.26-.37-1.42-.14-2.89.29-4.26-.33-.53-.53-1.05-1.05-1.64-1.64-2.81-.56-5.73-.07-8.83-.26-.68-.58-1.49-1.27-2.46-2.1h-8.54c-.84-.77-1.64-1.49-2.49-2.27h-6.49c-.82-.76-1.62-1.49-2.46-2.27h-8.63c-.88-.79-1.68-1.51-2.54-2.27h-6.42c-.63-.63-1.15-1.15-1.87-1.87-.83-.07-1.88-.23-2.93-.21-1.14.02-2.18-.14-2.83-1.15-1.08-1.68-3.46-.55-4.6-2.3-.79-1.2-2.03-2.11-3.09-3.17h-2.89c-1.16-1.21-2.66-2.79-4.24-4.45-.54-.06-1.24-.14-1.94-.21-2.08-2.08-4.16-4.16-6.24-6.24-.71-.05-1.43-.1-2.23-.16-.74-.69-1.54-1.42-2.37-2.19h-2.11c-.82-.76-1.61-1.5-2.37-2.21-.78-.04-1.5-.08-2.21-.12-1.07-.9-1.77-2.28-3.56-2.13-1.59.13-2.01-2.05-3.5-2.13-1.14-.06-2.16-.22-2.81-1.21-1.09-1.65-3.47-.52-4.61-2.3-.77-1.21-2.03-2.11-3.07-3.15-.74,0-1.47,0-2.16,0-.82-.76-1.61-1.5-2.36-2.2-.79-.05-1.51-.09-2.23-.14-1.1-1.58-2.6-2.38-4.53-2.33-1.31-1.31-2.61-2.61-3.91-3.91-1.96.1-3.42-.78-4.53-2.33-.72-.04-1.44-.08-2.22-.12-1.54-1.47-3.11-2.96-4.62-4.4-.83-.06-1.54-.11-2.25-.16-1.3-1.3-2.6-2.6-3.99-3.99-1.69-.17-3.3-.67-4.51-2.2-.31-.39-1.35-.2-2.74-.35-.95-1.34-2.23-3.14-3.09-4.35h-3.11c-.82-.73-1.59-1.41-2.33-2.08-.82.49-.96,1.12-1.06,1.87-.25,1.89-.64,2.41-1.36,2.11-.81-.34-1.02-1.01-.82-1.86.08-.35.01-.73.01-1.08-.75-.8-1.49-1.6-2.2-2.36-.04-.78-.08-1.5-.1-2.04-1.87-1.95-3.65-3.79-5.39-5.61h-2.26c-2.89-2.88-5.74-5.74-8.6-8.6-.71-.07-1.42-.13-2.42-.22-2.14-2.13-4.44-4.43-6.56-6.56-1.02-.1-2,.11-2.4-.28-3.7-3.56-7.29-7.22-10.89-10.83h-2.54c-4.3-4.3-8.7-8.71-13.19-13.2-.57-.03-1.29-.06-1.87-.09-.92-.75-1.73-1.96-2.58-1.99-1.66-.06-2.56-.96-3.71-1.85-.74-.58-1.94-.58-2.94-.84-1.3-1.3-2.6-2.6-3.9-3.9-.72-.05-1.43-.09-2.24-.14-1.52-1.45-3.09-2.94-4.62-4.4-.79-.05-1.51-.09-2.23-.13-1.1-1.57-2.59-2.4-4.53-2.33-1.31-1.31-2.61-2.61-3.9-3.91-.7-.09-1.4-.17-2.78-.34-.93-1.37-2.18-3.19-2.96-4.33h-3.09c-2.72-2.72-5.31-5.31-8.01-8.01v-1.97c-1.54-1.17-2.56-2.57-2.38-4.57-.53-.53-1.05-1.05-1.57-1.57-.14-.68-.46-1.37-.39-2.02.21-1.96-.29-3.56-1.94-4.72-.18-1.82-.79-3.37-2.29-4.6-.38-.31-.16-1.37-.22-2.18-.68-.74-1.41-1.54-2.18-2.37v-2.1c-.76-.82-1.5-1.61-2.22-2.38-.04-.77-.07-1.49-.11-2.21-2.86-2.86-5.72-5.72-8.58-8.58-.05-.72-.1-1.43-.15-2.25-1.44-1.52-2.94-3.09-4.4-4.62-.04-.78-.08-1.5-.13-2.22-1.3-1.3-2.6-2.6-3.9-3.9-.13-.68-.14-1.42-.41-2.03-.91-2.05-2.85-3.22-4.26-4.86-.04-.71-.08-1.43-.13-2.22-.7-.75-1.44-1.55-2.2-2.36v-2.12c-.76-.82-1.5-1.61-2.2-2.36-.05-.8-.1-1.51-.14-2.23-.52-.52-1.04-1.04-1.56-1.56-.17-.3-.48-.59-.49-.89-.03-7.31-.02-14.63-.02-21.67.79-.79,1.31-1.31,1.87-1.87.86-3.16-.06-6.35.38-9.11-.96-.96-1.48-1.48-2.13-2.13v-4.19c-.76-.86-1.47-1.67-2.27-2.58v-6.42c-.77-.82-1.51-1.62-2.27-2.43v-6.52c-.77-.83-1.5-1.62-2.27-2.45v-6.48c-.59-.59-1.11-1.11-1.79-1.79-.19-1.56-.39-3.3-.6-5.01-.55-.55-1.07-1.07-1.68-1.68-.64-2.77-.07-5.68-.3-8.83-.54-.65-1.21-1.46-2.06-2.49v-8.47c-.76-.86-1.47-1.66-2.32-2.62,0-2-.02-4.19.03-6.38,0-.28.38-.61.66-.8.19-.13.63-.2.75-.08,5.46,5.42,10.9,10.86,16.18,16.15.08.99-.14,1.98.25,2.37,7.48,7.59,15.03,15.12,22.58,22.64.22.22.62.26.94.38.68-.14,1.58-.04,2-.45,3.18-3.05,6.27-6.2,9.39-9.32.05-.71.11-1.43.17-2.27,1.43-1.5,2.92-3.07,4.4-4.62-.04-.76-.07-1.48-.1-2.12-.75-.85-1.46-1.65-2.22-2.51v-4.25c-2.58-1.38-2.01-3.73-2.1-6.13-.53-.65-1.19-1.47-2.06-2.54v-4c-.76-.87-1.46-1.68-2.27-2.62v-4.18c-.77-.83-1.51-1.63-2.27-2.45v-4.6c.86-.33,1.8-.7,2.91-1.13,2.42,2.34,4.76,4.61,7.12,6.9h2.12c2.89,2.89,5.75,5.75,8.61,8.61.71.06,1.42.12,2.28.2,1.47,1.39,3.03,2.86,4.53,4.29,1.85-1.81,3.69-3.6,5.51-5.37-.73-1.08-1.78-1.07-2.88-1.19-.5-.06-1.36-.88-1.29-1.18.18-.78.95-1.05,1.73-.97.36.03.73,0,1.19,0,.75-.68,1.54-1.41,2.39-2.19h4.3c.81-.76,1.61-1.5,2.38-2.22.76-.03,1.48-.07,2.08-.09,1.88-1.88,3.69-3.69,5.52-5.51v-4.29c-.78-.85-1.5-1.64-2.27-2.48v-4.25c-.61-.61-1.13-1.13-1.67-1.67-.88-1.3-.26-2.79-.53-4.6-.44-.52-1.26-1.24-1.75-2.14-.75-1.38-.62-2.72.84-3.58h4.35c2.14,2.14,4.21,4.21,6.29,6.29.7.09,1.4.18,2.78.36.92,1.37,2.15,3.2,2.9,4.32h4.51c0,.37-.16.88.03,1.08.98,1.09,2.05,2.1,3.1,3.14.7.06,1.41.13,2.27.21,1.48,1.41,3.05,2.9,4.66,4.43h2.11c1.33,1.33,2.47,2.86,3.97,3.86,1.39.92,3.5.61,4.49,2.4,2.37.02,3.89,1.49,5.32,3.11.49.55,1.03,1.04,1.59,1.6h2.11c1.61,1.53,3.18,3.02,4.67,4.43.86.08,2.04-.09,2.2.24,1.28,2.62,4.97,1.26,6.17,3.86,3.97.51,5.86,3.63,8.05,6.39-.59,2.17,2.22,2.8,2.15,4.59-.07,1.78,1.21,2.5,2.12,3.56.05.71.09,1.42.14,2.22.69.75,1.43,1.54,2.2,2.36v2.11c.76.81,1.5,1.61,2.21,2.36.04.78.08,1.5.12,2.22,1.3,1.3,2.6,2.6,3.9,3.9.25.98.51,1.98.77,2.97,2.7,1.14,1.09,5.02,3.89,6.1.05.71.1,1.43.16,2.36,9.47,9.47,19.07,19.06,28.65,28.65,1.76,1.76,2.65,1.64,5.32-.9.43.42,1.17.8,1.24,1.28.15,1.07.09,2.11,1.08,2.88,1.73,1.34.97,4.13,3.1,5.35.92.53,1.7,1.43,2.33,2.31.97,1.38,2.51,1.07,4.05,1.6,2.66,2.72,5.47,5.61,8.26,8.47h2.23c1.07,1.07,2.24,2.01,3.11,3.17,1.01,1.34,2.52,1.06,3.76,1.49,2.11,2.11,4.19,4.19,6.3,6.3h2.11c.83.77,1.63,1.5,2.46,2.27h2.19c1.07,1.59,2.55,2.42,4.5,2.36,1.1,2.2,3.87,1.52,5.32,3.12,1.45,1.6,4.23.91,5.32,3.11,1.92-.01,3.44.75,4.5,2.37h2.17c.84.77,1.63,1.51,2.46,2.27h4.28c.85.78,1.65,1.5,2.42,2.21,2.35-.85,3.02,1.66,4.66,2.18,1.1,0,2.2,0,3.62,0,.61.52,1.35,1.3,2.24,1.82.56.33,1.44.11,2.02.42.92.49,1.72,1.23,2.84,2.06h3.98c.85.76,1.65,1.48,2.54,2.27h2.02c.83.77,1.63,1.51,2.44,2.27h4.3c.84.77,1.64,1.5,2.39,2.19,1.16.01,2.23-.13,3.03.92.41.54,1.09.86,1.65,1.28,1.1,0,2.2,0,3.43,0,1.06.7,2.16,1.96,3.38,2.08,1.68.17,2.56,1.11,3.68,2.21h4.21c.86.76,1.66,1.47,2.51,2.22.64.03,1.36.07,2.13.1.76.71,1.56,1.45,2.37,2.21h4.31c.83.77,1.63,1.5,2.37,2.19,1.15.03,2.23-.15,3.03.91.41.54,1.09.87,1.65,1.3,1.1,0,2.2,0,3.64,0,.62.48,1.44,1.12,2.7,2.08.92.04,2.34.11,4.08.19.6.49,1.41,1.17,2.3,1.9,1.84-.1,3.3.79,4.46,2.39h4.32c.82.77,1.61,1.51,2.43,2.27h2.12c.82.76,1.61,1.5,2.44,2.27h4.29c.59.59,1.11,1.11,1.8,1.8,1.54.18,3.28.38,5.01.59,2.86,2.86,5.71,5.72,8.56,8.57h2.87c1.05,1.35,2.4,3.06,3.56,4.54h4.73c.65.65,1.17,1.17,1.86,1.86.86.06,1.92.11,2.96.22.69.07,1.73.02,1.98.42,1.11,1.76,3.11,1.48,4.59,2.32.62.35,1.05,1.01,1.64,1.6h4.3c1.6,1.52,3.16,3.02,4.7,4.47.79.04,1.5.08,1.61.09,2.96,2.84,5.59,5.37,8.21,7.89.06.72.13,1.42.19,2.13.52.52,1.04,1.04,1.56,1.56.15.67.4,1.34.44,2.01.16,2.52-.28,5.07.31,7.57,2.35,2.35,4.69,4.69,7.02,7.02,4.47.5,6.16,4.64,9.36,7.01h2.71c1.06,1.35,2.41,3.07,3.4,4.33,1.42.17,2.12.25,2.82.33,2.57,2.57,5.13,5.14,7.75,7.75-.44,1.19-.8,2.15-1.18,3.17-.96-.9-1.75-1.63-2.57-2.4h-6.42c-.91-.8-1.71-1.51-2.57-2.27h-4.19c-.64-.64-1.16-1.16-1.69-1.69-2.08-.94-4.3.07-7.36-.94,0,0-.81-.66-1.89-1.53h-3.98c-.87-.75-1.68-1.45-2.63-2.27h-6.36c-.83-.76-1.63-1.49-2.47-2.27h-2.2c-2.78,2.82-5.61,5.7-8.37,8.49-.83.12-1.52.21-2.22.31-.3.16-.66.26-.89.49-2.35,2.32-4.68,4.66-7.02,7,.11.26.15.58.33.77,2.32,2.35,4.66,4.68,7,7.02.71.05,1.42.11,2.38.18,2.17,2.17,4.47,4.47,6.57,6.56,1.06.12,1.98-.06,2.43.32,1.4,1.17,2.64,2.55,3.93,3.85.69.1,1.47.03,2.07.32,1.63.81,2.79,2.16,3.89,3.85-.31.86-.66,1.82-.98,2.72h-2.44c-.78-.73-1.57-1.47-2.39-2.23h-8.65c-.89-.79-1.69-1.51-2.54-2.27h-8.62c-.62-.62-1.14-1.14-1.95-1.95-2.17-.09-4.64-.19-6.9-.28-.73-.73-1.25-1.25-1.76-1.76-2.14-.58-4.32-.2-6.68-.32-.69-.58-1.49-1.27-2.47-2.1h-4.69c-1.36,1.58-3.02,3.51-4.87,5.65.3,1.48,2.06.57,3.15,1.08.31.15.64.46.74.78.06.18-.25.58-.49.75-1.3.96-2.82.15-5.18.91-1.59.99-3.35,3.26-5.06,5.21v8.81c.65.65,1.41,1.08,1.64,1.7.59,1.63.9,3.23,2.34,4.57,4.28,4.01,8.35,8.26,12.51,12.41,3.63,3.63,7.27,7.27,10.93,10.93h2.11c1.61,1.53,3.18,3.02,4.66,4.43.86.08,1.57.14,2.28.21,1.3,1.3,2.6,2.6,3.89,3.89,3.31.05,4.77,2.84,6.91,4.7h2.1c1.61,1.53,3.18,3.02,4.66,4.43.86.08,1.57.14,2.27.21,1.04,1.04,2.11,2.05,3.09,3.14.18.2.03.71-.53,1.08h-2.71c-.81-.76-1.6-1.5-2.36-2.2-.79-.05-1.51-.09-2.22-.13-1.3-1.3-2.6-2.6-3.89-3.89-.99-.26-1.99-.52-2.98-.78-1.3-1.3-2.6-2.6-3.89-3.89-.72-.04-1.43-.09-2.24-.14-1.52-1.45-3.09-2.94-4.63-4.41-1.12.06-2.28-.26-3.09,1.1v8.19c-2.81,2.79-5.39,5.36-8.35,8.29h-3.6c-.62.54-1.25.94-1.67,1.5-.55.72-1.94,1.04-1.45,2.31.28.73,1.07.72,1.9.7,4.76-.06,9.52-.03,14.09-.03.96.85,1.76,1.56,2.61,2.31h17.44c.63.63,1.15,1.15,2.1,2.1,2.06,0,4.58-.07,7.1.02,2.89.1,5.8-.36,8.6.24.59.59,1.11,1.11,1.67,1.68,1.35.52,2.81.29,4.23.21.5-.03,1.41-.87,1.34-1.15-.18-.78-.95-1.05-1.71-1-.37.03-.73,0-1.23,0-1.5-1.43-3.07-2.92-4.68-4.44h-2.04c-.87-.78-1.67-1.51-2.39-2.16-.83-.08-1.54-.14-2.25-.21-1.04-1.04-2.08-2.08-3.67-4.22ZM239.44,116.84c.29.1.89.12.94,0,.28-.71,0-1.24-.56-1.71-.52-.45-.97-.38-1.38.43-.07.15.12.49.28.67.2.24.45.5,1.7.62.29,1.76.45,1.92,2.21,2.21,0,1.08,0,2.16,0,3.24.74.78,1.47,1.55,2.21,2.33v2.63c1.38,1.16,3.03,2.54,4.5,3.77-.42,2.74.62,3.69,2.92,3.48.27-.02.57.34.85.52.51.51,1.02,1.02,1.53,1.53.7.04,1.41.08,2.2.13.73.67,1.51,1.39,2.35,2.17h2.06c.78.74,1.56,1.48,2.35,2.23h2.12c.78.74,1.56,1.48,2.34,2.21,1.08,0,2.16,0,5.21,1.33-.26-.48-.55-1.07-1-1.29-.92-.45-1.38,0-.93.93.22.45.81.74,1.29,1,.08.04.68-.55-1.33-1.96,0-.36.16-.88-.02-1.07-1.77-1.84-3.6-3.63-5.42-5.45-.68-.03-1.39-.07-2.17-.1-.75-.71-1.54-1.45-2.34-2.2h-4.4c-.98-1.01-2-2.06-3.13-3.22.61-.71,1.25-1.46,2.01-2.34-2.49-2.49-4.99-5.08-7.62-7.53-.4-.37-1.39-.11-2.17-.15-.74-.71-1.49-1.5-2.33-2.18-.22-.18-.71-.03-1.07-.03-.29-1.76-.45-1.92-3.18-2.23Zm110.28,68.37c.29.1.89.12.94,0,.28-.71,0-1.24-.56-1.71-.52-.45-.97-.38-1.38.44-.07.15.12.49.28.67.2.24.45.5,1.7.62-.23.79-.04,1.5.71,1.77.91.33,1.98.3,2.83.73.88.45,1.58,1.25,2.35,1.9,2.08-.51,2.91,1.41,4.28,2.21h5.27c-.26.84-.04,1.65.78,1.84,1.74.4,3.46.71,4.52,2.36,1.91,0,3.44.74,4.5,2.37h2.18c.82.77,1.61,1.51,2.42,2.26h4.31c.83.77,1.62,1.5,2.37,2.19.8.05,1.51.1,2.23.15.52.52.95,1.18,1.57,1.53,1.48.82,3.47.57,4.58,2.32.25.4,1.29.34,1.98.41,1.05.11,2.1.16,2.96.22.69.69,1.21,1.21,1.86,1.86h3.98c.73.56,1.41.89,1.82,1.43.8,1.06,1.88.89,3.03.91.75.69,1.54,1.42,2.38,2.19h4.3c.81.75,1.6,1.49,2.43,2.26h4.23c.88.79,1.67,1.51,2.44,2.2,2.35-.85,3.01,1.7,5.2,2.33h3.57c.68.68,1.19,1.19,1.8,1.8,1.64.18,3.37.37,4.96.55.65.65,1.17,1.17,1.75,1.75,1.23.13,2.64.7,3.23-1.08-1.04-1.09-2.05-2.15-3.04-3.18h-2.2c-.83-.77-1.62-1.5-2.44-2.26h-4.28c-.59-.59-1.03-1.25-1.64-1.6-1.47-.84-3.48-.55-4.58-2.32-.25-.4-1.29-.35-1.97-.42-1.05-.11-2.1-.16-2.74-.2-1.17-.9-1.99-1.54-2.61-2.02-1.43,0-2.53,0-3.63,0-.56-.42-1.24-.75-1.65-1.29-.8-1.05-1.87-.9-3.03-.92-.75-.68-1.54-1.41-2.38-2.19h-4.29c-.82-.75-1.61-1.49-2.44-2.26h-2.03c-.87-.79-1.67-1.51-2.51-2.26h-4.12c-.98-.83-1.78-1.52-2.32-1.97-1.78-.17-3.2-.31-4.63-.44-1.18-2.62-4.94-1.21-6.09-3.88-1.89-.04-3.45-.72-4.5-2.38h-4.39c-.81-.76-1.6-1.5-2.41-2.26h-5.47c.23-.79.04-1.5-.71-1.77-.91-.33-1.98-.3-2.83-.73-.88-.45-1.58-1.25-2.35-1.9-2.08.51-2.91-1.41-4.28-2.21-1.78,0-3.52,0-6.24-.02ZM193.12,55.08c.29.1.89.12.94,0,.28-.71,0-1.24-.56-1.71-.52-.45-.97-.38-1.38.44-.07.15.12.49.28.67.2.24.45.5,1.7.62,0,.36-.16.88.02,1.06,4.33,4.37,8.7,8.7,13.01,13,.07.78.14,1.48.2,2.17.18.29.33.6.56.85.49.53.98,1.07,1.54,1.53.46.37,1.18,1,1.5.86,1.28-.56.69-1.85.82-2.86-.74-.79-1.48-1.57-2.23-2.36v-2.09c-.76-.82-1.49-1.6-2.19-2.34-.04-.78-.07-1.49-.11-2.2-1.79-1.79-3.58-3.58-5.39-5.39h-2.12c-.8-.75-1.58-1.49-2.36-2.22-1.09,0-2.17,0-4.23-.02Zm-50.73-33.08c.29.1.89.12.94,0,.28-.71,0-1.24-.56-1.71-.52-.45-.97-.38-1.38.44-.07.15.12.49.28.67.2.24.45.5,1.7.61v5.47c.76.81,1.5,1.6,2.26,2.42v4.3c1.09,1.09,2.13,2.13,3.19,3.19.78-.71,1.56-1.42,2.36-2.16,3.63,0,7.3.02,10.96-.03.26,0,.64-.44.75-.75.2-.53-.18-1.12-1-1.36-.67-.2-1.42-.13-2.13-.18-1.3-1.3-2.59-2.59-3.89-3.89-.99-.26-1.99-.52-2.98-.77-1.3-1.3-2.59-2.59-3.89-3.89-.72-.04-1.43-.08-2.05-.12-1.39-.53-1.75-2.53-4.56-2.23Zm377.9,261.61c-.26-.48-.55-1.07-1-1.29-.92-.45-1.38,0-.93.93.22.45.81.74,1.29,1,.08.04.68-.55-8.97-1.96,2.55,0,5.09,0,7.64-.04,0,0,.16-.82-.03-1.02-.98-1.07-2.04-2.07-3.11-3.12-.64-.07-1.34-.15-2.71-.3-1.01-1.27-2.36-2.96-3.44-4.32h-2.8c-2.3-2.27-4.6-4.53-6.77-6.67-.99.13-1.84,0-2.34.35-1.16.85-2.15,1.94-3.09,2.82v2.34c-.73.81-1.42,1.57-2.11,2.33,1.09,1.09,2.12,2.12,3.19,3.19h4.31c.79.75,1.58,1.49,2.38,2.24,2.14,0,4.33,0,6.51,0,.79.74,1.57,1.47,11.96,3.53ZM85.78,177.74c-.26-.48-.55-1.07-1-1.29-.92-.45-1.38,0-.93.93.22.45.81.74,1.29,1,.08.04.68-.55-1.33-1.95v-5.48c-.76-.81-1.5-1.6-2.2-2.35-.04-.79-.08-1.5-.12-2.14-.75-.85-1.46-1.66-2.21-2.52v-4.04c-.85-1.03-1.53-1.85-2.02-2.45-.08-1.73-.14-3.15-.18-4.08-.97-1.25-1.61-2.07-1.58-2.03-.86-2.37.02-3.89-1-5.19-.52-.52-1.04-1.04-1.64-1.64v-4.26c-.76-.83-1.5-1.63-2.28-2.48,0-.64.07-1.38-.03-2.1-.04-.29-.42-.62-.72-.78-.51-.28-1.28.03-1.4.87-.2,1.43-.06,2.9-.06,4.18-.78.91-1.44,1.66-2.03,2.35.78.93,1.46,1.74,2.02,2.42.14,2.38-.28,4.57.35,6.69.26.26.51.53.78.78,1.57,1.46.93,4.2,3.09,5.35.19.1.23.67.18.99-.27,1.8,1.32,2.42,2.19,3.57v2.09c.76.83,1.5,1.62,2.27,2.46v2.04c.79.87,1.51,1.67,2.16,2.39.08.83.14,1.54.21,2.25,1.49.92,2.03,3.13,6.18,4.44Zm14.71-131.48c.29.1.89.12.94,0,.28-.71,0-1.24-.56-1.71-.52-.45-.97-.38-1.38.44-.07.15.12.49.28.67.2.24.45.5,1.7.62,0,1.81,0,3.63,0,5.44.74.78,1.47,1.57,2.21,2.35v4.31c.76.8,1.49,1.58,2.24,2.37v4.25c.78.85,1.5,1.64,2.16,2.37.06.81.04,1.53.19,2.21.07.3.48.52.56.59,3.27-3.27,6.55-6.55,10.22-10.22,0,.06.03-.65.07-1.36-2.83-3.17-2.85-3.13-6.04-3.91-2.72-2.75-5.52-5.59-8.29-8.4-1.14,0-2.23,0-4.3-.02Zm38.23,197.65c-.26-.48-.55-1.07-1-1.29-.92-.45-1.38,0-.93.93.22.45.81.74,1.29,1,.08.04.68-.55-1.33-1.96,0-.36.16-.88-.02-1.06-10.64-10.69-21.31-21.36-32.01-32.01-.18-.18-.7-.02-2.03-.05.29.1.89.12.94,0,.28-.71,0-1.24-.56-1.71-.52-.45-.97-.38-1.38.43-.07.15.12.49.28.67.2.24.45.5,1.7.62v3.26c.75.8,1.49,1.59,2.25,2.39v4.24c.79.88,1.5,1.67,2.15,2.39.08.83.14,1.54.14,1.54,2.94,2.96,5.49,5.53,8.21,8.26.4.04,1.1.11,1.8.18,1.29,1.29,2.58,2.58,3.91,3.91,1.22.45,2.83.07,3.72,1.5.67,1.09,1.79,1.02,3.46.97,1.11,1.38,2.47,3.08,3.55,4.43,1.7,0,2.8,0,5.86,1.33Zm-15.44-125.72c-.26-.48-.55-1.07-1-1.29-.92-.45-1.38,0-.93.93.22.45.81.74,1.29,1,.08.04.68-.55-1.33-1.96v-5.47c-.76-.81-1.5-1.6-2.2-2.35-.04-.79-.08-1.5-.12-2.14-.75-.85-1.46-1.65-2.21-2.51v-4.2c-1.12-1.12-2.03-2.01-2.21-3.68-.13-1.21-1.4-2.31-2.08-3.35v-3.63c-.61-.71-1.3-1.51-2.13-2.47v-4.07c-1.19-1.29-1.99-2.85-3.77-3.24-2.37,2.37-4.7,4.7-7.21,7.21-.09,1.19-.09,2.6-1.36,3.61-1.14.91-2.1,2.05-3.16,3.11v2.45c.9.85,1.9,1.94,3.07,2.79.5.36,1.37.21,1.69.25,6.15,6.15,12.09,12.1,17.68,17.69,1.8,0,2.9,0,5.97,1.33Zm301.45,142.01c.29.1.89.12.94,0,.28-.71,0-1.24-.56-1.71-.52-.45-.97-.38-1.38.44-.07.15.12.49.28.67.2.24.45.5,1.7.62,0,.37-.16.89.02,1.08,3.32,3.39,6.69,6.73,9.87,9.92,1.01.09,1.72.15,2.63.24,3.48,3.54,7.08,7.2,10.66,10.85h2.21c2.1,2.1,4.18,4.18,6.43,6.43,1.14.19,2.69,0,3.59,1.38.7,1.09,1.81,1,3.02.98.73-.65,1.53-1.37,2.4-2.16h2.14c3.87-3.87,7.75-7.75,11.64-11.63.54-.53.39-1.04-.56-1.6h-4.26c-.84-.78-1.64-1.51-2.45-2.26h-4.3c-.84-.77-1.64-1.5-2.47-2.27h-6.36c-.95-.82-1.76-1.52-2.63-2.27h-4.24c-1.52-3.17-4.65-1.39-6.78-2.46-.53-.53-1.05-1.05-1.69-1.69h-4.19c-.86-.76-1.66-1.46-2.58-2.27h-4.21c-.82-.77-1.61-1.51-2.42-2.26-1.8,0-3.63,0-6.45-.02Zm-251.45,8.82c.29.1.89.12.94,0,.28-.71,0-1.24-.56-1.71-.52-.45-.97-.38-1.38.44-.07.15.12.49.28.67.2.24.45.5,1.7.62,0,.37-.16.88.03,1.08.98,1.09,2.05,2.1,3.1,3.14.7.06,1.4.13,2.15.2,3.41,2.64,5.96,6.27,9.35,8.79.85.13,1.54.23,2.23.34,2.08,2.08,4.15,4.15,6.26,6.26h2.51c1.07,1.17,2.27,2.55,3.56,3.84,1.01,1,2.15,1.88,3.23,2.82,2.45-.69,3.26,2.86,5.69,2.21.85.63,1.7,1.26,2.7,2.01.48.05,1.18.16,1.89.18,1.1.04,2.2,0,3.3.01,1.45.02,2.57.66,2.28,1.32-.35.78-1.02,1.07-1.82.88-.83-.2-1.47,0-1.92.69-.34.51-.05.98.7,1.57.84.67,1.58,1.47,2.31,2.15.81.06,1.53.11,2.24.16,1.3,1.3,2.59,2.59,3.89,3.89.99.26,1.99.52,2.98.78,1.3,1.3,2.59,2.59,3.89,3.89.72.04,1.44.07,2.21.11.76.71,1.55,1.45,2.36,2.21h1.99c1.72,1.53,3.34,2.97,4.96,4.4,2.17-.6,2.91,1.78,4.59,2.2.67.17,1.36.27,2.04.4,1.3,1.3,2.59,2.59,3.89,3.89.72.04,1.43.08,2.22.13.75.7,1.54,1.44,2.35,2.2,1.06,0,2.16,0,5.23,1.33-.26-.48-.55-1.07-1-1.29-.92-.45-1.38,0-.93.93.22.45.81.74,1.29,1,.08.04.68-.55-1.33-1.96.26-.84-.16-1.31-.75-1.9-13-12.94-25.96-25.92-38.95-38.87-.48-.48-1.14-.76-1.62-1.07-1.52-.08-2.93-.15-4.04-.21-.8-.8-1.32-1.32-1.85-1.85-2,.19-3.39-.83-4.56-2.37h-4.32c-.82-.77-1.62-1.51-2.43-2.27h-2.1c-.84-.77-1.63-1.5-2.37-2.18-.81-.06-1.52-.11-2.23-.16-.52-.52-.95-1.2-1.57-1.53-1.5-.8-3.53-.54-4.55-2.35-.13-.23-.6-.33-.92-.37-1.41-.17-3.01.5-4.2-.46-1.13-.91-2.03-1.81-3.69-1.87-.85-.03-1.66-1.23-2.59-1.98-.57-.03-1.29-.07-2.08-.12-.75-.7-1.54-1.44-2.35-2.2-1.06,0-2.17,0-4.24-.02Zm261,69.72c-.26-.48-.55-1.07-1-1.29-.92-.45-1.38,0-.93.93.22.45.81.74,1.29,1,.08.04.68-.55-1.33-1.96v-3.26c-.76-.81-1.5-1.6-2.16-2.3v-8.74c.79-.89,1.51-1.68,2.26-2.53v-4.1c.84-.99,1.52-1.8,2.06-2.43.36-1.95-.74-3.95,1.12-5.28.77.71,1.54,1.41,2.31,2.11,1.08-1.08,2.12-2.12,3.2-3.2-1.49-2.3-4.07-.35-4.94-.91-1.65-1.3-2.47-1.94-2.19-1.72-3.33-1.24-5.56-.11-7.61-1.16-.53-.53-1.05-1.05-1.67-1.67h-6.42c-.84-.75-1.64-1.47-2.52-2.26h-6.44c-.81-.76-1.6-1.5-2.4-2.25h-6.53c-.81-.76-1.6-1.5-2.41-2.26h-6.43c-.9-.8-1.7-1.51-2.55-2.26h-4.2q-2.88-2.65-5.42-.98v3.3c-.37,0-.86.15-1.08-.03-.84-.68-1.59-1.47-2.33-2.17-.8-.05-1.52-.1-1.87-.12-10.84-10.84-21.48-21.48-32.22-32.22-.03-.54-.07-1.26-.11-1.98-6.5-6.5-13.01-12.98-19.45-19.53-.39-.4-.2-1.36-.24-1.68-4.61-4.61-9-9-12.98-12.98-.15-1.46-.23-2.17-.31-2.94-2.62-3.41-6.27-5.95-8.79-9.34-.13-.86-.23-1.55-.34-2.24-2.08-2.08-4.16-4.16-6.27-6.27v-2.45c-1.71-1.63-3.48-3.51-5.45-5.14-1.29-1.07-1.03-2.54-1.49-3.76-2.12-2.12-4.2-4.2-6.3-6.3v-2.81c-1.37-1.07-3.09-2.41-4.36-3.41-.15-1.43-.22-2.14-.29-2.84-1.3-1.3-2.6-2.6-3.9-3.9-.26-.99-.52-1.99-.78-2.98-1.3-1.3-2.6-2.6-3.91-3.91v-2.3c-1.26-1.23-2.53-2.56-3.9-3.78-1.64-1.45-2.99-3.02-3.11-5.34-1.79-.99-1.71-2.95-2.2-4.41-1.43-1.43-2.73-2.73-4.04-4.04v-3.35c-1.14-.78-2.97-2.02-4.33-2.95-.17-1.38,0-2.42-.39-2.72-1.56-1.2-1.96-2.86-2.2-4.51-1.4-1.4-2.7-2.7-3.99-3.99-.04-.72-.08-1.44-.13-2.22-1.46-1.53-2.96-3.11-4.4-4.62-.05-.81-.1-1.53-.15-2.24-2.8-1.08-1.19-4.97-3.9-6.1-.26-1-.51-1.99-.77-2.97-1.31-1.31-2.61-2.61-3.91-3.91-.04-.72-.07-1.44-.11-2.28-2.22-2.25-4.51-4.56-6.55-6.62-.16-1.13-.26-1.83-.36-2.52-2.08-2.08-4.16-4.16-6.28-6.28v-2.1c-2.29-2.38-4.55-4.72-6.61-6.85-.16-1.05-.26-1.74-.47-3.1-3.24-3.24-6.86-6.86-10.65-10.64-.04-.4.16-1.35-.22-1.77-1.7-1.9-3.56-3.65-5.25-5.34-.93-.06-1.65-.11-2.85-.19-4.14-4.14-8.54-8.54-13.08-13.08-.47-.04-1.34.15-1.86-.19-1.15-.78-1.83-2.09-3.6-2.05-1.77.04-2.43-2.74-4.6-2.14-.85-.63-1.7-1.26-2.98-2.21-3.88,0-8.27-.04-12.65.06-.48.01-.95.89-1.3,1.25v4.33c1.12,1.12,2.31,1.96,2.12,3.7-.11,1.03.11,2.11.17,2.99.69.69,1.21,1.21,1.86,1.86v3.98c.57.74.9,1.42,1.44,1.83,1.06.8.88,1.89.91,3.03.7.75,1.43,1.55,2.2,2.37v4.32c.76.82,1.5,1.61,2.21,2.37.04.78.08,1.5.12,2.14.75.85,1.46,1.66,2.22,2.52v4.18c.39.39.63.67.91.9,1.69,1.4.92,4.22,3.1,5.36.2.11.31.65.26.96-.27,1.78,1.19,2.5,2.1,3.56.04.71.09,1.43.13,2.22.7.75,1.44,1.54,2.2,2.36v4.32c.76.82,1.5,1.61,2.2,2.36.05.8.1,1.51.14,2.23.52.52,1.22.95,1.52,1.58.43.92.33,2.13.88,2.93.8,1.15,1.89,1.94,1.97,3.64.08,1.67,2.72,2.43,2.12,4.6.68.83,1.35,1.66,2.1,2.58.03.58.07,1.3.11,2.08.71.76,1.45,1.55,2.21,2.37v2.1c.77.83,1.5,1.63,2.19,2.38.02,1.15-.2,2.31.94,3,1.44.88.91,2.62,1.62,3.73.75,1.18,1.97,1.93,1.92,3.66-.04,1.45,2.26,1.88,2.11,3.49-.17,1.8,1.26,2.47,2.19,3.61v2.07c1.53,1.61,3.03,3.18,4.46,4.69,0,.49.03.86,0,1.23-.07.77.27,1.33.95,1.82,1.83,1.3.9,4.23,3.12,5.32.26.99.52,1.99.78,2.98,1.3,1.3,2.6,2.6,3.94,3.94v2.1c.77.84,1.51,1.64,2.27,2.47v2.12c1.33,1.33,2.63,2.63,4.04,4.04.39,1.54.61,3.25,2.16,4.51.64.52.58,1.91.84,2.91,1.3,1.3,2.6,2.6,3.93,3.93v2.13c1.53,1.6,3.02,3.17,4.42,4.63.09.89.16,1.6.23,2.3,1.3,1.3,2.6,2.6,3.94,3.94.39,1.26.16,2.75,1.5,3.76,1.16.88,2.1,2.05,3.16,3.1v3.17c1.22.87,3.01,2.14,4.35,3.1.15,1.39.23,2.1.3,2.8,1.3,1.3,2.6,2.6,3.9,3.9.09.7.19,1.39.34,2.52,2.04,2.06,4.34,4.37,6.55,6.6.05.87.08,1.59.12,2.31q3.21,3.24,4.68,6.89c2.07,2.07,4.15,4.15,6.23,6.23,0,.73,0,1.47,0,2.2,3.64,3.64,7.28,7.28,10.92,10.91.04.72.07,1.44.1,1.99,3.72,3.71,7.34,7.34,10.77,10.77.11,1.06.19,1.76.23,2.11,5.37,5.37,10.55,10.55,15.44,15.44v2.64c13.6,13.59,27.1,27.1,40.88,40.88.88.34,2.31.12,3.43,1.35,2.73,2.98,5.76,5.68,8.49,8.65,1.12,1.22,2.54,1.03,3.77,1.48,2.12,2.12,4.2,4.2,6.3,6.3h2.39c1.68,1.74,3.57,3.49,5.2,5.46,1.07,1.29,2.56.98,3.77,1.49,2.12,2.12,4.2,4.2,6.29,6.29h3.21c.85,1.21,2.12,3,3.07,4.35,1.39.15,2.09.23,2.8.31,1.3,1.3,2.6,2.6,3.9,3.9,1.91,0,3.45.73,4.53,2.33.72.05,1.43.1,2.24.15.75.69,1.54,1.43,2.37,2.19h2.11c.82.76,1.61,1.5,2.43,2.27h19.65c.92.8,1.72,1.51,2.3,2.02h22.17c1.07-1.9,2.86-2.15,4.6-2.45,1.7-1.89,3.81-3.38,5.14-5.58-.12-2.18.28-4.37-.32-6.5-.26-.26-.51-.53-.78-.78-1.59-1.45-.93-4.21-3.1-5.36-.19-.1-.23-.66-.2-.99.25-2.83-2.04-2.29-3.56-2.71-2.11-2.11-4.19-4.19-6.27-6.27-.72-.04-1.44-.08-2.21-.12-1.54-1.47-3.11-2.96-4.62-4.4-.83-.06-1.54-.11-2.25-.16-2.86-2.86-5.72-5.72-8.58-8.58-.72-.03-1.44-.06-2.02-.09-2.92-2.92-5.77-5.77-8.59-8.59-1.47-.28-2.84-.24-3.96-1.42-3.54-3.73-7.25-7.3-10.86-10.97-.18-.19-.02-.71-.02-1.08h3.31c3.53,3.57,7.09,7.17,10.54,10.66,1.4.55,2.82.29,3.92,1.52,2.4,2.69,5.03,5.19,7.47,7.67,1.26,0,2.35,0,5.39,1.33Zm-75.73-142.51c.29.1.89.12.94,0,.28-.71,0-1.24-.56-1.71-.52-.45-.97-.38-1.38.44-.07.15.12.49.28.67.2.24.45.5,1.7.62,0,.37-.16.88.03,1.08,1.49,1.58,3.04,3.09,4.33,4.38.14,1.13.23,1.83.32,2.52,13.52,13.52,27.03,27.03,40.54,40.54h2.21c2.08,2.08,4.16,4.16,6.33,6.33,1.66.21,3.37.6,4.48,2.23.14.21.64.18.97.26h3.45c.72.64,1.53,1.34,2.44,2.15h4.22c.82.77,1.62,1.51,2.43,2.27h2.11c.83.77,1.62,1.5,2.46,2.27h4.17c.94.82,1.75,1.51,2.63,2.27h3.99c1.07.87,1.89,1.53,2.53,2.04,2.44.17,4.63-.34,6.73.43.52.52,1.04,1.04,1.68,1.68h4.2c.86.76,1.66,1.47,2.56,2.27h4.22c.83.77,1.62,1.51,2.44,2.27h6.51c.84.77,1.64,1.5,2.3,2.11h6.3c2.14-1.98,4.02-3.72,5.77-5.33.05-.97.08-1.69.11-2.32.69-.81,1.34-1.57,1.61-1.89-1.76-2.13-3.39-4.1-4.78-5.77-1.21-.1-1.92-.16-2.87-.24-3.47-3.54-7.06-7.21-10.65-10.86h-2.83c-4.9-4.9-10.08-10.08-15.52-15.51h-3.66c-1.01-.84-1.82-1.52-2.49-2.08-2.39-.14-4.58.29-6.7-.37-.52-.52-1.04-1.04-1.6-1.6-1.69-.2-3.43-.4-5-.59-.67-.67-1.19-1.19-1.79-1.79h-4.26c-.84-.77-1.63-1.5-2.47-2.27h-2.1c-.82-.76-1.61-1.5-2.44-2.27h-4.22c-.9-.8-1.7-1.51-2.56-2.27h-4.21c-1.12-1.12-2.01-2.04-3.69-2.21-1.22-.13-2.31-1.4-2.62-1.6-2.27-.84-3.79.06-5.09-.98-.52-.52-1.04-1.04-1.63-1.63h-4.28c-.83-.77-1.63-1.51-2.45-2.27h-2.11c-.82-.76-1.61-1.5-2.37-2.21-.78-.04-1.5-.08-2.14-.12-.85-.75-1.66-1.46-2.52-2.22h-4.19c-.38-.38-.67-.63-.9-.91-1.4-1.69-4.22-.92-5.36-3.1-.11-.2-.65-.31-.96-.26-1.78.27-2.5-1.18-3.64-2.16h-4.27c-.83-.77-1.62-1.51-2.43-2.27-1.06,0-2.16,0-4.24-.02Zm31.86,180.88c-.22.78-.03,1.44.68,1.75.58.25,1.23.35,1.87.44.7.1,1.44-.2,1.6-.92.07-.33-.63-1.13-1.08-1.22-.99-.19-2.04-.06-2.85-.06-.4-2.05-2.3-2.82-3.3-4.22-.75-.07-1.46-.13-2.31-.2-1.49-1.41-3.06-2.91-4.67-4.44h-2.09c-1.66-1.48-2.9-3.32-4.86-4.37-.69-.11-1.38-.23-2.06-.34-2.08-2.08-4.16-4.16-6.25-6.25h-2.22c-2.82-2.86-5.65-5.74-8.41-8.54-.83-.11-1.53-.21-2.22-.3-.3-.16-.66-.27-.89-.5-3.39-3.37-6.76-6.75-10.14-10.13-.99-.26-1.99-.52-2.56-.67-13.77-13.77-27.27-27.27-40.86-40.86-.03-.55-.07-1.27-.1-1.99-5.46-5.46-10.86-10.97-16.41-16.33-1.2-1.15-.85-2.61-1.48-3.77-3.42-3.42-6.8-6.79-10.16-10.18-.23-.23-.34-.59-.51-.89-.09-.7-.19-1.39-.3-2.21-2.81-2.77-5.68-5.61-8.54-8.43v-2.22c-2.1-2.1-4.17-4.17-6.29-6.29-.51-1.21-.2-2.69-1.49-3.77-1.97-1.63-3.72-3.53-5.46-5.21v-2.39c-1.85-2.14-4.65-3.59-4.7-6.91-2.08-2.08-4.16-4.16-6.27-6.27v-2.11c-1.53-1.61-3.02-3.18-4.43-4.66-.08-.87-.15-1.57-.22-2.28-1.3-1.3-2.6-2.6-3.9-3.9-.26-.99-.52-1.99-.78-2.98-1.3-1.3-2.6-2.6-3.92-3.92v-2.14c-.76-.82-1.49-1.62-2.27-2.47v-2.08c-1.34-1.34-2.64-2.64-4.23-4.23.2-1.58-.65-2.99-1.99-4.32-.63-.62-.58-1.93-.84-2.92-1.3-1.3-2.6-2.6-3.91-3.91v-2.15c-.76-.82-1.5-1.61-2.22-2.38-.04-.76-.07-1.48-.1-2.2-1.3-1.3-2.6-2.6-3.94-3.94-.68-1.14-.04-2.85-1.52-3.73-1.71-1.02-.54-3.45-2.31-4.59-1.21-.78-2.11-2.03-3.16-3.08v-2.15c-.76-.82-1.5-1.61-2.21-2.37-.04-.78-.08-1.5-.12-2.22-.52-.52-1.04-1.04-1.56-1.56-.85-.84-.19-2.15-.81-2.96-.86-1.12-1.95-1.91-2.01-3.62-.06-1.69-2.72-2.43-2.12-4.6-.67-.83-1.34-1.67-2.08-2.6-.03-.56-.08-1.28-.13-2.07-.7-.75-1.44-1.54-2.2-2.36v-2.12c-.76-.82-1.5-1.61-2.2-2.36-.05-.79-.09-1.51-.14-2.23-.52-.52-1.22-.95-1.52-1.58-.43-.92-.33-2.13-.88-2.93-.8-1.15-1.9-1.94-1.97-3.64-.08-1.67-2.72-2.43-2.12-4.6-.67-.83-1.35-1.66-2.1-2.58-.03-.58-.07-1.3-.11-2.08-.71-.76-1.45-1.55-2.21-2.37v-2.11c-.77-.83-1.5-1.62-2.19-2.37-.06-.8-.1-1.52-.17-2.48-1.9-.68-2.07-2.51-2.12-2.97-2.26-2.86-3.85-4.87-5.14-6.49-1.32-.14-2.02-.21-2.73-.29-1.3-1.3-2.6-2.6-3.9-3.9-.69-.1-1.39-.19-2.56-.36-1.25-1.25-2.78-2.78-4.33-4.33h-3.22c-.84-1.2-2.11-3-3.06-4.34-1.39-.16-2.09-.24-2.79-.32-2.08-2.08-4.16-4.16-6.24-6.24-.72-.05-1.43-.09-2.24-.15-1.52-1.44-3.09-2.94-4.63-4.41-.78.04-1.5.09-1.82.1-2.1,1.94-3.98,3.68-5.82,5.38v2c-2.01,2.9-5.04,4.54-6.5,7.14-.3,1.6.27,2.5,1.17,3.16,1.06.78.95,1.85.95,3.02.68.75,1.41,1.54,2.18,2.4v4.28c.76.82,1.5,1.62,2.27,2.47v4.54c1.83.79,2.33,2.45,2.33,4.17.79.94,1.47,1.75,2.14,2.56-.24,2.29-.45,4.51,1.81,5.92.24,1.79.63,3.51,2.42,4.52v4.36c.77.84,1.5,1.63,2.27,2.48v2.1c.76.81,1.5,1.61,2.22,2.38.03.75.07,1.48.1,2.2,1.8,1.83,1.93,2.21,2.31,4.4.76.91,1.44,1.73,1.83,2.2.21,1.86.37,3.28.54,4.69,2.57,1.22,1.22,4.91,3.86,6.18.32.15.14,1.35.2,2.16.69.74,1.42,1.54,2.19,2.37v2.1c.76.82,1.5,1.61,2.21,2.37.04.78.08,1.5.11,2.22.52.52,1.04,1.04,1.56,1.56.85.84.2,2.15.81,2.96.86,1.12,1.96,1.9,2.01,3.62.05,1.69,2.73,2.43,2.12,4.6.67.84,1.33,1.67,2.08,2.61.04.56.08,1.27.13,2.07.7.75,1.43,1.54,2.2,2.36v2.12c.76.82,1.5,1.61,2.2,2.36.05.79.09,1.51.14,2.47,1.86.71,2.14,2.48,2.27,4.25,1.35,1.35,2.65,2.65,4.17,4.17-.54,1.87.73,3.13,2.12,4.29.04.75.08,1.47.13,2.26.7.75,1.44,1.55,2.21,2.36v1.99c1.53,1.72,2.97,3.34,4.41,4.97-.6,2.17,1.79,2.91,2.2,4.6.16.67.27,1.36.41,2.03,1.3,1.3,2.6,2.6,3.9,3.9.04.72.07,1.44.11,2.2,1.47,1.55,2.97,3.12,4.4,4.62.06.84.12,1.55.17,2.27,1.63,1.07,2.3,2.65,2.33,4.53,1.31,1.31,2.61,2.61,3.91,3.9.07.7.15,1.41.26,2.46,2.11,2.11,4.41,4.41,6.56,6.57.08.98.14,1.69.2,2.4l4.07,4.07c.2,1.14.07,2.6,1.36,3.62,1.15.9,2.1,2.05,3.18,3.12v2.47c1.71,1.62,3.48,3.49,5.45,5.12,1.29,1.06,1.04,2.53,1.63,4.14,2.67,2.6,5.56,5.41,8.44,8.21v2.19c3.68,3.68,7.32,7.31,10.97,10.97v1.61c12.48,12.48,24.67,24.67,37.04,37.03.38.04,1.09.11,2.09.21,3.46,3.47,7.09,7.1,10.81,10.84h1.96c2.13,2.13,4.19,4.21,6.3,6.27.22.21.64.21.97.3,1.1,0,2.21,0,3.31,0,.56.42,1.24.75,1.65,1.29.8,1.06,1.88.89,3.03.91.75.69,1.54,1.43,2.38,2.19h2.1c.82.76,1.61,1.5,2.37,2.21.78.04,1.5.08,2.13.11.85.75,1.65,1.46,2.52,2.22h4.21c1.11,1.13,1.98,2.15,3.7,2.19.87.02,1.73,1.11,2.94,1.97h3.87c.87.76,1.68,1.46,2.54,2.21.62.04,1.34.09,2.14.14.75.69,1.54,1.43,2.36,2.2h4.32c.82.76,1.61,1.5,2.43,2.27h6.41c.92.81,1.72,1.51,2.59,2.27h4.03c1.05.86,1.86,1.53,2.45,2.01,1.75.08,3.17.15,4.33.2.77.77,1.29,1.29,1.92,1.92.95.05,2.02.05,3.09.16,1.4.14,2.9-.47,4.16.47.56.56,1.08,1.08,1.66,1.66h8.7c.82.77,1.62,1.51,2.43,2.27h9.88Zm-39.7-113.59v2c7.1,7.1,14.1,14.11,21.19,21.19h6.35c.87.78,1.67,1.51,2.51,2.27h6.32c.98.83,1.79,1.52,2.48,2.1,2.37.12,4.55-.26,6.69.33.52.52,1.04,1.04,1.64,1.64,1.65.18,3.38.38,4.97.56.66.66,1.18,1.18,1.8,1.8h6.43c.85.76,1.65,1.48,2.53,2.27h6.42c.84.78,1.64,1.51,2.46,2.27h6.5c.85.77,1.64,1.5,2.48,2.27h6.36c.96.82,1.76,1.52,2.48,2.13,2.33-.11,4.51.24,6.65-.3,1.3-1.3,2.6-2.6,3.89-3.9.7-.08,1.41-.15,2.47-.27,1.59-1.59,3.44-3.33,5.14-5.22.39-.43.45-1.4.29-2.03-.28-1.13-1.12-1.73-2.39-1.55-.33.05-.69-.09-1.03-.14-2.08-2.08-4.15-4.15-6.23-6.23-.7-.08-1.41-.15-2.47-.27-1.33-1.33-2.84-2.9-4.41-4.39-1.57-1.49-2.88-3.26-4.76-4.38-.72-.1-1.41-.2-2.65-.37-3.31-3.31-6.93-6.93-10.68-10.68-.46-.04-1.17-.09-1.88-.15-4.93-4.93-9.86-9.87-14.81-14.79-.23-.23-.59-.33-.89-.49-.69-.1-1.39-.2-1.67-.24-14.5-14.5-28.77-28.77-43.13-43.13-.03-.53-.07-1.25-.11-1.97-5.45-5.45-10.9-10.9-16.39-16.39h-2.11c-.83-.77-1.63-1.5-2.46-2.27h-1.93c-1.35-.81-1.91-2.45-3.73-2.2-1.27.17-1.76-1.08-2.58-1.72-1.11-.86-2.92-.04-3.76-1.56-.84-1.51-2.63-.75-3.72-1.52-1.34-1.34-2.64-2.64-3.97-3.97h-2.11c-.83-.77-1.63-1.5-2.46-2.27h-2.12c-1.33-1.33-2.63-2.63-4.23-4.23-1.52.14-2.98-.6-4.3-1.97-.61-.63-1.92-.58-2.92-.84-1.3-1.3-2.6-2.6-3.93-3.93h-2.1c-.83-.77-1.63-1.51-2.46-2.27h-2.06c-.86-.78-1.66-1.51-2.5-2.27h-4.55c-.68-2.07-2.59-2.07-4.26-2.37-1.36-1.36-2.66-2.66-4.06-4.06h-4.28c-1.58-1.52-3.15-3.02-4.74-4.54h-2.07c-.86-.78-1.65-1.5-2.38-2.17-.82-.07-1.53-.13-2.24-.19-.52-.52-.97-1.14-1.57-1.54-1.39-.92-2.67-.65-3.76.6v2.86c1.34,1.05,3.06,2.4,4.32,3.39.16,1.42.24,2.13.33,2.83,1.3,1.3,2.6,2.6,3.89,3.89.26.99.52,1.99.78,2.99,1.29,1.29,2.59,2.59,3.9,3.9v2.84c1.35,1.06,3.07,2.41,4.33,3.4.16,1.42.24,2.13.33,2.83,1.3,1.3,2.6,2.6,3.9,3.89.09.7.18,1.39.27,2.09,1.15,1.88,2.94,3.19,4.4,4.8v2.2c1.81,1.81,3.52,3.75,5.48,5.4,1.28,1.09.91,2.59,1.48,3.77,2.12,2.11,4.19,4.19,6.27,6.27v2.21c1.81,1.81,3.52,3.75,5.48,5.4,1.29,1.09.9,2.59,1.83,4.46,2.41,2.31,5.31,5.1,8.13,7.82.05.86.09,1.58.15,2.67,4.21,4.2,8.61,8.6,13.11,13.1.03.54.07,1.26.11,1.97,7.27,7.27,14.54,14.54,21.81,21.81.04.72-.09,1.51.17,2.13.45,1.1,1.47,1.3,2.62,1.36.6.03,1.17.68,1.75,1.04Zm-147.83-4.45c-2.06-2.07-4.36-4.37-6.55-6.58-.06-.91-.1-1.62-.14-2.34-1.3-1.3-2.6-2.6-3.9-3.9-.26-.99-.52-1.99-.78-2.98-1.3-1.3-2.6-2.6-3.9-3.9-.04-.72-.08-1.44-.12-2.22-1.46-1.54-2.96-3.11-4.4-4.62-.06-.82-.1-1.53-.15-2.25-1.3-1.3-2.6-2.6-3.9-3.9-.26-.99-.52-1.99-.78-2.98-1.3-1.3-2.6-2.6-3.9-3.9-.03-.72-.07-1.44-.11-2.21-.71-.77-1.46-1.56-2.22-2.37v-2.15c-.53-.53-1.03-1.07-1.58-1.57-1.59-1.46-3.17-2.91-3.11-5.33-2.63-1.19-1.25-4.88-3.86-6.18-.34-.17-.19-1.33-.25-1.92-1.64-1.55-3.22-3.04-4.44-4.2v-2.85c-.86-1.15-2.44-1.75-2.2-3.56.17-1.29-1.06-1.78-1.71-2.59-.89-1.1-.04-2.92-1.56-3.76-1.51-.84-.79-2.61-1.52-3.72-1.34-1.34-2.64-2.64-3.97-3.97v-4.3c-1.53-1.61-3.02-3.18-4.54-4.78v-4.26c-1.49-1.74-3.44-2.89-4.29-4.9-.21-1.47.38-2.96-.45-4.27-.54-.54-1.06-1.06-1.58-1.58-.07-.71-.13-1.41-.21-2.25-.65-.72-1.37-1.52-2.16-2.4v-2.04c-.77-.83-1.51-1.63-2.27-2.46v-2.01c-.78-.91-2.02-1.71-2.06-2.56-.08-1.64-.87-2.59-1.81-3.73-.59-.72-.58-1.94-.9-3.15-2.75-2.09-4.74-5.27-7.63-7.13-.95-.19-1.63-.32-2.31-.45-4.94-4.94-9.87-9.87-14.81-14.81-.7-.08-1.41-.15-2.48-.27-2.63-2.63-5.46-5.47-8.3-8.29-.48-.48-1.03-.25-1.57.61v2.21c-2.86,2.83-5.73,5.67-8.53,8.44-.29,1.11-.55,2.1-.81,3.1-1.29,1.29-2.59,2.59-3.9,3.9v3.3c-1.17.81-2.98,2.06-4.62,3.2,1.08,2.57-1.58,3.2-1.63,4.9.53.53,1.05,1.05,1.7,1.7v6.38c.76.87,1.46,1.67,2.21,2.53.04.63.08,1.34.13,2.14.7.75,1.44,1.54,2.2,2.36v6.53c.76.81,1.5,1.61,2.2,2.36.05.79.09,1.51.13,2.14.75.86,1.45,1.66,2.21,2.53v4.02c.86,1.05,1.53,1.87,2.07,2.53.06,2.39-.49,4.72,1.95,6.06.12,1.85.69,3.48,2.4,4.51v4.39c.77.82,1.51,1.62,2.27,2.43v2.12c.76.82,1.5,1.61,2.27,2.44v4.28c1.37,1.37,2.67,2.67,3.97,3.97.26.99.52,1.99.78,2.98,5.72,5.72,11.43,11.43,17.15,17.15.03.72.06,1.44.09,2.02,9.94,9.94,19.8,19.8,29.84,29.84.38.05,1.08.13,1.37.17,3.84,3.84,7.45,7.45,10.45,10.45,1.98.52,2.97.77,3.97,1.03,1.3,1.3,2.6,2.6,3.9,3.9.72.04,1.44.07,2.21.11.76.71,1.55,1.45,2.37,2.21h2.1c.83.77,1.63,1.5,2.46,2.27h4.27c.6.6,1.09,1.14,1.64,1.63,1.07.95,2.87.06,3.78,1.55.62,1.02,1.68,1.11,2.81,1.19,1.47.1,1.89,2.28,3.5,2.13,1.8-.16,2.47,1.26,3.55,2.14.71.03,1.43.07,2.18.1.77.72,1.57,1.46,2.38,2.22h2.1c.84.77,1.64,1.5,2.47,2.27,1.45,0,3.07-.39,4.21.1,1.32.58,1.94,2.12,3.7,2.08,1.76-.04,2.4,2.51,4.61,2.23,1.4-.18,1.86,2.09,3.48,2.13,1.08.03,1.98-.13,2.28-1.35-1.3-1.3-2.6-2.6-3.9-3.89-.09-.7-.19-1.39-.34-2.52-2.05-2.06-4.34-4.37-6.55-6.59-.05-.88-.09-1.6-.13-2.31-2.08-2.08-4.16-4.16-6.24-6.23-.09-.7-.18-1.4-.32-2.51ZM88.21,94.18c-8.9-8.9-17.69-17.68-26.17-26.17-.13-1.26-.21-1.96-.25-2.35-2.75-2.73-5.32-5.29-8.04-7.99-1.21.54-.95,1.85-.61,3.01.79.96,1.45,1.78,1.97,2.41.23,3.16-.34,6.07.24,8.55.88,1.14,1.52,1.96,1.97,2.54.21,2.5-.39,4.69.51,6.76.52.52,1.04,1.04,1.64,1.64v6.45c.76.83,1.48,1.63,2.26,2.49v6.44c.77.83,1.5,1.62,2.25,2.43v6.5c.77.83,1.5,1.63,2.26,2.45v4.32c2.59.93,1.38,4.01,3.29,5.42,1.72-1.84,3.46-3.69,5.34-5.7.03-.42.07-1.13.13-2.05,2.18-2.19,4.47-4.48,6.56-6.58.12-1.07.19-1.77.27-2.47,2.07-2.07,4.14-4.14,6.22-6.22.06-.71.11-1.42.15-1.9Zm56.3-50.11c-.81.76-1.61,1.5-2.36,2.2-.79.05-1.51.09-2.23.13-1.04,1.04-2.08,2.08-3.15,3.15v2.11c-.77.83-1.5,1.63-2.27,2.46v2.11c-1.07,1.07-2.11,2.11-3.2,3.2-.77-.7-1.54-1.4-2.48-2.26-.38,1-.74,1.96-1.04,2.75.71,1.61,1.97,2.41,2.93,3.47.22.24.56.44.88.51.69.14,1.39.19,2.09.28,2.08,2.08,4.15,4.15,6.23,6.23.72.04,1.43.08,2.22.13,1.53,1.46,3.1,2.95,4.62,4.4.81.05,1.52.1,2.24.14,1.3,1.3,2.6,2.6,3.89,3.89.99.26,1.99.52,2.98.78,1.3,1.3,2.6,2.6,3.89,3.89,1.29-1.47,1.59-2.46.87-3.51-.59-.86-1.33-1.61-1.85-2.23,0-1.41,0-2.51,0-3.61-.5-1.65-3.03-2.32-2.18-4.66-.7-.77-1.43-1.57-2.21-2.43v-4.26c-.76-.83-1.5-1.62-2.27-2.46v-4.24c-.79-.87-1.51-1.67-2.16-2.39-.08-.83.07-1.66-.26-2.22-.53-.9-1.36-1.62-1.91-2.24-.35-1.96.75-3.96-1.15-5.31h-2.16Zm331.06,267.12c.6.6,1.11,1.11,1.64,1.64,2.11.6,4.28.27,6.43.26.51,0,1.01-.74,1.74-1.32-1.12-.37-2.08-.69-3.89-1.28-1.67-1.66-3.97-3.95-6.17-6.15-.89-.05-1.6-.08-2.32-.12-2.07-2.07-4.13-4.15-6.22-6.19-.22-.21-.63-.22-1-.33-1.36.2-2.84-.4-4.14.45-1.31,1.31-2.61,2.61-3.94,3.94h-2.32c-.89,1.01-1.85,2.09-2.87,3.24.24.3.69,1.19.94,1.14,2.19-.47,3.08,1.5,4.75,2.39h6.2c.64.64,1.15,1.15,2.04,2.04,2.79.35,6.05-.35,9.12.3Zm-2.41-73.03c-.81-.76-1.61-1.5-2.37-2.21-.78.05-1.51.02-2.21.17-.3.06-.53.49-.98.94,2.52,2.53,5.02,5.11,7.63,7.55.4.38,1.39.13,1.94.16,3.71,3.72,7.33,7.34,10.67,10.7,2.81.54,3.24.69,5,2.42.41-.48,1.14-.95,1.17-1.45.06-1.42.34-2.88-.25-4.26-3.9-3.9-7.8-7.8-11.75-11.75h-4.29c-.82-.77-1.61-1.51-2.43-2.27h-2.12Zm-158.85,125.72h2.16c.81.76,1.61,1.5,2.37,2.21,2.5-.37,5.15.97,7.41-.91-.43-.44-.82-1.19-1.29-1.24-1.41-.16-2.86-.06-4.18-.06-1.28-2.91-5.03-1.51-6.24-4.13-.09-.2-.63-.23-.96-.27-1.08-.12-1.99.11-2.38,1.29,1.03,1.03,2.07,2.07,3.11,3.11Zm15.81,4.04c.25-.25.74-.63.7-.71-.42-.77-.96-1.03-1.42-.74-.29.18-.75.62-.7.7.42.77.94,1,1.43.76Zm-21.69-9.19c.25-.49.02-1.01-.76-1.43-.09-.05-.52.42-.7.7-.29.46-.03,1,.74,1.42.09.05.47-.45.71-.7Z"/><path d="m20.11,438.88c-.12-1.78-.25-2.84-.25-3.89,0-143.71,0-287.42,0-431.13,0-1.05.19-2.11.39-3.15.05-.27.53-.68.74-.64.3.06.75.46.76.73.14,3.64.3,7.27.3,10.91.01,140.4.01,280.81.01,421.49.83.9,1.8,1.95,2.73,2.95.74.18,1.4.5,2.07.5,13.97.03,27.93.02,41.9.02h5.13c.79-.79,1.31-1.31,2.07-2.07,1.17-.05,2.59-.12,4.18-.19.75.62,1.56,1.29,2.6,2.14h41.82c.59-.52,1.39-1.23,2.3-2.03h8.75c.7.66,1.5,1.4,2.29,2.14h2.13c.83-.77,1.63-1.5,2.3-2.12h24.29c.6.6,1.12,1.12,1.64,1.64,2.44.91,4.92.6,7.4.21.52-.52,1.04-1.04,1.56-1.56.26.02.6-.06.76.07.56.47,1.05,1.02,1.69,1.66h304.42c.59-.52,1.4-1.22,2.39-2.09,20.35,0,40.91,0,61.48,0,.73,0,1.55,1.51,1.25,2.66-.17.63-.66,1.63-1.08,1.67-1.82.19-3.67.08-5.51.08H20.11Z"/><path d="m314.27,458.73c.81-.76,1.61-1.5,2.3-2.14h4.34c.92.81,1.73,1.51,2.59,2.27h4.18c.39.39.65.65.91.91-.53.39-1.02,1.02-1.6,1.12-1.07.18-2.2.05-3.54.05-.67.55-1.49,1.22-2.4,1.97-.55.07-1.25.15-2.08.25-.74-.65-1.54-1.35-2.54-2.22-9.31,0-18.85.03-28.39-.05-.79,0-1.17-.84-.94-1.37.14-.31.5-.75.76-.76,8.82-.04,17.64-.03,26.42-.03Z"/><path d="m0,446.53c1-.98,1.97-2.1,3.12-2.97.48-.36,1.37-.2,2.07-.27,2.09,1.43,3.78,3.08,4.03,5.84.05.56,1.1.96,1.45,1.58.54.94.59,2.01-.11,2.95-.62.83-1.81,1.3-1.74,2.57.09,1.82-.76,2.59-2.54,2.51-1.06-.05-2.13,0-2.93,0-1.29-1.27-2.34-2.29-3.36-3.29v-8.91Zm2.21,2.27v4.71c.59.51,1.47,1.14,2.18,1.92.62.69,1.04.99,1.54.66.68-.44.76-1.05.71-1.87-.1-1.79-.03-3.58-.03-5.38q-2.15-1.6-4.41-.05Z"/><path d="m202.92,3.33c-.73-.8-1.43-1.57-2.13-2.33.32-.32.57-.79.84-.8,2.91-.12,5.83-.23,8.74-.18.78.01,1.28.78,1.09,1.3-.3.8-1,1.03-1.83.87-.35-.07-.73-.01-1.1-.01-.4.55-1.03,1.06-1.14,1.67-.19,1.07-.05,2.19-.05,3.54-.55.67-1.22,1.49-2.07,2.52-.04.8-.09,1.86-.14,2.93-.1,2.18-1.59,3.24-3.49,2.35-1.21-.57-.88-1.85-.92-2.97.71-.76,1.45-1.55,2.21-2.37V3.33Z"/><path d="m355.12,402.54c-.73-.8-1.43-1.57-2.15-2.36,2.66-1.23,6.24-1.37,10.44-.39.14.03.18.49.27.75-1.3,1.3-2.6,2.6-4.02,4.02v4.18c-.76.87-1.46,1.67-2.21,2.53-.04.63.05,1.39-.15,2.06-.26.83-.86,1.18-1.39.94-.31-.14-.75-.5-.75-.76-.05-3.67-.03-7.35-.03-10.97Z"/><path d="m211.75,12.07c1.02-.98,2.07-2,3.14-3.03,1.84.43.98,2.17,1.5,3.27.15.31.46.64.77.74.18.06.65-.28.74-.52.32-.97.5-1.99.82-2.96.1-.31.5-.72.75-.71.27.01.67.42.75.73.84,3.19-.02,6.37.36,8.94-1.27,1.71-2.39,1.21-3.66,1.21-.42-1.21-.84-2.49-1.33-3.75-.07-.19-.56-.41-.74-.33-.31.13-.7.45-.76.75-.14.69.02,1.47-.18,2.13-.25.83-.86,1.17-1.39.94-.31-.14-.74-.49-.75-.76-.06-2.19-.03-4.39-.03-6.65Z"/><path d="m169.84,15.41c0,.37.15.85-.03,1.07-.68.84-1.46,1.58-2.18,2.33-.08,2.95-.1,2.97-3.31,3.24-1.36,1.34-2.87,2.88-4.45,4.36-.19.18-.71.02-1.07.02v-3.26c.75-.8,1.49-1.59,2.25-2.4v-4.31q1.03-.94,3.2,1.09c.77-.7,1.54-1.41,2.33-2.14h3.25Z"/><path d="m270.31,469.64c-.4-.49-1.14-.97-1.16-1.47-.1-3.61-.05-7.22-.05-10.34.98-1.68,2.17-1.22,3.19-1.32.41.54,1.05,1.04,1.17,1.63.27,1.38.26,2.81.39,4.22.11,1.12,2.46.14,1.82,1.84-.23.62-.98,1.05-1.49,1.57-1.29,1.29-2.58,2.58-3.87,3.87Z"/><path d="m366.14,411.31c1.03-1.26,2.3-1.48,3.68-.71,1.22.68.54,1.93.82,3.04-.78.68-1.59,1.37-2.27,1.96v2.29c.74.8,1.43,1.55,2.1,2.28-.72,1.12-1.82,1.22-2.84,1-.56-.12-1.4-.8-1.42-1.27-.13-2.86-.07-5.73-.07-8.6Z"/><path d="m169.84,15.41c0-.34-.15-.82.02-1,1.14-1.22,2.15-2.59,3.62-3.41h5.18c.25,1.25-.6,2.2-1.51,2.12-2.05-.18-2.91,1.39-4.11,2.29h-3.2Z"/><path d="m388.2,408c-.25-1.25.54-1.86,1.53-2.19,1.89-.64,2.96-1.15,4.22-2.22h3.08c0,.34.15.82-.02,1-1.14,1.22-2.15,2.59-3.62,3.41h-5.18Z"/><path d="m275.71,463.36v-3.55c1.02-1,2.06-2.02,3.13-3.06,1.78.61,1.31,1.99,1.07,3.33-1.4.99-2.16,2.89-4.2,3.28Z"/><path d="m403.64,399.18c0,.34.14.8-.02.99-1.08,1.25-2.22,2.44-3.13,3.42h-3.47c0-.34-.14-.8.02-.99,1.08-1.25,2.22-2.44,3.13-3.42h3.47Z"/><path d="m388.2,408c.24.8.04,1.51-.72,1.8-2.35.9-4.78.07-6.91.49-.51-.51-1-.94-.97-.98.35-.47.77-1.23,1.2-1.25,2.46-.12,4.94-.06,7.41-.06Z"/><path d="m178.66,10.99c-.25-1.25.53-2.03,1.51-2.15,1.68-.2,3.4-.06,5.1-.06.25,1.25-.53,2.03-1.51,2.15-1.68.2-3.4.06-5.1.06Z"/><path d="m185.28,8.79c.45-2.2,1.13-2.6,3.49-1.99.29.07.58.43.7.72.07.16-.15.51-.33.7-.22.23-.51.53-.78.55-1.02.06-2.05.03-3.08.03Z"/><path d="m405.85,396.97c-.29,1.76-.45,1.92-2.21,2.21.29-1.76.45-1.92,2.21-2.21Z"/><path d="m379.38,295.51h3.31c6.98,6.98,13.97,13.97,20.93,20.98.18.18.02.71.02,1.08h-3.12c-5.85-5.85-11.64-11.64-17.23-17.23-1.51-.64-3.15-.06-3.92-1.68v-3.15Z"/><path d="m280.12,227.14v-3.26c-.75-.8-1.49-1.58-2.16-2.3v-2.12c.74-.85,1.4-1.6,2.02-2.32-.77-1.28-1.94-.89-2.97-1.05-1.09-.17-1.16-1.06-.22-2.17h4.37c.25.23.7.44.75.72.7,3.9.65,7.83.03,11.73-.13.81-.99,1.03-1.83.77Z"/><path d="m280.12,227.14c-.46,2.2-1.13,2.6-3.49,1.99-.29-.07-.58-.43-.7-.72-.07-.16.15-.51.33-.7.22-.23.51-.53.78-.55,1.02-.06,2.05-.03,3.08-.03Z"/><path d="m207.21,206.32c-2.52.91-1.34,3.98-3.2,5.38-.64,0-1.43.17-2.08-.04-.86-.28-1.2-1.03-.79-1.43,1.05-1.03,2.2-2.02,1.74-3.67-.16-.57-.87-.99-1.43-1.58h-4.14c-.36-.36-.62-.62-.88-.88.48-.41.93-1.13,1.44-1.17,1.83-.14,3.67-.06,5.52-.06,1.75.6,2.68,2.12,3.81,3.44Z"/><path d="m203.92,213.91q1.68,2.09.13,4.39h-4.89c-.63-.74-1.57-1.81-2.46-2.92-.12-.15-.11-.55,0-.73.18-.29.49-.7.76-.7,2.15-.06,4.3-.03,6.45-.03Z"/><path d="m359.98,233.1c.28.3.99,1.06,1.65,1.77-.73.86-1.67,1.57-2.02,2.51-.35.93.08,2.15-1.46,3.1-1.17-1.61-2.41-3.33-3.28-4.53h-3.3c-.33-.87-.68-1.82-.95-2.55.63-1.68,1.91-2.43,2.86-3.48.73-.81,1.46-1.63,2.32-2.29,1.01-.78,1.45-2.33,3.03-2.34,1.6,2.35.07,4.96,1.18,7.8Z"/><path d="m125.72,192.93c0-1.09.1-2.19-.02-3.27-.2-1.69,1.26-2.54,2.8-2.18.6.14,1.54.74,1.56,1.16.13,3.27.06,6.54.08,9.81,0,1.65-1.06,2.56-2.78,2.18-.6-.13-1.53-.73-1.56-1.17-.16-2.17-.07-4.36-.07-6.54Z"/><path d="m440.03,233.76c.72,0,1.45,0,2.17,0q1.71,2.52-.79,5.24c.76,2.04,2.94,2.85,3.9,4.82-.54.57-1.25,1.34-1.98,2.12v2.11c-.67,1-1.64,1.17-2.77,1.17-2.06,0-2.06.07-3.83-1.15.91-1.83,3.58-.31,4.35-2.23v-2.87c-1.36-1.06-3.05-2.38-4.45-3.47.15-1.3.23-1.99.31-2.68,1.02-1.02,2.05-2.05,3.07-3.07Z"/></g></svg>