<?xml version="1.0" encoding="UTF-8"?><svg id="Layer_2" xmlns="http://www.w3.org/2000/svg" viewBox="0 0 288.28 309.36"><g id="Capa_1"><path d="m7.63,179.54c-.18-.18-.36-.36-.56-.55-.13.11-.26.23-.41.36h-1.01c-.4-.21-.72-.37-1.04-.53v-1.33c.47-.03.9-.05,1.31-.07.16-.13.3-.25.5-.42.2.12.4.24.72.42.07-.14.18-.36.45-.9v-41.38c-.4-.29-.85-.1-1.28-.13-.38-.03-.76,0-1.18,0-.15-.17-.32-.36-.53-.59v-.74c.13-.14.3-.32.53-.56h2.31c.11-.11.18-.15.2-.2.02-.05,0-.13,0-.19v-41.87c-.36-.4-.83-.15-1.25-.19-.38-.04-.76,0-1.2,0-.15-.14-.33-.31-.56-.51v-.87c.1-.05.21-.14.31-.14.83-.01,1.66,0,2.49-.01.05,0,.09-.07.18-.15v-42.95c-.5-.24-1.01-.06-1.5-.1-.44-.03-.89,0-1.34,0-.43-.37,0-.86-.26-1.24.21-.23.38-.41.61-.66h2.31c.11-.11.17-.15.2-.2.02-.05.01-.12.01-.19,0-13.83,0-27.66,0-41.48,0-.05-.08-.09-.15-.17h-2.26c-.19-.17-.37-.33-.53-.48-.2-.31-.1-.62-.08-.92.18-.18.36-.37.54-.54h2.94c.36.19.62.32.96.5.11.22.28.54.5.97,0,88.05,0,176.24,0,264.43,0,.05.06.1.09.15,1.4.09,11.06.14,12.37.05.05,0,.09-.08.13-.12-.5-.56-1.02-1.1-1.49-1.67-.18-.22-.29-.52-.38-.79-.06-.17-.01-.38-.01-.52.92-.92,1.82-1.82,2.67-2.67v-.52c.51-.31,1.09-.09,1.78-.18.42.52.9,1.1,1.27,1.54h.99c.24-.24.46-.46.76-.76h1.56c.29-.47.05-.93.21-1.39.77-.77,1.58-1.58,2.41-2.41h1.09c.63.63,1.26,1.26,1.83,1.83.66-.66,1.27-1.27,1.82-1.82h1.23c.86.86,1.71,1.71,2.62,2.62-.03.12.13.29.3.49.15.17.18.43.28.64.28.57.29.65.02,1.17-.13.26-.22.57-.42.78-.19.21-.49.31-.95.59-.32.32-.82.82-1.37,1.37-.34-.16-.71-.33-1.22-.57-.38-.38-.88-.88-1.38-1.38h-.84c-.34.36-.75.77-1.13,1.19-.34.38-.85.44-1.27.73-.24-.14-.5-.28-.72-.4-.11,0-.2-.03-.23,0-.71.69-1.42,1.4-2.13,2.1.09.09.14.18.18.18,81.44,0,162.88,0,244.31,0,.34.48,1.14.27,1.36,1.27v3.59c-.46.21-.9.11-1.32.09-.18-.18-.36-.36-.54-.54,0-.76,0-1.53,0-2.29-.17-.27-.44-.2-.68-.2-20.97,0-41.93,0-62.9,0-.18,0-.36.03-.6.04-.14.7-.02,1.39-.08,2.08-.28.18-.34.46-.43.77-.06.22-.33.37-.5.56-.33-.33-.65-.65-.97-.97v-2.29c-.37-.41-.84-.19-1.25-.19-20.07-.01-40.15,0-60.22,0h-1.82c-.16-.16-.25-.25-.32-.32-.36.31-.73.62-1.1.94.19.35.33.61.52.95-.12.16-.26.36-.43.59,0,.2,0,.45,0,.42-.29.43-.47.69-.6.88-.92-.06-.8-.94-1.33-1.34v-1.99c-2.57-.21-50.98-.27-64.44-.09-.05.05-.13.09-.13.14,0,.5,0,1.01,0,1.49-.15.17-.28.31-.41.46-.08.28.12.61-.16.92h-1.22c-.28-.3-.08-.64-.16-.93-.09-.09-.18-.18-.34-.34v-1.56c-.17-.09-.28-.19-.38-.19-12.74,0-25.49,0-38.23,0-8.09,0-16.19,0-24.28,0-.43,0-.88-.11-1.36.13v2.28c-.26.29-.43.48-.57.64h-.8c-.19-.19-.37-.37-.57-.57,0-.74,0-1.51,0-2.27,0-.05-.07-.1-.17-.21h-2.19c-.34-.27-.53-.42-.68-.54v-.82c.19-.19.37-.37.56-.56h2.29c.38-.3.19-.71.19-1.06.01-13.57.01-27.15.01-40.78-.14-.15-.3-.33-.5-.55-.77-.15-1.59.02-2.45-.1-.17-.46-.14-.93-.02-1.48h2.75c.13-.12.21-.16.22-.2.02-.12,0-.25,0-.38v-42.06Zm18.05,85.2c-.37.37-.77.77-1.17,1.17-.02.02,0,.09.03.25.72,0,1.46,0,2.21,0,.11,0,.22-.08.24-.1-.4-.4-.83-.83-1.32-1.32Z"/><path d="m71.49,244.93c-.09-.09-.18-.18-.36-.36-.01-.21-.03-.51-.05-.8-.13-.15-.25-.29-.34-.39v-4.6c.11-.11.24-.19.29-.3.07-.16.1-.34.16-.6.52-.09,1.09,0,1.5-.03.49-.26.85-.46,1.42-.76h1.42c.07-.18.15-.29.15-.4,0-1.59,0-3.19,0-4.77.05-.05.09-.1.14-.14.05-.03.11-.05.17-.05,1.9,0,3.8,0,5.63,0,.65-1.31,1.25-2.53,1.88-3.79h1.19c.97,1.94,1.92,3.84,2.86,5.71-.07.38-.4.51-.58.76-1.27,0-2.55,0-3.82,0-.34.31-.19.68-.11,1.04.05.04.09.09.15.11.06.02.13,0,.19,0h3.99c.18.34.34.66.56,1.08v4.45c-.12.13-.25.27-.39.42v.74c-.1.1-.19.19-.34.34-.02.37-.05.8-.07,1.21-.33.17-.64.33-1.06.55h-3.69c-.36.36-.72.72-1.15,1.15h-2.81v1.63c-.39.41-.7.73-.99,1.03h-4.99c-.32-.32-.64-.64-.95-.95v-2.29Z"/><path d="m53.9,254.3v-1.41c.86-.86,1.76-1.76,2.67-2.67,0-.09-.01-.22-.02-.34-.05-.05-.09-.13-.14-.13-1.14,0-2.28,0-3.42,0-.2-.19-.38-.36-.59-.56v-5.86c.23-.17.59-.43,1.12-.83h4.7c.27.13.58.29.98.49.22.63-.13,1.41.18,2.12.07-.04.16-.05.16-.08.05-.81.1-1.62.14-2.43.13-.13.27-.27.4-.4.11-.04.22-.12.33-.12,1.97,0,3.95,0,5.91,0,.19.19.37.37.56.56v5.79c-.15.12-.34.28-.68.54h-2.32v2.36c-.34.7-1.04.65-1.4,1.07h-.76c-.09-.09-.18-.18-.27-.27-.11-.04-.22-.1-.34-.1-.44-.01-.88,0-1.3,0-.07.07-.12.12-.16.16.4.3.3.92.79,1.24-.17.36-.33.73-.62,1.35-.44.44-1.06,1.06-1.69,1.69.84.84,1.69,1.69,2.59,2.59v1.01c-.54.53-1.08,1.06-1.49,1.47v.67c-.21.07-.43.15-.7.24-.03.15-.07.33-.11.53-.23.29-.58.05-.82.15-.98-.98-1.92-1.92-2.93-2.94v-1.12c.59-.59,1.26-1.26,1.85-1.85.09-.4-.12-.56-.3-.73-.72-.72-1.44-1.44-2.17-2.16-.03-.03-.12,0-.19,0Z"/><path d="m78.94,306.3c-.13-.26-.26-.52-.4-.79-.03-.05-.09-.09-.15-.15v-8.39c.26-.24.37-.58.5-.96h3.55c.1.24.19.46.28.67.02.05.09.09.2.2v1.53c.16.16.25.25.34.34.22.45-.05.99.24,1.5.34-.65.63-1.22.99-1.92v-1.81c.18-.14.37-.3.64-.52h3.45c.13.31.24.58.51,1.23,0,.09-.03.59,0,1.09.04.49-.16,1,.18,1.5.14-.29.26-.55.38-.8h.4c.23-.23.45-.45.72-.72h2.82c.11.16.31.48.43.67.32.03.45.04.61.06.28.55.58,1.12.95,1.84v4.84c-.12.13-.29.31-.5.53h-1.53c-.28-.17-.48-.29-.68-.41-.2.17-.34.28-.52.43h-2.26c-.3-.26-.62-.54-.89-.76-.53.08-.68.48-1.03.74h-1.6c-.2-.31-.18-.73-.54-.94,0-.63,0-1.26,0-1.9,0-.05-.08-.09-.13-.14-.04.02-.13.03-.13.05-.05.49-.09.99-.15,1.58-.22.37-.49.84-.69,1.19-.16.12-.21.19-.26.19-.63,0-1.27,0-1.88,0-.2-.2-.38-.38-.57-.57v-.37c-.13-.14-.26-.28-.38-.42-.03-.56.05-1.12-.07-1.71-.57.27-.25.69-.3,1.01-.06.37-.01.75-.01.94-.25.48-.41.8-.57,1.12h-1.92Zm10.34-5.38q-.21.7,0,1.61c.25-.61,1.18-.31,1.27-1.08-.26-.25-.59-.06-.92-.13-.09-.11-.21-.25-.34-.4Zm3.24-.17c-.17-.17-.35-.35-.51-.51-.33.31-.65.62-1.03.97.55.15,1.05.22,1.54-.04,0-.18,0-.3,0-.42Zm-1.03,2.94c.13.25.27.5.39.72.3-.27.48-.44.64-.59q-.07-.53-.63-.53c-.17.17-.34.34-.4.4Z"/><path d="m82.37,164.83h6.16c.25.29.64.48.56.94.41.18.29.66.55.94h3.81c.18.17.36.35.57.55v7.32c-.08.08-.11.15-.16.17-.05.02-.13,0-.19,0h-6.76c-.23-.35-.48-.73-.74-1.11-.09.09-.18.18-.31.31h-6.96c-.15-.15-.29-.29-.42-.42-.04-.05-.1-.09-.11-.14-.02-.13,0-.25,0-.38v-6.09c.19-.19.37-.37.56-.56h2.32c.11-.64.62-1.01,1.11-1.52Zm9.58,3.8c-.38,0-.76-.02-1.14,0-.43.03-.87-.13-1.34.15v3.07c-.25.36-.64.5-.71.94h3.23c.18-.17.36-.35.54-.52-.13-.14-.26-.28-.37-.4v-1.85c.17-.24.31-.43.4-.56-.09-.45-.42-.58-.6-.83Zm-12.03,3.32c.41.17.72.3,1.03.43.17-.18.34-.36.47-.5v-3.39c-.22-.26-.38-.45-.49-.58-.36.18-.68.35-1,.52v3.53Zm4.06-4.03c-.25.17-.49.34-.63.44,0,.87,0,1.55,0,2.24,0,.1.11.2.19.33.27-.11.6.11.91-.16v-2.39c-.16-.16-.34-.34-.48-.48Zm2.43-1.01c.26.27.51.27.77,0-.26-.27-.51-.27-.77,0Z"/><path d="m85.56,217.85c-.35.16-.61.29-1.03.48h-2.11c-.28-.23-.44-.3-.8-.37-.43-.44-.87-.9-1.33-1.37v-.34c-.13-.14-.26-.28-.37-.4v-1.76c.19-.4.32-.67.5-1.04.55-.5,1.04-1.24,1.91-1.6h2.39c.27-.47.1-.92.17-1.35.09-.09.18-.18.34-.34.02-.23.04-.53.07-.83.23-.23.45-.45.67-.67.04-.17.09-.34.13-.52.27-.11.54-.22.81-.34.9-.23,1.85-.1,2.78-.19.3-.46.99-.64.95-1.34.39-.5,1-.65,1.52-.94.21-.12.41-.25.63-.38h.97c.8.56,1.89.74,2.55,1.74.02.21.06.51.09.79.1.1.19.19.31.31v1.54c-.07.09-.19.23-.34.4v.68c-.59.97-1.66,1.22-2.59,1.8h-1.05c-.13-.12-.27-.25-.4-.37h-.42c-.07.21-.11.47-.24.65-.18.25-.44.46-.66.68,0,.13,0,.25,0,.38-.58.3-1.15.59-1.86.96-.52.05-1.21-.07-1.92.06v1.39c-.21.46-.3.83-.51,1.09-.36.44-.8.82-1.13,1.16Z"/><path d="m129.23,299.9v.47c.13.14.26.28.37.4v3.44c-.39.4-.84.75-.94,1.33h-.4c-.23.23-.46.46-.72.72h-3.04c-.48-.35-1.2-.51-1.57-1.11-.3-.48-.53-1.01-.79-1.52-.07.07-.16.12-.16.16,0,.63,0,1.27,0,1.94-.19.15-.38.32-.65.54h-1.47c-.13-.12-.31-.29-.54-.5-.03-1.91-.05-3.87-.08-5.83,0-.05-.08-.09-.15-.15-.13.27-.25.53-.37.78h-.4c-.19.19-.37.37-.56.56v4.61c-.17.15-.37.32-.62.53h-1.49c-.13-.12-.31-.29-.53-.49v-4.6c-.24-.24-.58-.47-.75-.78-.14-.26-.1-.61-.42-.73.16-.28.3-.53.59-1.05,0,0,.23-.23.46-.46.21-.36-.13-.91.4-1.17-.03-.43.28-.66.59-.97h5.83c.29.39.1.85.13,1.27.03.44,0,.89,0,1.34s-.02.89,0,1.34c.02.43-.12.88.12,1.31.62-.15-.06-.68.1-.74.39-.39.65-.6.83-.85.13-.18.16-.44.24-.65h.43c.22-.22.44-.45.71-.72h2.78c.35.23.49.67,1.03.76.36.06.65.51,1.03.82Zm-4.21,3.85c.25.29.41.48.62.72.43-.21.85-.41,1.25-.61v-2.47c-.41-.55-.66-.88-.91-1.21-.2.2-.31.35-.47.46-.47.33-.58.9-.85,1.36-.23.38.13.78.34,1.16.1.19.02.48.02.6Zm-7.36-5.7c.35.17.6.27.84.41.24.14.33.47.64.52.24-.21.12-.47.12-.7,0-.23.11-.49-.13-.72-.14,0-.32-.04-.47.01-.16.06-.27.24-.42.32-.15.08-.33.09-.58.16Z"/><path d="m95.41,234.41c-.39.72-.7,1.29-1.02,1.87h-5.43c-.4-.2-.72-.37-1.03-.53v-5.72c.2-.29.66-.44.3-.99h6.02c.34-.32.07-.67.29-1.06.08-.08.26-.26.45-.45h6.89c.14.14.33.3.54.51v5.82c-.18.18-.36.36-.53.54h-6.48Z"/><path d="m102.82,300.78c-.28.32-.95.05-.96.86-.03-.03.1.08.17.22.18.36,1,.04.82.77.32.23.36.61.52.96h.92c.09-.1.29-.3.48-.5-.24-.26-.42-.44-.59-.62h-.39c-.16-.32-.32-.63-.55-1.08v-.99c.44-.33.32-1.17.91-1.3.56-.12.8-.55,1.22-.84h2.99c.29.26.57.53.86.76.08.06.24.04.41.06.04.15.08.33.13.55.09.09.21.23.34.37v.76c-.34.31-.94.26-1.08.77.18.21.34.4.48.56.18,0,.3.01.43.02.16.31.32.63.55,1.07v1.01c-.12.12-.38.3-.35.39.17.53-.64.66-.43,1.17-.32.16-.63.32-1.06.54h-3.9c-.41-.42-.94-.96-1.49-1.51-.06.01-.22,0-.29.07-.46.44-.91.89-1.36,1.34-.05.03-.1.09-.15.1-.13.01-.25,0-.38,0h-3.4c-.57-.57-1.11-1.11-1.68-1.68v-.82c.07-.08.12-.17.16-.17.76,0,1.53,0,2.29,0,.22.22.45.45.72.72h.91c.04-.16.08-.33.12-.49-.35-.46-1.06.03-1.31-.59h-1.05c-.63-.63-1.2-1.22-1.86-1.88v-.99c.45-.33.32-1.19.93-1.29.58-.1.8-.56,1.18-.82h3.05c.23.23.46.46.68.68.33.1.82.04.65.65.44.29.42.72.36,1.17Zm3.27,2.42c-.28.14-.61-.1-.89.16,0,.41.31.21.58.29.19.22.44.49.7.79.29-.17.63.1.96-.25-.03-.16-.07-.37-.11-.57h-.88c-.1-.12-.22-.26-.36-.42Zm-6.74-3c.07-.01-.1.02-.43.08.41.41.73.73,1.08,1.07.07-.17.13-.33.24-.61-.24-.15-.5-.3-.89-.54Zm7.12-.02c-.27.26-.28.51,0,.77.29-.06.61.12.88-.12-.05-.31-.35-.43-.52-.64h-.37Z"/><path d="m190.42,131.1c.22-.41.38-.73.56-1.07h6.86c.59.2.51.93.97,1.29v4.99c-.07.09-.19.23-.34.4v.72c-.17.18-.35.36-.58.61h-4.57c-.13.12-.21.15-.22.2-.02.12,0,.25,0,.38v6.12c-.18.17-.36.35-.56.55h-6.89c-.14-.13-.32-.3-.54-.51v-6.59c.15-.15.28-.28.42-.42.05-.04.09-.1.14-.11.13-.02.25,0,.38,0h4.18c.19-.19.37-.37.55-.55-.08-.09-.15-.18-.3-.35.03.03-.06-.02-.06-.06,0-1.91,0-3.82,0-5.6Zm2.48,5.03c1.27,0,2.54,0,3.8,0,.05,0,.09-.07.22-.17,0-1.19,0-2.45,0-3.7,0-.06-.01-.12-.04-.17-.03-.05-.09-.09-.1-.11h-3.93c-.2.22-.37.4-.49.53v3.06c.2.2.38.38.55.56Zm-2.98,7.2c.22.13.47.27.73.41.16-.16.34-.34.49-.49v-3.55c-.22-.21-.4-.37-.53-.49h-3.06c-.21.2-.39.38-.56.55,0,1.15,0,2.29,0,3.42,0,.05.07.09.12.15.18.09.23.41.52.37l.29-.29c.13.11.26.23.41.36h1.13c.12-.12.26-.24.47-.44Z"/><path d="m186.59,306.3c-.12-.57-.77-.45-1.08-.84-.28-.34-.34-.78-.65-1.08-.37-.36.07-1.05-.55-1.3v-1.17c.11-.12.23-.25.37-.4v-1.13c.43-.36.36-1.19.95-1.29.59-.1.78-.58,1.18-.81h1.91c.1.1.19.19.28.28.73.53,1.21-.59,2.23-.06.02.03.28.39.72.98-.05-.22,0-.11,0,0,0,1.53,0,3.05,0,4.58,0,.24-.08.51.18.69.48-.39,0-.96.27-1.4.09-.09.18-.18.29-.29v-1.11c.13-.15.25-.29.39-.45v-1.11c.13-.14.26-.28.39-.42v-1.13c.13-.14.26-.28.39-.42v-1.13c.1-.1.19-.19.33-.33.03-.25.06-.55.09-.85.04-.04.08-.1.14-.13.05-.03.12-.03.18-.02.49.06,1-.12,1.52.1v2.37c-.05.06-.16.2-.3.39-.03.25-.06.55-.09.83-.11.11-.2.2-.36.36v1.53c-.16.16-.25.25-.34.34v.75c-.13.14-.26.28-.39.42,0,.63,0,1.27,0,1.9-.44.35-.39,1.06-.96,1.33h-1.13c-.13-.12-.27-.24-.44-.4-.08.24-.14.47-.24.68-.05.11-.17.18-.27.28v.78c-.45.42-.91.85-1.43,1.33h-.66c-.14.13-.28.26-.42.39h-1.52c-.09-.09-.18-.18-.35-.35-.35-.02-.78-.04-1.16-.06-.35-.33-.67-.63-.88-.82-.12-.31-.18-.48-.25-.64-.08-.16-.18-.3-.25-.4.06-.43.44-.52.56-.79h1.36c.18.52.77.45,1.05.72h1.12c.2-.22.37-.4.55-.6-.06-.18-.12-.35-.18-.5h-.42c-.13.12-.27.25-.41.38-.57,0-1.14,0-1.71,0Zm.77-5.17v2.31c.31.31.63.62.94.93.57-.31.64-.97.93-1.38v-1.36c-.25-.47-.4-.77-.54-1.03h-.75c-.22.21-.4.38-.58.54Z"/><path d="m111.64,150.86c.18-.18.36-.36.56-.55h6.51c.15.14.33.31.54.51v6.63c-.24.15-.62.39-1.36.86h-4.51c-.11.11-.17.15-.2.2-.02.05-.01.12-.01.18,0,1.46,0,2.93,0,4.43-.17.15-.36.32-.61.53h-6.53c-.2-.27-.46-.62-.86-1.16v-5.97c.24-.18.59-.44,1.15-.87h5.11c.12-.11.2-.15.2-.2.02-.12,0-.25,0-.38v-4.21Zm2.1,5.55h3.63c.06,0,.13.02.19,0,.05-.02.09-.09.2-.21,0-1.17,0-2.43,0-3.69,0-.06-.03-.12-.06-.16-.03-.05-.08-.09-.12-.13-1.41,0-2.8,0-4.19,0-.05,0-.09.07-.18.14v3.52c.15.15.28.28.54.54Zm-6.69,1.72c0,1.15,0,2.29,0,3.43,0,.05.08.09.18.21,1.32,0,2.71,0,4.09,0,.06,0,.12-.02.17-.05.05-.03.09-.09.14-.14,0-1.26,0-2.53,0-3.79,0-.05-.07-.1-.14-.18h-3.9c-.19.18-.37.36-.54.53Z"/><path d="m168.56,304.14c-.13.24-.27.49-.55.99-.23.22-.69.65-1.23,1.15h-2.94c-.25-.24-.52-.5-.79-.75-.55-.07-.72.44-1.11.73h-2.73c-.59-.43-.61-1.25-1.27-1.6v-3.73c-.29-.54-.55-1-.8-1.47.03-.12.03-.27.11-.34.63-.52.81-1.36,1.4-1.91.13-.12.04-.42.39-.5.45-.11.83-.54,1.37-.34.18.18.36.36.54.54v1.29c.35.29.79.64,1.04.84.15.42.21.58.29.81.48-.77,1.41-.86,1.9-1.57h2.4c.13.22.33.55.44.73h.64c.13.26.23.54.4.77.14.21.45.34.51.55.09.31.12.6.43.74v1.59c-.17.16-.36.33-.57.52-.26.03-.56.06-.89.1.04.12.08.29.1.29.46-.07.65.31.92.55Zm-6.95.18c.04-.05.12-.1.12-.15,0-1.13,0-2.26,0-3.39,0-.05-.07-.09-.11-.15-.32.04-.44.34-.65.52,0,.88,0,1.76,0,2.64.21.19.33.47.64.53Zm2.83-.46c.32.19.73.17.99.64.25-.32.48-.62.65-.84.27-.08.58.08.55-.42-.62,0-1.22,0-1.83,0-.11,0-.21.08-.35.13v.48Zm.35-2.72c.38.31.77.32,1.17-.03-.03-.16-.07-.33-.1-.49-.41-.04-.78-.23-1.07.13v.38Z"/><path d="m145.68,299.22c.31-.3.63-.61.97-.94h.74c.17.14.36.29.59.47.24-.18.42-.33.6-.47h1.67c.16.23.38.54.52.73.74.1.78-.57,1.2-.73h3.01c.59.59,1.17,1.17,1.8,1.81,0,1.93,0,3.96,0,5.99,0,.05-.07.09-.14.18h-1.52c-.14-.09-.34-.22-.62-.4-.17.11-.37.24-.64.42h-2.66c-.23-.27-.51-.61-.92-1.09-.03-.07-.15-.34-.35-.77v-.97c.48-.28.23-1.1.89-1.31.3-.04.6-.07.94-.11.02-.19.04-.36.06-.51-.28-.33-.62-.13-.93-.2-.12-.11-.26-.24-.41-.37h-1.54c-.15.17-.32.35-.53.58v4.14c-.17.18-.33.36-.54.58h-1.63c-.13-.13-.27-.27-.4-.4-.04-.11-.12-.22-.12-.33,0-2.1,0-4.19,0-6.31Zm7.78,2.12c.28-.25.46-.41.64-.57-.32-.35-.68-.18-.98-.15-.21.19-.39.35-.57.51.24.33.58.15.9.21Zm-.5,2.65c.04.39.03.39.38.2.25-.13.51-.25.75-.37v-.43c-.15-.06-.3-.12-.58-.23-.16.24-.32.49-.55.83Z"/><path d="m82.2,285.36c.46-.39.46-.85.8-1.11.38-.29.66-.68.85-1.17.15-.38.71-.59.88-.97.22-.46.48-.84.84-1.18.32-.31.63-.63.98-.98h1.24c.05.14.13.25.13.36,0,1.34,0,2.67,0,4.01.23.23.46.46.72.72v1.29c-.16.1-.48.31-.71.45v.94c-.17.18-.35.37-.55.58h-.87c-.16-.6-.68-1.06-.55-1.72-.05-.04-.08-.1-.14-.13-.05-.03-.12-.03-.18-.03-.96,0-1.91,0-2.9,0-.12-.25-.24-.51-.37-.78-.19.19-.37.37-.57.57v.71c-.48.6-1,1.12-1.72,1.4h-1.86c-.29-.16-.54-.31-.93-.53-.05-.11-.16-.39-.33-.63-.14-.21-.49-.36-.5-.55-.02-.37-.21-.57-.41-.78v-3.44c.1-.1.19-.19.28-.28.03-.11.08-.23.09-.34.02-.13,0-.25,0-.52.37-.37.81-.81,1.24-1.24.29-.12.56-.24,1.05-.45h1c.17.04.26.52.67.31.45.48.88.95,1.34,1.45.11.2.24.46.43.82v3.22Zm-1.91.48v-3.83c-.17-.16-.36-.33-.56-.52h-1.21c-.18.37-.34.68-.51,1.02v2.98c.48.37.37,1.24,1.23,1.32.42-.19.67-.66,1.04-.97Zm4.95-1.89c.03.15.06.32.11.57.26-.05.47-.08.67-.12.01-.66,0-.66-.23-1-.17.17-.35.35-.55.55Z"/><path d="m129.23,299.8v-.57c.31-.31.63-.63.95-.95h1.15c.26.51.52,1.03.8,1.55.3.58.63,1.14.55,2.29.26-.55.34-.67.37-.8.06-.23-.11-.51.15-.7.24-.17.24-.41.25-.66,0-.17.09-.34.16-.5.08-.22.15-.45.27-.65.13-.21.33-.38.45-.52h1.22c.32.32.64.64.95.95v.76c.44.35.39,1.05,1.03,1.37.06-.36.01-.81.21-1.02.31-.33.3-.66.28-1.14.3-.22.66-.48,1.24-.9-.03,0,.35-.08.54.08.25.21.54.26.8.36.22.3.05.62.1.87-.16.18-.27.32-.38.44v1.03c-.54.68-.81,1.53-1.14,2.35v.75c-.13.14-.26.28-.39.42v.76c-.31.31-.63.62-.95.95h-1.53c-.29-.56-.58-1.13-.94-1.83-.02-.28-.04-.71-.07-1.18-.15.06-.32.1-.32.13,0,.52-.33.91-.58,1.28-.25.36-.13.71-.24,1.05-.18.18-.36.36-.54.54h-1.52c-.75-.5-.75-1.49-1.35-2.12v-1.11c-.13-.14-.26-.28-.39-.42v-.75c-.1-.1-.19-.19-.34-.34-.02-.36-.04-.79-.07-1.22-.26-.16-.36-.54-.73-.54Z"/><path d="m53.9,254.41v.47c.49.49.99.99,1.51,1.5v.88c-.34.28-.78.63-1.13.92v1.3c-.95.95-1.9,1.9-2.85,2.85h-1.14c-.43-.41-.97-.75-1.08-1.47h-.99c-1.56-.62-2.38-1.95-3.5-2.88,0-.42,0-.8,0-1.18.94-.94,1.89-1.89,2.85-2.85h.91c.27.34.62.78.89,1.12h.91c.19-.19.37-.37.56-.56v-.38c.31-.16.63-.32,1.08-.56h.99c.29.25.62.53.99.85Z"/><path d="m86.98,227.15c-.18-.18-.36-.36-.54-.54,0-.36-.05-.67.17-1.05.57-.96.97-2.01,1.52-2.98.18-.31.11-.59.19-.88.06-.22.25-.4.37-.61.09-.15.13-.33.23-.48.06-.11.17-.18.31-.32h.85c.3.64.62,1.27.9,1.92.07.16.01.37.01.59.18.05.35.1.57.17.16-.2.31-.4.52-.66.08-1.12,1-2.01,1.33-3.18.25-.01.5-.02.89-.04.13.16.33.4.53.64v.73l.72.72v.82c.29.16.62.35.79.44v1.04c.26.28.52.55.76.8v1.53c-.11.06-.21.17-.32.17-1.08.01-2.16,0-3.37,0-.3.36-.66.8-.94,1.15-1.94,0-3.72,0-5.5,0Z"/><path d="m107.82,221.98c.25-.19.35-.45.43-.77.07-.27.42-.46.69-.73,0-.19.02-.44.05-.87.19-.12.5-.33.73-.48v-.88c.23-.46.86-.63.79-1.24.39-.3.62-.79,1.15-.99.5.18.72.68,1.11.97,0,.13.02.25.02.37.15.27.37.27.63.18.22-.48.43-.96.68-1.43.08-.16.26-.27.41-.42h.81c.12.15.28.34.51.62v.75c.25.18.56.4.78.56v.9c.26.27.52.55.78.82v.75l.72.72v1.23c-.13.05-.24.13-.35.14-.82.01-1.65,0-2.49,0-.34.36-.69.72-1.06,1.11h-5.85c-.18-.18-.36-.36-.54-.53v-.77Z"/><path d="m184.31,161.96c-.08-.73-.21-1.04-.76-1.92v-2.65c-.13-.14-.26-.28-.39-.42.12-.13.25-.27.38-.41v-3.03c.55-.84.69-1.17.74-1.68.64-.64,1.22-1.22,1.88-1.88.41.12.82-.41,1.34-.49.16.15.3.28.44.41.12,0,.25,0,.37,0,.31.32.63.63.94.95.27.27.57.52.8.82.25.33.45.71.75,1.2v1.83c.16.16.25.25.35.35v3.83c-.09.11-.22.25-.36.4v1.5c-.13.14-.4.32-.37.41.18.53-.65.66-.43,1.17-.4.4-.81.81-1.25,1.25-.45.16-.96.03-1.45.06-.44.03-.88,0-1.29,0-.57-.57-1.11-1.11-1.71-1.71Zm.75-6.51v2.67c.13.14.26.28.39.42v1.91c.3.18.3.52.44.77.17.29.43.57.9.59.22,0,.41.46.47.43.7-.64,1.17-1.06,1.64-1.5v-.7c.15-.18.26-.32.33-.4v-5.85c-.69-.15-.15-.78-.42-1.09-.42-.42-.83-.83-1.24-1.23-.04-.04-.11-.03-.17-.04-.19,0-.38,0-.57,0-.65.41-1,1.06-1.43,1.99v1.69c-.16.16-.25.25-.34.34Z"/><path d="m130.18,208.03h-1.57c-.07-.21-.15-.43-.22-.65-.42-.12-.81-.28-1.06-.68v-.74c-.13-.14-.26-.28-.38-.42v-2.15c.19-.38.32-.64.53-1.05,1.18-1.18,1.65-1.46,2.84-1.65.03-.16.07-.33.11-.54.15-.15.33-.33.52-.52h1.15c.26.5.47,1.06.81,1.53.33.46.79.82,1.19,1.22.12.28.23.55.34.81.34.42-.12.99.34,1.4.4.36.11.84.2,1.3.09.11.21.25.37.44,0,.19,0,.44,0,.69,0,.05-.06.1-.13.19h-1.38c-.59.34-1.09.74-1.67.78-.56.04-.94.7-1.59.39-.11-.11-.25-.24-.39-.37Z"/><path d="m75,223.18c.42.45.72.77,1.04,1.11-.08.48.19.88.41,1.31.62,1.21,1.21,2.42,1.84,3.7-.1.11-.26.28-.47.51h-3.22c-.11.6-.04,1.16-.07,1.76-.16.14-.35.31-.6.53h-5.32c-.12-.11-.3-.27-.48-.44-.12-.36-.15-.68.05-1.05.36-.67.69-1.36,1.03-2.04.31-.63.62-1.27.98-1.88.15-.24.12-.59.18-.92.15-.15.33-.33.52-.52h.78c.25.5.51,1.01.76,1.52.15,0,.28-.01.4-.02.57-1.03.97-2.15,1.62-3.14.09-.14.27-.22.54-.43Z"/><path d="m181.24,161.19v5.71c-.12.13-.25.27-.38.41v.73c-.26.3-.65.54-.73.86-.09.35-.28.54-.49.76-.26.28-.54.54-.89.89-.16,0-.42-.05-.64.01-.22.06-.41.24-.64.39-.56-.28-1.13-.57-1.98-1-.21-.23-.64-.69-1.13-1.2,0-.16.11-.53-.02-.64-.39-.34-.3-.95-.74-1.22v-6.22c.23-.18.53-.41.76-.59v-.78c.72-.5.84-1.56,1.77-2.1h2.19c.42.36,1.05.46,1.47.97.39.47.43,1.18,1.07,1.42v1.19c.13.14.26.28.39.42Zm-2.29-1.07c-.51-.75-1.13-1.08-1.8-1.34-.58.63-1.31,1.14-1.68,2v1.98c-.16.16-.24.24-.34.34v1.9c.12.13.25.27.38.41v1.49c.59.65.6,1.63,1.35,2.12h1.14c.32-.32.63-.63.95-.95v-1.05c.28-.48.51-.9.75-1.32v-3.35c-.14-.18-.3-.31-.35-.48-.06-.17.04-.39-.02-.56-.08-.22-.28-.39-.36-.61-.06-.17-.01-.38-.01-.58Z"/><path d="m181.05,304.01c-.13,0-.25,0-.38,0-.39.37-.08.85-.2,1.25-.1.33-.54.52-.36,1h-1.74c-.32-.17-.59-.6-.94-.93v-8.78c.19-.19.37-.37.56-.56h1.91c.15.29.31.6.59,1.13v2.59c.44.06.52-.32.73-.47.2-.15.34-.43.55-.51.28-.11.55-.2.8-.4.16-.13.48-.05.75-.06.18.17.36.34.57.54v1.3c-.2.04-.37.08-.61.12-.06.18-.09.43-.23.61-.18.25-.44.46-.66.68-.24.52.63.65.4,1.17.45.27.39.87.79,1.21.3.26.44.7.7,1.13.04.34,0,.76.02,1.23h-1.69c-.88-.42-1.07-1.45-1.56-2.25Z"/><path d="m86.96,194.66h1.57c.11.11.2.2.3.3.08-.04.19-.07.26-.14.68-.67,1.35-1.34,2.07-2.07.19-.01.44-.02.57-.03.81.81,1.57,1.57,2.1,2.1.56.19.78.27.99.34v.44c.22.21.45.43.7.67-.13.31-.26.61-.3.73-1.2,1.2-2.28,2.28-3.43,3.43-.45.21-.78-.38-1.16-.42-.8.8-1.56,1.56-2.25,2.25-.41.02-.65.04-.78.04-.9-.9-1.75-1.75-2.71-2.71,0,.1,0-.03,0-.16-.36-.35-.72-.71-1.09-1.07.05-.09.07-.2.14-.27.58-.59,1.14-1.2,1.76-1.74.31-.27.25-.68.52-.94.23-.22.45-.45.75-.74Zm.68,2.18c-.59.25-.83.73-1.22,1.04v1.12c.45.45.9.9,1.34,1.34.42-.42.86-.86,1.33-1.33v-.73c-.44-.44-.89-.88-1.44-1.43Zm4.1,1.24c.96-.2.73-1.43,1.57-1.67-.48-.5-.92-.95-1.34-1.39h-.79c-.3.39-.78.63-1.02,1.19.28.33.72.61.8.98.12.51.37.74.78.9Z"/><path d="m123.3,194.25h-1.15c-.19-.19-.37-.37-.53-.53-.04-.2-.08-.37-.11-.52-.27-.09-.49-.17-.7-.24,0-.17,0-.3,0-.43-.63-.63-1.26-1.26-1.9-1.9v-.86c.49-.47,1.02-1,1.59-1.51.42-.38.44-.99.93-1.35.51-.37.91-.88,1.36-1.33.41-.41.81-.81,1.23-1.23h1.63c.05.15.09.26.12.37.02.06.02.12.04.33.82.82,1.71,1.71,2.64,2.64v.64c-.6.6-1.26,1.26-1.92,1.92v.73c-1.1,1.11-2.18,2.2-3.24,3.27Zm2.87-6.69c-.43-.43-.87-.87-1.31-1.3-.03-.03-.11-.02-.19-.04-.46.08-.74.35-.79.72.65.65,1.24,1.24,1.84,1.84.1-.1.27-.27.45-.45v-.77Zm-3.61,4.42c.57-.02.82-.39.97-.94-.43-.43-.86-.88-1.31-1.3-.07-.07-.23-.05-.35-.07-.35.23-.75.43-.66.97.44.44.88.88,1.34,1.34Z"/><path d="m106.1,202.67h3.04c.13.13.27.36.41.36.54,0,.75.34.95.74.35.68.63,1.39,1.02,2.05.11.19.09.47.12.71,0,.06.01.16-.02.18-.64.35-.12,1.23-.73,1.61-.12.07-.1.35-.2.47-.24.29-.52.54-.78.79h-.77c-.24.24-.46.46-.69.69-.06.02-.11.06-.17.06-.57,0-1.14,0-1.87,0-.15-.21-.36-.52-.52-.75h-.88c-.81-.49-.79-1.49-1.39-2.12v-2.26c.17-.36.69-.5.75-.98.05-.44.48-.55.67-.86.25-.39.85-.21,1.05-.67Z"/><path d="m141.47,197.12c.09-.09.18-.18.33-.33v-1.15c.25-.25.42-.44.61-.61.28-.25.16-.73.54-.93.32-.16.63-.33,1.11-.58h3.15c.59.59,1.17,1.17,1.75,1.75.29.26-.12.84.53.99v1.61c-.11.12-.24.26-.37.4v.73c-.46.46-.91.91-1.37,1.36-.5-.09-.77.57-1.36.41-.3-.08-.56.52-.98.35-.65-.28-1.34-.46-1.99-.73-.51-.21-.79-.61-1.11-.97-.17-.19-.14-.58-.44-.76v-1.14c-.13-.14-.26-.28-.39-.42Z"/><path d="m143.38,204.39c-.13.14-.26.28-.39.41v.75c-.54.54-1.08,1.08-1.67,1.67-.25.02-.55.05-.85.08-.09.09-.18.18-.31.31h-1.6q-.44-.31-1.17-.35c-.13-.23-.31-.57-.39-.71-.42-.03-.54-.04-.67-.05-.2-.35-.4-.7-.61-1.05.25-.56-.38-.87-.38-1.36,0-.25,0-.51,0-.65.44-.87.83-1.66,1.28-2.55.45-.23,1.02-.52,1.72-.88h2.15c.11.11.3.37.38.34.53-.21.65.67,1.17.42.42.84.85,1.68,1.33,2.64v.98Z"/><path d="m108,227.53c.14-.13.27-.25.41-.37.1.1.19.19.31.31.27.03.57.07.87.1.05.11.14.22.14.32,0,1.98,0,3.95,0,5.96-.17.16-.36.33-.59.54h-5.72c-.14-.13-.32-.3-.54-.5v-6.2c.06-.06.1-.14.15-.15.12-.02.25,0,.38,0h4.58Z"/><path d="m118.33,208.03c-.23.23-.45.45-.72.72h-3.15c-.22-.22-.45-.45-.67-.67-.17-.05-.34-.09-.55-.14-.04-.16-.07-.33-.11-.52l-.69-.69c.2-.69-.63-1.17-.33-2,.03-.04.16-.18.3-.33v-.74c.13-.14.26-.28.39-.43v-.29c.48-.51.91-.97,1.33-1.42h.78c.1-.1.19-.19.33-.33.51,0,1.06,0,1.62,0,.23.43.64.32,1,.34.42.47.85.93,1.4,1.54.01.29.68.66.42,1.3.12.13.25.27.38.42v.75c-.12.13-.25.27-.38.41v.75c-.23.23-.49.43-.67.69-.13.18-.16.43-.24.64h-.43Z"/><path d="m151.79,188.71c-.13.14-.26.28-.39.42v.6c-.19.39-.32.66-.5,1.02-.18.15-.65.06-.83.46-.37-.1-.56.18-.78.38h-2.53c-.38-.19-.64-.32-.83-.41-.49-.49-.94-.94-1.29-1.29-.16-.31-.27-.52-.47-.89v-2.11c.32-.43.5-1,.93-1.46.89-.96.94-1.06,2-1.09.06,0,.13,0,.19,0,.2-.13.4-.26.61-.38.05-.03.12,0,.21,0,.13.11.26.23.42.37h1.11c.27.26.54.52.81.77.14,0,.26.01.43.02.07.21.13.44.23.65.05.11.17.18.27.28v.75c.13.14.26.28.39.42v1.51Z"/><path d="m197.89,306.3c-.22-.43-.74-.36-1.07-.64-.35-.3-.19-.87-.66-1.07v-.84c.33-.06.67-.12,1.07-.19.03-.16.06-.33.09-.48-.16-.16-.3-.29-.43-.43-.16-.18-.37-.31-.37-.61,0-.15-.18-.3-.33-.54v-1.52c.6-.53,1.08-1.35,2.02-1.67h2.68q1.31.82,2.21,2.19c-.41.3-.86.63-1.3.95.61.61,1.11,1.11,1.61,1.61v1.15c-.11.12-.24.26-.37.4v.37c-.45.45-.89.9-1.34,1.35h-3.81Zm.37-3.06q-.13.32.59.44c.13.18.34.5.51.74.43-.09.77.12.99-.23-.27-.56-.97-.51-1.33-.95h-.76Zm1.99-2.36c-.16-.28-.31-.55-.46-.8-.29.13-.44.2-.61.28.04.2.08.37.12.52.4.03.77.22.96,0Z"/><path d="m69.39,177.05c-.16-.31-.32-.63-.56-1.08v-5.66c.27-.22.61-.5,1.05-.87h6.38c.12.11.31.28.53.49v6.6c-.17.18-.35.36-.52.54h-6.89Zm5.54-2.51c0-.93,0-1.88,0-2.84,0-.11-.08-.22-.12-.33-.13-.13-.27-.27-.4-.4h-3.17c-.2.22-.37.4-.49.53v3.39c.22.27.38.46.52.62h2.96c.43-.22.75-.38,1.06-.55-.08-.09-.15-.18-.36-.43Z"/><path d="m211.45,137.34c-.22.42-.38.73-.56,1.07h-6.57c-.23-.27-.51-.61-.88-1.05v-5.53c.16-.31.32-.63.5-1h6.97c.13.13.26.26.4.4.04.11.12.22.12.33,0,1.97,0,3.95,0,5.79Zm-1.91-1.8v-2.67c-.17-.16-.36-.33-.56-.53h-3.49c-.07.08-.15.12-.15.17,0,1.39,0,2.78,0,4.17,0,.05.07.09.14.18h3.4c.41-.21.72-.37,1.04-.53v-.38c-.12-.13-.25-.27-.38-.41Z"/><path d="m226.74,121.41c-.27.27-.41.41-.56.56h-6.52c-.15-.14-.33-.31-.54-.52v-6.96c.08-.07.12-.14.17-.15.13-.02.25,0,.38,0h5.34c.1-.1.19-.19.35-.35.11.08.22.17.4.3.24.03.54.06.84.09.05.12.13.23.13.34,0,2.23,0,4.46,0,6.69Zm-6.12-4.98c0,1.15,0,2.29,0,3.43,0,.05.08.09.18.21,1.2,0,2.45,0,3.71,0,.06,0,.12-.02.17-.05.05-.03.09-.09.14-.14,0-1.26,0-2.52,0-3.79,0-.05-.07-.1-.14-.18h-3.52c-.19.18-.37.36-.54.53Z"/><path d="m155.85,159.04c-2.43,0-4.89,0-7.35,0-.04-.05-.1-.08-.13-.14-.03-.05-.02-.12-.02-.18,0-2.22,0-4.44,0-6.7.15-.16.32-.34.53-.56h6.58c.19.18.37.36.55.53,0,2.29,0,4.58,0,6.86,0,.05-.07.09-.14.18Zm-5.07-1.49h3.12c.17-.18.35-.36.53-.54v-3.53c-.22-.2-.4-.37-.54-.5h-3.44c-.22.2-.4.38-.58.55.07.38.12.49.37.8v1.83c-.17.25-.31.44-.55.79.32.18.6.33,1.07.6Z"/><path d="m69.59,212.08c.23.23.68.68,1.14,1.14v.74c.09.09.18.18.28.28.19.4.08.84.07,1.27-.4.23-.36.62-.35,1.12-.62.54-1.1,1.38-2.04,1.7h-2.3c-.37-.34-1.1-.33-1.29-.86-.18-.51-.51-.82-.86-1.2v-2.85c.07-.05.26-.22.48-.33.36-.17.15-.59.4-.79.19-.15.38-.31.58-.44.2-.12.42-.21.76-.38h2.08c.29.16.54.31,1.04.6Z"/><path d="m287.16,282.6c.06.42.48.56.67.87.15.25.23.53.45,1.06v2.03c-.46.6-.49,1.67-1.62,1.75h-2.35c-.08-.06-.2-.21-.36-.3-.15-.08-.34-.1-.52-.14-.08-.44-.34-.75-.65-1.07-.24-.25-.34-.62-.57-1.07v-3.28c.44-.53.56-1.29,1.03-1.83.48-.55,1.32-.54,1.83-1.08h.96c.83.35,1.46.74,1.89,1.37-.14.36.25.5.32.69-.19.37-.35.69-.51.99h-.58c.04-.5-.43-.29-.64-.45-.29-.22-.46-.58-.83-.7h-.67c-.17.16-.39.37-.6.57.09.25.14.42.2.57h.42c.17-.14.35-.29.58-.48.24.19.42.34.61.49h.92Zm-2.42,1.53c-.29.25-.48.41-.64.55v1.18c.32.32.63.63.95.95h.55c.49-.39.87-.7,1.19-.96-.02-.36-.04-.6-.05-.84-.07.05-.13.1-.2.15-.24-.37-.48-.74-.66-1.01h-1.14Z"/><path d="m149.89,286.09v-1c.45-.27.38-.87.74-1.23.13-.12.02-.48.02-.7-.12-.12-.21-.21-.34-.34v-2.04c.22-.15.58-.41,1.2-.85-.08,0,.22-.03.52-.06.09-.09.18-.18.31-.31h1.09c.5.26,1.02.54,1.68.88.21.41.51.99.81,1.58-.2.35-.43.76-.69,1.22v.56c.23.42.49.89.76,1.38v.92q-.8,1.36-2.09,2.19h-1.92c-.22-.08-.34-.5-.83-.33-.14-.16-.3-.35-.46-.55-.15-.19-.31-.38-.44-.58-.12-.2-.22-.42-.38-.75Zm1.92-.16c.68-.09.18.59.55.84h.83c.27-.27.62-.61.88-.87v-.77c-.22-.27-.38-.46-.51-.62h-1.19c-.19.19-.37.37-.56.56v.86Zm.88-3.02c.54-.26,1.1-.4,1.38-.92-.18-.18-.36-.36-.54-.54-.43.03-.87-.13-1.32.13v.85c.17.17.3.3.48.48Z"/><path d="m140.33,50.64v.79l.28.28c.19.4.08.84.07,1.27-.18.18-.36.36-.54.54h-6.54c-.13-.16-.29-.35-.51-.62v-1.06c1.06-1.72,1.69-3.73,3.02-5.54,0-.13.03-.43.05-.77h1.29c.23.2.42.37.59.52v.79c.23.23.46.46.69.69.22.3-.05.69.24,1.04.53.64.59,1.6,1.36,2.06Zm-3.26-2.07c-.1.1-.19.19-.28.28-.09.09-.27.21-.25.26.18.51-.62.66-.41,1.16-.47.36-.52.8-.25,1.31h2.01c.19-.2.35-.38.47-.5-.44-.87-.86-1.69-1.29-2.52Z"/><path d="m137.27,288.33c-.63,0-1.32,0-2.02,0-.1-.07-.2-.14-.3-.21-.34-.24-.94-.24-1.02-.68-.1-.48-.61-.77-.51-1.33.03-.19-.17-.43-.34-.84v-2.48c.09-.1.21-.24.35-.4v-.69c.14-.29.58-.41.38-.77.45-.67,1.09-1.04,1.89-1.41h1.01c.07.08.14.2.24.26.42.21.85.39,1.35.61.16.79.97,1.42.89,2.39.13.14.25.28.35.39v1.53c-.11.11-.28.2-.27.28.04.69-.61,1.2-.49,1.83-.47.47-.92.91-1.51,1.5Zm-2.3-5.91v3.43c.44.32.65.94,1.26.98.35-.35.66-.66.99-.99v-3.87c-.22-.2-.4-.37-.53-.49h-1.18c-.22.32-.18.75-.54.95Z"/><path d="m111.25,82.57v.99c-.19.19-.37.37-.56.56h-6.5c-.16-.15-.34-.32-.55-.52v-1.28c.18-.12.49-.33.72-.48v-.92c.26-.28.52-.55.78-.82v-.75c.23-.23.45-.45.68-.68.12-1.08.6-1.94,1.44-2.54h.76c1.07,2.14,2.12,4.24,3.22,6.45Zm-4.96-1.31c.05.42-.13.87.15,1.31.13-.11.26-.21.41-.33.68-.17,1.44.15,2.23-.21-.51-1.01-.98-1.95-1.45-2.88-.39.26-.48.7-.71,1.04-.24.35-.2.85-.63,1.07Z"/><path d="m84.38,102.94c.54.36.58,1.05,1.05,1.49.4.38.58,1.01.83,1.54.26.53.5,1.06.8,1.57.29.51.4,1.12.84,1.63v1.56c-.08.07-.13.15-.17.15-2.28,0-4.57,0-6.88,0-.16-.17-.32-.36-.52-.57-.01-.31-.1-.63.16-1,.4-.57.65-1.25.95-1.89.27-.59.5-1.22.86-1.73.41-.6.48-1.36,1.03-1.88.1-.1.07-.34.09-.47.33-.14.6-.26.97-.42Zm.88,6v-.78c-.35-.69-.65-1.27-.95-1.86h-.39c-.26.51-.51,1.05-.81,1.55-.22.36-.19.69-.03,1.08h2.17Z"/><path d="m238.7,81.45h-2.1c-.42-.34-.99-.42-1.36-.86-.37-.44-.8-.82-1.22-1.23v-.74c-.13-.14-.26-.28-.39-.42v-1.13c.13-.14.25-.27.38-.41v-.56c.32-.74.68-1.44,1.38-1.9.64.09,1.13-.3,1.66-.56.57-.27.62-.27,1.17-.01.54.24,1.01.67,1.67.57.67.39.69,1.3,1.37,1.67v1.14c.16.21.3.4.37.49.08.44-.26.51-.37.75v.58c-.19.39-.32.65-.51,1.03-.54.49-1.01,1.26-2.06,1.6Zm-3.15-2.92c.08,0,.16,0,.25-.01.23.37.47.75.62.99h2.32c.27-.22.46-.38.62-.52v-2.71c-.31-.31-.63-.63-.95-.95h-1.55c-.4.43-.83.89-1.31,1.4v1.79Z"/><path d="m10.89,280.3c.14,0,.27-.02.39-.02.22-.22.45-.45.71-.71h1.52c.35.21.76.45,1.16.71.43.28.55.79.83,1.17.3.41-.13,1.08.53,1.32v2.3c-.11.12-.24.26-.37.4v1.15c-.26.19-.37.44-.43.77-.04.21-.32.5-.52.52-.35.03-.57.2-.78.42h-2.3c-.32-.32-.63-.63-.95-.95v-.39c-.22-.22-.45-.44-.72-.69v-4.21c.28-.55.6-1.17.92-1.79Zm2.67,1.15h-1.16c-.17.18-.35.36-.53.55v3.98c.49.16.57.85,1.33.83.27-.29.61-.65.91-.98v-3.29c-.23-.45-.39-.77-.55-1.08Z"/><path d="m204.96,280.5c-.18.51.58.67.39,1.21-.16.45.53.65.39,1.18-.11.42-.02.88-.02,1.33v1.53c-.33.49-.59,1.02-.77,1.59-.2.6-.94.52-1.3.98h-1.89c-.36-.39-1-.4-1.33-.88,0,0-.44-1.54-.45-1.57-.11-.12-.23-.26-.37-.41v-3.04c.12-.13.25-.26.38-.4v-.71c.46-.48.9-.94,1.34-1.39.41.15.55-.25.81-.37.32,0,.64,0,.93,0,.59.3,1.17.6,1.89.96Zm-2.44,6.51c.62-.55.98-.88,1.25-1.11v-3.77c-.24-.32-.39-.52-.5-.67h-1.21c-.17.33-.33.64-.55,1.07v2.86c.43.69.69,1.11,1.01,1.62Z"/><path d="m144.72,279.91c.42.15.55-.26.82-.37.32,0,.64,0,.95,0,.56.35,1.25.53,1.62,1.12.34.55.6,1.15.97,1.87v3.28c-.3.46-.59.97-.76,1.55-.18.59-.95.51-1.31.96h-1.92c-.11-.11-.25-.34-.39-.35-.61-.03-.8-.41-.98-.91-.16-.44-.47-.82-.75-1.29v-3.36c.13-.14.26-.28.39-.42v-.67c.47-.5.91-.96,1.33-1.42Zm.19,2.63v3.38c.52.13.58.94,1.36.89.27-.3.56-.63.9-1.02v-3.82c-.22-.2-.4-.37-.54-.51h-1.16c-.18.34-.34.65-.56,1.07Z"/><path d="m271.87,283.16c.13.14.26.28.37.4v.75c-.14.15-.26.29-.37.42v1.35c-.16.31-.32.62-.57,1.1-.27.27-.67.67-1.11,1.11h-2.28c-.4-.23-.86-.51-1.28-.76-.08-.8-.39-1.43-.87-2.17,0-.59,0-1.35,0-2.1,0-.18-.02-.47.08-.52.57-.34.04-1.14.65-1.48.11-.06.06-.45.28-.63.24-.2.42-.53.69-.64.28-.12.59-.15.77-.44h1.54c.12.11.25.35.39.35.52,0,.76.33.96.73.23.48.46.96.77,1.59v.95Zm-3.22,3.77c.66-.66,1.14-1.14,1.67-1.67v-2.43c-.37-.49-.43-1.1-.95-1.39-.25,0-.5,0-.76,0-.31.31-.62.62-.92.91v3.15c.43.64.67,1.01.95,1.42Z"/><path d="m150.93,30.54c.65.23.85.75,1.26.98v.8l.73.73c0,.2.02.45.04.87.2.14.51.36.74.51v.91c.26.28.52.55.79.83v.75c.24.24.46.46.81.81-.38.2-.77.4-1.15.6.07.09.15.17.22.26h-6.54c-.25-.21-.45-.37-.63-.53.08-.34-.02-.62.16-.94,1.04-1.85,1.87-3.82,2.92-5.67-.06-.48.38-.6.67-.91Zm-1.43,6.17c.99,0,1.92,0,2.86,0,.04,0,.08-.09.14-.15.02-.09.04-.21.08-.46-.24-.17-.55-.39-.78-.55v-.89c-.28-.24-.39-.69-.97-.61-.41.81-.84,1.68-1.33,2.66Z"/><path d="m18.9,279.54h1.12c.12.11.26.23.43.37h.7c.79.5.8,1.49,1.39,2.14v4.17c-.15.24-.51.39-.38.76-.45.46-.89.92-1.32,1.36h-2.18c-.42-.22-.74-.38-1.06-.54,0-.12-.02-.25-.03-.39-.25-.26-.51-.53-.77-.81v-.75c-.1-.1-.19-.19-.28-.28-.03-.05-.09-.1-.09-.15,0-.89,0-1.77,0-2.65.63-.27.19-.95.57-1.32.3-.29.34-.75.66-1.07.36-.36.9-.39,1.25-.84Zm1.15,7.26c.31-.61.63-1.23.93-1.8v-2.21c-.42-.45-.41-1.11-.93-1.31h-.75c-.6.3-.5,1.02-.95,1.35v2.65c.44.35.39,1.05.95,1.33h.75Z"/><path d="m240.89,88.51c0-.14.01-.26.02-.41.47-.21.96-.42,1.43-.65.11-.05.18-.18.25-.26h2.3c.14.13.28.26.41.38.13,0,.26.01.38.02.54.54,1.08,1.08,1.66,1.66v3.53c-.39.37-.79.74-.9,1.29-.16,0-.29.01-.41.02-.23.23-.45.45-.71.71h-3.13c-.4-.09-.45-1.01-1.2-.7-.06-.29-.1-.47-.13-.64-.22-.22-.45-.45-.7-.7v-1.05c-.16-.24-.3-.43-.48-.69.14-.2.27-.39.44-.63v-1.07c.26-.27.52-.55.77-.81Zm4.02.59h-.72c-.22-.16-.41-.31-.61-.46-.26.18-.43.38-.65.45-.23.07-.49.02-.71.02-.19.37-.35.68-.56,1.08v1.79c.32.32.64.64.95.95h.76c.14.13.27.25.4.36.15-.13.29-.25.41-.36.45-.08.92.19,1.3-.19v-1.13c.13-.14.25-.28.37-.41-.13-.14-.25-.28-.38-.42v-1.12c-.2-.2-.38-.38-.56-.56Z"/><path d="m72.25,286.14c-.17.3-.32.56-.61,1.07-.22.23-.67.68-1.11,1.12-.77,0-1.53,0-2.29,0-.14-.13-.27-.26-.41-.39h-.37c-.3-.58-.59-1.16-.94-1.85v-4.42c.25-.3.31-.44.39-.85.23-.22.49-.51.79-.73.28-.2.62-.33,1.05-.55h1.01c.13.12.27.25.41.38h.79c.41.57.83,1.17,1.3,1.83v4.39Zm-3.57-4.37c-.32.56-.47.81-.64,1.1v2.6c.45.35.39,1.06.95,1.33h.75c.19-.36.39-.72.55-1.02v-3.8c-.21-.2-.39-.37-.54-.51h-.78c-.2.2-.38.38-.3.3Z"/><path d="m3.49,279.54c.35.19.61.32.87.46.45.42.91.86,1.16,1.09.23.46.34.67.54,1.07,0,1.1,0,2.42,0,3.74-.43.23-.33.63-.34,1-.37.68-1.02,1.02-1.9,1.41h-1.68c-.4-.37-1.12-.37-1.4-1-.21-.49-.29-1.04-.74-1.43v-3.42c.36-.5.58-1.12.89-1.69.33-.61,1.02-.86,1.69-1.22h.91Zm.69,3.24v-.75c-.06.05-.11.11-.17.16-.14-.29-.28-.57-.37-.77-.4.02-.64.04-.6.03-.54.42-.89.68-1.14.87v3.53c.4.3.63.8,1.09.96.89-.31,1.11-1.14,1.57-1.82v-1.82c-.12-.13-.25-.27-.38-.4Z"/><path d="m176.65,297.69c-.13.14-.26.28-.39.42v.73c-.14.16-.26.3-.39.44v1.49c-.11.11-.2.2-.33.33v2.37c.11.11.2.2.32.32v1.86c.13.15.25.29.39.47v1.09c.13.15.25.29.38.43-.01.42.12.85-.11,1.31h-1.17c-.32-.18-.67-.42-.64-.94-.57-.77-.85-1.69-1.36-2.48-.2-.31-.08-.6-.16-.93-.1-.11-.23-.25-.36-.4v-3.8c.42-.22.36-.74.64-1.07.29-.36.04-.93.48-1.33.27-.25.32-.74.47-1.12.27-.27.54-.54.85-.85h1.21c.07.07.16.11.16.16,0,.51,0,1.02,0,1.52Z"/><path d="m64.26,140.13c.77-.94,1.52-2.19,1.52-3.03.32-.33.63-.65.92-.96h.78c.43.29-.04.86.4,1.18.28.21.16.72.55.91-.21.51.61.66.4,1.17.52.45.58,1.16.93,1.71.31.49.5,1.07.83,1.55.21.31.08.6.16.95-.18.14-.38.29-.69.53h-6.37c-.25-.21-.44-.38-.61-.52v-.62c.39-.92,1.08-1.71,1.18-2.87Zm1.21,2.13c.71,0,1.46.01,2.2,0,.24,0,.51.13.71-.12-.09-.57-.86-2.2-1.38-2.93-.06,0-.13,0-.19,0-.06.01-.14.03-.16.07-.33.88-.83,1.69-1.26,2.52-.04.08.04.23.08.47Z"/><path d="m91.39,102.82c1.11-2.21,2.16-4.32,3.22-6.44h.81c.24.28.53.61.9,1.03v.71c.26.2.55.43.79.61v.99c.22.2.49.46.78.73v.71c.24.24.47.47.72.72v.82c.29.16.62.35,1.04.59-.43.32-.62.47-.92.7h-7.21c-.28-.43-.1-.88-.13-1.16Zm5.34-.84c-.17-.45-.86-.57-.77-1.19-.48-.32-.33-1.08-.99-1.34-.36.95-1,1.78-1.3,2.78-.01.04.05.1.09.17.27.19.59.07.89.09.38.02.76.03,1.13,0,.3-.02.63.14.89-.12.02-.13.03-.25.05-.37Z"/><path d="m205.14,308.97h-.79c-.14-.16-.31-.35-.5-.57q-.03-.8.71-1.91v-2.27c.13-.14.26-.28.39-.41,0-.89,0-1.78,0-2.67-.09-.09-.18-.17-.25-.24-.06-.07-.13-.12-.13-.16,0-.76,0-1.52,0-2.26-.55-.83-.69-1.18-.78-1.98.17-.11.42-.28.76-.51h1.04c.08.22.11.47.24.65.18.25.44.45.66.67v.68c.28.49.51.9.76,1.34v.98c.08.1.19.25.35.46v3.04c-.05.06-.16.21-.35.44,0,.14-.02.39,0,.64.04.35-.13.57-.33.83-.12.16,0,.49-.07.73-.07.22-.25.4-.37.61-.06.1-.04.28-.12.32-.61.38-.61,1.22-1.22,1.61Z"/><path d="m216.61,288.33c-.18-.25-.51-.37-.58-.74.15-.29.3-.61.62-1.26.32-.31.91-.89,1.5-1.46.27-.26.52-.62.84-.72.47-.15.71-.37.88-.82.12-.33.42-.59.69-.95-.29-.22-.62-.47-1.18-.89h-.9c-.42.11-.45.68-.71,1.09h-1.17c-.15-.14-.33-.31-.51-.48.26-.51.51-1.02.83-1.66.43-.22,1-.51,1.71-.88h1.39c.22.09.35.5.74.36.61.45,1.04,1.03,1.37,1.96v1.27c-.68.54-.9,1.44-1.58,2.02-.6.51-1.47.68-1.82,1.48.31.3.71.12,1.07.15.38.03.76,0,1.14.01.37.02.75-.09,1.15.11v.87c-.18.19-.35.37-.52.55-1.67,0-3.32,0-4.98,0Z"/><path d="m73.49,205.73c-.08-.31-.13-.48-.18-.7-.15-.03-.33-.07-.52-.11-.79-.79-1.6-1.6-2.48-2.48.15-.34.32-.7.56-1.24.94-.94,2.02-2.02,3.12-3.11h.79c.59.61,1.36,1.16,1.81,1.9.5.82,1.17,1.43,1.8,2.13-.76.76-1.53,1.53-2.31,2.31v.4c-.21.07-.47.11-.65.24-.26.18-.46.44-.68.67h-1.25Zm-.96-3.36c.39.24.69.39.96.6.32.24.54.62.9.82.57-.57,1.11-1.11,1.59-1.59-.56-.56-1.12-1.12-1.69-1.69-.16.17-.49.27-.82.38,0,.62-.62.86-.95,1.49Z"/><path d="m147.01,173.61c1.21,1.21,2.42,2.42,3.63,3.63v.75c-.57.58-1.15,1.16-1.73,1.74h-.38c-.44.44-.44.45-.57.92-.55.18-.94.78-1.82.5-.2-.2-.53-.58-.91-.9-.38-.31-.6-.75-1.13-.94-.43-.16-.77-.6-.93-.73-.21-.46-.31-.67-.45-.97,0,.02.02-.07.06-.16.36-.97,1.22-1.53,1.87-2.26.18-.05.35-.09.52-.13.04-.11.08-.22.11-.33.15-.52.67-.72.96-1.12.26,0,.51,0,.76,0Zm0,5.34c.25-.24.53-.5.74-.71.24-.06.41-.11.59-.16v-.99c-.12-.1-.37-.29-.62-.49-.29-.23-.46-.59-.85-.71-.37.17-.76.32-1.12.51-.47.25-.39.89-.78,1.16.43.43.87.87,1.38,1.38h.66Z"/><path d="m103,196.94c-.34.48-.66.99-1.05,1.46-.37.44-.8.82-1.2,1.22h-1.07c-1.25-1.25-2.46-2.46-3.65-3.65.2-.34.39-.72.64-1.05.23-.3.53-.55.8-.82.3-.31.61-.56,1.05-.71.28-.1.7-.39.48-.85.44-.21.82-.39,1.18-.56.07,0,.16-.01.19.02,1.22,1.21,2.43,2.42,3.6,3.59.09.36-.12.51-.27.72-.13.18-.16.44-.24.64h-.47Zm-2.59-2.71c-.34.04-.42.03-.45.06-.57.56-1.14,1.13-1.72,1.71.63.59,1.21,1.15,1.81,1.7.03.03.12,0,.16,0,.39-.04.35-.3.34-.63.32-.31.7-.64,1.05-1,.07-.07.07-.22.1-.33-.01-.06,0-.14-.03-.17-.42-.46-.85-.92-1.25-1.34Z"/><path d="m160.63,174.38h.92c.32.32.6.69.96.93.41.27.29.8.65,1.08.3.23.54.53.81.8.3.3.61.61.87.87-.08.23-.09.38-.17.45-1.16,1.17-2.32,2.33-3.5,3.51h-.75c-.22-.4-.37-.87-.82-1.14h-.36c-.68-.68-1.35-1.35-2.06-2.06v-.98c1.13-1.13,2.24-2.24,3.45-3.45Zm1.1,2.86v-.39c-.34-.17-.68-.34-1.04-.51-.54.7-1.35,1.14-1.79,2.18.85-.1,1.14.51,1.58.91.19.17.35.36.71.27.39-.39.84-.84,1.28-1.28.03-.04.03-.11.04-.19-.02-.5-.52-.65-.77-.99Z"/><path d="m165.35,164.45h.75c1.12,1.11,2.21,2.18,3.29,3.26-.12.36.18.54.3.69-1.24,1.24-2.45,2.45-3.69,3.69h-.38c-.82-.82-1.57-1.57-2.15-2.15-.48-.11-.66-.15-.88-.2-.04-.15-.08-.32-.14-.55-.21-.22-.46-.49-.68-.72.23-.38.41-.77.66-1.1.23-.3.53-.55.8-.82.72-.72,1.43-1.43,2.11-2.11Zm1.74,4.38v-1.14c-.32-.32-.63-.63-.95-.95h-.77c-.39.39-.8.79-1.19,1.2-.08.08-.1.21-.14.32,0,.06-.03.15,0,.19.44.46.88.91,1.3,1.34h.81c.32-.32.64-.64.95-.95Z"/><path d="m136.67,180.88c.27.48.41.73.56.99-.97.97-1.96,1.96-2.95,2.95-.04.17-.09.34-.15.57-.52.2-1.1-.03-1.62.1l-.98-.98v-.43c-.21-.07-.43-.14-.7-.24-.03-.15-.07-.32-.11-.53-.47-.47-.96-.96-1.46-1.46.09-.27.55-.38.32-.74.98-.97,1.92-1.91,2.89-2.88h1.65c.04.21.08.38.13.6.19.07.41.15.63.22.08.22.15.44.23.66h.43c.44.45.88.9,1.12,1.16Zm-5.2.98c.42.34.85.7,1.22,1.01-.09.53.07.73.56.67.53-.53,1.11-1.11,1.68-1.69.03-.03.02-.12.03-.19-.1-.45-.35-.72-.86-.8-.48-.08-.58-.84-1.26-.74-.41.41-.85.85-1.29,1.3-.03.04-.03.11-.09.45Z"/><path d="m50.07,234.6v-.83c.22-.16.53-.38.76-.55,0-.38-.11-.75.02-.86.43-.38.3-1.11.96-1.37h.71c.58.35.71,1.03.99,1.61.31.63.69,1.23,1,1.87.28.58.52,1.19.89,1.69v1.14c-.12.06-.22.16-.33.16-2.02,0-4.03,0-6.01,0-.25-.49-.12-.93-.13-1.37.28-.18.31-.48.43-.76.11-.27.42-.46.7-.74Z"/><path d="m123.89,206.75v-.83c.25-.32.6-.13.97-.2.24.31.52.66.9,1.15v.62c.28.17.6.38.79.5v.98c.26.28.52.55.79.82v.93c.22.15.54.35.72.47.1.6-.28.71-.48,1h-5.84c-.17-.17-.35-.35-.53-.53,0-.07-.02-.14,0-.19.63-1.39,1.4-2.72,2.03-4.12.12-.26.45-.43.65-.6Z"/><path d="m109.79,194.64h-.87c-.06-.01-.14,0-.17-.04-.94-.94-1.88-1.88-2.66-2.65-.26-.52-.41-.83-.6-1.19.26-.32.69-.61.76-.98.09-.44.44-.58.6-.88h.4c.5-.5.99-.99,1.5-1.5h1.07c.95.95,1.88,1.88,2.96,2.96.03.08.15.35.28.67-.08.16-.2.4-.35.69-.94.94-1.91,1.91-2.93,2.93Zm-.43-5.33c-.52.52-1,1-1.54,1.53,0,.13.02.38.03.62.58.4.9,1.08,1.45,1.29.57-.57,1.05-1.05,1.58-1.58,0-.13-.02-.38-.02-.34-.61-.61-1.05-1.05-1.51-1.52Z"/><path d="m65.94,253.91c.26,0,.51,0,.77,0,.81.81,1.62,1.62,2.4,2.4.18.42.35.79.56,1.27-.38.34-.89.61-1.1,1.03-.23.45-.5.83-.84,1.17-.36.35-.71.71-1.03,1.03-.2-.04-.35-.02-.43-.09-.46-.44-.91-.89-1.41-1.4-.11-.02-.29-.06-.52-.11-.04-.13-.09-.3-.23-.73-.23-.2-.66-.57-1.04-.9v-.66c.01-.06,0-.14.04-.17.94-.95,1.89-1.89,2.83-2.84Z"/><path d="m80.51,254.27s-.12.12-.21.21c0,.12-.01.25-.02.4-.62.6-1.26,1.22-1.84,1.78-.06.25-.11.42-.16.61-.54.25-1.11-.03-1.68.15-.07-.23-.13-.39-.17-.54-.76-.76-1.52-1.52-2.25-2.24v-.92c.43-.43.94-.89,1.39-1.41.39-.45.7-.97,1.03-1.43h1.19c.54.54,1.08,1.08,1.62,1.62.47.48,1.03.89,1.09,1.79Z"/><path d="m212.39,279.93h1.2c.13.15.29.35.51.61v6.75c-.16.31-.32.63-.51,1.01-.19.01-.43.03-.86.05-.1-.17-.26-.44-.52-.87v-4.37c-.53-.26-1.1-.08-1.7-.15-.15-.14-.33-.31-.56-.52.21-.37.57-.6.84-.91.25-.29.56-.43.92-.56.43-.16.45-.69.69-1.05Z"/><path d="m280.28,287.76c-.24.24-.37.37-.54.54h-.83c-.3-.29.04-.88-.54-.86v-4.66c-.33.04-1.01.33-1.35.59-.16-.18-.33-.37-.54-.6v-.71c.37-.53.92-.87,1.5-1.22.52-.32.9-.86,1.34-1.3.33.33.64.64.96.96v7.26Z"/><path d="m142.23,287.76c-.18.18-.36.36-.56.56h-.77c-.15-.28-.31-.59-.54-1.02.15-.03.4-.09.66-.15.05-.43.36-.33.66-.31.18.18.36.36.54.54,0,.13,0,.25,0,.38Z"/><path d="m74,286.81h.76c.17.27.54.37.55.65.04.49-.4.55-.49.85h-.83c-.14-.26-.3-.56-.5-.95.04-.23.32-.36.51-.55Z"/><path d="m273.02,287.38c.18-.18.35-.35.54-.54h.86c.24.44.08.87.13,1.29-.22.33-.56.15-.99.23-.1-.2-.25-.48-.54-1.05,0,.31,0,.19,0,.06Z"/><path d="m206.89,287.8v-.83c.28-.32.62-.05.84-.18.26.23.48.43.66.6.03.61-.34.8-.75.95-.38.01-.47-.36-.75-.53Z"/><path d="m7.66,288.33v-1.37c.28-.29.61-.09.94-.17.14.17.3.36.47.57-.14.29-.32.63-.48.97h-.92Z"/></g></svg>