<?xml version="1.0" encoding="UTF-8"?><svg id="Layer_2" xmlns="http://www.w3.org/2000/svg" viewBox="0 0 1477.4 471.82"><g id="Capa_1"><path d="m908.47,384.39c-.74.23-1.39.03-1.64-.69-.49-1.44-.25-3.24-2.36-3.83.78-.9,1.36-1.56,1.97-2.25-1.27-1.33-2.56-2.7-3.81-4.02.06-.73.11-1.35.16-1.98.46-.46.91-.91,1.38-1.38.7-1.48.45-3.01.22-4.2-1.04-1.19-1.88-2.15-2.66-3.04h-1.94c-.83-.69-1.53-1.77-2.28-1.8-1.45-.06-2.26-.8-3.27-1.6-.64-.52-1.7-.51-2.58-.74-1.14-1.14-2.28-2.28-3.42-3.42-.62-.06-1.25-.11-1.97-.17-.64-.58-1.34-1.21-2.1-1.9h-1.8c-1.41-1.34-2.79-2.65-4.1-3.9-.75-.06-1.37-.12-2-.17-.93-1.45-2.35-1.97-3.98-2.04-1.15-1.15-2.29-2.29-3.43-3.43-.62-.06-1.24-.13-2.47-.26-.89-1.13-2.08-2.63-3.03-3.83h-2.47c-1.15-1.15-2.29-2.29-3.43-3.43-.88-.23-1.75-.46-2.63-.68-1.14-1.14-2.28-2.28-3.42-3.42-.62-.07-1.23-.14-2.47-.29-.88-1.12-2.07-2.62-3.01-3.81-1.21,0-1.86,0-2.5,0-1.83-1.83-3.61-3.69-5.51-5.44-.38-.35-1.16-.27-1.76-.38-.28-.11-.62-.15-.82-.34-1.84-1.81-3.66-3.64-5.5-5.47h-2.02c-1.54-1.56-3.22-3.09-4.67-4.81-.95-1.13-2.26-.84-3.31-1.3-1.86-1.86-3.68-3.68-5.53-5.53h-1.89c-1.34-1.3-2.67-2.58-3.99-3.85-1.62,1.43-.61,3.16-.95,4.73-.6.64-1.25,1.34-1.92,2.05,0,14.17-.01,28.37.06,42.57,0,.36.84.91,1.37,1.04.55.13,1.26-.02,1.77-.3.54-.29.93-.88,1.42-1.36,1.52.51,2.17,1.94,3.14,2.79v3.15c.08.29.07.74.26.84,2.14,1.21,1.63,3.26,1.69,5.33-.49.6-1.08,1.31-1.78,2.16.5.59,1.06,1.25,1.66,1.96.03.55.07,1.18.11,1.86-.62.67-1.27,1.36-1.94,2.08v3.83c-1.17,1.7-2.94.72-4.53,1.01-3.02-2.26-5.31-5.4-8.29-7.79-.63-.05-1.26-.09-1.3-.1-2.58-2.57-4.86-4.82-7.22-7.17.04-.42.1-1.04.17-1.68,1.28-1.55,3.05-.26,4.42-.92.82.78,1.48,1.47,2.22,2.07.19.16.63.02.95.02,0,.3-.13.71.02.88.97,1.08,2.01,2.11,2.86,2.99.9.05,1.49.08,2.04.11.66.63,1.28,1.27,1.97,1.83.18.15.58.02,1.74.61.63.16.38-.36-.01-.55-.81-.4-1.21,0-.82.82.19.39.71.65,1.14.88.07.04.6-.49-.3-1.14-.86-1.5-.86-2.41-.86-3.44-.94-1.04-1.93-2.15-2.67-2.97h-5.1v-2.9c-.62-.9-1.59-.81-2.49-1.06-.83-.24-1.41-1.22-2.22-1.66-.51-.27-1.23-.15-2.11-.23-1.44-1.44-3.08-2.98-4.57-4.65-.34-.38-.37-1.26-.2-1.8.16-.5.73-1.17,1.19-1.24,1.25-.17,2.53-.06,3.61-.06,2.02,2.02,3.85,3.85,5.68,5.68.45-.45,1.17-2.05,1.37-3.02.46-.46.92-.92,1.37-1.37.45-9.59.42-31.48-.05-39.52-.46-.46-.92-.92-1.37-1.37-.07-.3-.19-.59-.19-.89-.02-1.62,0-3.24,0-4.97.57-.64,1.2-1.35,1.9-2.14v-2.27c-.69-.61-1.6-1.54-2.65-2.27-.45-.31-1.2-.21-2.2-.34-1.81-1.8-3.84-3.82-5.8-5.76-.77-.04-1.4-.08-2.04-.11-1.83-1.83-3.66-3.66-5.49-5.49-.62-.08-1.23-.15-2.21-.28-1.82-1.82-3.85-3.84-5.79-5.77-.81-.05-1.44-.09-2.07-.13-1.83-1.83-3.66-3.66-5.49-5.49-.62-.07-1.24-.14-1.94-.22-3.01-2.28-5.23-5.51-8.22-7.74-.74-.1-1.35-.19-1.97-.28-1.83-1.83-3.66-3.66-5.53-5.53h-1.85c-2.1-2.02-4.16-4.01-6.03-5.81-.92-.14-1.53-.23-2.37-.36-2.34-2.42-4.82-4.96-7.27-7.49h-1.96c-1.86-1.86-3.69-3.69-5.52-5.52-.61-.09-1.22-.18-1.97-.29-2.98-2.22-5.22-5.44-8.21-7.74-.69-.07-1.31-.14-1.93-.21-1.83-1.83-3.66-3.66-5.49-5.49-.63-.04-1.26-.09-1.97-.14-.65-.6-1.35-1.25-2.05-1.9-.31.48-.92.97-.93,1.48-.08,3.56-.04,7.12-.04,10.86-.51.61-1.11,1.32-1.85,2.2v25.17c.49.54,1.12,1.25,1.82,2.02v9.62c-.61.67-1.26,1.37-1.88,2.04v7.69c.69.76,1.33,1.46,1.83,2.02v3.91c-.54.54-1,1-1.46,1.46-.13.59-.38,1.18-.38,1.78-.03,5.18,0,10.36-.06,15.53,0,.52-.6,1.03-.93,1.55-.91-.92-1.83-1.83-2.83-2.84v-27.21c.51-.56,1.14-1.26,1.83-2.02v-3.81c-.62-.67-1.27-1.38-1.95-2.11v-38.68c-.69-.77-1.33-1.47-1.82-2.02v-5.86c.55-.55,1.01-1.01,1.46-1.46.73-1.85.24-3.78.4-5.81-1.3-2.09-3.24-3.69-5.09-5.24-.74-.1-1.35-.18-2.07-.28-2.46-2.46-4.97-4.97-7.52-7.52h-1.85c-.93-.93-1.96-1.76-2.73-2.78-.89-1.18-2.21-.97-3.31-1.32-1.86-1.86-3.69-3.69-5.56-5.56h-1.96c-2.45-2.52-4.92-5.07-7.25-7.48-.85-.13-1.46-.23-2.21-.34-2.99-2.21-5.22-5.43-8.23-7.74-.67-.07-1.3-.13-1.92-.19-1.14-1.14-2.29-2.29-3.43-3.43-.61-.09-1.22-.18-1.98-.28-2.98-2.23-5.22-5.44-8.2-7.73-.71-.08-1.33-.15-1.95-.22-1.83-1.83-3.66-3.66-5.49-5.49-.63-.04-1.26-.08-2.07-.14-1.93-1.92-3.96-3.95-5.78-5.77-.97-.12-1.59-.19-2.2-.27-1.83-1.83-3.66-3.66-5.49-5.49-.63-.04-1.26-.07-2.04-.12-1.95-1.94-3.98-3.96-6.07-6.04-1.01.36-1.86.66-2.65.94v4.09c.61.67,1.24,1.36,1.86,2.04-1.16,1.16-2.31,2.31-3.45,3.45-.48,7.99-.51,25.95-.06,35.64.46.46.92.92,1.5,1.5-.54.65-1.09,1.3-1.81,2.18,0,15.26,0,30.77-.06,46.29,0,.39-.78,1-1.29,1.12-.94.23-1.89,0-2.52-.93v-83.42c-.67-.72-1.32-1.42-1.91-2.05v-7.76c.5-.5.96-.96,1.42-1.42.9-2.13.5-4.32.33-5.96-1.76-2.02-3.24-3.71-4.5-5.16-1.05-.09-1.68-.14-2.31-.19-1.83-1.83-3.66-3.66-5.49-5.49-.62-.06-1.25-.12-2.14-.2-1.88-1.87-3.9-3.9-5.78-5.77-.89-.08-1.52-.14-2.14-.2-2.52-2.52-5.03-5.03-7.57-7.57h-2.09c-1.49-1.54-3.16-3.08-4.6-4.81-.94-1.14-2.26-.85-3.32-1.31-1.18-1.18-2.32-2.32-3.47-3.47-.63-.05-1.26-.09-1.99-.15-1.32-1.26-2.71-2.58-4.07-3.87-.67-.03-1.31-.07-1.94-.1-.92-.92-1.95-1.74-2.71-2.77-.89-1.2-2.28-.81-3.31-1.32-1.18-1.18-2.32-2.32-3.47-3.47-.63-.04-1.26-.08-1.97-.13-1.34-1.28-2.72-2.59-4.07-3.87-.7-.04-1.33-.08-1.96-.12-1.14-1.14-2.29-2.29-3.44-3.44-.87-.23-1.75-.45-2.62-.68-1.02-2.35-4.42-.98-5.37-3.43-.63-.03-1.27-.07-1.95-.1-1.36-1.29-2.74-2.61-4.07-3.87-.73-.05-1.36-.1-1.99-.14-.95-1.42-2.32-2.04-3.99-2.05-1.15-1.15-2.29-2.29-3.44-3.44-.91-.22-1.82-.46-2.63.29-.48.45-.59,1.02-.5,1.74.08.64,0,1.29.03,1.94.01.3.13.59.18.84.47.74,1.54,1.02,1.43,2.1-.46.46-.92.92-1.38,1.38-.08.29-.24.58-.24.87-.01,22.33-.01,44.66-.01,67.13-.54.63-1.15,1.34-1.83,2.12.57.63,1.17,1.31,1.82,2.02v7.69c-.65.7-1.3,1.4-1.88,2.02v5.84c.51.51.96.96,1.42,1.42.16.26.45.52.45.78.03,5.15.02,10.3.02,15.21-2.64,2.87-2.64,3-.24,5.61-.07.23-.08.51-.23.68-.43.49-.9.93-1.42,1.44v29.36c1.46,1.32,3.13,2.82,5.09,4.59h3.71c1.34,1.56,2.81,3.26,4.63,5.37v3.82c-1.08.84-2.59,2.02-3.78,2.95v6.62c-.78.29-1.62.6-2.43.89-3.2-2.32-5.33-5.56-8.36-7.77-.76.52-1.13,1.78-2.12,1.42-1.15-.43-.48-1.7-.8-2.71-1.05-1.48-3.8-.36-4.62-2.7-1.37,1.28-2.71,2.53-4.05,3.78-.95-.95-1.87-1.87-2.82-2.82v-3.86c.62-.67,1.26-1.37,1.94-2.1v-4.04c.81-.28,1.66-.57,2.67-.92,2.05,2.05,4.05,4.04,6.05,6.04.35-.35.78-.58.78-.81.03-47.87.03-95.74.03-143.52.75-.83,1.39-1.53,2.03-2.24-1.28-1.35-2.57-2.73-3.72-3.94v-7.83c.55-.55,1.06-.96,1.45-1.47.55-.71.59-2.09.09-2.61-.88-.92-1.82-1.79-2.65-2.61-.77-.05-1.4-.1-2.03-.14-1.14-1.14-2.29-2.29-3.43-3.43-.88-.23-1.75-.46-2.63-.69-1.04-2.31-4.41-.99-5.39-3.47h-1.87c-.73-.68-1.43-1.33-2.15-2h-1.95c-.95-1.38-2.23-2.16-3.96-2.08-.97-1.93-3.41-1.35-4.68-2.75-1.28-1.41-3.73-.8-4.69-2.74-1.69,0-3.03-.66-3.97-2.09h-1.91c-.74-.68-1.44-1.33-2.17-2h-1.81c-.76-.69-1.47-1.33-2.11-1.9-.73-.07-1.35-.12-1.98-.18-.46-.46-.92-.92-1.5-1.5-1.39-.16-2.92-.33-4.38-.5-.52-.52-.98-.98-1.58-1.58h-3.06c-2.04-.53-2.54-2.96-4.54-1.93-.82-.75-1.53-1.39-2.28-2.07h-3.76c-.73-.67-1.43-1.32-2.17-2h-1.77c-.78-.7-1.48-1.33-2.24-2h-3.71c-.55-.55-1.01-1.01-1.59-1.59-1.4-.15-2.93-.32-4.37-.48-.54-.54-1-1-1.59-1.59h-3.66c-.75-.68-1.4-1.38-2.17-1.91-1.01-.69-2.95.09-3.03,1.17-.07.97-.01,1.94-.01,3.2.43.55,1,1.28,1.78,2.29.04.59.04,1.53.17,2.45.23,1.54-.89,2.27-1.96,3.35v9.44c0,46.27,0,92.55,0,138.82,0,1.26-.41,2.08-1.26,2.2-.6.08-1.38.08-1.72-.19-1.07-.86-1.96-1.8-2.83-2.63v-11.68c.68-.74,1.32-1.45,1.85-2.02v-5.75c-.66-.8-1.21-1.46-1.74-2.1.59-.59,1.05-1.05,1.51-1.51.1-.28.29-.56.29-.85.01-40.45.01-80.9.01-121.36-.79-1.84-2.76-2.63-3.85-4.71v-9.25c.6-.66,1.23-1.35,1.86-2.05-1.16-1.6-3.9-.51-4.71-2.81h-5.75c-.73-.68-1.43-1.33-2.15-2h-7.69c-.72-.67-1.42-1.32-2.14-2h-5.72c-.51-.51-.97-.97-1.43-1.43-.46-.46-1.04-.49-1.75-.48-3.53.05-7.06.02-10.35.02q-1.95-1.88-3.78-.11h-9.5c-.76.67-1.47,1.29-2.28,2h-7.59c-.73.68-1.42,1.33-2.14,2h-5.74c-.73.67-1.43,1.32-2.16,2h-5.71c-.52.52-.98.98-1.57,1.57-1.38.16-2.9.35-4.41.53-.48.48-.94.94-1.4,1.4-1.87.61-3.79.21-5.7.32-1.46.69-2.42,1.93-3.26,3.05v97.04c.55.55,1.01,1.01,1.47,1.47.82,2.16.07,4.34.42,6.16-.81.81-1.27,1.27-1.96,1.96-.06,2.63-.01,5.51-.02,8.39,0,2.91,0,5.82,0,8.74,0,.74-.95,1.34-2.14,1.33-.3,0-.61-.09-.91-.13-.23-.23-.64-.45-.66-.69-.1-1.92-.17-3.84-.17-5.76,0-38.51,0-77.01,0-115.52,0-1.63-.48-2.09-2.3-2.15-.65-.02-1.29,0-2.07,0-.92.61-1.89,1.72-2.96,1.83-1.48.15-2.26.97-3.24,1.95h-3.71c-.76.67-1.46,1.3-2.25,2h-1.77c-.73.68-1.43,1.33-2.15,2h-1.81c-.78.68-1.41,1.54-2.25,1.86-.83.32-1.86-.03-2.56.89-.36.47-.94,1-1.47,1.07-.96.12-1.83.17-2.53.99-.38.44-.97.76-1.52.98-.55.23-1.18.28-1.77.41-1.14,1.15-2.29,2.29-3.46,3.47h-1.85c-.74.68-1.44,1.33-2.17,2h-1.86c-1.17,1.17-2.31,2.31-3.46,3.46-.88.23-1.98.2-2.59.73-1.94,1.7-3.7,3.61-5.56,5.47h-1.82c-8.05,8.06-16.06,16.06-24.24,24.24-.33.87-.09,2.17-1.23,3.11-1.74,1.43-3.3,3.08-4.8,4.52v2.17c-1.17,1.17-2.32,2.32-3.46,3.46-.23.88-.46,1.75-.69,2.63-1.95.95-1.14,3.54-2.75,4.68-.94.67-.83,1.63-.83,2.68-1.26,1.33-2.58,2.71-3.93,4.13v1.78c-.7.79-1.33,1.49-1.8,2.03v79.65c.55.55,1.01,1.01,1.48,1.48.28,1.14-.91,1.34-1.35,2.16-.45,1.78-.17,3.7-.21,5.61-.05,1.94,0,3.88-.01,5.82,0,.74-.96,1.34-2.14,1.33-.3,0-.61-.09-.91-.14-.23-.23-.64-.45-.66-.69-.1-1.6-.16-3.2-.16-4.79,0-29.45,0-58.89-.02-88.34,0-.9-.19-1.81-.27-2.55-.52-.28-.78-.55-1.05-.55-19.27-.26-88.31-.08-96.97.23-.68.37-.74.92-.74,1.64.03,53.72.02,107.43.02,161.15,0,1.85-1.28,2.5-3.26,1.63-.26-.11-.42-.46-.66-.74v-1.76c-.7-.78-1.33-1.49-1.81-2.02v-7.81c.55-.55,1.01-1.01,1.47-1.47.13-.27.36-.54.36-.81.02-3.56.02-7.12,0-10.68,0-.28-.19-.56-.3-.84-.46-.46-.92-.92-1.5-1.5v-3.95c.41-.47,1.02-1.18,1.69-1.97-.56-.63-1.17-1.3-1.81-2.02v-50.41c.64-.69,1.29-1.39,1.93-2.07-.03-.67-.06-1.3-.09-1.87-.66-.75-1.29-1.45-1.96-2.21v-58.06c-.56-.56-1.02-1.02-1.71-1.71-.05-1-.11-2.25-.18-3.66.53-.65,1.11-1.37,1.8-2.23.03-.11.19-.4.19-.69.01-6.8.01-13.59.01-20.53.54-.63,1.16-1.34,1.82-2.1.04-.54.08-1.17.13-1.87-.62-.67-1.27-1.37-1.94-2.1V8.7c-.51-.34-1.01-.95-1.52-.96-6.79-.06-13.59-.05-20.39-.03-.27,0-.54.24-.81.37-.2.24-.56.48-.56.73-.04,2.58-.03,5.15-.03,7.63.56.56,1.01,1.01,1.47,1.47.47.45.51,1.03.49,1.75-.06,2.23-.02,4.47-.02,6.32-.85,1.45-1.9,1.06-2.82,1.15-.35.48-1.01.95-1.02,1.44-.06,9.38-.05,18.77-.05,28.38.48.59,1.06,1.31,1.85,2.27.83,1.64-.6,2.62-1.79,3.77v34.97c.56.6,1.21,1.3,1.88,2.02v3.81c-.67.71-1.32,1.41-1.88,2.02v3.81c.66.78,1.22,1.44,1.76,2.09-2.52,2.73-2.52,2.86.01,5.61v5.87c-.45.51-1.07,1.22-1.78,2.02v3.82c.57.62,1.23,1.31,1.88,2.02v3.81c-.67.73-1.32,1.43-1.87,2.02v15.56c.52.52.98.98,1.51,1.51.8,1.42.19,2.97.29,4.33-.63.63-1.09,1.09-1.75,1.75-.05,1.04-.1,2.29-.16,3.68.55.66,1.14,1.38,1.89,2.28v23.22c-.48.52-1.08,1.25-1.76,1.9-.44.42-.99.72-1.49,1.07q-2.46-.43-2.47-1.99c0-7.77,0-15.53,0-23.3v-35.83c.69-.76,1.34-1.46,1.87-2.04v-3.91c-.53-.53-.99-.99-1.45-1.45-.61-1.15-.69-15.65-.16-29.81,2.38-2.57,2.38-2.72-.07-5.37.1-.23.16-.5.31-.68.43-.48.91-.92,1.4-1.42V30.1c-.61-.66-1.26-1.37-1.93-2.09v-1.82c-.65-.73-1.24-1.4-1.83-2.07.53-.53.99-.99,1.44-1.44.14-.59.39-1.18.39-1.77.03-4.21,0-8.41.03-12.62,0-.61.17-1.22.2-1.4,1.06-1.25,1.88-2.23,2.54-3.01h21.5c.81.71,1.52,1.33,2.07,1.82,1.7.38,2.59-.54,3.43-1.55,1.53-.65,3.15-.23,4.72-.3,1.61-.07,3.24-.05,4.85,0,1.57.05,3.17-.24,4.57.19.6.6,1.06,1.06,1.63,1.63h182.57c.5-.44,1.21-1.05,2.03-1.77h5.76c.6.56,1.3,1.21,2.02,1.88h1.87c.72-.67,1.42-1.32,2.02-1.88h23.32c.51.51.97.97,1.43,1.43.26.15.52.43.78.43,4.5.03,9,.02,13.26.02.69-.69,1.15-1.15,1.6-1.6,2.19-.44,4.42-1.06,6.01,1.49h35.04c.51-.45,1.22-1.07,2.03-1.78h42.65c.61.57,1.31,1.22,2.02,1.88h3.81c.73-.67,1.43-1.32,2.09-1.94.69.05,1.32.09,1.96.13,1.1,1.09,2.05,2.6,4.22,1.34.23-.23.69-.69,1.36-1.36,1.03-.05,2.29-.1,3.68-.17.66.55,1.38,1.14,2.28,1.89h3.81c.53-.47,1.23-1.09,1.98-1.76.57-.03,1.2-.06,1.86-.09.69.64,1.39,1.29,2.07,1.93h1.88c.74-.68,1.44-1.32,2.18-2h158.99c.79-.66,1.45-1.21,2.1-1.75.59.59,1.05,1.05,1.5,1.5.28.1.56.3.84.3,161.47.01,322.94.01,484.63.01.59-.49,1.31-1.08,2.23-1.83h3.8c.51.45,1.22,1.07,2.02,1.78h27.12c.61-.57,1.31-1.22,2.03-1.89h201.85c.7-.64,1.38-1.26,2.06-1.87.51.51.96.96,1.42,1.42.26.15.51.4.79.43.64.06,1.29.02,1.94.02,27.51,0,55.01,0,82.52,0,.29,0,.58.14.59.15,1.15,1.03,2.1,1.9,2.99,2.7v310.69c.65.73,1.24,1.41,1.83,2.07-.53.53-.99.99-1.45,1.45-.52,7.52-.57,22.71-.12,33.67.64,1.13,1.73.58,2.59.71.72-.67,1.42-1.32,2.02-1.89h7.78c.51.51.97.97,1.58,1.58,2.33.77,4.91.15,7.43.29,2.23.12,4.47.02,6.28.02,1.49.86,1.07,1.92,1.16,2.83-.49.35-.98.99-1.47,1-4.48.08-8.97.05-13.1.05-.81.81-1.26,1.26-1.75,1.75-4.05.64-8.23-.35-12.22.52-.25.38-.57.64-.57.89-.02,20.04-.02,40.08-.02,59.91-1.1,1.12-2.01,2.04-2.9,2.95-134.32,0-268.61,0-402.9-.03-.74,0-1.33.01-1.65.71-.2.43.1.92.77,1.36.61.41.96.93.85,1.59-.27,1.6,1.19,2.12,1.92,3.28v1.71c.66.73,1.29,1.42,1.92,2.12-.92.92-1.83,1.83-2.75,2.75-.63.04-1.26.07-1.9.11-.38-.46-1.03-.9-1.08-1.39-.14-1.61-.05-3.23-.05-4.85-.78-1.83-2.49-2.85-3.75-4.31-.21-1.13.16-2.86-1.46-2.98-2.54-.19-5.11.07-7.66.2-.24.01-.46.43-.69.66.63.7,1.27,1.39,1.86,2.05v5.8c-.27.27-.46.63-.73.7-.6.16-1.23.17-1.95.25-.65-.58-1.36-1.2-2.11-1.87-.56-.03-1.2-.06-1.83-.09-.37-.47-.96-.9-1.05-1.42-.17-.94-.05-1.93-.05-2.92-.59-1.54-1.95-2.4-3.05-3.38H289.96q-.89,1.88-.89,18.14c-.4.48-.79.97-1.19,1.45-.21.24-.45.46-.72.72v5.8c.61.67,1.26,1.37,1.88,2.04v1.87c-.69.76-1.33,1.47-1.62,1.79-.41,1.33-.67,2.19-1.01,3.27-1.12-1.07-2.01-1.93-2.89-2.76-.53-1.92-.19-3.84-.3-5.91.53-.63,1.14-1.34,1.85-2.17-.78-.83-1.62-1.72-2.44-2.59-1.14-.14-1.4.95-2.31,1.5h-3.59c-.76.67-1.47,1.29-2.22,1.96-.56.03-1.2.06-1.87.09-1.37-1.3-2.75-2.62-4.15-3.95h-19.27c-.75-.45-.98-.98-.96-1.67.05-1.2.57-2.13,1.34-2.14,1.26-.02,2.52.04,3.59.06.64.64,1.1,1.1,1.56,1.56.28.1.56.3.84.3,4.21.02,8.41.01,12.62.01,1.74-.91,2.83-2.54,4.29-3.84h3.85c.66.61,1.36,1.26,2.04,1.88h5.81c1.65-1.23.67-2.99.98-4.6-.57-.66-1.18-1.37-1.9-2.19v-7.7c.55-.59,1.2-1.29,1.89-2.04-.21-.19-.42-.52-.69-.6-.58-.17-1.21-.31-1.81-.31-32.04-.01-64.07-.01-96.11,0-.59,0-1.19.24-1.78.37-.19.24-.56.49-.56.73-.03,4.52-.02,9.03-.02,13.45,1.02,1.02,1.93,1.93,2.85,2.85.69-.63,1.39-1.25,2.05-1.85h3.81c.76.69,1.46,1.33,2.21,2h26.95c1.18.71.92,1.73.97,2.66-.46.38-.92,1.09-1.38,1.09-7.12.07-14.24.04-21.36.06-1.26,0-2.54-.26-3.76.26-.46.46-.92.92-1.4,1.4-3.41.82-6.96-.34-10.3.57-.27.35-.62.59-.63.84-.04,3.22-.02,6.44-.02,9.54-.34.34-.54.71-.81.77-.6.15-1.31.33-1.85.14-.49-.17-1.16-.8-1.18-1.25-.1-3.2-.05-6.41-.05-9.38-.46-.46-.68-.88-.92-.89-1.93-.05-3.87-.03-5.86-.03-.65.6-1.35,1.24-2.02,1.86h-1.88c-1.01-.65-.87-1.63-1.03-2.56-.09-.48-.76-1.23-1.17-1.24-6.45-.08-12.89-.05-19.01-.05-1.36-.81-1.06-1.84-1.11-2.77.47-.37.93-1.06,1.4-1.07,6.15-.07,12.3-.04,18.44-.06.93,0,1.86-.11,2.66-.16.59-.59,1.05-1.05,1.51-1.51,1.88-.5,3.81-.17,5.87-.28.63.54,1.34,1.15,2.06,1.76.34-.35,1.03-.74,1.04-1.13.07-5.18.06-10.35.04-15.53,0-.61-.15-1.23-.24-1.84-.37-.67-.91-.75-1.64-.75-6.47.04-12.94.05-19.42,0-.74,0-1.32.02-1.67.68-.23.44.05.91.72,1.37.93.63.93,1.58.9,2.29-2.4,2.39-4.68,4.65-7.3,7.25,0,0-.63.05-1.32.1-.67-.61-1.37-1.26-2.1-1.94h-2.09c-.3-.77-.63-1.6-1-2.55,2.05-2.13,4.02-4.19,5.99-6.25-.23-.23-.43-.62-.69-.66-.93-.15-1.87-.25-2.81-.25-21.36-.01-42.71-.01-64.07,0-.59,0-1.17.28-1.81.44-.98,1.44-.34,3.08-.45,4.63-.11,1.61-.03,3.23-.03,4.85s-.09,3.24.03,4.85c.11,1.52-.66,3.23.86,4.57.69-.62,1.36-1.24,2.07-1.88h5.74c.71.67,1.41,1.32,2.14,2h23.2c.97.97,1.89,1.89,2.8,2.8-.47.34-.94.98-1.41.98-7.12.06-14.24.03-21.36.06-1.25,0-2.54-.32-3.73.32-.47.47-.93.93-1.38,1.39-2.78.73-5.7-.4-8.4.6-1.18,2.16-.1,4.47-.71,6.53-.94.97-1.84,1.89-2.75,2.82-.34-.54-.92-1.05-.93-1.58-.09-2.91-.04-5.82-.04-8.9-.53-.62-1.14-1.33-1.81-2.13.55-.62,1.15-1.29,1.79-2.02v-19.33c-.47-.33-.97-.96-1.46-.97-7.44-.06-14.88-.05-22.33-.03-.27,0-.55.23-.82.35-.2.24-.58.48-.58.72-.04,2.58-.03,5.16-.03,7.66-.53.53-.99.99-1.62,1.62-.82,2.3-.15,4.87-.29,7.39-.13,2.23-.03,4.48-.03,6.52-.42.42-.62.8-.89.85-.62.12-1.26.09-1.9.12-.37-.47-1.04-.93-1.05-1.41-.08-4.21-.04-8.41-.06-12.62,0-.28-.19-.56-.3-.84-.46-.46-.92-.92-1.37-1.37-.48-1.89-.17-3.81-.27-5.86.54-.63,1.16-1.34,1.77-2.06-.36-.33-.74-.99-1.17-1.02-1.61-.13-3.23,0-4.85-.06-1.58-.05-3.19.26-4.64-.2-1.21-.69-.71-1.76-.83-2.67.51-.34,1-.94,1.51-.96,2.58-.1,5.18-.02,7.76-.06.6,0,1.19-.23,1.76-.35.98-.73.55-1.72.53-2.56-.66-.75-1.29-1.46-1.75-1.98v-5.87c.56-.56,1.02-1.02,1.48-1.48.47-8.25.49-39.96.03-49.23-.23-.22-.47-.62-.7-.62-3.88-.04-7.75-.03-11.53-.03-.75.67-1.42,1.26-2.09,1.85-.53-.53-.92-1.1-1.46-1.41-.5-.29-1.19-.24-1.74-.46-.55-.23-1.04-.62-1.55-.94.51-.33,1.01-.93,1.52-.94,5.18-.07,10.35-.03,15.53-.06.59,0,1.19-.24,1.78-.37.19-.24.55-.49.56-.73.03-36.88.02-73.75.02-110.53.33-.33.53-.69.79-.76.6-.15,1.3-.34,1.84-.16.5.17,1.19.8,1.2,1.23.06,12.3.05,24.59.05,36.89v9.5c2.39,1.28,1.87,3.35,1.95,5.44-.49.6-1.07,1.32-1.95,2.39,0,18.33,0,37.07.02,55.81,0,.26.28.52.43.79.25.17.5.5.75.5,4.51.03,9.02.02,13.36.02.62-.62,1.08-1.08,1.54-1.54,1.84-.76,3.77-.25,5.9-.42.59.46,1.31,1.04,2.12,1.67,1.29-.08,1.52-1.67,2.49-1.95.28-.48.56-.74.56-1,.03-3.85.02-7.71.02-11.32-.69-.69-1.15-1.15-1.82-1.82-.05-1.02-.11-2.27-.17-3.67.54-.66,1.13-1.38,1.88-2.29v-11.57c-.45-.51-1.07-1.22-1.78-2.02v-4.3c.63-.54,1.6-1.39,2.6-2.19.22-.18.57-.18.85-.29.76-.28,2.32.49,2.32,1.16,0,1.29,0,2.59,0,3.88v89.13c.58.58,1.04,1.04,1.5,1.5.82,2.15.52,4.33.2,6.53-.91.86-2.04,1.67-1.66,3.15.14.53.63,1.02,1.07,1.41.18.16.62.03.95.03h96.28c.29-.85.57-1.71.85-2.56-.72-.82-1.34-1.52-2.05-2.32v-3.82c.58-.62,1.23-1.32,1.9-2.04v-166.94c1.19-1.4,2.85-2.38,3.52-3.88-.87-1.05-1.68-2.02-2.72-3.28-.4,1.23-.69,2.09-1.28,3.89-.98.82-2.7,2.26-4.58,3.83-1.53-.85-2.76-2.71-4.51-4.27v-4.41c.09-.5,1.6-.88,1.84-2.29.44-2.53.59-2.23,2.2-2.21.94.01,1.88.08,2.77.12,1.21,2.26,3.29,1.74,5.17,1.82,2.03,1.05,3.28,2.98,5.17,4.66.28,2.61.26,5.43,0,8.14-1.26,1.26-2.4,2.4-3.63,3.63v7.8c.51.56,1.15,1.26,1.83,2.02v3.81c-.62.68-1.27,1.38-1.88,2.04v7.68c.7.77,1.33,1.48,1.82,2.02v5.86c-.55.55-1.01,1.01-1.47,1.47-.5,7.85-.52,17.95-.08,27.87,2.34,2.52,2.33,2.68-.23,5.46v73.8c.52.57,1.17,1.28,1.85,2.02v29.03c.51.35,1.01.99,1.5.99,11.65.06,23.3.03,34.95.06,1.24,0,2.54-.33,3.72.33.47.47.93.93,1.49,1.49h5.87c.52-.46,1.23-1.09,2.02-1.79h7.69c.63.59,1.33,1.24,2.02,1.88h13.53c.74-.68,1.44-1.32,2.02-1.86h7.79c.53.53.99.99,1.44,1.45,2.15.77,4.33.53,6.51.16.46-.46.92-.92,1.54-1.54.62.53,1.21,1.14,1.91,1.59,1.05.68,3.08-.06,3.09-1.06,0-.97,0-1.94,0-2.91v-8.44c.67-.67,1.13-1.13,1.82-1.82.05-1,.11-2.25.18-3.66-.53-.65-1.12-1.37-1.82-2.24.49-.58,1.04-1.24,1.76-2.1v-9.43c0-63.1,0-126.2,0-189.3,0-1.21.48-2.01,1.35-2.12.98-.12,1.89.06,2.52.96v207.71c.66.71,1.32,1.41,1.9,2.04v5.75c-.7.79-1.33,1.5-1.91,2.16.08.72-.06,1.49.26,1.93.75,1.03,1.72,1.91,2.48,2.71h4.04c.75-.68,1.45-1.32,2.02-1.84h7.8c.54.54.99.99,1.45,1.46.59.14,1.17.37,1.77.39.93.03,1.87-.09,2.68-.13.58-.58,1.04-1.04,1.65-1.65.64.52,1.29,1.05,2.04,1.66.61-.54,1.28-1.12,2.02-1.77h1.85c.67.62,1.37,1.27,2.04,1.88h29.05c.77-.69,1.47-1.33,2.05-1.85,1.65-.38,2.58.45,3.38,1.47,1.54.65,3.07.49,4.6.12.47-.47.92-.92,1.52-1.52.64.53,1.3,1.07,2.2,1.81,6.82,0,13.91,0,21.01-.02.25,0,.5-.33.75-.5.82-2.15.52-4.33.2-6.51-2.4-2.6-2.4-2.74.14-5.49v-46.4c.67-.76,1.29-1.47,1.96-2.21-.59-.65-1.21-1.33-1.84-2.01v-17.38c.64-.72,1.25-1.39,1.85-2.06-.52-.52-.98-.98-1.43-1.43-.14-.26-.35-.51-.41-.8-.07-.31-.02-.64-.02-.97,0-33.65,0-67.31.01-100.96,0-.29.16-.58.23-.82.65-1.17,1.73-.62,2.57-.8.96.62.92,1.56,1.15,2.48.21.84,1.03,1.52,1.77,2.52v5.65c-.47.53-1.1,1.24-1.8,2.02v7.67c.59.65,1.23,1.35,1.84,2.02-.64.7-1.29,1.41-1.82,1.99-.37,1.62.41,2.58,1.43,3.35.63,1.2.69,12.59.17,25.98-2.37,2.56-2.37,2.71.17,5.46-.58.66-1.16,1.33-1.81,2.08v1.85c.61.67,1.26,1.37,1.88,2.04v1.87c-.69.76-1.33,1.47-1.92,2.13.06.71.12,1.33.18,1.96.46.46.92.92,1.36,1.36.84,1.18.12,2.51.56,3.82-.61.72-1.31,1.37-1.78,2.15-.49.82-.53,1.79.11,2.6.4.51.9.92,1.44,1.46v9.74c-.51.56-1.15,1.27-1.84,2.02v1.87c.6.66,1.23,1.36,1.85,2.05-.46.46-.92.92-1.38,1.38-.17.25-.47.51-.48.76-.04,2.56-.02,5.13-.02,7.36.76.94,1.29,1.59,1.8,2.22-.62.62-1.08,1.08-1.54,1.54-.49,1.89-.17,3.81-.27,5.86.54.63,1.15,1.34,1.83,2.13-.56.63-1.16,1.3-1.81,2.02v7.68c.62.68,1.25,1.36,1.87,2.04-.49.49-.95.95-1.4,1.4-.16.26-.46.51-.46.77-.03,3.86-.02,7.71-.02,11.36.66.66,1.12,1.12,1.58,1.58.12.27.34.55.35.82.03,2.26.02,4.53.02,7.03-.47.58-1.06,1.3-1.82,2.25v3.8c.42.49,1.04,1.2,1.75,2.02v3.82c-.55.59-1.2,1.29-1.87,2.02v4.43c1.18.92,2.69,2.1,3.77,2.94v4.35c-.57.57-1.03,1.03-1.49,1.48-.74,2.17-.07,4.34-.38,6.17.62.55.85.94,1.09.94,31.7.03,63.41.03,95.09.03.34-.57.89-1.08.91-1.61.09-2.91.04-5.82.04-8.87-.55-.63-1.17-1.34-1.84-2.11.58-.64,1.2-1.32,1.84-2.02,0-48.49,0-97.03,0-145.57,1.94-1.96,3.9-3.9,5.86-5.87-1.24-1.16-2.13-1.99-2.97-2.78-1.2.71-.89,1.74-1.01,3.26-1.32,1.21-2.94,2.79-4.68,4.21-.4.33-1.22.14-1.97.2-.86-.83-1.78-1.71-2.67-2.56-.12-.33-.32-.6-.32-.88-.02-2.91-.02-5.82,0-8.74,0-.27.23-.55.35-.82.24-.2.48-.58.72-.58,3.87-.04,7.74-.03,11.54-.03,1,1,1.91,1.91,2.83,2.83.03.64.06,1.27.09,1.94.63.68,1.29,1.38,1.92,2.06v5.81c-1.85,1.85-3.68,3.68-5.58,5.58-.53,2.45-.06,5.02-.24,7.73.53.63,1.13,1.34,1.87,2.23v3.81c-.49.54-1.12,1.25-1.82,2.02v5.74c.6.66,1.23,1.35,1.83,2.02-.64.71-1.28,1.41-1.79,1.97v48.57c2.55,2.77,2.56,2.93.2,5.46-.1.28-.27.57-.28.85-.01,11.33-.01,22.65-.01,34.15.52.61,1.12,1.33,1.8,2.13-.54.61-1.13,1.29-1.78,2.02v21.27c1.29,1.36,2.61,2.74,3.87,4.07-.07.74-.13,1.36-.19,1.99-.46.46-.92.92-1.59,1.59-.27,2.59-.26,5.41,0,8.01.39.42.61.86.82.86,31.71.03,63.42.03,95.13.03q.97-1.68.97-12.4c.52-.62,1.13-1.33,1.86-2.19v-125.99c1.32-1.39,2.61-2.76,3.91-4.13-.25-.24-.44-.6-.71-.68-.59-.16-1.23-.17-1.95-.26-.65.58-1.36,1.2-2.11,1.86-.56.03-1.2.06-1.81.09-.94-.53-1-1.4-1.2-2.36-.17-.84-.97-1.54-1.73-2.65-.41-2.12,0-4.69-.16-7.46.76-.82,1.62-1.74,2.42-2.61,1.57-.77,3.11-.5,4.29-.28,1.2,1.04,2.17,1.89,3.01,2.61.04.87.07,1.51.1,2.14q.86.79,2.79-1.02h2.09c1.41,1.51,2.96,3.16,4.68,5.01v3.65c-.55.59-1.2,1.29-1.87,2.02v1.86c.63.69,1.25,1.37,1.87,2.05-.96.96-1.87,1.87-2.82,2.82h-1.92c-1.31-1.24-2.66-2.51-4.05-3.82q-.85,2.16-.85,41.56v83.55c.62.66,1.27,1.36,1.94,2.08,0,4.49,0,9.02,0,13.56.51.32,1.03.93,1.54.93,20.39.05,40.77.04,61.16.04,10.35,0,20.71,0,31.06,0,.92,0,1.84-.14,2.62-.21,1.22-1.61.52-3.22.59-4.68-.66-.75-1.28-1.46-1.85-2.11.09-.73.17-1.35.24-1.96.46-.46.92-.92,1.37-1.37.11-.28.32-.55.33-.83.02-13.54.01-27.09.01-40.28.8-.8,1.26-1.26,1.83-1.83v-11.7c-.45-.51-1.07-1.22-1.78-2.03v-5.97c.78-.66,1.76-1.48,2.83-2.38,1.14.47,2.07,1.47,2.7,2.79-.47.47-.93.93-1.38,1.38-.11.28-.31.56-.31.84-.01,18.44-.01,36.89-.01,55.54.49.6,1.09,1.32,1.73,2.09-.11,1.64.71,2.9,2.1,3.92-.63.69-1.25,1.37-1.88,2.05v5.79c.24.24.44.63.7.67.92.16,1.87.27,2.8.28,30.42.01,60.84.01,91.25,0,.59,0,1.18-.26,1.77-.4.18-.25.52-.5.52-.75.04-3.22.02-6.43.02-9.51.6-.6,1.05-1.05,1.51-1.51.14-.26.38-.52.41-.79.06-.64.02-1.29.02-1.94,0-9.38,0-18.77.01-28.15,0-.29.16-.58.23-.81.65-1.17,1.74-.61,2.59-.8.27.25.63.43.71.7.19.58.32,1.2.33,1.8.02,8.41,0,16.83.02,25.24,0,.92.13,1.85.19,2.59.63.63,1.09,1.09,1.74,1.74,0,3.92,0,8.04,0,12.07,2.96,1.04,5.53.4,8.05.52,2.58.13,5.18.03,7.76.03h67.95c2.59,0,5.18.12,7.76-.04,2.47-.15,5.08.69,7.51-.79-.71-.77-1.33-1.46-1.95-2.13v-5.75c.68-.74,1.32-1.44,1.85-2.02v-7.79c-.99-.99-1.9-1.9-2.83-2.83h-5.74c-2.34-2.3-4.64-4.57-6.87-6.76v-3.95c.94-.94,1.85-1.85,2.83-2.83h5.85c1.29,1.22,2.67,2.54,4.02,3.83.69-.04,1.32-.08,1.95-.12.92-.92,1.86-1.81,2.72-2.77.18-.2.06-.66.08-1h5.41c.94,1.19,2.12,2.69,3.15,3.99h4.01c1.13,1.05,2.07,1.93,2.95,2.74v5.9c-.93.93-1.84,1.84-2.75,2.75-.63.05-1.28,0-1.87.17-.71.2-1.1.73-.92,1.19.28.71.89.93,1.62.73.74-.21,1.29,0,2,1.2-.85,1.13,1.17,3.18-1.02,4.59h-1.93c-2.54-2.54-5.05-5.05-7.57-7.57-.38.38-1.08.75-1.09,1.13-.07,5.49-.05,10.98-.05,16.46,0,.66.27,1.18,1.03,1.66h93.77c.32,0,.66.06.96-.02.28-.07.53-.28.79-.42.46-.46.91-.91,1.37-1.37.63-.05,1.25-.09,1.96-.14.65-.6,1.35-1.24,2.09-1.92h3.84c1.65.76.32,3.15,1.99,3.84,9.11,0,18.15,0,27.18-.03.23,0,.57-.39.66-.66.16-.47-.2-1.14-.9-1.17-2.56-.11-5.13-.04-7.46-.04-.9-.78-1.61-1.4-2.38-2.06h-5.61c-.57-.57-1.03-1.03-1.49-1.49-2.76-.89-5.68.21-8.47-.68-.82-.96-1.69-1.91-3.4-1.52-.54.47-1.25,1.09-2.15,1.87-1.7,0-3.62.08-5.53-.06-.42-.03-.91-.78-1.14-1.29-.24-.54-.21-1.21-.25-1.49-1.01-1.16-1.86-2.13-2.63-3.01h-3.93c-.78-.7-1.48-1.33-2.13-1.9-1.72,0-3.34,0-4.95,0-.3,0-.6-.11-.77-.15-.8-.67-1.51-1.27-2.29-1.93h-3.46c-.98-.78-1.7-1.35-2.27-1.8h-3.35c-.6-.53-1.23-1.55-2.01-1.68-1.64-.26-3.01-.74-3.95-2.17h-3.84c-.74-.68-1.44-1.33-2.15-1.99h-1.84c-.74-.68-1.44-1.32-2.18-2h-3.66c-.84-.72-1.55-1.33-2.16-1.86-2.01-.12-4.11.58-5.3-1.63-.87-.23-1.93-.22-2.58-.73-1-.78-1.79-1.58-3.26-1.63-.75-.03-1.46-1.09-2.27-1.74-.51-.03-1.14-.06-1.83-.1-.66-.62-1.36-1.27-2.07-1.94h-3.81c-.71-.67-1.41-1.32-2.07-1.94-.69-.04-1.32-.07-1.95-.11-.46-.46-.91-.91-1.37-1.37-.74-.74-1.89-.17-2.6-.71-.98-.75-1.65-1.81-3.19-1.74-1.31.06-1.69-1.94-3.07-1.86-1.97.12-2.61-1.59-3.81-2.53-.5-.4-.92-.9-1.39-1.37h-1.9c-.71-.67-1.41-1.32-2.14-1.99h-1.77c-.75-.65-1.42-1.23-2.08-1.8-.32.32-.74.55-.75.78-.04,3.86-.03,7.72-.03,11.58-.37,1.25-2.42,1.39-2.03,3.07Zm308.51,18.64c-.23-.42-.49-.94-.88-1.14-.81-.4-1.21,0-.82.82.19.39.71.65,1.14.88.07.04.6-.49-1.15-1.72-.25-1.15.48-2.45-.79-3.69-1.2-.44-2.7-.15-4.16-.14-.76.9-.68,1.71.2,1.86.59.1,1.22.02,1.8.02q1.59,1.55,4.64,3.11Zm-187.16,2.71h18.85c.97,0,1.94-.04,2.91,0,1.26.06,2.51.17,3.76.28,1,.09.1,2.1,1.67,1.65.91-.91,1.82-1.83,2.74-2.75.06-.62.11-1.24.17-1.87.98-1.21,1.89-2.5,3.38-3.14,1.5-.27,3.29.75,4.36-1.01v-1.94c-.95-.95-1.86-1.86-2.83-2.83h-3.79c-.73-.68-1.42-1.33-2.14-2h-1.86c-.73-.67-1.43-1.32-2.16-2h-3.85c-.9-1.54-2.48-1.67-3.94-2.22-1.07-.41-1.72-1.6-3.21-1.68-1.46-.08-2.14-2.39-4.05-1.86-.73-.6-1.46-1.2-2.31-1.9h-3.67c-.73-.68-1.43-1.33-2.14-2h-1.85c-.74-.68-1.44-1.32-2.11-1.94-1.01,0-2.02.17-2.63-.82-.78-1.27-2.31-.79-3.28-1.42-1.03-.67-1.71-1.73-3.22-1.69-1.27.03-1.65-1.99-3.07-1.86-1.58.15-2.17-1.12-3.17-1.93h-1.81c-.74-.69-1.45-1.33-2.17-2h-1.83c-.75-.68-1.45-1.32-2.11-1.92-1.06,0-2.03-.01-3,0-.3,0-.6.1-.91.15-2.68,2.48-2.85,2.48-5.42.09-1.17-.48-2.46-.23-3.71-.24-7.76-.02-15.53,0-23.29-.06-.47,0-.93-.69-1.41-1.07.08-.91-.24-1.95,1.13-2.76h3.47c6.47,0,12.94,0,19.41,0,.68,0,1.25-1.02,1.23-2.24,0-.3-.13-.59-.14-.64-1.02-1.11-1.89-2.06-2.72-2.97h-1.95c-.76-.69-1.46-1.33-2.1-1.91-.73-.06-1.35-.12-1.97-.17-1.14-1.14-2.29-2.29-3.44-3.44-1.61-.13-3.07-.57-4-2.07-1.32,1.2-3.06,1.89-3.18,4.22-.08,1.49-1.71,2.39-3.43,3.57.07-3.28-3.28-1.16-4.23-3.09v-3.88c.92-.92,1.83-1.83,2.75-2.75.63-.05,1.28-.01,1.87-.18.71-.2,1.11-.72.93-1.18-.28-.71-.89-.9-1.62-.75-.31.07-.64.01-1.81.01-.78-1.08-1.91-2.64-2.76-3.82-1.23-.13-1.85-.19-2.47-.26-1.14-1.14-2.29-2.29-3.43-3.43-.88-.23-1.75-.46-2.63-.69-1.14-1.14-2.29-2.29-3.44-3.44h-1.94c-1.59-1.59-3.3-3.1-4.75-4.82-.96-1.13-2.28-.81-3.32-1.31-1.86-1.86-3.69-3.69-5.53-5.53h-1.94c-1.6-1.6-3.31-3.11-4.76-4.83-.96-1.14-2.3-.77-3.32-1.31-1.18-1.18-2.32-2.32-3.46-3.47-.63-.04-1.26-.07-1.9-.11-2.94-2.45-5.27-5.56-8.14-7.71-.89-.18-1.68-.1-2.05-.45-1.88-1.77-3.66-3.65-5.42-5.44h-1.98c-.74-.68-1.44-1.32-2.02-1.86h-3.82c-.84.72-1.55,1.33-2.03,1.74h-3.95l-1.54-1.54c-3.38-.84-6.94.34-10.27-.56-.54-.54-1-1-1.55-1.55h-7.81c-.53.47-1.24,1.1-2.02,1.8h-3.99c-.71-.81-1.56-1.78-2.45-2.79.21-.26.53-1,.86-1,8.39-.06,16.78-.05,24.84-.05,1.02-.79,1.69-1.63,2.52-1.87.89-.26,1.88-.12,2.52-1.07-1.6-1.56-3.21-3.14-4.91-4.79h-2.05c-2.13-2.2-4.41-4.49-6.61-6.84-.73-.78-1.59-.79-2.5-1.03-.84-.22-1.51-1.06-2.3-1.66-1.51.41-.79,1.95-1,2.37-1.24,1.4-2.1,2.37-2.89,3.26-2.31-.32-4.62.78-6.75-.84v-4.03c.87-.9,1.73-2.23,3.14-2.9,1.56-.29,3.33.7,4.62-1.16-.89-.33-1.73-.64-3.36-1.25-2.4-1.79-4.64-5-7.64-7.3-.69-.07-1.31-.14-1.93-.2-1.83-1.83-3.66-3.66-5.49-5.49-.63-.05-1.26-.09-2.09-.16-1.91-1.91-3.94-3.93-5.78-5.77-.95-.11-1.57-.18-2.18-.25-2.52-2.52-5.03-5.03-7.55-7.55h-1.74c-2.45-1.78-3.97-4.36-6.31-5.79-.81-.15-1.6-.07-1.98-.42-1.89-1.76-3.68-3.63-5.49-5.45h-1.97c-2.52-2.52-5.01-5.07-7.59-7.52-.36-.34-1.2-.18-2.15-.28-1.84-1.84-3.87-3.86-5.78-5.77-.84-.06-1.47-.11-2.1-.16-.23-.23-.45-.47-.69-.68-1.72-1.54-2.36-1.53-4-.18-.47.38-1.01.67-1.59,1.05-1.18-.06-2.43-.13-3.42-.18-.7-.7-1.16-1.16-1.81-1.81h-9.43c-7.12,0-14.24,0-21.35,0-.71,0-1.35-1.15-1.27-2.23.05-.65.28-1.18.97-1.61h29.21c.77-.89,1.61-1.86,2.54-2.93-.97-1.74-2.82-2.97-4.28-4.6-1.07-.45-2.38-.17-3.32-1.31-1.44-1.73-3.1-3.28-4.58-4.81h-2.11c-1.85-1.85-3.68-3.68-5.55-5.55-1.08-.4-2.38-.17-3.31-1.31-1.43-1.74-3.08-3.29-4.52-4.8h-2.16c-1.86-1.86-3.69-3.69-5.52-5.52-.61-.09-1.22-.18-2.14-.32-1.87-1.81-3.93-3.8-6.03-5.82h-1.85c-1.87-1.87-3.7-3.7-5.53-5.53-.61-.09-1.22-.17-2.22-.31-1.81-1.79-3.85-3.81-5.83-5.76-.74-.04-1.38-.07-2.01-.1-1.83-1.83-3.66-3.66-5.49-5.49-.61-.08-1.23-.16-2.22-.29-1.81-1.8-3.84-3.82-5.79-5.77-.78-.05-1.42-.08-2.05-.12-1.83-1.83-3.66-3.66-5.49-5.49-.62-.07-1.23-.15-2.2-.27-1.82-1.82-3.85-3.84-5.78-5.77-.81-.05-1.44-.1-1.99-.13-.76-.66-1.47-1.28-1.96-1.7h-5.87c-2.73,2.52-2.87,2.52-5.73-.12h-5.51c-7.12,0-14.24.02-21.35-.05-.37,0-.73-.72-1.07-1.08.9-.93,1.8-1.86,2.68-2.76h23.29c.73-.67,1.43-1.32,2.09-1.93.39,0,.72-.03,1.04,0,.69.08,1.37-.15,1.53-.84.06-.27-.64-.87-1.11-1.07-.55-.24-1.21-.2-1.97-.3-2.41-2.45-4.89-4.99-7.37-7.52h-1.96c-1.85-1.85-3.67-3.68-5.52-5.49-.1-.1-.49-.04-.66.08-.24.18-.57.46-.58.71-.05,1.93-.03,3.86-.03,5.69-1.01,1.01-1.93,1.93-2.88,2.88h-5.98c-.73-.82-1.59-1.78-2.49-2.79.21-.31.43-.88.85-1.19.94-.71.76-1.67.79-2.73.83-.85,1.7-1.78,2.63-2.66.51-.49,1.91-.44,2.61.11.51.39.92.9,1.38,1.36.38-.37.97-.69,1.09-1.14.15-.56.1-1.36-.21-1.8-.74-1.04-1.69-1.93-2.43-2.74h-2.18c-1.86-1.86-3.69-3.69-5.55-5.55-1.1-.36-2.42-.14-3.31-1.32-.77-1.02-1.8-1.85-2.74-2.79h-2.11c-.79-.84-1.63-1.84-2.57-2.71-1.16-1.07-1.97-2.83-3.56-3.04-1.45-.19-2.14-1.27-3.21-1.68-1.45-.56-2.93-.8-4.02-2.11-.28-.34-1.2-.14-2.04-.2-1.91-1.91-3.94-3.93-5.78-5.77-.95-.11-1.56-.18-2.18-.25-1.14-1.14-2.29-2.29-3.43-3.43-.61-.08-1.23-.16-2.24-.29-1.12-1.12-2.47-2.47-3.83-3.83h-1.9c-.72-.67-1.42-1.32-2.08-1.94-.69-.04-1.32-.08-1.96-.11-.98-1.37-2.28-2.12-3.99-2.05-1.15-1.15-2.29-2.29-3.44-3.44-1.71.06-3.02-.67-3.99-2.05-.64-.04-1.27-.07-1.96-.11-.66-.62-1.36-1.27-2.08-1.94h-1.85c-.71-.64-1.38-1.26-2.02-1.83-.77.67-1.48,1.29-2.03,1.76-1.72.38-2.59-.57-3.7-1.87-4.87,0-10,0-15.14-.02-.28,0-.55-.22-.9-.37-.78-.83-1.6-1.71-2.42-2.59.35-.35.58-.78.81-.78,4.52-.07,9.03-.05,13.55-.17.71-.02,1.02-.76.79-1.22-.13-.27-.42-.61-.68-.65-.63-.09-1.29-.03-1.87-.03-.74-.68-1.44-1.33-2.09-1.94-.71-.05-1.34-.09-2.03-.14-.86-1.48-2.34-1.88-3.94-2.05-1.22-2.05-3.23-1.79-5.12-1.64-.5.04-.95.67-1.43,1.04q-.03,1.89-.87,2.7h-5.77c-1.03-.79-2.29-1.6-2.77-3.11,1.16-1.16,2.31-2.31,3.45-3.45.05-.63.09-1.26.13-1.82-.65-1.93-2.9-.72-3.9-2.16-1.09-1.55-3.68-.83-4.65-2.77-1.68,0-3.04-.65-3.97-2.09h-1.91c-.74-.68-1.44-1.33-2.17-2h-1.82c-.76-.69-1.46-1.33-2.2-2h-3.84c-.89-1.6-2.42-1.89-3.98-2.14-1.02-1.48-2.45-1.86-4.17-1.69-.57.06-1.18-.23-1.81-.37-.8-1.03-1.73-1.85-3.26-1.5-.69-.63-1.4-1.26-2.16-1.95h-3.74c-.73-.68-1.43-1.32-2.17-2h-3.74c-.77-.69-1.47-1.33-2.22-2h-3.8c-1.01-1.53-2.37-2.1-4.13-1.88-.59.07-1.21-.17-1.65-.24-.84-.66-1.57-1.24-2.1-1.65-2.18-.18-4.11.34-5.95-.43-.46-.46-.92-.92-1.45-1.45-.67.59-1.34,1.18-2.07,1.83h-3.8c-.68-.63-1.38-1.27-2.12-1.95h-3.72c-.78-.7-1.48-1.33-2.02-1.81h-3.81c-.88.74-1.6,1.34-2.22,1.86-2.07-.12-4,.25-5.87-.31-.46-.46-.92-.92-1.64-1.64h-6.42c-1.62,0-3.24-.02-4.85.02-.27,0-.53.26-.8.4-.46.46-.92.92-1.44,1.44-.66-.61-1.29-1.26-2-1.81-.66-.52-.91-.93-.62-1.38.39-.61.96-.63,1.69-.63,6.14.02,12.27-.02,18.41-.08.23,0,.61-.4.65-.66.09-.5-.32-1.07-1.02-1.13-1.26-.12-2.53-.03-3.6-.03-.65-.65-1.11-1.11-1.57-1.57-.27-.12-.54-.35-.82-.36-4.21-.02-8.41-.02-12.62,0-.28,0-.56.19-.87.31-.83.95-1.67,1.93-3.24,1.58-1.61-.96-2.75-2.54-4.16-3.82-.23.21-.58.39-.66.65-.18.58-.14,1.24-.35,1.8-.59,1.55-2.05,2.4-3.12,3.55-.87.94-1.87,1.77-2.71,2.56v2.12c-.94.94-1.85,1.85-2.77,2.77-.63.04-1.26.08-2.19.14-.68-.84-1.5-1.83-2.57-3.14,1.69-1.76,3.74-3.65,5.64-5.72v-1.31c.98-2.15,2.98-2.82,3.56-4.65-.25-.26-.47-.7-.69-.7-7.76-.04-15.53-.03-23.25-.03-.72-.67-1.42-1.32-2.02-1.88h-31.16c-.91,1.52-2.38,1.86-3.96,2.17-.93.18-.92.86.29,1.55,1.76.07,3.94.15,5.87.22.69.69,1.15,1.15,1.72,1.72h5.62c.76.67,1.47,1.29,2.28,2h15.36c.72.68,1.42,1.33,2.14,2,5.79,0,11.61,0,17.43.03.23,0,.52.4.66.67.08.16.02.52-.12.66-.87.91-1.78,1.79-2.51,2.52-2.59,0-4.86-.06-7.12.04-.53.02-1.04.57-1.56.88.48.34.95.95,1.43.97,1.91.07,3.9-.26,5.11,1.78,1.65.08,3.05.62,3.97,2.11h3.87c.72.68,1.42,1.33,2.14,2h3.79c.73.68,1.43,1.32,2.12,1.95,2.06-.75,2.67,1.43,3.75,1.8,1.61.14,2.87.26,4.13.37,1.04,2.32,4.35,1.08,5.37,3.43,1.67.04,3.04.64,3.97,2.1h3.86c.73.68,1.43,1.33,2.15,2h1.89c1.43,1.3,2.56,2.89,4.47,4h3.41l3.57,3.57c1.77-.19,2.98.75,4.02,2.09h1.85c.74.68,1.44,1.33,2.17,2h1.7c1.2.7,1.69,2.2,3.29,1.93.66-.11,1.21.21,1.59.84.76,1.29,2.33.75,3.28,1.42,1.02.71,1.73,1.7,3.23,1.67,1.26-.02,1.63,2,3.07,1.86,1.59-.16,2.15,1.16,3.11,1.91.69-.62,1.38-1.25,2.04-1.85h3.8c.77.69,1.47,1.33,2.12,1.91,8.19,0,16.28,0,24.37,0,.95,0,1.9.06,2.84.2.26.04.46.43.82.78-.11.77-.23,1.65-.34,2.45-.84.19-1.43.43-2.03.43-7.12.03-14.24,0-21.35.03-.93,0-1.87.14-2.79.3-.26.05-.46.43-.69.65.92.92,1.84,1.84,2.75,2.75.62.06,1.25.11,1.98.17.64.58,1.34,1.22,2.1,1.91h1.82c1.4,1.34,2.79,2.66,4.1,3.92,1.1-.03,2.09-.1,2.68.87.78,1.27,2.22.9,3.29,1.34,1.18,1.18,2.32,2.32,3.46,3.47.63.05,1.25.1,2,.16,1.32,1.25,2.7,2.57,4.07,3.87.66.03,1.3.06,1.93.09,1.61,1.58,1.95,1.7,4,2.06,1.14,1.14,2.29,2.29,3.43,3.43.61.08,1.22.17,1.84.25,1.67,1.01,2.81,2.58,4.23,3.88h2.01c1.55,1.57,3.25,3.1,4.69,4.83.95,1.14,2.28.79,3.32,1.31,1.18,1.18,2.32,2.32,3.46,3.47.63.04,1.26.08,1.97.12,1.34,1.28,2.73,2.59,4.07,3.87.7.04,1.33.08,1.96.12,2.52,2.52,5.03,5.03,7.55,7.55.63.03,1.27.07,2.03.11,1.96,1.95,3.99,3.97,5.9,5.86,3.17-.42,3.77,2.46,5.56,3.64.62.07,1.24.14,2.18.24,1.85,1.85,3.88,3.87,5.78,5.77.85.07,1.48.12,2.1.17.46.46.88.96,1.38,1.36.81.66,1.78.61,2.6.14.79-.46,1.43-1.17,2.06-1.71,1.43.08,2.67.14,3.65.19.71.71,1.16,1.16,1.81,1.81h9.44c4.53,0,9.06,0,13.59,0,.7,0,1.34,1.16,1.26,2.24-.05.65-.29,1.18-1.03,1.65-7.31,0-14.74,0-22.17,0-1.61,0-1.62-.03-2.08,2.52,1.36,2.07,3.24,3.73,5.12,5.23.75.11,1.36.2,1.97.29,1.83,1.83,3.66,3.66,5.52,5.52h2.18c1.43,1.5,3.07,3.06,4.5,4.8.94,1.14,2.23.92,3.31,1.31,1.86,1.86,3.69,3.69,5.55,5.55h1.96c2.46,2.52,4.95,5.06,7.33,7.5.79.11,1.4.2,2.33.34,1.87,1.81,3.92,3.8,5.96,5.78.68.03,1.31.06,1.95.09,1.83,1.83,3.66,3.66,5.49,5.49.61.08,1.23.17,2.22.3,1.81,1.8,3.84,3.82,5.8,5.76.77.04,1.4.07,2.03.11,2.52,2.52,5,5.07,7.59,7.51.35.33,1.22.12,1.93.16,1.34,1.28,2.73,2.6,4.07,3.87.71.04,1.58-.17,1.93.16,2.59,2.44,5.07,4.99,7.59,7.51.63.03,1.27.07,1.93.1,1.34,1.26,2.7,2.54,4.02,3.78.79-.68,1.5-1.3,2.14-1.84,2.05.1,3.97-.21,5.86.26.46.46.92.92,1.69,1.69,5.13,0,10.59-.01,16.05.02.6,0,1.21.18,1.78.37.23.08.36.43.54.66-.92.92-1.83,1.83-2.83,2.83-5.08,0-10.24,0-15.4,0-.64,0-1.4,1.66-1.1,2.38.11.28.13.63.33.83.88.92,1.81,1.79,2.63,2.6.79.06,1.41.11,2.04.16,1.83,1.83,3.66,3.66,5.49,5.49.62.06,1.24.13,2.16.22,1.86,1.86,3.89,3.88,5.78,5.77.87.07,1.49.13,2.12.18,1.83,1.83,3.66,3.66,5.49,5.49.62.06,1.25.12,1.9.18,3.02,2.33,5.25,5.54,8.25,7.74.76.12,1.36.22,1.97.32,1.83,1.83,3.66,3.66,5.51,5.51h2.1c1.49,1.54,3.15,3.08,4.59,4.81.94,1.14,2.26.86,3.79,1.51,2.16,2.24,4.63,4.79,7.04,7.28.74.04,1.38.07,2.01.1,1.83,1.83,3.59,3.74,5.53,5.44.61.53,1.71.51,3.45.96,1.95,1.95,4.44,4.45,7.12,7.14.27.03.89.11,1.5.18,1.14,1.14,2.23,2.36,3.47,3.39.4.33,1.2.19,2.17.31,1.82,1.82,3.85,3.84,5.74,5.72h5.86c.82-.72,1.53-1.33,2.03-1.76h3.68c1.07.75,1.82,1.72,2.59,1.73,1.52.03,2.28.93,3.36,2.03,6.89,0,13.98-.02,21.06.05.38,0,.75.7,1.09,1.05-.92.96-1.82,1.88-2.69,2.78h-5.82c-.73-.68-1.43-1.32-2.02-1.87h-11.58c-.83.72-1.54,1.33-2.17,1.88-1.76,0-3.39-.08-5,.04-.54.04-1.04.58-1.56.89.2.23.37.54.62.67,1.05.57,2.39.21,3.34,1.36,1.44,1.73,3.12,3.26,4.64,4.82h2.05c1.84,1.84,3.67,3.67,5.54,5.54,1.06.44,2.37.17,3.32,1.31,1.44,1.73,3.1,3.28,4.58,4.81h2.11c1.88,1.63,3.17,4.09,6.09,4.14,1.14,1.14,2.29,2.29,3.43,3.43.62.06,1.25.11,2.14.2,1.88,1.88,3.91,3.9,5.78,5.77.9.09,1.52.15,2.14.21,1.14,1.14,2.29,2.29,3.58,3.58,1.04.1,2.29.07,3.19,1.2.8,1.01,1.81,1.85,2.74,2.78h1.88c.72.67,1.43,1.31,2.17,2h1.82c1.47,1.3,2.55,2.93,4.29,3.84.6.1,1.21.21,1.81.31,1.14,1.14,2.29,2.29,3.43,3.43.63.05,1.26.09,1.97.15.65.6,1.35,1.24,2.09,1.92h1.85c.72.67,1.42,1.32,2.09,1.95.68.03,1.31.06,1.95.1,1.14,1.14,2.29,2.29,3.52,3.52,1.43.25,2.99.48,3.91,1.97,1.61.15,3.07.59,3.94,2.05.69.05,1.32.09,2.03.13.66.61,1.36,1.26,2.08,1.93h3.81c.71-.66,1.41-1.31,2.02-1.88h5.74c1.83.66,0,3.31,1.87,3.56,1.11-.27,1.24-1.57,2.39-1.33l1.6,1.6c3.62,0,7.47,0,11.32-.02.26,0,.52-.28.78-.44.46-.46.92-.91,1.42-1.42.68.62,1.35,1.23,2.06,1.88.6,0,1.26-.06,1.89.03.26.04.52.39.67.67.09.16.02.52-.11.66-.88.9-1.8,1.77-2.62,2.55-.83-.11-1.44-.19-1.92-.25-.81-.66-1.53-1.25-2.12-1.72-3.14,0-6.05,0-8.96.02-.28,0-.55.22-.82.34-.46.46-.92.91-1.59,1.59-1.05,0-2.32-.09-3.57.05-.4.05-1.09.8-1.03,1.09.16.7.84.91,1.55.81.32-.05.65,0,1.02,0,.67.63,1.37,1.28,2.09,1.95h1.9c.92.92,2.02,1.72,2.71,2.78,1,1.55,3.1.55,4.05,2.03.84,1.3,2.21.96,3.46,1.03.6.03,1.19.23,1.79.35.46.46.92.92,1.38,1.38,1.75-.14,3,.72,3.99,2.05.64.03,1.27.06,1.94.09.68.64,1.38,1.29,2.09,1.96h1.85c.74.68,1.44,1.32,2.18,2h3.75c.99.91,1.7,1.83,3.2,1.97,1.08.1,2.02,1.63,3.1,1.73,1.49.14,2.25,1,3.24,1.95h3.72c.75.67,1.46,1.3,2.23,2h1.77c.74.68,1.44,1.33,2.17,2h3.76c.75.69,1.46,1.33,2.2,2h5.58c.86.73,1.57,1.34,2.35,2h3.63c.6.6,1.05,1.05,1.58,1.58,1.45.16,2.98.34,4.38.49l1.58,1.58h3.72c.75.67,1.45,1.31,2.22,2h5.68c.73.66,1.42,1.29,2.09,1.89.71-.64,1.41-1.27,1.96-1.77h9.74c.54.54,1,1,28.07,3.8-.84.21-1.93.89-3.09,1.98-3.16,0-6.36-.01-9.57.03-.23,0-.57.39-.66.66-.15.47.22,1.14.91,1.17,2.55.11,5.11.04,7.47.04.82.71,1.48,1.27,2.11,1.81,1.02-.99,1.94-1.89,2.83-2.76,0-1.01,0-1.97-26.21-4.88Zm242.71-50.48h3c.66-.99,1.75-2.6,2.56-3.81,1.22-.16,1.83-.23,2.89-.37,2.94-2.94,6.13-6.13,9.43-9.43.42-.03,1.05-.08,1.68-.12,6.41-6.41,12.81-12.81,19.25-19.25h1.85c.27-.24.58-.41.74-.66.63-1.03.22-2.38,1.35-3.35,1.95-1.69,3.7-3.62,5.81-5.73h76.29c.32,0,.66.05.97-.01.28-.06.54-.25.86-.4.79-1.01,1.72-1.83,3.37-1.46.58.52,1.28,1.16,2.08,1.88,5.7,0,11.52,0,17.33-.03.24,0,.47-.39.71-.6.11-.28.28-.54.33-.83.06-.31.01-.64.01-.97V99.49c0-.32-.04-.65.01-.97.05-.29.2-.56.3-.84.46-.46.92-.92,1.38-1.38.49-2.2.18-4.45.22-6.68.01-.59-.26-1.18-.4-1.76-.46-.46-.92-.92-1.45-1.45v-3.91c.54-.58,1.18-1.28,1.86-2.02v-11.58c-.65-.69-1.3-1.39-2.02-2.16,0-19.35,0-38.75-.03-58.15,0-.23-.43-.46-.86-.89-230.14,0-460.49,0-690.83.02-.27,0-.54.24-.81.37-.46.46-.92.92-1.45,1.45-.66-.58-1.34-1.17-2.08-1.82h-9.62c-.67.62-1.37,1.26-2.04,1.89h-25.15c-.74-.65-1.41-1.24-2.02-1.78-.8.68-1.52,1.29-2.13,1.8-73.3,0-146.42,0-219.54.01-2.55,0-5.11.14-7.66.27-.24.01-.46.43-.69.66.49.33.95.9,1.47.96,2.52.28,5.1-.34,7.51.31.56.56,1.01,1.01,1.52,1.52,2.08.56,4.38-.44,6.46.63.46.46.92.92,1.41,1.41h5.72c.74.68,1.44,1.33,2.16,2h5.72c.75.68,1.45,1.32,2.19,2h3.65c.85.73,1.56,1.34,2.34,2h3.64c.59.59,1.05,1.05,1.58,1.58,1.45.16,2.98.33,4.37.49l1.59,1.59h3.72c.75.67,1.45,1.31,2.23,2h3.73c.74.68,1.44,1.33,2.17,2h1.81c.76.69,1.46,1.33,2.21,2h3.63c.86.73,1.58,1.34,2.04,1.73,1.59.16,2.84.29,4.09.42,1.06,2.29,4.36,1.06,5.37,3.43,1.71-.04,3.02.68,3.96,2.08h1.93c.73.67,1.43,1.32,2.17,2h4.01c.66,1.65,2.17,1.99,3.81,2.09.96,1.94,3.41,1.33,4.69,2.74,1.27,1.4,3.72.82,4.68,2.75,1.73-.09,3.01.7,3.96,2.08h1.95c.72.67,1.42,1.32,2.15,2h1.86c.98,2.48,4.34,1.16,5.39,3.47.88.23,1.75.46,2.63.69,1.14,1.14,2.29,2.29,3.43,3.43.63.05,1.26.09,1.97.14.65.6,1.35,1.25,2.09,1.93h1.85c.72.67,1.42,1.32,2.09,1.95.68.04,1.32.07,1.95.1,1.57,1.55,1.94,1.68,4,2.06,1.14,1.14,2.29,2.29,3.43,3.43,2.07.41,2.49.56,4,2.06.63.04,1.26.08,1.97.12,1.34,1.28,2.73,2.59,4.07,3.87.7.04,1.33.08,1.96.12,1.52,1.51,1.93,1.65,4,2.06,1.14,1.14,2.29,2.29,3.43,3.43,2.06.39,2.44.52,4,2.06.63.03,1.27.07,1.95.1,1.36,1.29,2.74,2.61,4.07,3.87.73.05,1.36.09,1.98.14,1.14,1.14,2.29,2.29,3.43,3.43.88.23,1.75.46,2.63.69,1.14,1.14,2.29,2.29,3.43,3.43.64.03,1.27.06,1.95.09,2.04,1.97,4.09,3.97,6.04,5.85,3.12-.4,3.71,2.49,5.5,3.67.62.06,1.24.12,2.15.21,1.87,1.86,3.89,3.89,5.78,5.77.88.08,1.5.13,2.13.19,1.83,1.83,3.66,3.66,5.49,5.49.62.06,1.25.11,2.13.19,1.88,1.88,3.91,3.91,5.78,5.77.91.09,1.53.15,2.15.21,1.83,1.83,3.66,3.66,5.49,5.49.63.05,1.25.1,2,.16,1.32,1.25,2.7,2.57,4.07,3.87.66.03,1.3.06,1.93.09,1.83,1.83,3.66,3.66,5.49,5.49.61.08,1.23.17,2.22.3,1.81,1.8,3.84,3.82,5.81,5.76.77.04,1.4.07,2.03.11,1.43,1.25,2.49,2.91,4.25,3.78.61.11,1.21.23,2.24.42,2.23,2.28,4.71,4.81,7.2,7.36.6.04,1.23.08,1.86.12,1.14,1.14,2.29,2.29,3.43,3.43.6.11,1.24.13,1.79.36.55.23,1.08.6,1.51,1.02,1.62,1.58,3.19,3.21,4.74,4.78h2.01c1.84,1.84,3.67,3.67,5.53,5.53,1.05.47,2.37.17,3.32,1.31,1.44,1.73,3.11,3.27,4.62,4.82h2.08c2.53,2.53,5.05,5.05,7.57,7.57.62.06,1.24.12,2.15.21,1.87,1.87,3.9,3.89,5.78,5.77.89.08,1.51.14,2.13.2q3.34,3.32,6.82,4.34c2.01,2.01,4.5,4.51,7.15,7.17.34.03.96.1,1.58.16,1.83,1.83,3.66,3.66,5.49,5.49.63.05,1.25.1,1.88.14,3,2.39,5.28,5.54,8.23,7.73.8.14,1.6.05,1.98.4,1.9,1.75,3.69,3.63,5.53,5.46h1.83c2.81,2.07,4.29,5.74,8.23,6.17,1.83,1.83,3.65,3.67,5.47,5.49h1.85c2.81,2.09,4.3,5.74,8.7,6.23,2.22,2.27,4.7,4.8,7.2,7.36.57.04,1.2.09,1.83.14,1.83,1.83,3.66,3.66,5.49,5.49.62.06,1.24.13,2.17.22,1.18,1.18,2.51,2.57,3.9,3.88,1.38,1.31,2.53,2.89,4.2,3.85.63.1,1.24.19,1.85.28,1.83,1.83,3.66,3.66,5.52,5.52h1.96c2.45,2.52,4.93,5.07,7.28,7.49.83.12,1.43.22,2.36.36,1.87,1.81,3.94,3.8,6.03,5.81h1.85c2.55,2.55,5.04,5.11,7.63,7.55.36.34,1.22.13,1.96.19,1.32,1.26,2.7,2.58,4.07,3.87.67.03,1.31.06,1.94.1,2.52,2.52,5,5.07,7.59,7.51.35.33,1.22.12,2.04.18,1.26,1.26,2.58,2.67,3.99,3.97,1.4,1.28,2.37,3.46,4.26,3.67,2.7.31,3.53,2.57,5.19,3.92,1.48,1.21,2.75,2.69,4,3.94.82.06,1.45.1,2.08.14,1.83,1.83,3.66,3.66,5.49,5.49.62.07,1.24.14,1.7.19,1.4,1.47,2.72,2.85,3.74,3.91h2.55c1.84,1.84,3.67,3.67,5.54,5.54,1.06.44,2.42.12,3.31,1.32.77,1.03,1.8,1.85,2.75,2.8h1.85c1.42,1.35,2.8,2.66,4.12,3.91.75.07,1.38.12,2,.17,1.14,1.14,2.29,2.29,3.58,3.58,1.02.15,2.37,0,3.16,1.22.62.96,1.6.87,2.67.85,1.33,1.26,2.71,2.57,4.13,3.92h1.66c1.58,1.37,3.02,2.61,4.46,3.85,1.5-.28,2.16,1.14,3.23,1.57,1.43.58,2.94.78,4.01,2.11.27.34,1.2.15,1.95.21,1.31,1.25,2.7,2.57,4.11,3.91h1.84c.5.5.96.95,1.41,1.41.74.77,1.84.24,2.62.71.79.48,1.46,1.6,2.21,1.62,1.5.04,2.15,1.28,3.22,1.68,1.46.55,2.93.8,4.02,2.11.28.34,1.2.14,1.91.19.65.6,1.35,1.25,2.09,1.92h1.85c.72.67,1.42,1.32,2.09,1.95.68.03,1.31.07,1.95.1.46.46.92.91,1.37,1.37.74.75,1.89.17,2.6.72.99.75,1.67,1.72,3.19,1.77,1.49.04,2.14,2.4,4.05,1.87.74.59,1.47,1.17,2.3,1.83.49.03,1.12.07,1.82.12.66.61,1.36,1.26,2.08,1.93h3.8c.72.67,1.42,1.32,2.08,1.94.69.04,1.33.08,1.96.12.46.46.85,1.04,1.39,1.35,1.3.75,3.07.49,4.04,2.05.22.35,1.14.3,1.75.37.92.1,1.85.14,2.61.2.62.62,1.07,1.07,1.64,1.64h3.68c.76.67,1.47,1.29,2.22,1.95.56.03,1.19.07,1.88.11.66.62,1.36,1.27,2.08,1.94h5.74c.73.67,1.43,1.32,2.08,1.93.7.05,1.33.09,1.88.13.76.66,1.47,1.28,2.24,1.94h3.52c.94.76,1.66,1.35,2.17,1.76,1.56.08,2.8.14,3.81.19.69.69,1.15,1.15,1.71,1.71h3.69c.76.67,1.46,1.3,2.26,2h5.66c.73.68,1.43,1.33,2.14,2h3.79c.74.68,1.44,1.32,2.17,2h5.6c.84.72,1.55,1.33,2.16,1.85,2.72.16,5.29-.25,7.78.22.51.51.97.97,1.67,1.67,2.54.41,5.44-.38,8.1.33.57.57,1.03,1.03,1.58,1.58.66-.57,1.33-1.15,2.08-1.8h7.58c.74-.69,1.45-1.33,2.17-2h5.72c.75-.68,1.45-1.32,2.19-2h5.59c.85-.73,1.57-1.34,2.34-2h3.48c.97-.77,1.69-1.35,2.24-1.78,2.16-.16,4.09.32,5.94-.41.46-.46.91-.92,1.46-1.46h3.72c.75-.67,1.45-1.31,2.23-2h3.73c.74-.68,1.44-1.33,2.2-2.03.58,0,1.23.07,1.86-.03.26-.04.53-.39.66-.67.08-.16-.06-.59-.2-.65-1.11-.44-2.24-.82-3.3-1.19-.02-2.39-.67-4.61.44-6.72,2.17-.71,4.34-.55,6.01-.22,1.32,1.09,2.31,1.91,3.12,2.58.11,2.87.13,2.89,2.78,3.06.66-.6,1.36-1.23,2.12-1.92h3.76c.73-.67,1.43-1.32,2.17-2h2.07c.66-1.66,2.17-1.99,3.81-2.09.96-1.94,3.41-1.33,4.69-2.74,1.27-1.4,3.72-.82,4.68-2.75,1.73.09,3.01-.7,3.96-2.08h1.95c.72-.67,1.42-1.32,2.15-2h1.84c1.65-1.63,1.99-1.74,4.04-2.1,1.14-1.14,2.29-2.29,3.43-3.43.61-.08,1.22-.17,2.25-.31,1.11-1.11,2.46-2.46,3.82-3.82h2.01c.86-.89,1.72-1.86,2.68-2.72,1.17-1.05,1.96-2.83,3.57-3.02,1.47-.16,2.28-.91,3.16-1.8,2.16.1,3.39-1.37,4.69-2.74.44-.47.91-.92,1.37-1.38Zm105.14,1.66c1.83-1.83,3.66-3.66,5.51-5.51h1.94c3.15-3.21,6.32-6.44,9.38-9.55.82-.07,1.44-.13,1.81-.16,6.98-6.98,13.82-13.82,20.83-20.83-.07-.5.45-1.58-.67-2.22-14.39-.56-34.29-.5-35.59.11-.46.46-.91.91-1.46,1.46h-3.92c-.54-.48-1.25-1.11-1.99-1.78-.25-.02-.56-.07-.87-.07-14.54,0-29.09,0-44.22,0-.56.66-1.38,1.65-2.2,2.63-.45.54-.43,1.93.13,2.62.41.5.9.92,1.45,1.46v3.91c-.5.56-1.14,1.26-1.83,2.02v19.25c-.68.73-1.32,1.43-2.01,2.18,0,.6.07,1.25-.03,1.88-.04.26-.39.58-.66.66-.48.15-1.16-.23-1.17-.92-.07-5.15-.04-10.3-.04-15.21-.79-.92-1.4-1.63-1.93-2.25-.1-2.07.21-3.99-.18-5.54-.71-1.02-1.5-1.72-1.7-2.56-.22-.89-.18-1.79-1.13-2.29-6.39,6.39-12.79,12.79-19.19,19.19-.63.05-1.25.09-1.88.14-2.98,2.4-5.28,5.53-8.21,7.73-.81.14-1.41.25-2.39.42-2.24,2.32-4.71,4.87-7.13,7.38-.7.03-1.33.06-1.96.1-1.43,1.25-2.48,2.94-4.26,3.77-.54.25-1.19.23-1.8.34-1.14,1.14-2.29,2.29-3.43,3.43-.63.04-1.26.09-1.99.14-1.32,1.26-2.71,2.58-4.06,3.87-.67.03-1.31.06-1.94.1-1.14,1.14-2.29,2.29-3.52,3.52-1.42.25-2.99.47-3.91,1.97-1.6.17-3.07.57-3.93,2.05-.69.05-1.32.09-2.05.15-1.32,1.26-2.7,2.58-4.06,3.87-.67.03-1.31.06-1.95.09-.99,1.34-2.25,2.17-3.84,2.06-1.02.94-1.96,1.8-2.92,2.68.61.37,1.12.94,1.64.95,6.79.06,13.57.04,20.36.04,1,0,1.81,2.01,1.21,3.03-.16.27-.45.46-.75.77h-21.2c-.74.66-1.44,1.3-2.2,1.99h-5.74c-.66-.6-1.36-1.23-2.04-1.85-.93.61-.72,1.63-1,2.5-.26.84-1.11,1.49-1.86,2.44.09.64.2,1.52.32,2.38,2.73.81,5.31.13,7.82.43.54.06,1.03.6,1.55.92v1.93c1.2,1.41,2.82,2.42,3.64,4.06-.61.74-1.2,1.46-1.73,2.09.3,1.65-.71,3.43,1.03,4.53h1.88c.75-.68,1.45-1.32,2.19-2h9.47c.85-.73,1.56-1.34,2.05-1.76,2.83-.31,5.4.19,7.92-.35.47-.47.93-.93,1.59-1.59,1.96-.08,4.13-.16,6.06-.23.7-.7,1.16-1.16,1.68-1.68,2.06-.55,4.36.43,6.44-.61.46-.46.91-.91,1.42-1.42h3.79c.72-.68,1.42-1.33,2.13-2h5.74c.73-.67,1.43-1.32,2.16-2h3.68c.83-.72,1.53-1.33,2.3-2h3.53c.93-.76,1.65-1.35,1.94-1.58,1.75-.49,3.37.37,4.18-.65,1.13-1.41,2.75-1.29,4.06-2.01.18-.1.37-.5.31-.65-.12-.28-.42-.67-.65-.67-9.68-.07-19.36-.08-29.05-.19-.39,0-.99-.79-1.11-1.31-.23-.94,0-1.89.94-2.51h30.98c.71-.66,1.41-1.3,2.08-1.92h5.72c.74.65,1.41,1.23,2.05,1.79,1.01-.99,1.93-1.89,2.84-2.78,0-2.61-.02-5.2.03-7.78,0-.23.43-.46.67-.7,1.46.56,2.34,1.75,3.17,2.96.29,1.51-.69,3.26.95,4.51h1.92c.67-.62,1.37-1.27,2.1-1.94h1.76c.81-.69,1.47-1.41,2.28-1.87.5-.28,1.32.02,1.82-.25.81-.44,1.46-1.61,2.2-1.63,1.49-.05,2.16-1.2,3.23-1.66,1.4-.61,2.94-.76,4.01-2.11.27-.34,1.19-.16,1.95-.23,1.31-1.24,2.69-2.56,4.1-3.9h1.8c.76-.69,1.47-1.33,2.1-1.9.73-.07,1.35-.12,1.98-.18,1.14-1.14,2.29-2.29,3.46-3.46,1.08-.39,2.38-.17,3.31-1.31,1.43-1.73,3.08-3.29,4.53-4.8h2.15c1.89-1.64,3.17-4.09,6.09-4.14Zm47.29,8.99v-7.69c-.67-.72-1.32-1.42-1.95-2.09.04-.69.08-1.32.11-1.87.66-.76,1.28-1.47,1.72-1.97v-9.63c-.76-.93-1.35-1.65-1.88-2.3.07-1.4.13-2.65.18-3.67.68-.68,1.14-1.14,1.6-1.6.07-.62.15-1.23.23-1.96-.57-.65-1.2-1.36-1.86-2.11-.03-.56-.07-1.19-.1-1.87.63-.67,1.27-1.37,2.06-2.22-.9-.33-1.75-.65-2.42-.89-1.46.61-2.19,1.7-3.08,2.58-5.96,5.93-11.94,11.85-17.82,17.87-1.02,1.05-2.28.79-4.6,1.94-2.25,2.25-5.44,5.44-8.82,8.82-.24.03-1.07-.12-1.44.22-1.91,1.75-3.7,3.62-5.53,5.45-.63.03-1.27.07-1.95.11-1.35,1.29-2.74,2.61-4.07,3.87-.72.05-1.35.09-1.98.14-1.14,1.14-2.29,2.29-3.43,3.43-.88.23-1.75.46-2.63.69-1.14,1.14-2.29,2.29-3.43,3.43-.63.03-1.27.06-1.94.09-1.37,1.3-2.75,2.62-4.07,3.87-.74.06-1.37.11-2,.16-.94,1.44-2.34,2-3.99,2.05-1.15,1.15-2.29,2.29-3.44,3.44-1.77-.18-2.98.74-4.02,2.09h-1.85c-.74.68-1.44,1.33-2.17,2h-1.79c-.79.68-1.49,1.78-2.24,1.82-1.44.07-2.24.85-3.29,1.57-1.21.83-2.9.69-4.02,2.07-.67.83-2.51,0-3.03,1.27,0,7.95,0,15.7.03,23.45,0,.23.43.46.66.69,19.73.48,28.98.4,35.63-.32.46-.46.92-.92,1.41-1.41h11.62c.67.61,1.37,1.26,2.05,1.89h21.28c.75-.69,1.46-1.32,2.02-1.84h7.69c.81.66,1.46,1.2,2.1,1.73.6-.6,1.06-1.06,1.52-1.52.28-.1.57-.28.85-.28,2.91-.02,5.83.04,8.73-.06.47-.02.93-.7,1.44-1.11v-7.55c.71-.81,1.33-1.52,1.78-2.03v-5.88c-.57-.57-1.03-1.03-1.53-1.53-.63-1.48-.3-3.1-.27-4.66.05-2.54-.38-5.11.22-7.54.54-.54,1-1,1.69-1.69,0-2,.03-4.23-.02-6.47-.01-.59-.28-1.17-.43-1.75-.46-.46-.92-.92-1.43-1.43v-7.78c.56-.6,1.21-1.3,1.88-2.02ZM85.19,104.22c.36,2.55.38,2.51,1.94,2.51,13.91,0,27.83,0,41.71,0,.72.67,1.42,1.32,2.09,1.95.69-.04,1.32-.08,1.87-.11.76-.66,1.47-1.28,1.97-1.72h29.18c.57.57,1.03,1.03,1.49,1.49.28.11.55.32.83.32,4.21.02,8.41.02,12.62,0,.28,0,.55-.22.83-.33.21-.24.6-.47.6-.71.03-22,.03-43.99.03-65.87-.72-.8-1.36-1.5-1.85-2.05v-5.86c.54-.54,1.1-.94,1.44-1.47.79-1.23.55-2.36-.56-3.29h-1.91c-.72.67-1.42,1.32-2.15,2h-3.86c-.9,1.53-2.37,1.97-3.98,2.12-1.02,1.44-2.42,1.92-4.15,1.73-.58-.06-1.19.21-1.79.33-1.14,1.14-2.29,2.29-3.48,3.48h-3.79c-1.41,1.35-2.8,2.66-4.2,4h-3.78c-1.22,1.22-2.36,2.36-3.54,3.54-1.06.45-2.5.06-3.29,1.34-.59.96-1.58.91-2.8.87-1.9,1.9-3.93,3.93-5.82,5.82-.87.07-1.5.13-2.12.18-1.83,1.83-3.62,3.71-5.53,5.45-.37.34-1.21.16-1.57.19-6.31,6.31-12.47,12.47-18.9,18.9,0,.12-.03.76-.08,1.77-2.12,2.05-4.36,4.37-6.8,6.49-1.12.98-.66,2.34-1.3,3.32-1.18,1.18-2.32,2.32-3.5,3.5v1.84c-.68.74-1.33,1.44-2,2.17v1.86c-1.3,1.45-2.91,2.56-3.86,4.27ZM216.31,11.58h5.68c.65,0,1.34.15,1.93-.04.76-.24.99-.82.71-1.27-.16-.26-.46-.61-.7-.61-46.88-.03-93.77-.02-140.65-.05-.74,0-1.29.03-1.67.68-.11.28-.3.56-.3.84-.01,28.78-.02,57.55.03,86.33,0,.49.62.98,1.11,1.69.44-1.29.83-2.41,1.22-3.54,1.14-1.14,2.29-2.29,3.44-3.44v-2.49c1.2-.94,2.71-2.12,3.82-3,.14-1.26.21-1.88.28-2.49,1.83-1.83,3.66-3.66,5.49-5.49.04-.63.09-1.26.11-1.57,7.68-7.68,15.2-15.2,22.86-22.86.36-.03.98-.09,1.6-.15,1.83-1.83,3.66-3.66,5.49-5.49.62-.06,1.25-.11,2-.18,1.31-1.24,2.7-2.56,4.11-3.9h1.85c1.17-1.17,2.32-2.32,3.46-3.46.59-.13,1.22-.18,1.77-.41.55-.23,1.14-.54,1.52-.98.7-.81,1.56-.88,2.53-1,.53-.06,1.11-.59,1.47-1.06.7-.91,1.72-.59,2.56-.9.83-.31,1.47-1.17,2.26-1.85h1.78c.73-.67,1.43-1.32,2.17-2h1.74c.82-.69,1.45-1.54,2.29-1.84.84-.3,1.93.04,2.52-.94.78-1.28,2.22-.9,3.32-1.37,1.18-2.2,3.28-1.55,5.14-1.64,1.45-.44,2.04-2.67,4.11-1.92.68-.62,1.38-1.26,2.14-1.94h3.76c.73-.67,1.43-1.32,2.17-2h3.73c.77-.69,1.47-1.33,2.22-2h5.55c.87-.74,1.59-1.34,2.37-2h3.45c.99-.78,1.71-1.35,2.25-1.77,2.18-.17,4.11.33,5.95-.43.46-.46.91-.91,1.46-1.46h5.67c.74-.67,1.45-1.31,2.24-2.03Zm-11.63,11.65c10.8,0,21.78-.01,32.76.06.38,0,.98.81,1.09,1.33.32,1.56-.48,2.53-1.9,2.53-13.91-.05-27.81-.03-41.7-.03-.71.66-1.41,1.31-2.18,2.04-1.87,0-3.8-.02-5.73.03-.23,0-.46.43-.69.66-.57,3.44.26,6.97-.47,10.18-.67.67-1.13,1.13-1.67,1.67,0,19.31-.01,38.71.04,58.1,0,.7.75,1.02,1.21.8.27-.13.61-.42.65-.68.09-.63.03-1.29.03-1.63,1.13-1.86,2.97-2.77,3.88-4.51.08-.62.16-1.24.24-1.85,1.14-1.14,2.29-2.29,3.43-3.43.07-.62.14-1.24.19-1.66,1.48-1.43,2.86-2.75,3.92-3.77v-2.98c4.36-4.36,8.92-8.92,13.6-13.6q.19-2.27,2.49-2.45c3.99-3.99,7.86-7.86,11.52-11.52,1.04-.07,1.67-.11,2.38-.16.65-.61,1.34-1.27,2.03-1.93.69-.66,1.38-1.32,2.04-1.95.7-.04,1.33-.08,1.96-.11,1.43-1.25,2.47-2.95,4.27-3.76.54-.24,1.19-.25,1.79-.36,1.14-1.14,2.29-2.29,3.43-3.43.63-.04,1.26-.08,1.96-.12.66-.62,1.36-1.27,2.08-1.94h1.87c.72-.67,1.42-1.32,2.08-1.94.7-.04,1.33-.08,1.96-.12.46-.46.84-1.08,1.39-1.33.81-.38,1.88-.29,2.58-.77,1.02-.7,1.7-1.67,3.2-1.74,1.47-.06,2.14-2.4,4.05-1.86.73-.59,1.46-1.18,2.28-1.84.5-.03,1.17.05,1.76-.13.74-.23,1.03-.77.82-1.23-.13-.27-.44-.65-.67-.66-2.59-.05-5.17-.03-7.75-.03-.23-.23-.58-.42-.67-.7-.74-2.08-.1-3.18,1.82-3.18,1.6,0,3.2,0,4.58,0,.85.72,1.51,1.27,2.18,1.84,1.54-2.03,1.4-1.83,4.24-1.85.6,0,1.2-.22,1.8-.33.46-.46.91-.91,1.37-1.37.62-.07,1.23-.15,1.96-.23.65.57,1.36,1.2,2.11,1.86.56.03,1.19.07,1.81.1,1.31-.81,1.47-1.97.8-3.19-.43-.79-1.16-1.43-1.66-2.03.21-1.45-.32-2.76.44-3.91.48-.48.93-.93,1.46-1.46-.6-.66-1.17-1.36-1.82-1.97-.44-.41-1-.69-1.52-1.04-2.53.19-5.1-.34-7.5.26-.56.56-1.02,1.02-1.59,1.59h-3.56c-2.86,2.56-3.02,2.8-3.42,4.4-1.25,1.63-2.04,2.65-2.7,3.5-.95-.07-1.58-.11-2.2-.15-.91-.91-1.83-1.83-2.76-2.76v-1.92c.61-.67,1.24-1.36,1.87-2.04-1.94-1.88-4.31-.55-6.54-.93-.66.58-1.37,1.21-2.16,1.91h-11.48c-.72.67-1.42,1.33-2.14,2h-9.62c-.73.67-1.43,1.32-2.16,2h-5.62c-.83.72-1.54,1.33-2.3,2h-7.41c-.94.76-1.66,1.35-2.24,1.82-1.84,0-3.47-.08-5.07.05-.51.04-.96.66-1.41.99v2.15c.82.28,1.67.56,2.52.85.82-.72,1.52-1.34,2.38-2.1ZM52.57,417.4c7.71,0,14.82,0,21.93-.03.22,0,.44-.44.75-.76.51-1.43.11-3.04.23-4.61.14-1.89-.34-3.81.36-5.64.48-.48.93-.93,1.48-1.48v-44.58c-.78-1.17-1.81-2.33-3.18-3.07-2.03-.71-2.51,1.75-4.14,1.93-1.18-.17-2.49.35-3.65-.39-1.16-1.16-2.3-2.3-3.47-3.47h-1.92c-.67.62-1.37,1.27-2.04,1.89h-1.87c-.76-.69-1.46-1.33-2.12-1.92-.71.06-1.33.12-1.95.18-.91.91-1.83,1.83-2.74,2.74v44.61c1.28,1.33,2.56,2.66,3.78,3.93-.73.87-1.33,1.59-1.86,2.21.18,2.71-.28,5.27.4,8.47Zm1237.23-9.71c-.87,1.34-1.79,2.09-3.26,1.97-.91-.08-1.84.12-2.56.18-.64.64-1.1,1.1-1.64,1.64h-5.66c-.74.67-1.45,1.3-2.22,2h-3.73c-.74.68-1.44,1.33-2.16,1.99h-5.71c-.75.68-1.45,1.32-2.11,1.92-3,0-5.9.01-8.81-.01-.68,0-1.36.17-1.52.86-.06.26.73,1.04,1.13,1.04,22.3.05,44.6.05,66.9.05.66,0,1.18-.27,1.61-.96v-9.59c.67-.72,1.32-1.42,1.98-2.11v-7.75c-1.22-1.56-2.95-.73-4.42-.97-1.49.46-2.08,2.68-4.15,1.93-.68.62-1.38,1.26-2.14,1.94h-3.76c-.73.67-1.43,1.32-2.16,2h-3.73c-.77.69-1.47,1.33-2.15,1.94-2.07-.75-2.65,1.51-4.11,1.91h-5.63Zm-216.28-.97c.51-.32,1.02-.92,1.54-.93,5.17-.07,10.33-.03,15.5-.06.6,0,1.21-.18,1.77-.38.22-.08.53-.48.48-.65-.08-.27-.4-.64-.65-.67-1.25-.15-2.52-.21-4-.31-.54-.48-1.25-1.11-2.04-1.81h-3.72c-.72-.67-1.42-1.32-2.12-1.98h-3.81c-.72.67-1.42,1.32-2.08,1.93-.7.04-1.33.08-1.87.12-.71.6-1.38,1.16-2.02,1.71q-2.57-2.36-4.77-.75v1.82c-.69.76-1.32,1.46-1.91,2.1-.06.73-.12,1.35-.17,1.97-.46.46-1,.85-1.35,1.38-.81,1.22-.57,2.35.53,3.3h1.9c.71.67,1.41,1.32,2.07,1.94h52.35c.24-.24.58-.42.67-.7.73-2.08.1-3.16-1.82-3.18-1.6-.01-3.2,0-4.59,0-.88-.77-1.59-1.39-2.32-2.03h-34.75c-1-1-1.91-1.91-2.83-2.83Zm96.39,4.76c-.73.67-1.4,1.34-2.13,1.93-.62.5-.95.94-.75,1.37.33.69.91.71,1.65.7,15.16-.04,30.32-.03,45.46-.03.93-.54.93-1.44,1.2-2.35.33-1.11,1.23-2.06,1.98-3.22-.57-1.23.73-3.05-1.15-4.01-.68.58-1.35,1.14-1.89,1.6-.91-.65-1.6-1.47-2.43-1.66-.94-.21-1.91-.21-2.45-1.1-.8-1.31-2.37-.53-3.33-1.35-.51-.44-.67-.99-.54-1.72.12-.67-.19-1.21-.9-1.63-.65.59-1.33,1.19-2.05,1.84h-3.78c-.71.66-1.41,1.31-2.15,1.99h-1.74c-.82.69-1.54,1.3-2.27,1.91-1.91-.52-2.65,1.38-4.3,2.08h-3.19c-.97.78-1.69,1.35-1.59,1.27-2.78.97-4.74.04-6.56.9-.47.47-.93.92-1.48,1.48h-5.65ZM297.85,17.41h5.75c.71-.67,1.41-1.32,2.13-1.99h5.65c.8-.71,1.5-1.33,2.11-1.87,2.28-.38,4.64.94,6.57-.91-.45-.35-.84-.81-1.35-1.03-.55-.23-1.27-.1-1.78-.38-.54-.29-.93-.88-1.5-1.45-.81-.04-1.75-.14-2.68-.14-7.42-.01-14.85-.01-22.27,0-.27,0-.54.24-.81.36-.9,5.02-.86,8.18.22,11.21.71-.6,1.37-1.17,2.14-1.83h3.7c.72-.67,1.42-1.32,2.13-1.99Zm923.24,393.19v2.14c.56.5,1.26,1.12,1.94,1.75,1.41,1.31,1.83,1.32,3.97-.06-.71-.64-1.4-1.26-2.02-1.82v-2.01c-1.29-1.39-2.59-1.39-3.88,0Zm-71.84,7.77c-1.3-1.39-2.59-1.39-3.89,0,1.3,1.39,2.59,1.39,3.89,0Zm-112.95-9.38c.22-.43.01-.89-.67-1.26-.07-.04-.46.37-.62.62-.26.41-.02.88.66,1.25.08.04.41-.4.63-.61Zm12.3,11.65c.22.22.55.65.63.61.68-.37.91-.85.66-1.25-.16-.25-.54-.66-.62-.62-.68.37-.88.83-.67,1.26Zm-894.48.65c-.22.22-.48.4-.64.65-.26.41-.02.88.66,1.25.08.04.46-.37.62-.62.26-.41.01-.86-.64-1.29Z"/><path d="m47.29,464h-1.88c-1.63-.79-.32-3.15-2.13-3.91h-3.68c-.73-.65-1.4-1.24-2.02-1.79-.78.68-1.49,1.28-2.08,1.79-2.58.39-3.24-1.87-4.67-2.95v-5.77c1.6-1.6,3.18-3.18,4.8-4.8.68.63,1.36,1.26,2.05,1.89h3.79c.7.64,1.37,1.26,2.01,1.85.75-.66,1.45-1.29,2.1-1.86.72.07,1.33.14,1.95.2.91.91,1.82,1.82,2.72,2.72,0,.64,0,1.28,0,1.93,1.83,2.07,4.22.59,6.32.99.27.11.61.16.81.35,2.06,2.02,4.09,4.07,6.14,6.11.61,1.27.49,2.37-.75,3.26h-1.87c-1.1.97-1.32,2.09-.51,3.3.35.52.89.92,1.34,1.37.16.91.44,1.83-.34,2.61-.46.46-1.02.57-1.74.48-.63-.08-1.28,0-1.92-.02-.3-.01-.59-.12-.88-.18-.91-.91-1.82-1.82-2.73-2.72v-1.95c-1.58-1.57-3.18-3.15-4.81-4.77-.66.61-1.33,1.23-2.02,1.87Z"/><path d="m609.24,244.59c.1,1.6.28,2.54.18,3.44-.17,1.52.89,2.25,1.86,3.24v3.97c-.39,1.1-2.54,1.71-1.78,3.85.54.59,1.17,1.28,1.86,2.04v1.85c-.18.2-.33.53-.59.66-1.49.75-3.02.27-4.18.27-1.44-.83-.89-1.9-1.03-2.78-.66-.7-1.31-1.39-1.98-2.1v-1.8c-.7-.77-1.32-1.47-1.91-2.12.01-1.04.16-2.39-.86-2.52-.89-.11-1.15,1.11-1.1,2.07.02.28-.1.6-.25.85-.16.27-.44.46-.68.71h-1.91c-.67-.63-1.37-1.28-2.08-1.94h-2.47c-.93-1.19-2.1-2.69-3.09-3.97h-4.08c-1.07-1.03-1.99-1.91-2.89-2.77.68-.73,1.33-1.42,1.94-2.08.04-.69.07-1.32.11-1.95.23-.23.45-.65.68-.65,4.46-.13,8.93-.2,13.25-.29,1.89.96,2.8,2.76,4.47,3.81.57-.53,1.25-1.15,1.93-1.79h4.59Z"/><path d="m393.92,215.46v-3.13c-1.05-.36-2.22-.63-3.27-1.17-.8-.4-1.16-1.52-2.27-1.53-.32,0-.64,0-1.26,0-1.85-1.84-3.84-3.83-5.8-5.8-.76.47-.9,1.02-1.02,1.65-.51,2.68-1.26,2.91-3.86,1.26,0-3.15-.01-6.36.02-9.57,0-.25.35-.49.54-.73.27-.14.53-.4.79-.39,1.25.04,2.53-.24,3.75.23,1.14,1.14,2.28,2.28,3.41,3.41,2.19-.32.25-3,2.9-3.61-.22.01.4-.02,1.11-.07,1.34,1.28,2.71,2.59,4.11,3.93h3.79c1.64,1.63,3.23,3.22,4.82,4.81v1.9c.64.7,1.26,1.37,1.89,2.06-1.39,1.02-2.21,2.27-2.09,3.96-.92.95-1.82,1.87-2.69,2.77h-4.88Z"/><path d="m183.33,225.25c-1.87-.09-3.1-.16-3.95-.2-1.37-.92-.84-1.98-1.05-2.85-.6-.92-1.61-.72-2.47-.99-.83-.25-1.48-1.08-2.26-1.7-1.86.49-.3,2.94-2,3.67h-1.84c-.33-.44-.99-.9-1.01-1.38-.09-3.17-.05-6.34-.05-9.26,1.55-1.66,3.26-.64,4.75-.98,1.35,1.28,2.7,2.55,4.03,3.82.7-.43.84-.98.95-1.61.42-2.29.45-2.31,3.08-2.01,1.13,1.13,2.27,2.27,3.53,3.53.78.05,1.71.19,2.63.14,1.03-.05,1.85.25,2.45,1.06.65.89,1.58.81,2.51.96.49.08,1.28.77,1.25,1.12-.16,1.7.76,2.81,2.13,3.56-.8.8-1.25,1.25-1.93,1.93-.05,1-.11,2.24-.18,3.64-.51,1.39-1.9,2.21-3.01,3.28-.63-.03-1.26-.06-1.89-.1-1.81-1.81-3.63-3.63-5.65-5.65Z"/><path d="m698.78,331c-.14-.91.47-2.18-.71-2.57-.94-.31-1.3,1.03-2.05,1.39-.53.25-1.23.15-1.85.21-1.9-1.24-3.29-2.82-3.5-5.2-1.14-1.14-2.29-2.29-3.43-3.43-.04-.63-.07-1.26-.11-1.95.63-.67,1.28-1.37,1.95-2.09v-1.9c1.88-2.02,4.27-.58,6.4-.97,1.79.85,2.65,2.74,4.6,3.86h5.41c.37.51,1.01.99,1.02,1.49.09,3.55.05,7.11.05,10.68-.64,1.5-1.94,2.41-3.15,3.39-.63-.06-1.25-.11-1.87-.17-.91-.91-1.83-1.83-2.73-2.73Z"/><path d="m1033.68,438.76c.71.67,1.41,1.32,2.07,1.94.69.04,1.32.07,1.96.11.91.91,1.82,1.83,2.77,2.77v5.99c-.82.72-1.78,1.56-3.03,2.66h-3.67c-.47-.4-1.18-1.01-2.03-1.74h-3.79c-1.98-1.98-4.01-4-5.91-5.91-1.18.01-2.16.11-2.78-.85-.79-1.21-2.12-1.1-3.17-1.22-1.57-1.76-3.39-3.02-4.47-4.82.91-.98,1.78-1.92,2.62-2.83.77.7,1.47,1.35,2.11,1.94.71.05,1.34.1,2,.15,1,1.26,2.16,2.26,3.76,1.85.66.66,1.11,1.11,1.57,1.57.23-.01.55.07.67-.05,1.16-1.12,2.29-2.27,3.48-3.45.68.62,1.35,1.24,2.05,1.88h3.8Z"/><path d="m46.35,230.01c.03-1.22.04-2.12-.84-2.82-.46-.37-.98-.93-1.04-1.46-.11-.96-.18-1.81-.99-2.51-.44-.38-.76-.95-.99-1.5-.22-.55-.26-1.17-.38-1.77-1.13-1.13-2.27-2.27-3.4-3.4-.04-.62-.08-1.25-.13-1.95-.6-.65-1.24-1.34-1.92-2.08v-3.79c.46-.34.9-.87,1.43-.99.55-.12,1.35-.04,1.75.3,1.22,1.03,2.3,2.23,3.43,3.37.62.06,1.24.11,1.95.17.65-.59,1.35-1.21,2.12-1.91h1.86c1.79,1,.8,2.78,1.03,4.24.09.28.1.65.28.84,1.79,1.83,3.62,3.64,5.43,5.45.04.63.07,1.25.11,1.88-.65,1.85-3.06.46-3.88,2.16,0,3.13.01,6.33-.03,9.53,0,.24-.33.53-.57.7-.16.12-.55.2-.65.1-1.59-1.54-3.15-3.12-4.59-4.56Z"/><path d="m275.48,173.71c0-2.44,0-4.32,0-5.65,1.06-1.52,2.07-1.05,2.97-1.09,1.41,1.28,2.53,2.85,4.16,3.81,1.5.26,2.44-.52,3.13-1.65,1.63.47,2.4,1.77,3.33,2.87.05.63.11,1.25.16,1.87,1.14,1.14,2.27,2.27,3.41,3.41.59,1.27.48,2.38-.78,3.26h-1.83c-1.66,1.23-.58,3-1.05,4.34.46.61.74,1.21,1.21,1.57.91.7.89,1.63.8,2.56-.08.78-.97,1.2-2.23,1.21-.94,0-1.87,0-2.44,0-1.4-.83-1.07-1.86-1.14-2.83-.62-.66-1.27-1.35-1.93-2.06v-2.42c-1.2-.97-2.68-2.16-3.83-3.08-.12-1.18-.18-1.8-.24-2.41-1.14-1.14-2.27-2.27-3.7-3.7Z"/><path d="m388.1,223.23h-2.89c-1.31-1.29-2.62-2.58-3.88-3.82-.86.5-.96,1.05-1.03,1.72-.16,1.71-.21,1.71-2.31,2.1-1.6-.5-2.36-1.97-3.46-3v-5.76c.93-.93,1.84-1.84,2.82-2.82h3.89c.57.52,1.27,1.16,2.03,1.85h7.63c.69.66,1.35,1.35,2.08,1.95.19.16.62.02.94.02,0,.31-.13.75.02.92.64.68,1.36,1.27,1.92,1.77v6.17c-1.46,1.32-3.08,2.77-4.83,4.35-1.23-.29-1.89-1.7-2.93-2.63,0-.94,0-1.88,0-2.81.68.2,1.27.03,1.54-.6.22-.51.31-1.09.39-1.64.09-.62-.18-1.26-.81-1.41-.29-.06-1,.55-1.07.95-.17.87-.05,1.8-.05,2.7Z"/><path d="m1477.39,346.49c-.66.71-1.32,1.4-1.94,2.06-.03.68-.06,1.32-.09,1.95-1.14,1.14-2.28,2.28-3.51,3.51-.3,1.38-.49,2.91-1.91,3.94-.35.25-.23,1.16-.32,1.76-.94,1.7-2.54,2.81-3.85,4.26v1.83c-.51.39-.96,1.04-1.45,1.06-1.24.06-2.53.31-3.64-.19-.3-.29-.73-.5-.74-.74-.07-1.28-.03-2.57-.03-3.83.66-.71,1.32-1.4,1.94-2.06.03-.69.06-1.32.09-1.97,1.19-1.04,2.41-2.09,1.86-3.77,1.32-1.32,2.46-2.46,3.59-3.6.04-2.91,2.49-4.18,4.13-6.07v-1.83c.51-.39.96-1.04,1.45-1.06,1.24-.06,2.53-.31,3.64.19.31.29.73.5.74.74.07,1.28.03,2.57.03,3.83Z"/><path d="m67.72,294.1v-3.84c.66-.71,1.32-1.41,1.94-2.07.04-.69.07-1.32.1-1.95,1.93-1.82,4.28-.52,6.55-.89.61-.54,1.32-1.17,2.06-1.83.64.59,1.32,1.22,2.03,1.86h1.87c.92.62.81,1.6,1.06,2.49.23.83,1.06,1.5,1.79,2.45v5.72c-.71.75-1.58,1.67-2.44,2.56-1.84.27-3.72,1.19-5.23-.64v-1.88c.68-.74,1.32-1.43,1.93-2.1-.05-.7-.03-1.34-.17-1.94-.06-.27-.43-.46-.72-.76-.67.59-1.34,1.19-2.07,1.84h-1.82c-1.35,1.3-2.69,2.57-4.02,3.85-1.03-1.03-1.95-1.95-2.86-2.86Z"/><path d="m139.13,431.01c.23.01.86.04,1.49.07,1.57,1.22.59,2.96.83,4.16-3.26,3.26-6.41,6.41-8.46,8.46-.92,1.7-1.21,1.98-1.18,2.22.32,2.4-1.92,3.06-2.99,4.48h-3.84c-1.1-.95-1.41-2.16-.52-3.27.8-.99,1.83-1.77,1.54-2.99,4.38-4.38,8.66-8.66,13.13-13.13Z"/><path d="m234.85,445.08c-.25,1.51-.14,2.3-.49,2.68-1.44,1.6-3.01,3.08-4.47,4.54-1.15-1.1-2.08-1.98-2.95-2.81v-2.64c1.03-1.03,2.38-2.38,3.92-3.91.03-.25.1-.87.17-1.48,1.14-1.14,2.27-2.27,3.41-3.41.09-.61.14-1.22.27-1.82.06-.28.21-.58.41-.79.88-.89,1.8-1.75,2.58-2.51,1.2,0,2.16-.02,3.12,0,.29,0,.59.13.89.2,1.44,1.29.42,3.01.78,4.59-2.5,2.41-5.04,4.85-7.64,7.35Z"/><path d="m37.62,331.96c.9.9,1.81,1.81,2.81,2.81-.56.65-1.12,1.31-1.73,2.01-.03.55-.07,1.17-.13,2.14-1.5,1.27-3.19,2.72-5.04,4.3-.31-.26-.97-.81-1.69-1.42-1.37-.46-3.02.32-4.34-.46-.97-1.62-.49-3.17-.41-4.52,1.66-1.66,3.24-3.24,4.85-4.85h5.68Z"/><path d="m789.93,333.4v3.54c-2.09,1.67-4.4.54-6.78.87-1.41-1.55-2.92-3.21-4.77-5.23,0-1.06,0-2.64,0-4.23,0-1.68.54-2.21,2.21-2.22.94,0,1.88,0,2.03,0,2.75,2.74,5.02,4.99,7.31,7.27Z"/><path d="m23.06,348.47c-1.83,1.83-3.66,3.66-5.49,5.49-.23.88-.46,1.75-.68,2.63-1.65,1.49-2.97,3.35-5.1,4.63-.72-.27-1.56-.59-2.32-.88,0-1.5,0-2.8,0-4.09,1.83-1.83,3.66-3.66,5.49-5.49.23-.88.46-1.75.68-2.63,1.57-1.57,3.15-3.15,4.76-4.76,1.06.4,1.9.72,2.66,1.01,0,1.5,0,2.8,0,4.09Z"/><path d="m22.11,430.99h1.95c.85.88,1.74,1.8,2.64,2.74-.33,1.34-2.44,1.95-1.63,3.99.51.56,1.13,1.25,1.79,1.98.03.57.05,1.2.08,1.82-1.01,1.86-2.78.9-4.23,1.12-.51-.3-1.08-.54-1.52-.92-1.44-1.24-2.83-2.53-3.99-3.58v-4.21c-.65-.73-1.24-1.39-1.83-2.05.97-.97,1.87-1.87,2.8-2.8h1.93c.63.6,1.31,1.25,2.01,1.91Z"/><path d="m375.19,178.28c.61.1,1.26.08,1.81.32.52.23,1.31.71,1.33,1.1.12,2.57.06,5.14.06,7.91-.9.28-1.76.55-2.61.81-.8-.74-1.52-1.36-2.18-2.04-.67-.69-1.27-1.46-1.75-2.02h-2.23c-.26-.26-.67-.48-.69-.72-.12-2.55-.19-5.11-.25-7.67-.02-.72.98-1.3,2.17-1.29.3,0,.6.1.9.16,1.14,1.14,2.29,2.29,3.43,3.43Z"/><path d="m21.17,193.3v-6.08c1.59-.9,1.59-.92,4.99-.89,1.26,1.46,2.72,3.17,4.66,5.43,0,.78,0,2.37,0,3.95,0,1.72-.53,2.28-2.18,2.27-.65,0-1.29.02-1.94,0-.3-.01-.6-.1-.45-.08-1.95-1.76-3.62-3.27-5.08-4.6Z"/><path d="m584.21,234.77c-1.48-.08-2.52.16-3.15-.24-1.02-.64-1.71-1.53-3.14-1.69-1.58-.17-2.33-1.88-3.41-2.92v-5.74c.23-.23.42-.59.68-.65,2.54-.57,2.53-.54,5.84,1.34,1,.57,2.52-.04,3.19,1.4v8.49Z"/><path d="m256.91,434.8h-5.78c-.98-.98-1.89-1.89-2.86-2.86,2.31-2.19,4.62-4.38,7.12-6.75h5.43c1.24.8,1.48,2.02.72,3.15-.68,1.02-1.5,1.76-1.71,3.18-.22,1.54-1.84,2.4-2.93,3.29Z"/><path d="m682.26,304.78c-1.58-1.58-3.16-3.16-4.8-4.8v-3.92c.74-.78,1.61-1.68,2.46-2.57.26-.02.58-.14.69-.04,1.15,1.1,2.27,2.24,3.4,3.37.61.06,1.22.12,2.04.21.79.75,1.7,1.6,2.58,2.43.06.27.2.67.14.7-1.81,1.02-1.4,3.31-2.45,4.61h-4.07Z"/><path d="m263.77,156c.3-1.79-.71-3.57,1.15-4.62.63.03,1.26.06,1.87.08,1.61,1.6,3.21,3.19,4.8,4.77v5.79c-.6.9-1.48,1.12-2.47,1-.28-.03-.69-.16-.79-.37-.97-1.95-3.57-1.02-4.7-2.7-.35-.52-.89-.92-1.36-1.39-.35-1.15.89-1.33,1.5-2.56Z"/><path d="m159.09,198.84v-3.89c1.42-1.65,3.19-.29,4.62-1.05,1.66,1.77,3.2,3.42,4.92,5.25v3.61c-.97,1.81-2.8.7-4.26,1.17-2.23-1.38-3.78-3.38-5.28-5.09Z"/><path d="m62.82,267.88c.72.67,1.42,1.32,2.08,1.94.7.04,1.33.08,1.96.12.91.91,1.83,1.83,2.77,2.77v2.06c-.84.77-1.79,1.64-2.96,2.7h-3.81c-.7-.65-1.62-1.52-2.49-2.34-.89-2.22-.09-4.4-.43-6.04.94-1.65,2.02-1.09,2.88-1.22Z"/><path d="m883.23,369.83c.91-1.11,2.31-1.54,3.18-.56,1.16,1.29,2.63,1.38,3.99,1.94.25.1.4.45.59.69v5.7c-1.15,1.66-2.88.73-4.35.97-1.52-.58-2.33-1.97-3.41-3.04v-5.7Z"/><path d="m477.41,218.44c-.19.17-.39.49-.67.57-.58.18-1.2.23-1.9.35-2-1.43-3.73-3.22-5.2-5.16v-3.03c.5-1.56,1.9-2.34,2.98-3.38,1.6,1.59,3.2,3.17,4.78,4.75v5.9Z"/><path d="m50.24,470.76q-1.94,1.41-3.88,0v-3.81q1.94-1.41,3.88,0v3.81Z"/><path d="m4.61,355.26H.82c-.68-.38-.97-.83-.75-1.26.14-.27.43-.45.65-.68h3.79c.68.38.97.83.75,1.26-.14.27-.43.45-.65.68Z"/><path d="m866.73,378.56c1.39,1.3,1.39,2.59,0,3.89-1.39-1.3-1.39-2.59,0-3.89Z"/><path d="m364.15,197.66c-.43.22-.89.01-1.26-.67-.04-.08.37-.46.62-.62.41-.26.88-.02,1.25.66.04.08-.4.41-.61.63Z"/><path d="m513.66,409.31c-.43.22-.89.01-1.26-.67-.04-.08.37-.46.62-.62.41-.26.88-.02,1.25.66.04.08-.4.41-.61.63Z"/><path d="m344.73,417.07c-.43.22-.89.01-1.26-.67-.04-.08.37-.46.62-.62.41-.26.88-.02,1.25.66.04.08-.4.41-.61.63Z"/><path d="m828.86,224.2c-.43.65-.88.89-1.29.64-.25-.16-.66-.54-.62-.62.37-.68.85-.91,1.25-.66.25.16.44.42.65.64Z"/><path d="m951.19,363.97v-1.87c.66-.71,1.31-1.4,1.94-2.06.03-.68.06-1.31.09-1.94,1.59-1.59,3.18-3.18,4.77-4.77h3.86c1.14.91,1.37,2.05.61,3.26-.48.77-1.52,1.16-1.56,2.25,0,.32,0,.64,0,1.53-1.18.93-2.68,2.11-3.87,3.05v2.53c-2.27,2.22-4.57,4.47-6.88,6.73-.83-.85-1.72-1.77-2.71-2.78.54-.63,1.11-1.29,1.72-2,.03-.55.06-1.18.09-1.87.62-.66,1.27-1.35,1.94-2.06Z"/><path d="m650.48,134.63c-.39,1.08-.17,2.37-1.31,3.31-1.74,1.43-3.29,3.08-4.8,4.52v2.19c-1.66,1.58-3.48,1.01-5.27.44-.23-.07-.42-.46-.5-.74-.09-.3-.02-.64-.02-.96v-2.67c2-2,3.83-3.83,5.65-5.65.06-.62.11-1.25.21-2.34,1.46-1.19,3.2-2.61,5.68-4.62.17,0,1.43-.02,2.69,0,.75.02,1.3.97,1.29,2.17,0,.3-.11.6-.16.9-1.14,1.14-2.29,2.29-3.46,3.46Z"/><path d="m540.13,73.77c-1.39-.07-2.62-.13-3.65-.18-1.58-1.56-.27-3.28-.95-4.59,1.95-1.95,3.76-3.75,5.55-5.57.2-.2.28-.52.41-.78.08-.6.17-1.21.23-1.65.95-1.02,1.82-1.95,2.63-2.82h3.93c1.65,1.17.66,2.92,1.04,4.24-.18.42-.23.75-.42.95-1.79,1.82-3.6,3.62-5.44,5.46v2.05c-.87.75-1.82,1.58-3.33,2.89Z"/><path d="m847.31,302.84c-.64,0-1.28,0-1.96,0-.87-.89-1.77-1.81-2.8-2.87,1.9-1.97,3.82-3.97,5.77-6,0-.62,0-1.25,0-1.21,3.24-3.24,6.13-6.13,9.04-9.04,1.33,1.12.32,2.84.66,4.4-.61.67-1.24,1.36-1.93,2.12v2.28c-1.23,1.01-2.71,2.22-3.89,3.19-.06,1.13-.09,1.75-.13,2.38-1.59,1.58-3.17,3.17-4.76,4.76Z"/><path d="m749.25,210.61c-1.82,1.82-3.63,3.63-5.45,5.45-.22.87-.45,1.74-.54,2.11-1.11,1.32-1.93,2.29-2.63,3.13-.89-.05-1.52-.08-2.15-.11-.91-.91-1.82-1.82-2.81-2.81,1.99-1.99,3.98-3.99,5.78-5.8.1-.95.17-1.56.16-1.48,2.64-2.64,4.89-4.89,7.26-7.26.33.04.96.05,1.55.2.27.07.46.43.73.69v1.94c-.59.62-1.24,1.32-1.9,2.02,0,.62,0,1.26,0,1.9Z"/><path d="m762.12,203.81c-2.15,0-4.05,0-5.95,0-2.08-1.39-.83-3.34-.87-5.08.9-.9,1.79-1.79,2.69-2.69h5.69c1.28.79,1.33,1.91.85,3.17-1.8,1.01-1.49,3.23-2.41,4.6Z"/><path d="m1267.69,393.09c-.67.71-1.32,1.41-1.94,2.07-.04.69-.07,1.32-.11,1.96-1.35.98-2.15,2.25-2.05,3.89-.93.98-1.82,1.91-2.65,2.78h-2.01c-.92-.92-1.84-1.84-2.82-2.82.59-.67,1.19-1.34,1.83-2.07v-1.81c1.34-1.4,2.65-2.78,3.91-4.09,0-1.07-.13-2.06.85-2.67,1.26-.78.97-2.18,1.18-2.81,1.15-1.33,1.99-2.3,2.68-3.1h4.32c.27.82.55,1.67.96,2.9-1.47,1.17-2.98,2.36-4.17,3.31v2.46Z"/><path d="m1315.41,359.48c.97.25,1.68,2.18,3.46,1.61.72.6,1.45,1.2,2.24,1.85.52.03,1.15.06,1.84.09,1.34,1.28,2.71,2.6,4.05,3.88.69.03,1.32.06,1.95.1.91.91,1.82,1.82,2.82,2.82,0,.86,0,1.81,0,2.76q0,1.62-2.33,2.09c-.28-.09-.65-.1-.84-.28-1.84-1.8-3.65-3.62-5.46-5.44-.63-.03-1.26-.07-1.95-.11-.66-.61-1.35-1.26-2.07-1.93h-1.93c-1.56-1.58-3.13-3.18-4.9-4.99.94-.74,1.92-1.51,3.12-2.45Z"/><path d="m1280.56,374.72h3.67c.96.96,1.87,1.87,2.81,2.81-.62.68-1.25,1.35-1.89,2.05v1.89c-.91.91-1.82,1.82-2.91,2.91-1.41,0-3,0-4.58,0-1.67,0-2.2-.54-2.21-2.21,0-.64-.02-1.29,0-1.93.01-.3.11-.59.1-.51,1.81-1.81,3.39-3.39,5-5Z"/><path d="m1305.59,345.83c1.19.04,1.58,2.7,3.37,1.53,1.52.97,2.53,2.13,3.27,3.08v3.75c-1.06,1.19-1.9,2.13-2.72,3.04-.79-.73-1.49-1.36-2.13-1.96-2.61-.12-2.52-.15-2.87-2.76-.09-.7-1.13-1.34-1.82-2.11v-2.07c.79-.68,1.76-1.5,2.91-2.49Z"/><path d="m253.75,20.45c-2.01,2.7-5.08,4.93-7.4,7.84-.04.63-.09,1.25-.13,1.88-.91.91-1.82,1.82-2.76,2.76h-1.93c-1.75-1.08-.75-2.86-1.01-4.33.11-.28.15-.63.34-.82,3.4-3.43,6.82-6.84,10.44-10.46.77.98,1.53,1.97,2.45,3.15Z"/></g></svg>