<?xml version="1.0" encoding="UTF-8"?><svg id="Layer_2" xmlns="http://www.w3.org/2000/svg" viewBox="0 0 523.48 248.91"><g id="Capa_1"><path d="m523.22,248.75c-.12.05-.23.15-.35.15-83.48,0-166.96,0-250.23,0-.58-.52-.99-.88-1.36-1.2,0-82.47,0-164.86,0-247.24.22-.14.43-.39.65-.4.97-.04,1.93-.02,2.9-.02,81.7,0,163.4,0,245.1,0,1.09,0,2.18-.14,3.17.08.17.15.36.25.36.34.01,82.66.01,165.32,0,247.99,0,.1-.16.2-.25.31Zm-4.12-244.57c-80.93,0-161.67,0-242.4.01-.1,0-.2.18-.43.4v236.62c0,.97-.03,1.94.02,2.9.01.22.27.43.41.64,80.74,0,161.47,0,242.21-.01.1,0,.2-.18.3-.27.04-.12.13-.24.13-.36,0-79.76,0-159.53,0-239.29,0-.12-.08-.24-.23-.64Z"/><path d="m0,20.17c.41-.14.53-.22.65-.22,84.46,0,168.93,0,253.39,0,.12,0,.24.08.04,0,.67.54,1.1.89,1.43,1.16v221.58c-.23.14-.45.36-.68.38-.69.05-1.38.02-2.07.02-83.5,0-166.99,0-250.49,0-.67,0-1.36.11-1.96-.08-.14-.16-.31-.27-.31-.37C0,168.55,0,94.46,0,20.17Zm243.9,30.89c.26-.39.68-.35,1.06-.45.36-.1.64-.45,1.05-.76h4.09c.52.49,1.11,1.05,1.72,1.63.65-1.02.28-2.14.35-3.19.07-1.1.02-2.21.02-3.32v-16.59c0-1.11.04-2.21-.01-3.32-.05-1.08.21-2.18-.22-3.45H6.13c-.97,0-1.94,0-2.9,0-.29,0-.52.09-.73.45,0,72.62,0,145.34,0,218.05,0,.11.14.21.22.32.25.06.5.18.75.18,32.91,0,65.81,0,98.72,0,.4,0,.8-.05,1.2-.11.11-.02.2-.18.3-.28-.27-.3-.54-.6-.8-.88v-4.09c.3-.36.66-.63.78-.99.13-.36,0-.81.41-1.08.26-.01.53-.03.82-.04.29-.27.59-.55.88-.82h3.29c.32.29.59.75.9.79,1.12.14,1.13.1,1.19,1.23.26.28.53.58.82.89v4.11c-.27.29-.53.58-.8.87.11.11.21.29.31.3,1.09.05,2.19.09,3.28.09,24.06,0,48.11,0,72.17,0,17.7,0,35.39,0,53.09,0,.39,0,.82.13,1.15-.21.07-.07.14-.22.11-.28-.05-.12-.17-.26-.28-.29-.26-.05-.54-.04-.8-.05-.4-.23-.42-.61-.51-1.01-.08-.36-.42-.66-.8-1.2,0-.84,0-1.93,0-3.02,0-.11.12-.23.18-.34.2-.2.39-.39.6-.6.03-.67.02-1.37,1.04-1.3.45.03.65-.43,1.11-.82.93,0,2.02-.02,3.11.02.22,0,.46.25.63.44.2.23.4.38.68.36.69-.05.97.29.95.96-.01.47.42.66.75,1.06.18.56.07,1.25.07,1.92,0,.81.14,1.63-.13,2.42-.5.5-.98.98-1.47,1.47.18.15.36.44.54.44,1.52.04,3.04.04,4.56,0,.22,0,.44-.26.66-.4,0-60.83,0-121.66-.01-182.49,0-.09-.19-.18-.31-.29-.74.26-1.12,1.01-1.74,1.51h-4.13c-.28-.26-.58-.54-.9-.83h-.8c-.69-.51-.24-1.67-1.21-2.02v-3.34c.24-.26.52-.56.8-.86v-.81Z"/><path d="m419.78,99.08c-.33-.12-.68-.26-1.47-.56-.6-.47-1.37-1.44-2.27-2.24h-.8c-.32.29-.62.57-.83.76-1.2,0-2.29,0-3.39-.01-.1,0-.2-.18-.33-.32.36-.38.72-.76,1.15-1.22.86-.03,1.79-.07,2.62-.1.17-.2.34-.3.34-.4.02-1.1.01-2.2.01-3.25.3-.34.58-.64.83-.91.03-.31.05-.58.07-.84.2-.19.39-.39.59-.59.02-.1.08-.27.05-.28-.98-.46-.45-1.87-1.54-2.34,0-.51-.04-1.05.02-1.58.02-.17.3-.31.45-.45.41.39.81.77,1.19,1.14v.85c.39.39.79.79,1.18,1.18.27.02.53.04.85.07.37-.35.76-.73,1.15-1.1.11-.67.21-1.34.97-1.77,0-.49-.05-1.03.02-1.56.03-.2.29-.46.5-.53.23-.08.52.02.79.05.64.55.2,1.29.35,1.95-.27.29-.55.59-.83.9v1.63c.25.38.72.29,1.04.46.96.51,1.7,1.31,2.27,2.24.13.21.1.51.14.77.2.19.39.39.59.58.21.8.07,1.62.11,2.44.34.59.82,1.04,1.46,1.45h2.28c.55.32.37.77.41,1.16-.21.15-.4.41-.62.43-.68.06-1.38.02-2.07.02-.12-.05-.26-.07-.35-.14-.21-.18-.39-.38-.59-.58-.26-.04-.52-.07-.78-.11-.71.43-1.2,1.1-1.81,1.65h-.85c-.37.39-.75.78-1.23,1.29,0,.96.02,2.05-.02,3.14,0,.16-.31.31-.46.47-.39-.39-.79-.78-1.17-1.16v-2.58Z"/><path d="m507.72,142.31v.81c-.29.31-.56.6-.85.91v2.43c-.19.3-.42.39-.7.42-.31.03-.55-.02-.74-.22-.23-.24-.3-.82-.1-1.12.16-.22.38-.4.58-.59.26-.92.24-1.85.02-2.76-.29-.47-.75-.23-1.11-.31-.31-.28-.61-.56-.89-.81-.31-.02-.57-.04-.84-.06-.2-.2-.39-.39-.59-.59-.2-.17-.36-.07-.6.21-.16.19-.42.41-.64.41-.44.01-.79.13-1.05.48-.19.25-.4.41-.67.37-.67-.1-.93.46-1.33.79-.15-.19-.38-.35-.43-.56-.05-.24-.02-.58.12-.76.34-.42.76-.77,1.12-1.12.33-.02.6-.04.87-.06.39-.39.78-.78,1.18-1.18v-1.65c-.24-.38-.63-.37-1.03-.47-.36-.09-.65-.43-1.16-.8-.33,0-.87.05-1.4-.02-.2-.03-.43-.29-.54-.5-.14-.28-.05-.45.37-1.11.29.27.58.53.88.81.81,0,1.64,0,2.47,0,.14-.22.36-.42.4-.66.07-.4.02-.83.02-1.36-.78-.82-1.63-1.69-2.47-2.57.39-.39.78-.78,1.22-1.22.85.85,1.7,1.7,2.49,2.49.27,0,.4,0,.54,0,.6-.01.76-.78,1.31-.82.42-.03.8-.07,1.06-.48,0-1.35,0-2.73.01-4.11,0-.1.18-.2.28-.3.58.08.71.72,1.13.87.45.98.04,1.96.28,2.71.46.52.82.93,1.16,1.31h.87c.41.41.8.8,1.19,1.19.01.27.03.54.04.83.27.28.54.58.83.89v1.62c.27.3.54.59.78.86-.29.33-.55.63-.83.96v1.57c-1.12,1.12-2.2,2.2-3.27,3.27Z"/><path d="m486.15,145.61c-.28.3-.56.6-.83.88.01.29.03.56.04.81.69.7,1.36,1.38,2.03,2.06,1.25,0,2.49.03,3.73-.01.61-.02.97.44.83,1.06-.05.23-.28.58-.44.59-1.65.04-3.29.03-4.92.03-.31-.29-.61-.57-.87-.81h-3.31c-.41.41-.8.8-1.2,1.2v2.55c-.37.3-.79.65-1.44,1.18.19-.07.07.01-.05.01-1.51,0-3.02,0-4.53,0-.12,0-.24-.09-.33-.12-.47-.29-.24-.75-.31-1.11-.28-.31-.56-.6-.79-.86v-2.46c.72-.72,1.4-1.4,2.08-2.08h4.1c.3.28.6.56.86.81h.83c.41-.41.79-.79,1.18-1.18.01-.27.03-.54.05-.83.26-.28.54-.58.83-.88v-1.03c.51-.41,1.15-.92,1.64-1.31.05-.51-.02-.86.12-1.02.63-.7,1.31-1.35,1.97-2.01.71.57.29,1.31.46,2.14-.55.44-1.19.95-1.7,1.36v1.04Z"/><path d="m444.24,97.93c.3.27.59.54.97.88.14-.44.25-.81.47-1.53.45-.38,1.18-1.01,2.09-1.79h3.89c.73.47,1.31,1.25,2.01,1.89.31.79-.03,1.62.18,2.32-.1.22-.13.36-.21.45-.87.88-1.75,1.76-2.63,2.64-.8.21-1.62.07-2.45.11-.61-.31-1-.89-1.49-1.35-.39-.38-.74-.81-1.02-1.12h-3.44c-.33.3-.63.57-.94.85h-1.59c-.23.23-.43.43-.63.63-.49.32-1.05.1-1.59.17-.2.13-.44.24-.64.4-.72.6-.88.62-1.67-.06.01-.27.03-.54.04-.81.53-.67,1.28-.24,1.98-.39.26-.23.56-.5.9-.8h1.59c.31-.29.61-.57.91-.85h.9c.12-.33.25-.69.37-1.02-.41-.64-.85-1.15-1.46-1.45-.22-.11-.52-.08-.78-.12-.88-.88-1.76-1.75-2.63-2.64-.08-.09-.11-.23-.21-.44.11-.29.25-.64.37-.97h.92c1.66,1.66,3.32,3.32,4.97,4.98.28,0,.55,0,.81,0Z"/><path d="m458.79,124.97v1.7c.35.11.72.23,1.08.35.35-.31.65-.57.99-.87h1.59c.31-.29.6-.56.91-.85h2.46c.3-.28.59-.56.87-.82h2.47c.34.21.4.39.22.6-.31.35-.76.15-1.13.29-.19.19-.38.38-.63.63-.59.07-1.24.14-1.73.2-.51.44-.92.79-1.32,1.13.21.33.44.41.71.46,1.01.21,1.01.22.9,1.32-.55.6-1.28.19-1.91.35-.17.04-.28.32-.42.49,1.08,1.08,2.15,2.15,3.23,3.23-.05.38.18.84-.29,1.11-.17.1-.36-.06-.59-.31-.27-.31-.58-.59-.87-.88-.39-.39-.77-.79-1.13-1.16h-.86c-1.36-1.36-2.72-2.72-4.09-4.09-.27-.02-.53-.04-.84-.06-.57.54-1.16,1.1-1.74,1.65h-3.3c-.4-.4-.79-.79-1.21-1.21v-3.34c.31-.32.68-.72,1.04-1.1.27-.05.52-.14.78-.15.96-.02,1.93.04,2.89-.02.64-.04.99.33,1.36.72.18.2.36.4.56.62Z"/><path d="m428.91,72.61c.28.3.56.6.83.89-.01.29-.03.56-.04.83-.1.1-.18.23-.3.29-.58.25-1.16.06-1.32-.44-.08-.25.04-.67-.1-.77-.83-.56-.74-1.37-.75-2.19,0-.22-.26-.44-.39-.66-.55,0-1.1,0-1.61,0-.76-.31-.13-1.35-.94-1.6-1.34,1.34-2.7,2.7-4.07,4.07-.82-.63-.38-1.44-.3-2.18.29-.45.74-.22,1.13-.31,1.75-1.75,3.5-3.5,5.25-5.25.04-.26.08-.52.12-.78.12-.75-.14-1.33-.79-1.76v-2.5c.49-.74,1.12-1.39,2.16-1.44.5-.94,1.4-.66,2.19-.7.85.47,1.35,1.33,2.17,1.92.12,1.2.12,2.4.01,3.49-.34.58-.8.34-1.17.4-.3.28-.6.56-.91.85h-2.56c-.11.36-.23.72-.34,1.08.31.35.58.65.88.98v2.42c.28.3.56.6.85.9v2.46Z"/><path d="m476.19,105c.25-.38.65-.37,1.04-.47.36-.09.65-.43,1.08-.75h1.58c.21.18.51.45.85.74.62.04,1.33,0,1.26,1.02-.03.46.44.64.77,1.12.03.76.06,1.68.09,2.45.37.62.83.38,1.19.45.3.28.6.56.9.84h1.59c.34.3.64.57.95.85h1.5c.41.31.7.66,1.05.76.38.1.8.06,1.07.47-.09.08-.18.21-.3.25-.92.32-1.84,0-2.6.15-.36-.36-.55-.55-.79-.79-.36-.02-.75-.05-1.15-.05-.75,0-.83.04-.96.91-.07.47-.27.76-.75.73-.47-.03-.86.15-.9.57-.08.8-.02,1.62-.02,2.34,1.07,1.11,1.06,1.12.41,2.08-.27,0-.55,0-.82,0-.87-.79-.25-1.81-.44-2.82-.19-.23-.44-.53-.76-.92v-3.21c-.36-.39-.73-.78-1.11-1.2-1.16-.41-2.4.05-3.55-.23-.41-.4-.81-.78-1.19-1.15v-4.13Z"/><path d="m407.34,79.28c.29-.31.56-.6.81-.86v-6.64c-.56-.69-1.3-.26-2.18-.44-.49-.58-1.11-1.31-1.9-2.22v-2.43c.56-.45,1.3-1.06,2.49-2.02.21-.08,1.04.24,1.76.04.95.52,1.45,1.38,2.17,1.9.3.87.12,1.69.17,2.5-.12.65-1.13.87-.75,1.95.81.81,1.77,1.8,2.77,2.73.15.14.52.07.84.1.56.53,1.15,1.09,1.76,1.67h.79c.4.4.79.79,1.19,1.19-.42.83-1.19.32-1.79.46-.83-.27-1.12-1.17-2.12-1.62.02,0-.24-.02-.56-.05-.56-.53-1.15-1.09-1.73-1.64h-.87c-.71,1.14-.09,2.41-.5,3.82-.08.09-.35.4-.67.77,0,.6,0,1.29,0,1.97,0,.82-.48,1.09-1.36.77-.12-.04-.2-.19-.29-.28v-1.65Z"/><path d="m404.45,102.9c-.3-.28-.59-.56-.9-.84h-2.43c-.32-.29-.62-.57-.9-.82-.3.02-.66-.06-.82.08-1.1,1.04-2.15,2.12-3.25,3.21h-2.6c-.53-.63-1.15-1.36-1.95-2.28v-2.17c.51-.69,1.03-1.48,2.14-1.44.5-.92,1.38-.7,2.26-.72.25.21.56.46.95.78h1.59s.15-.05.24-.14c1.85-1.84,3.7-3.69,5.55-5.55.16.15.45.29.46.46.06.53.02,1.08.02,1.57-1.43,1.41-2.79,2.77-4.14,4.11v.83c.27.39.68.35,1.06.45.36.1.64.45,1.05.76h3.2c.38.37.77.73,1.14,1.12.06.06.08.21.04.28-.06.12-.18.28-.28.28-.82.02-1.65.01-2.47.01Z"/><path d="m449.99,223.21h4.24c.41.41.8.8,1.21,1.21v.79c.29.31.57.61.83.9v1.49c-1.03,1.09-1.98,2.09-2.87,3.03h-2.32c-1.1-1.1-2.07-2.07-3.05-3.05v-2.2c.75-.83,1.4-1.55,1.97-2.17Z"/><path d="m415.15,219.87c1.01,1.01,1.98,1.98,2.96,2.97v1.58c-.3.33-.57.63-.81.9-.03.31-.05.58-.08.84-.39.4-.78.79-1.17,1.18h-4.15c-.68-.68-1.36-1.37-2.06-2.07v-2.52c.95-.92,1.94-1.88,2.97-2.88h2.34Z"/><path d="m500.67,63.91c-.67-.67-1.35-1.35-2.05-2.05v-2.48c.22-.25.49-.54.77-.85q.08-1.06,1.03-1.26c.12-.03.24-.07.36-.11.19-.19.39-.39.58-.58.78-.32,1.6.02,2.28-.18.24.08.39.09.47.17.96.95,1.91,1.9,2.73,2.72v1.76c-.24.24-.48.41-.61.64-.12.21-.08.51-.18.74-.09.23-.27.43-.41.65-.27,0-.55,0-.81,0-.3.28-.59.56-.87.83h-3.29Z"/><path d="m501.52,94.61c-.29-.28-.59-.55-.89-.84h-.79c-.4-.27-.34-.68-.45-1.06-.1-.35-.45-.64-.76-1.05v-2.37c.47-.74,1.24-1.3,1.88-2,1.18-.39,2.38.03,3.44-.18.32.32.52.52.72.72.42.26,1.08-.02,1.38.59v.79c.28.3.56.59.82.86v1.62c-.98.99-1.94,1.96-2.89,2.92h-2.47Z"/><path d="m321.41,75.53c.4-.02.67-.04.94-.06.2-.2.39-.39.59-.59.2-.19.45-.26.75-.19.13.03.32.03.36.1.43.82,1.47.55,2.02,1.16.46.51.97.98,1.46,1.47.32.79.11,1.61.17,2.43-.13.57-.65.84-1.01,1.23-.36.4-.77.75-1.05,1.03h-3.97c-.91-.78-1.64-1.4-2.23-1.91v-2.48c.75-.83,1.4-1.55,1.98-2.19Z"/><path d="m304.83,193.28h-3.32c-.93-.93-1.81-1.8-2.68-2.69-.09-.09-.12-.23-.17-.34,0-.14-.02-.28,0-.41.11-.65,1.05-.91.83-1.73.63-.71,1.26-1.42,1.84-2.07.89-.3,1.71-.12,2.55-.18.59.19.88,1.02,1.71.86.14-.03.54.35.52.49-.16.83.62,1.14.86,1.71v2.19c-.54.87-1.39,1.53-2.12,2.17Z"/><path d="m352.58,168.13v2.38c-.68.68-1.37,1.36-2.07,2.06h-4.2c-.32-.36-.68-.77-1.1-1.24.01-.62-.28-1.18-.88-1.6-.02-.27-.03-.54-.05-.84.27-.29.54-.58.83-.89v-.82c.39-.39.78-.77,1.18-1.17.26-.02.52-.05.84-.08.27-.25.57-.52.9-.81h1.67c.92.96,1.87,1.95,2.88,3Z"/><path d="m446.33,159.73c.68-.68,1.35-1.35,2.05-2.05h3.44c.52.6,1.13,1.32,1.94,2.26.15.74-.03,1.83.03,2.9-.17.55-.66.83-1.02,1.22-.36.39-.76.75-1.06,1.03h-3.26c-.78-.73-1.47-1.39-2.13-2.01,0-1.16,0-2.25,0-3.34Z"/><path d="m340.97,56.42v-2.67c.27-.64.83-1.02,1.34-1.44.4,0,.8.05,1.1-.34.15-.2.41-.33.56-.44h2.29c.83.75,1.54,1.4,2.17,1.97v4.21c-.27.41-.7.33-1.07.45-.35.11-.63.46-1.02.77h-3.4c-.47-.6-1.06-1.35-1.96-2.49Z"/><path d="m351.75,238.55c-.67.65-1.35,1.32-2.09,2.03h-3.42c-.49-.58-1.09-1.31-1.94-2.33-.15-.65.06-1.74-.02-2.87.55-.89,1.4-1.55,2.14-2.21h3.25c.72.72,1.4,1.4,2.08,2.08v3.29Z"/><path d="m498.59,215.33c-.66.64-1.35,1.3-2.11,2.02h-3.41c-.45-.59-1.03-1.35-2.02-2.63-.09-.33.18-1.42.04-2.44.52-1.05,1.5-1.58,2.05-2.33h3.38c.72.71,1.4,1.38,2.07,2.04v3.34Z"/><path d="m348,202.45c.31.29.6.56.89.83.3.02.57.03.75.05.75.71,1.45,1.37,2.1,2v2.53c-.7.7-1.38,1.38-2.06,2.07h-4.15c-.39-.39-.78-.78-1.17-1.18-.02-.26-.05-.53-.08-.84-.25-.27-.52-.57-.81-.9v-.8c.26-.29.54-.59.83-.9v-.79c.4-.4.79-.79,1.18-1.18.27-.02.54-.03.84-.05.28-.26.58-.54.89-.83h.8Z"/><path d="m293.68,22.04c-.66.64-1.35,1.3-2.11,2.02h-3.41c-.47-.57-1.08-1.3-1.94-2.36-.17-.61.1-1.7-.04-2.71.51-1.05,1.5-1.58,2.05-2.33h2.58c.43.61.99.92,1.69.89.4.39.79.77,1.17,1.14v3.35Z"/><path d="m424.34,19.12c.82,0,1.64,0,2.46,0,.3.28.59.55.89.84h.8c.39.39.78.78,1.2,1.2v3.49c-.56.46-1.3,1.06-2.35,1.91-.73.07-1.93.07-2.82-.01-.92-.79-1.64-1.41-2.24-1.93v-3.44c.7-.7,1.38-1.38,2.05-2.05Z"/><path d="m367.95,109.54c.64.66,1.3,1.35,2.02,2.11v2.57c-.58.48-1.31,1.09-2.43,2.03-.14.05-.81-.11-1.48-.08-.68.03-1.37,0-2.05,0-1.01-.47-1.51-1.49-2.28-2.01v-2.54c.72-.72,1.4-1.4,2.08-2.08h4.13Z"/><path d="m420.61,125.72v-3.34c.66-.62,1.35-1.28,2.13-2.01h3.4c.46.56,1.06,1.3,1.91,2.35.07.73.07,1.93-.01,2.81-.79.92-1.41,1.64-1.93,2.24h-2.63c-.44-.6-.97-.94-1.71-.89-.39-.39-.78-.78-1.16-1.16Z"/><path d="m297.39,133.49c-.52.06-1.16.2-1.57.89h-2.48c-.73-.46-1.3-1.24-2.08-1.95-.11-1.11-.1-2.3-.02-3.25.77-.87,1.4-1.59,1.94-2.2h3.42c.69.69,1.37,1.37,2.05,2.05v3.38c-.35.3-.76.65-1.26,1.08Z"/><path d="m334.33,124.06c-.68.68-1.35,1.35-2.05,2.05h-4.15c-.33-.31-.72-.68-1.1-1.04-.06-.27-.16-.52-.16-.77-.02-1.22,0-2.44,0-3.54.48-.49.86-.88,1.24-1.27h.83c.3-.28.59-.56.86-.82h1.59c1.01,1.01,1.97,1.97,2.95,2.95,0,.79,0,1.61,0,2.43Z"/><path d="m451.72,51.47c-.68-.68-1.35-1.35-2.05-2.05v-3.27c.51-.76,1.15-1.39,2.18-1.44.43-.62,1.04-.81,1.76-.7.25.04.64.01.73.16.41.65,1.17.54,1.71.86.34.21.59.56.88.85.06.11.18.22.18.33.01,1.08,0,2.17,0,3.09-.77.81-1.43,1.51-2.05,2.17h-3.34Z"/><path d="m401.53,46.91v3.34c-.66.62-1.35,1.28-2.13,2.01h-3.4c-.46-.56-1.06-1.3-1.91-2.35-.07-.73-.07-1.93.03-2.95.47-.53.83-.94,1.16-1.31h.85c.32-.29.62-.56.87-.79h1.67c.44.6.97.94,1.71.89.39.39.78.78,1.16,1.16Z"/><path d="m497.34,181.71h-.83c-.37-.38-.75-.77-1.19-1.22v-3.26c.43-.76,1.27-1.26,1.85-2.04,1.21-.3,2.4.02,3.32-.12.91.81,1.61,1.45,2.24,2.01v3.4c-.4.4-.79.79-1.17,1.17-.27.02-.53.04-.84.06-.27.25-.57.52-.89.81h-1.63c-.27-.25-.56-.53-.86-.82Z"/><path d="m403.17,170.52v3.33c-.7.7-1.38,1.38-2.05,2.05h-3.34c-.63-.66-1.28-1.35-2.01-2.13v-3.17c.49-.52.78-1.36,1.77-1.36.22,0,.48-.2.65-.38.67-.69,1.46-.45,2.23-.31.37.66,1.13.58,1.68.89.45.25.76.74,1.08,1.07Z"/><path d="m313.2,216.55c.64.66,1.3,1.35,2.02,2.11v3.2c-.53.69-1.05,1.49-2.15,1.44-.51.86-1.35.75-2.16.72-.12,0-.3-.05-.35-.13-.39-.66-1.15-.56-1.69-.88-.44-.27-.74-.77-1.07-1.14v-3.24c.71-.72,1.38-1.4,2.04-2.07h3.34Z"/><path d="m284.25,63.09h4.04l1.16,1.16c-.07.74.3,1.27.86,1.69.02.27.03.54.05.83-.26.28-.54.58-.82.89v.84c-.38.35-.78.72-1.32,1.22-1.18.01-2.53,0-3.94,0-.86-.59-1.57-1.38-2.18-2.13v-2.36l2.14-2.14Z"/><path d="m288.7,161.94v-2.07c.57-.86,1.38-1.56,2.13-2.19h4.12l1.2,1.2v.79c.29.31.56.6.84.89v.8c-.29.31-.56.6-.83.88-.01.29-.03.56-.04.83-.39.39-.77.77-1.18,1.18h-4.28c-.5-.59-1.12-1.32-1.97-2.32Z"/><path d="m366.54,14.14h2.91c.86.56,1.53,1.39,2.18,2.14v3.29l-1.2,1.2h-.79c-.3.28-.6.55-.88.82-.3-.27-.59-.55-.89-.83h-2.44c-.4-.4-.79-.79-1.2-1.2v-3.45c.59-.5,1.31-1.11,2.32-1.96Z"/><path d="m361.71,85.05v-.8c.28-.3.56-.59.84-.89v-.8l1.2-1.2h3.26c.69.53,1.46,1.06,1.47,2.15,0,.19.39.36.54.58.24.35.3.86,0,1.08-.61.45-.61,1.13-.85,1.71-.04.11-.2.17-.3.25-.27.01-.54.02-.78.04-.31.28-.61.55-.85.76h-1.68c-.35-.97-1.49-.52-2.01-1.2v-.79c-.28-.3-.56-.59-.85-.89Z"/><path d="m469.15,189.18c.65.67,1.32,1.35,2.06,2.11,0,1,.05,2.09-.03,3.17-.03.4-.47.59-.92.53-.12-.01-.25.05-.38.08-.19.19-.39.39-.58.58-.78.31-1.6.1-2.4.17-1.03-.45-1.52-1.48-2.3-2.01v-2.55c.71-.71,1.38-1.39,2.04-2.07h2.51Z"/><path d="m508.55,103.33v.81c-.19.31-.41.41-.58.25-.88-.87-1.75-1.75-2.63-2.62-.1-.37-.18-.75-.3-1.11-.03-.09-.21-.2-.28-.18-.12.04-.28.18-.28.28-.04,1.09-.06,2.18-.08,3.27,0,.3-.49.57-.95.54-.28-.02-.5-.11-.71-.45,0-1.03.03-2.12-.02-3.21-.01-.3-.31-.45-.51-.37-.12.04-.27.17-.28.28-.04.27-.01.55-.01.81-.29.31-.57.6-.85.91v.77c-.3.33-.57.63-.81.9-.08,1.13-.08,1.14-1.16,1.18-.58-.32-.73-.95-.36-1.32.52-.52.56-1.17.87-1.72.26-.45.66-.76.69-1.39.01-.32.46-.63.74-.97.01-.21.03-.48.05-.78.26-.28.53-.58.82-.89v-1.71c.32-.13.67-.28.95-.39.22.09.36.11.45.2.88.87,1.75,1.75,2.63,2.62.04.26.09.51.13.77.39.74,1.08,1.2,1.62,1.8.01.27.03.54.04.83.26.28.54.58.83.88Z"/><path d="m310.59,29.89h-2.39c-.68-.68-1.36-1.36-2.05-2.05v-2.58c.62-.55,1.33-1.18,2.2-1.96.55-.14,1.36,0,2.21-.05.85.6,1.57,1.38,2.17,2.13v2.37c-.77.77-1.44,1.44-2.13,2.13Z"/><path d="m391.84,136.87c-.8.17-1.88-.02-3.01.05-.88-.58-1.57-1.39-2.19-2.13v-2.48c.43-.43.82-.82,1.2-1.2h.81c.3-.28.59-.56.86-.81h.8c.33.3.62.56.9.81.31.03.57.05.84.07.39.39.77.77,1.17,1.17v3.39c-.35.29-.77.64-1.39,1.14Z"/><path d="m401.12,23.26c.68.68,1.35,1.35,2.05,2.05v2.62c-.61.5-1.35,1.1-2.45,2-.27.08-1.08-.07-1.89-.03-.97-.52-1.51-1.48-2.24-2.02v-2.5c.73-.77,1.39-1.45,2.02-2.11.87,0,1.69,0,2.51,0Z"/><path d="m326.43,196.64c-.64-.67-1.29-1.36-2.03-2.13v-2.55c.58-.48,1.3-1.08,2.36-1.97.33-.11,1.14.06,1.95.01,1,.49,1.52,1.48,2.27,2.02v2.55c-.71.72-1.38,1.4-2.04,2.07h-2.51Z"/><path d="m459.6,18.72c.28-.3.56-.59.84-.89v-.79c.52-.68,1.66-.23,2.01-1.2h1.81c.51.59,1.13,1.31,1.93,2.24.17.77-.05,1.86.07,2.88-.08.17-.1.32-.18.4-.37.39-.77.76-1.09,1.07h-3.32c-.71-.71-1.4-1.38-2.07-2.04v-1.65Z"/><path d="m387.9,215.72c.27-.01.54-.02.78-.03.31-.28.61-.55.88-.79.45,0,.86-.05,1.13.36.34.51.89.49,1.26.51.51.47.92.84,1.28,1.17,0,1.16,0,2.25,0,3.35-.39.39-.77.77-1.2,1.2h-3.28c-.74-.48-1.31-1.25-2.01-1.89-.35-.78.03-1.61-.19-2.27.28-.8.89-1.14,1.35-1.61Z"/><path d="m316.41,49.81c1.03,1,2.02,1.96,2.97,2.88v.84c-.3.33-.57.63-.81.9-.03.31-.05.58-.08.84-.39.39-.78.79-1.17,1.17h-3.32c-.39-.39-.78-.78-1.17-1.17-.02-.26-.05-.53-.08-.84-.25-.27-.52-.57-.79-.87.26-.28.53-.58.81-.89v-.79c.7-.7,1.38-1.38,2.06-2.06.55,0,1.1,0,1.58,0Z"/><path d="m344.7,95.44h-3.35c-.62-.67-1.28-1.36-2.01-2.15v-1.56c.21-.24.48-.54.76-.85.01-.24.02-.51.03-.75.27-.65.94-.37,1.36-.63.33-.2.51-.63.94-.7.13-.02.28-.02.41,0,.12.02.29.07.34.15.42.82,1.51.46,2,1.15.16.22.38.39.58.59.06.25.17.49.17.74.02.95,0,1.89,0,2.76l-1.24,1.24Z"/><path d="m321.58,151.02h3.22c.68.68,1.35,1.35,2.05,2.05v1.76c-.61.55-1.32,1.18-2.2,1.95-.82.15-1.9-.02-2.98.04-.54-.18-.83-.67-1.21-1.03-.39-.36-.74-.76-1.02-1.04v-1.6c.77-.77,1.44-1.44,2.14-2.14Z"/><path d="m375.4,179.22c.67.68,1.35,1.37,2.05,2.08v2.54c-.34.29-.76.65-1.32,1.13.08-.03-.04.05-.16.05-1.24,0-2.48,0-3.72,0-.61-.31-1.03-.82-1.38-1.31v-3.28c.43-.44.82-.83,1.2-1.22h3.33Z"/><path d="m416.05,150.19h-4.16c-.36-.38-.74-.78-1.19-1.24v-3.32c.28-.3.65-.69,1.1-1.18,1.12-.12,2.32-.11,3.19-.03.95.8,1.68,1.42,2.26,1.91v2.65c-.43.43-.82.82-1.21,1.21Z"/><path d="m498.59,172.68v-1.23c-.21-.25-.46-.56-.78-.94v-2.34c-.27-.32-.53-.62-.84-.98v-1.54c-.28-.31-.54-.61-.83-.93.26-.27.55-.54.79-.84.22-.28.39-.38.59-.24.25.17.32.41.25.72-.03.12.02.26.03.37.28.31.55.61.83.92v1.59c.42.42.81.81,1.2,1.2h.8c.3.29.6.56.89.83h.82c1.07-1.07,2.12-2.15,3.21-3.18.15-.15.52-.16.76-.11.2.05.36.29.54.44-1.36,1.36-2.71,2.71-4.07,4.07-.01.27-.02.54-.04.88-.95.89-1.95,1.82-3.02,2.82-.24-.32-.56-.75-1.13-1.5Z"/><path d="m425.18,193.33c-.38-.26-.35-.67-.45-1.06-.09-.36-.45-.64-.76-1.06v-1.74c.58-.49,1.31-1.11,2.29-1.93.72-.14,1.81.04,2.89-.02.6.33,1.04.82,1.37,1.32v3.26c-.44.46-.82.86-1.19,1.24h-4.16Z"/><path d="m298.26,109.54c-.39-.26-.36-.66-.46-1.05-.09-.36-.44-.65-.76-1.07v-1.74c.57-.48,1.31-1.09,2.32-1.93.67-.14,1.77.05,2.85-.02.61.32,1.04.83,1.39,1.31v3.28c-.43.44-.82.83-1.2,1.22h-4.14Z"/><path d="m367.92,58.11c-.38-.39-.76-.78-1.24-1.26,0-.99-.05-2.09.03-3.17.03-.41.45-.59.92-.55.48.04.66-.41.97-.66.78-.31,1.6-.1,2.47-.17.9.53,1.55,1.4,2.21,2.12v2.46c-.44.45-.82.84-1.19,1.22h-4.16Z"/><path d="m340.97,30.3c.38-.36.77-.74,1.24-1.18h3.25c.73.47,1.3,1.24,2.1,1.97.02.44.05.97.07,1.53-.58.91-1.4,1.59-2.15,2.22h-3.3c-.44-.43-.83-.82-1.22-1.2v-3.34Z"/><path d="m477.42,38.2c-.36-.38-.74-.77-1.18-1.24v-3.32c.27-.29.63-.68.98-1.06.27-.07.52-.18.77-.19.95-.02,1.9,0,2.6,0,.88.8,1.59,1.44,2.21,2.01v1.73c-.7.71-1.38,1.39-2.05,2.07h-3.34Z"/><path d="m365.4,147.68h-3.3c-.69-.69-1.37-1.37-2.05-2.05v-.81c.27-.29.55-.58.83-.88v-.8l1.2-1.2h3.35c.29.28.73.6,1.03,1.02.36.51.18,1.32.87,1.69.05.03.07.26.04.27-.82.42-.5,1.48-1.14,1.99-.31.25-.59.54-.84.78Z"/><path d="m468.73,75.95c-.38.37-.78.75-1.23,1.19h-3.25c-.75-.46-1.28-1.29-2.1-1.91-.02-.5-.05-1.03-.08-1.63.6-.86,1.41-1.56,2.16-2.18h3.27c.45.44.85.82,1.23,1.19v3.34Z"/><path d="m425.59,109.95q.89-.57,1.64.05v1.64c-.58.44-.96.96-.89,1.71-.2.2-.39.39-.59.59-.05.25-.17.51-.15.76.07.73-.16,1.27-.69,1.8-.33.33-.05,1.07-.61,1.38-.58.32-.16,1.04-.58,1.41-.07.07-.19.08-.17.07-.75-.67-1.47-1.31-2.1-1.87-.03-.41-.05-.68-.06-.95-1.36-1.36-2.73-2.72-4.09-4.09v-.91c.32-.13.67-.27.97-.39.93.52,1.52,1.29,2.16,1.98.23.25.21.73.25.88.48.57.83.99,1.11,1.32h1.73c.45-.28.32-.73.44-1.09.12-.36.48-.63.76-.97.01-.22.02-.49.04-.78.27-.28.55-.58.83-.88v-1.64Z"/><path d="m495.68,126.96c-.66-.67-1.33-1.36-2.02-2.06-.01-.23-.03-.49-.05-.79-.25-.28-.53-.57-.8-.87.08-.09.14-.24.25-.27.24-.08.5-.11.76-.16.12.05.27.06.35.14.88.86,1.75,1.73,2.61,2.61.08.08.11.23.16.34q-.18,1.05-1.25,1.06Z"/><path d="m474.12,129.45c.39.39.78.78,1.17,1.17-.16.16-.31.46-.48.46-1.09.04-2.18.02-3.06.02-.51-.37-.81-.71-1.16-.8-.38-.1-.78-.07-1.01-.47.39-.39.78-.78,1.19-1.19.29.26.58.53.88.8h2.47Z"/><path d="m413.47,81.33c-1.07-.04-1.03-.05-1.19-1.18-.04-.3-.49-.58-.78-.91v-.77c-.29-.31-.57-.61-.83-.9v-.81c.18-.28.4-.39.68-.41.49-.04.95.14.94.52-.02.63.36.95.66,1.4.35.52.33,1.21.87,1.72.39.36.25,1-.35,1.33Z"/><path d="m503.16,160.14c.71.49.31,1.23.43,1.94-.21.26-.45.56-.77.96-.18.4-.02.94-.07,1.46-.03.38-.33.6-.84.62-.14,0-.27,0-.41,0-.71-.49-.31-1.23-.43-1.94.21-.26.45-.56.77-.96.18-.4.02-.94.07-1.46.03-.38.33-.6.84-.62.14,0,.27,0,.41,0Z"/><path d="m478.97,132.77c-.42-.79-.35-1.26.12-1.66h3.25c.49.43,1.04.81,1.36,1.52-.11.28-.24.63-.39,1.02-.35-.34-.64-.61-.93-.88h-3.42Z"/><path d="m489.95,132.77c.23.27.49.57.7.83.5,0,.91.04,1.3-.01.31-.04.55,0,.69.29.09.18-.03.36-.29.57-.31.25-.58.54-.84.79h-.8c-.32-.29-.61-.56-.89-.83h-1.61c-.57-.87-.58-.87.06-1.65h1.68Z"/><path d="m506.05,118.29v3.28c-.27.4-.67.49-1.06.4-.22-.05-.56-.29-.56-.46-.05-1.22,0-2.44-.04-3.67,0-.31,0-.55.29-.7.18-.1.36.03.58.3.25.31.54.59.79.85Z"/><path d="m504.05,108c.41.39.81.76,1.18,1.1v3.3c-.24.38-.6.54-1.01.44-.23-.06-.61-.26-.62-.4-.05-1.36-.04-2.72,0-4.07,0-.14.32-.26.46-.37Z"/><path d="m488.64,118.25c-.52-.58-1.19-1.04-1.58-1.73.26-.44.7-.32,1.15-.34.91.96,1.84,1.94,2.87,3.03.06,1.07-.03,1.16-1.27,1.03-.4-.39-.79-.77-1.18-1.14v-.84Z"/><path d="m403.48,97.93h1.85c.23-.27.49-.57.71-.83h.89q.58.84-.02,1.66h-.88c-.23.26-.49.57-.73.83-.74,0-1.42-.03-2.09.01-.31.02-.54-.01-.7-.27-.12-.19,0-.35.25-.58.29-.27.53-.6.71-.82Z"/><path d="m505.23,154.73c-.34.35-.71.74-1.09,1.1-.05.05-.21.06-.28.03-.11-.06-.28-.18-.28-.28-.02-1.08-.01-2.16-.01-3.29.34-.35.71-.74,1.09-1.1.05-.05.21-.06.28-.03.11.06.28.18.28.28.02,1.08.01,2.16.01,3.29Z"/><path d="m422.27,77.63c.27-.28.54-.57.83-.87v-1.59c.34-.56.81-.57,1.34-.38.45.26.29.7.33,1.1-.26.28-.53.57-.82.88v1.6c-.27.28-.56.56-.81.86-.21.26-.39.39-.57.3-.29-.14-.34-.37-.3-.69.05-.4.01-.81.01-1.23Z"/><path d="m489.47,145.63c.39-.39.78-.78,1.17-1.17.27-.02.53-.05.84-.08.27-.25.57-.52.91-.83.36,0,.78.03,1.18-.01.32-.04.56,0,.72.28.11.19-.01.37-.29.59-.31.25-.6.55-.86.79-.32.03-.58.05-.85.08-.2.2-.39.39-.59.59-.77.16-1.57.49-2.24-.24Z"/><path d="m422.27,108.28c.28.29.56.59.83.87v2.45c-.26.37-.64.51-1.04.41-.23-.05-.59-.27-.59-.43-.05-1.36-.06-2.72,0-4.07.01-.3.33-.42.52-.32.11.06.26.18.28.28.04.27.01.54.01.81Z"/><path d="m435.11,98.75c-.35-.37-.72-.76-1.11-1.17.11-.14.23-.46.36-.47,1.08-.04,2.16-.02,3.28-.02.35.37.72.76,1.11,1.17-.11.14-.23.46-.36.47-1.08.04-2.16.02-3.28.02Z"/><path d="m58.5,230.66c-.3-.28-.59-.56-.9-.84h-.78c-.42-.28-.33-.71-.45-1.08-.11-.35-.47-.63-.77-1.02v-3.25c.21-.24.48-.54.76-.85.01-.24.02-.51.04-.77.23-.39.59-.43.99-.51.35-.07.66-.4,1.14-.72.74-.2,1.7-.05,2.64-.07.53-.01,1.08-.11,1.58.11.42.8,1.37.69,1.93.95.03.51.04.78.05,1.02.28.32.55.62.76.85v3.34c-.98.34-.51,1.51-1.21,2.01h-.79c-.31.29-.61.56-.9.84h-4.11Z"/><path d="m57.24,207.83v-2.46c.28-.3.56-.6.85-.9v-.79c.41-.41.8-.8,1.18-1.18.27-.01.54-.03.83-.04.28-.26.58-.54.88-.83h2.46c.3.28.6.56.9.85h.79c.41.41.8.8,1.18,1.18.01.27.03.54.04.83.26.28.54.58.83.88v2.46c-.28.3-.56.6-.85.9v.79c-.41.41-.8.8-1.18,1.18-.27.01-.54.03-.83.04-.28.26-.58.54-.88.83h-2.46c-.3-.28-.6-.56-.9-.85h-.79c-.41-.41-.8-.8-1.18-1.18-.01-.27-.03-.54-.04-.83-.26-.28-.54-.58-.83-.88Z"/><path d="m234.88,112.04h-.51c-.32.29-.62.56-.87.79h-3.31c-.52-.67-1.14-1.13-1.98-.85-.04-.59-.05-.86-.07-1.16-.26-.28-.53-.57-.82-.89v-4.1c.26-.27.53-.57.82-.87v-.79c.25-.39.64-.38,1.04-.48.35-.08.65-.43,1.09-.75h2.45c.43.12.67,1.08,1.69.72.56.67,1.16,1.4,1.96,2.36-.02-.1.06.15.06.41.02.96-.04,1.92.02,2.87.04.64-.37.95-.71,1.36-.32.38.1,1.12-.86,1.37Z"/><path d="m136.45,202.45c.3.28.59.56.89.84h.78c.42.27.33.71.45,1.07.11.35.46.63.77,1.02v4.15c-.57.57-1.22,1.26-1.92,1.89-.16.15-.52.05-.74.17-.34.18-.65.44-1.09.76-.64.2-1.46-.07-2.1.08-.7-.13-.85-.87-1.46-.85-.66.02-1-.25-.95-.94.03-.49-.42-.65-.66-1.01-.05-.2-.16-.45-.16-.7-.02-1.22,0-2.44,0-3.58.27-.27.51-.44.64-.66.12-.21.1-.5.2-.74.1-.23.26-.44.4-.67h.8c.3-.28.6-.56.89-.84,1.09,0,2.19,0,3.27,0Z"/><path d="m21.93,182.55h-.76c-.32.29-.62.56-.87.79h-3.31c-.52-.67-1.14-1.13-1.98-.85-.04-.59-.05-.86-.07-1.16-.26-.28-.53-.57-.82-.89v-3.28c.26-.28.54-.57.82-.87v-.83c.38-.37.77-.75,1.17-1.15.71.03,1.26-.28,1.69-.89h2.49c.24.22.54.49.85.77.24.01.51.02.77.03.39.23.43.59.51.99.07.35.4.66.76,1.19-.05-.12.04,0,.04.11,0,1.09-.04,2.19.02,3.28.03.64-.37.95-.7,1.36-.14.17-.06.52-.15.75-.1.23-.3.41-.46.62Z"/><path d="m153.18,119.37c-.79.23-1.6.09-2.4.11-.39.01-.78-.05-1.09-.07-.38-.32-.57-.75-1.03-.74-.44,0-.77-.11-.99-.5-.01-.26-.03-.53-.04-.77-.28-.31-.55-.61-.76-.85v-3.32c.71-.51,1.06-1.19.86-2.02h1.13c.3-.28.6-.56.9-.85h4.1c.29.27.58.55.88.83h.81c.38.26.35.67.45,1.05.09.35.44.64.75,1.06v2.43c-.16.47-1.08.72-.78,1.57-.53.79-1.17,1.4-2.2,1.5-.21.02-.39.36-.59.56Z"/><path d="m173.79,107.05h-.82c-.66-.67-1.34-1.35-2.04-2.07v-4.11c.22-.24.48-.54.76-.86.01-.24.03-.51.04-.77.22-.4.55-.51.99-.5.45,0,.65-.43,1.03-.74.31-.02.7-.07,1.09-.07.81-.01,1.61,0,2.13,0,.57.39.87.73,1.23.8.4.08.77.11,1.02.52v.74c.29.32.56.62.8.88v4.08c-.3.35-.65.62-.78.97-.13.35.03.81-.44,1.1h-1.57c-.31.28-.6.55-.93.84h-1.63c-.27-.25-.56-.53-.86-.82Z"/><path d="m153.48,88.4c.29-.31.56-.6.83-.89.02-.3.03-.57.05-.75.71-.75,1.37-1.45,2-2.1h4.17c.33.3.63.57.9.81,1.14.08,1.09.09,1.22,1.2.04.31.51.59.79.89v3.29c-.29.31-.56.6-.83.89-.04,1.12-.06,1.08-1.18,1.24-.3.04-.58.49-.91.78h-4.16c-.92-.95-1.88-1.94-2.88-2.97v-2.39Z"/><path d="m242.64,31.58h3.37c.51.71,1.2,1.06,2.03.88v1.12c.29.31.57.61.83.9v4.11c-.29.32-.57.63-.82.9-.08,1.13-.09,1.09-1.2,1.22-.31.04-.58.51-.89.79h-2.46c-.3-.28-.6-.56-.89-.83-.3-.02-.57-.03-.75-.04-.74-.71-1.44-1.37-2.1-2v-4.03c1.04-1.09,1.98-2.09,2.87-3.03Z"/><path d="m54.75,144.78c-.29.31-.56.6-.83.89-.04,1.12-.06,1.08-1.18,1.24-.3.04-.58.49-.91.78h-3.28c-.29-.26-.59-.54-.9-.83h-.78c-.86-.42.15-1.9-1.22-1.81v-4.42c.62-.62,1.28-1.32,1.99-1.96.16-.14.52-.07.83-.1.27-.25.57-.52.9-.81h2.5c.92.96,1.88,1.95,2.88,3v4.02Z"/><path d="m146.84,229.4v-.81c.26-.39.68-.35,1.06-.45.36-.1.64-.45,1.05-.76h3.25c.24.21.54.49.87.78h.84c.35.38.72.79,1.15,1.27.04.57.15,1.24.88,1.52v2.63c-.94.89-1.94,1.84-3.03,2.87h-3.98c-.29-.27-.59-.54-.9-.83h-.78c-.42-.28-.33-.71-.45-1.08-.11-.36-.47-.64-.78-1.01v-3.27c.24-.26.52-.56.81-.86Z"/><path d="m124.44,192.08v.81c.29.31.56.6.81.86v1.68c-.55.46-1.02.93-.87,1.45-.76.89-1.39,1.62-1.89,2.21h-4.22c-.41-.31-.7-.67-1.05-.76-.39-.1-.8-.07-1.06-.45v-.81c-.29-.31-.56-.6-.81-.86v-3.33c.71-.51,1.06-1.2.88-2.03h1.12c.31-.29.61-.57.9-.83h4.14l2.06,2.06Z"/><path d="m207.82,71.32c.52.67.92,1.02,1.7.84.58.67,1.2,1.4,1.98,2.31v3.93c-.19.22-.45.52-.74.84-.01.24-.03.51-.05.77-.22.4-.59.44-1,.52-.36.07-.66.41-1.15.74-.88.18-1.98,0-3.03.06-.58-.11-.73-.86-1.35-.83-.7.04-.96-.31-.94-.97.01-.47-.44-.65-.7-1.02-.02-.06-.11-.18-.12-.3-.01-1.24,0-2.49,0-3.76.26-.64.99-.93,1.29-1.51.51-.97,1.87-.47,2.32-1.45.53-.05,1.07-.11,1.79-.18Z"/><path d="m124.44,220.29c-.39.39-.78.78-1.17,1.17-.27.02-.53.05-.84.08-.27.25-.57.52-.9.81h-3.28c-.29-.27-.59-.54-.9-.83h-.78c-.86-.42.15-1.91-1.22-1.81v-3.55c.24-.26.52-.56.81-.86v-.81c.41-.82,1.84.09,1.81-1.21h4.34c.91.95,1.87,1.94,2.95,3.07v2.27c-.24.26-.52.56-.81.86v.81Z"/><path d="m195.79,200.38c.26-.39.68-.35,1.06-.45.36-.1.64-.45,1.05-.76h3.25c.24.21.54.49.86.78h.75c.9.39-.05,1.85,1.26,1.8v3.58c-.19.21-.45.52-.73.84-.01.24-.03.51-.06.91-.34.28-.77.63-1.36,1.12-.4.08-1.13.06-1.38.85h-1.79c-.24-.21-.54-.49-.86-.78h-.83c-.65-.68-1.31-1.38-2.04-2.14v-4.07c.24-.26.52-.56.81-.86v-.81Z"/><path d="m146.43,204.11h.81c.31-.29.6-.56.86-.81h2.44c.37.3.65.66,1.01.78.37.12.81.02,1.08.45v.78c.29.31.57.61.83.9v4.11c-.29.32-.57.63-.82.9-.08,1.13-.09,1.09-1.2,1.22-.31.04-.58.51-.89.79h-2.46c-.31-.28-.6-.56-.89-.83-.3-.02-.57-.03-.84-.05-.39-.39-.78-.78-1.18-1.18v-.79c-.29-.31-.57-.61-.83-.9v-2.46c.29-.33.57-.63.81-.9.03-.31.05-.58.08-.84.39-.39.78-.78,1.17-1.17Z"/><path d="m134.4,27.01c.28-.29.56-.59.84-.89v-.79c.51-.69,1.66-.23,2.01-1.2h3.33c.24.21.54.48.85.76q1.06.09,1.26,1.03c.03.12.07.24.11.36l.58.58c.04.12.13.24.13.36,0,1.23,0,2.47,0,3.77-.54.88-1.39,1.54-2.13,2.2h-4.9c-.74-.72-1.43-1.38-2.1-2.03,0-1.41,0-2.78,0-4.15Z"/><path d="m112,110.24c0,1.18,0,2.41,0,3.65,0,.12-.09.24-.13.35-.25.31-.71.5-.68.95.06,1-.61,1.02-1.29,1.02-.2.2-.4.4-.59.59-.11.07-.22.19-.33.19-1.09.01-2.17,0-3.24,0-.35-1.02-1.52-.54-2.02-1.24v-.79c-.29-.31-.56-.6-.84-.9v-4.14c.67-.65,1.36-1.32,2.1-2.03h5.06c.49.59,1.11,1.32,1.96,2.34Z"/><path d="m117.8,92.52c.28.3.56.6.82.87v4.13l-2.05,2.05h-4.93c-.76-.53-1.34-1.2-1.47-2.2-.03-.22-.36-.39-.66-.69,0-.7.05-1.52-.02-2.32-.06-.75.18-1.3.76-1.76.08-.06.09-.24.08-.37-.03-.67.26-.99.94-.95.48.03.66-.41,1.11-.77,1.04-.11,2.24-.09,3.31,0,.42.31.71.66,1.06.74.39.1.79.08,1.05.46v.8Z"/><path d="m214.05,24.62v.71c.3.33.57.63.79.88v4.12c-.71.71-1.39,1.39-2.07,2.07h-4.99c-.33-.37-.69-.78-1.11-1.25-.02-.59-.25-1.18-.9-1.6v-3.33c.2-.23.46-.53.75-.86.02-.64,0-1.32,1.02-1.27.21.01.44-.23.65-.38.11-.08.2-.19.3-.29.92-.28,1.87-.05,2.81-.15.64-.07.94.38,1.36.7.39.3,1.08,0,1.37.67Z"/><path d="m131.52,92.12c-.3-.28-.59-.55-.9-.84h-.79c-.4-.4-.79-.79-1.2-1.2v-5.13c.58-.47,1.31-1.08,2.4-1.97.3-.09,1.11.04,1.92.03.67,0,1.35-.1,1.73.01.56.37.86.71,1.21.78.41.08.77.12,1,.51.01.26.02.53.03.77.28.31.55.61.77.85v3.32c-.71.51-1.05,1.2-.87,2.02h-1.13c-.3.28-.6.56-.9.85h-3.28Z"/><path d="m73.01,130.7v.81c.28.3.56.59.82.87v3.28c-.29.31-.56.61-.82.89-.02.3-.04.57-.05.83-.39.39-.78.77-1.18,1.18h-5.08c-.54-.61-1.17-1.33-1.94-2.21v-3.98c.16-.44.91-.73.82-1.55-.04-.37.43-.61.89-.55.12.02.25-.04.38-.06.19-.19.39-.39.58-.58.11-.06.22-.17.34-.17,1.08-.01,2.17,0,3.06,0,.48.36.77.71,1.12.8.39.1.79.07,1.05.45Z"/><path d="m107.85,169.67c-.28.3-.56.6-.83.88-.01.29-.03.56-.04.83-.39.39-.78.77-1.19,1.19h-5.1c-.49-.61-1.09-1.35-1.92-2.38.03.19-.04-.06-.04-.32-.01-1.1,0-2.19,0-3.29,0-.12.09-.23.14-.34.25-.31.71-.5.68-.96-.06-1.01.63-1,1.3-1.02.2-.2.4-.4.61-.61,1.17-.48,2.38.05,3.49-.23.58.8,1.27,1.13,2.08.96v1.12c.28.3.56.6.84.9,0,1.1,0,2.19,0,3.27Z"/><path d="m48.06,119.15c.19.87,0,1.96.06,3-.08.6-.85.75-.82,1.34.06,1.01-.63,1-1.3,1.02-.2.2-.4.4-.59.59-.11.07-.22.19-.33.19-1.09.01-2.17,0-3.19,0-.27-.27-.43-.51-.66-.64-.21-.12-.5-.1-.74-.2-.23-.1-.44-.26-.67-.4v-.8c-.28-.3-.56-.6-.84-.9,0-1.1,0-2.19,0-3.28.28-.3.56-.6.83-.88.01-.29.03-.56.04-.83.39-.39.77-.77,1.19-1.19h4.13c.25.23.55.49.88.79h.74c.42.25.45.61.53,1.02.07.35.41.65.74,1.14Z"/><path d="m22.41,214.58v.72c.29.32.56.62.8.87v3.28c-.3.33-.57.63-.81.9-.08,1.13-.09,1.08-1.19,1.22-.3.04-.58.49-.89.79h-2.45c-.27-.26-.57-.54-.87-.82h-.82c-.66-.67-1.33-1.35-2.04-2.07v-3.28c.22-.24.49-.54.77-.86.01-.24.02-.51.04-.77.22-.39.56-.5.99-.5.45,0,.64-.44.99-.7.88-.25,1.83-.04,2.77-.13.64-.06.94.38,1.36.7.39.3,1.08,0,1.37.66Z"/><path d="m85.88,110.37h3.27c.29.28.59.55.89.83h.81c.39.39.78.78,1.2,1.2v4.18c-.08.38-.81.53-.79,1.15.03.68-.28.97-.95.94-.47-.02-.66.41-.97.66-.9.31-1.83.2-2.75.07-.19-.19-.35-.46-.59-.56-.34-.16-.78-.13-1.09-.32-.46-.28-.84-.68-1.11-.91-.03-.52-.04-.78-.05-1.03-.28-.31-.55-.61-.76-.85v-1.62c.31-.36.57-.66.84-.97v-1.52c.31-.53.75-.38,1.17-.41.28-.26.57-.54.87-.83Z"/><path d="m22.01,223.24h3.36c.46.82,1.35.83,2.01.98v1.04c.3.33.57.63.78.87v3.35c-.77.49-.94,1.28-.93,2.02h-1.1c-.31.29-.6.56-.86.81h-3.25c-.76-.73-1.46-1.39-2.14-2.04v-.83c-.29-.33-.57-.63-.78-.86v-1.67c.23-.23.45-.41.62-.63.33-.41.04-1.06.58-1.42.34-.23.59-.58.89-.87.29-.28.59-.54.8-.73Z"/><path d="m10.33,75.53c-.33-.36-.69-.77-1.1-1.23-.02-.6-.24-1.2-.9-1.62v-2.51c.2-.23.46-.53.74-.84.01-.24.03-.5.06-.92.34-.26.77-.59,1.62-1.24-.4.16-.29.07-.17.07,1.51,0,3.01,0,4.52,0,.12,0,.24.07.19.06.53.46.94.82,1.31,1.15v.85c.29.32.56.62.79.87v2.49c-.6.43-.93.98-.89,1.69-.39.4-.77.79-1.15,1.17h-5.02Z"/><path d="m225.65,38.62c-.68.66-1.36,1.33-2.08,2.04h-4.25c-.5-.59-1.12-1.32-1.98-2.33.1.28.02.16.02.04,0-1.23,0-2.46,0-3.7.51-.98,1.48-1.52,2.02-2.25h4.16c.77.73,1.46,1.39,2.12,2.02v4.18Z"/></g></svg>