<?xml version="1.0" encoding="UTF-8"?><svg id="Layer_2" xmlns="http://www.w3.org/2000/svg" viewBox="0 0 225.6 225.59"><g id="Capa_1"><path d="m210.04,147.72h7.75v7.74h7.72v15.48h-15.47v7.87h-15.55c0,5.31,0,10.43-.06,15.6-2.48.06-5.02.06-7.55.06v7.58h7.5c0-2.61,0-5.15.06-7.64,2.59-.06,5.13-.06,7.91-.06v-7.83h7.69v-7.72h15.47v7.63h-7.56c-.05,1.35-.11,2.59-.14,3.82-.02,1.27,0,2.55,0,3.96h7.64c.05,1.35.11,2.59.13,3.84.02,1.27,0,2.55,0,3.95h-7.65v15.67h-7.9v-7.77c-1.53,0-2.81-.02-4.08,0-1.24.02-2.48.08-3.69.13v7.64c-2.59,0-5.18,0-7.83-.06-.06-2.48-.06-5.02-.06-7.55h-7.58v7.5c2.61,0,5.15,0,7.64.06.06,2.51.06,4.97.06,7.43-3.21.56-20.09.71-31.1.27v-7.64h7.77c0-1.53.02-2.81,0-4.08-.02-1.24-.08-2.48-.13-3.69h-7.64v-7.77c-7.75,0-15.23,0-22.72,0-.11,0-.24.06-.33.12-.1.07-.18.18-.27.27v7.37h-7.77v-7.77h-7.77v-7.77h-7.77v-7.77h23.34v7.62h15.44v-7.7h-7.78v-7.82h-7.68v-7.66h15.38v-7.84h-7.61v-15.48h7.77c0-1.53.02-2.81,0-4.08-.02-1.24-.08-2.48-.13-3.69h-7.64v-15.55h7.77v7.77h38.87v30.91h7.89v-7.5c2.63-.26,5.18.13,7.65-.25v-7.61Zm-23.39,15.67h-23.25c0,7.61,0,15.1,0,22.58,0,.11.05.24.11.34.07.11.18.19.14.15h22.99v-23.07Zm-7.84-7.97v-15.29h-15.29v7.49c2.62.26,5.17-.13,7.78.27v7.53h7.51Zm0,46.64v-7.71c-1.4,0-2.67-.02-3.94,0-1.24.02-2.48.08-3.58.12v7.59h7.52Z"/><path d="m140.08,77.76v-7.77h30.95c.35-2.48-.01-5.04.22-7.66h38.61v7.59h-15.33v7.82h-15.59v15.57h-7.88v-15.44h-7.74v15.49h-7.71v15.5h-15.55v7.77h-7.77v7.77h-23.22v-7.68h7.56v-7.76h7.88v-7.89h7.77v-7.77h7.67c.29,2.75-.12,5.3.25,7.64h7.61c.1-5.23-.09-10.33.1-15.55h7.62v-7.64h-15.47Z"/><path d="m77.89,7.79V.44c.09-.09.16-.2.26-.28.09-.07.22-.13.33-.13,15.23,0,30.46,0,45.96,0v7.77h23.42v7.4c-.08.08-.17.18-.27.25-.1.06-.22.12-.34.12-7.49,0-14.98,0-22.59,0v15.37h7.58v-7.43h7.81v7.47h23.21c.31,2.63.03,5.15.18,7.8h-15.48v15.56h-7.81v-15.38h-23.35v-7.81h-7.81c0-2.68,0-5.24.06-7.85,2.48-.06,5.02-.06,7.55-.06v-7.58h-7.5c0,2.61,0,5.15-.06,7.64-5.1.06-10.14.06-15.43.06-.42-2.47.02-5.02-.29-7.77h-7.66v-7.77h-7.77Z"/><path d="m.28.09h54.14v53.96c-3.16.6-40.46.8-54.14.27V.09Zm7.77,7.77v38.68c11.94.48,35.52.31,38.6-.26V7.86H8.05Z"/><path d="m54.5,171.17v54.16H.52c-.54-3.15-.73-43.2-.23-54.16h54.21Zm-7.77,7.78H8.05c-.48,11.15-.3,35.51.25,38.61h38.43v-38.61Z"/><path d="m171.31.09h54.15v53.96c-3.16.59-40.51.8-54.15.27V.09Zm46.44,7.84h-38.68c-.49,12.67-.31,35.52.27,38.6h38.41V7.93Z"/><path d="m85.66,15.57v15.38c2.47.4,5.02-.02,7.77.27,0,5.16,0,10.3-.06,15.5-2.48.06-5.02.06-7.55.06v7.58h7.5c0-2.61,0-5.15.06-7.64,2.5-.06,4.95-.06,7.67-.06.35,5.07.05,10.15.17,15.48h-15.48v7.67h-15.63c0-2.51,0-5.05.05-7.66,2.5-.06,5.05-.06,7.56-.06v-23.1h-7.51c0,7.8,0,15.52-.05,23.16-2.51.06-4.96.06-7.42.06-.6-3.42-.79-31.14-.3-46.5h7.47c.46-2.61,0-5.16.32-7.92h7.66v7.77h7.77Z"/><path d="m108.98,209.92h-7.77v-7.77c-1.53,0-2.81-.02-4.08,0-1.24.02-2.48.08-3.69.13v7.64h-15.37c-.42,2.47.02,5.02-.29,7.77h-7.66v-7.59c-2.46-.45-5,.03-7.63-.29v-30.99h7.63v7.77h7.77v7.77c-1.53,0-2.81-.02-4.09,0-1.24.02-2.47.09-3.55.12v7.69c5.23-.19,10.33.18,15.41-.2v-15.39h7.77c0-1.53-.02-2.81,0-4.09.02-1.24.09-2.47.12-3.55h7.6c.19,5.23-.18,10.33.2,15.41h15.39v7.77h-7.77v7.77Z"/><path d="m39.02,93.31h15.55v-7.77h15.42c.3-2.48.02-5.02.17-7.65h7.64v7.57h7.7v7.81h-7.58v15.58h-7.8v7.79h-23.32c0-2.69,0-5.23.06-7.83,2.48-.06,5.02-.06,7.55-.06v-7.58h-7.5c0,2.61,0,5.15-.06,7.64-2.65.06-5.24.06-7.83.06v-15.55Zm23.46.07v7.71c1.41,0,2.68.02,3.95,0,1.24-.02,2.47-.08,3.55-.12v-7.58h-7.51Z"/><path d="m124.53,101.08h-15.55c0-2.7,0-5.24.06-7.83,2.48-.06,5.02-.06,7.55-.06v-7.58h-7.5c0,2.61,0,5.15-.06,7.64-2.65.06-5.24.06-7.83.06v-7.64c-1.21-.04-2.44-.11-3.68-.13-1.27-.02-2.55,0-3.96,0v-15.47h30.86v7.69h15.65v7.67c-2.75.29-5.3-.12-7.77.27v7.61h-7.77v7.77Z"/><path d="m93.43,124.4h7.6c.4,2.47-.02,5.02.26,7.64h15.31c.05,1.34.11,2.58.14,3.81.02,1.28,0,2.55,0,3.96h7.63c.36-2.34-.03-4.89.24-7.64h7.67v7.77h15.55v7.77h-15.55v7.77h-7.87v-7.7h-15.45v7.7h-7.77v-15.55h-7.77v-15.55Z"/><path d="m178.95,93.31h7.77v7.77h7.77v7.37c.09.09.16.2.27.27.1.07.22.13.33.13,4.9,0,9.79,0,14.95,0v7.77h-23.43v7.65h-7.78v-15.3h-7.78v7.78h-7.56c-.27,2.63.14,5.17-.26,7.64h-7.61v-15.55h7.87v-7.83h15.45v-7.71Z"/><path d="m23.47,85.53v-7.61c-2.48-.38-5.02.01-7.65-.25v-15.09c3.33-.57,24.14-.73,38.74-.27v7.65h-15.41v7.65c-1.35.05-2.59.11-3.83.14-1.28.02-2.55,0-4.09,0v7.77h-7.77Z"/><path d="m46.92,139.95h-7.75c-.36-2.48.01-5.03-.23-7.65h-7.6v7.55h-15.47v-7.62h7.57v-7.75h30.98v7.68h-7.49v7.79Z"/><path d="m132.3,217.69h-7.75v7.63h-15.58v-15.4h7.77v-7.77h7.77v7.77h7.77v7.77Z"/><path d="m7.83,124.53v38.64H.31v-38.64h7.51Z"/><path d="m147.85,7.92V.18c5.07-.35,10.16-.05,15.4-.17v23.23h-7.51V7.92h-7.88Z"/><path d="m62.34,155.5v-31.1h7.77v31.1h-7.77Z"/><path d="m186.72,93.31v-7.7h15.45v7.7h7.87v7.77h-15.55v-7.77h-7.77Z"/><path d="m210.04,124.4v23.32h-7.77c0-5.16,0-10.05,0-14.95,0-.11-.06-.24-.13-.33-.07-.1-.18-.18-.27-.27h-7.37v-7.77h15.55Z"/><path d="m7.79,101.09h7.78v7.57H.28v-15.23c1.09-.04,2.32-.1,3.56-.12,1.27-.02,2.55,0,3.95,0v7.78Z"/><path d="m46.79,147.72v7.77h-15.55v-7.77h15.55Z"/><path d="m62.34,163.27h-15.55v-7.77h15.55v7.77Z"/><path d="m101.11,93.43v15.34h-7.51v-15.34h7.51Z"/><path d="m116.63,62.14h-7.52v-15.35c1.1-.04,2.34-.1,3.58-.12,1.27-.02,2.55,0,3.94,0v15.48Z"/><path d="m132.2,62.09h-7.6v-15.26h7.6v15.26Z"/><path d="m155.76,46.74h7.5v15.35c-1.07.04-2.31.1-3.54.13-1.28.02-2.55,0-3.96,0v-15.48Z"/><path d="m38.9,108.96v7.6h-15.26v-7.6h15.26Z"/><path d="m.21,69.86v-7.52h7.59c.04,1.09.1,2.34.12,3.58.02,1.27,0,2.54,0,3.94H.21Z"/><path d="m132.3,62.21h7.77v7.77h-7.77v-7.77Z"/><path d="m225.46,77.69h-7.52v-7.51h7.52v7.51Z"/><path d="m54.45,85.42h-7.58v-7.5h7.58v7.5Z"/><path d="m217.88,139.82v-7.52h7.59c.04,1.09.1,2.34.12,3.58.02,1.27,0,2.54,0,3.94h-7.71Z"/><path d="m46.79,147.72v-7.77h7.64c.04,1.22.11,2.45.13,3.69.02,1.28,0,2.55,0,4.08h-7.77Z"/><path d="m132.3,132.18v-7.77h7.77v7.77h-7.77Z"/><path d="m77.89,124.4h7.77v7.77c-1.53,0-2.81.02-4.08,0-1.24-.02-2.48-.08-3.69-.13v-7.64Z"/><path d="m85.66,124.4v-7.64c1.22-.04,2.45-.11,3.69-.13,1.28-.02,2.55,0,4.08,0v7.77h-7.77Z"/><path d="m31.13,155.61v7.58h-7.5v-7.58h7.5Z"/><path d="m210.04,116.63h7.64c.04,1.22.11,2.45.13,3.69.02,1.27,0,2.55,0,4.08h-7.77v-7.77Z"/><path d="m70.11,116.63h7.77v7.77h-7.77v-7.77Z"/><path d="m70.11,171.05h-7.77v-7.77h7.77v7.77Z"/><path d="m8.03,124.29v-7.58h7.5v7.58h-7.5Z"/><path d="m225.46,108.79h-7.51v-7.58c1.08-.04,2.31-.1,3.55-.12,1.27-.02,2.55,0,3.95,0v7.71Z"/><path d="m70.11,178.82v-7.77h7.77v7.77h-7.77Z"/><path d="m31.24,93.31v7.64c-1.22.04-2.45.11-3.69.13-1.27.02-2.55,0-4.08,0v-7.77h7.77Z"/><path d="m210.15,93.2v-7.58h7.5v7.58h-7.5Z"/><path d="m31.24,85.53h7.77v7.77h-7.77v-7.77Z"/><path d="m93.43,217.69v-7.77h7.77v7.77h-7.77Z"/><path d="m147.85,217.69h-7.77v-7.77h7.77v7.77Z"/><path d="m163.4,217.69h-7.77v-7.77h7.77v7.77Z"/><path d="m70,217.8v7.58h-7.5v-7.58h7.5Z"/><path d="m93.32,217.8v7.58h-7.5v-7.58h7.5Z"/><path d="m140.08,217.69v7.64c-1.22.04-2.45.11-3.69.13-1.27.02-2.55,0-4.08,0v-7.77h7.77Z"/><path d="m155.62,217.69v7.64c-1.22.04-2.45.11-3.69.13-1.27.02-2.55,0-4.08,0v-7.77h7.77Z"/><path d="m23.47,93.31h-7.64c-.04-1.22-.11-2.45-.13-3.69-.02-1.27,0-2.55,0-4.08h7.77v7.77Z"/><path d="m210.04,217.69v7.64c-1.22.04-2.45.11-3.69.13-1.27.02-2.55,0-4.08,0v-7.77h7.77Z"/><path d="m132.3,155.5h7.77v15.55h-15.55v-7.61c2.47-.39,5.02.01,7.77-.27v-7.67Z"/><path d="m93.31,140.05v7.6h-15.26v-7.6h15.26Z"/><path d="m70.11,163.27v-7.77h7.64c.04,1.22.11,2.45.13,3.69.02,1.28,0,2.55,0,4.08h-7.77Z"/><path d="m101.1,155.61v7.58h-7.5v-7.58h7.5Z"/><path d="m109.09,155.61h7.58v7.5h-7.58v-7.5Z"/><path d="m124.53,171.05v7.77h-7.77v-7.77h7.77Z"/><path d="m77.89,186.59v-7.77h7.77v7.77h-7.77Z"/><path d="m116.76,178.82v7.77h-7.64c-.04-1.22-.11-2.45-.13-3.69-.02-1.28,0-2.55,0-4.08h7.77Z"/><path d="m178.88,171.18v7.5h-7.58c-.04-1.08-.1-2.31-.12-3.55-.02-1.27,0-2.55,0-3.96h7.71Z"/><path d="m140.08,124.4v-7.77h7.77v7.77h-7.77Z"/><path d="m38.89,38.82H15.82V15.83s.05-.08.15-.14c.1-.06.22-.11.34-.11,7.49,0,14.97,0,22.58,0v23.25Z"/><path d="m15.83,186.66h23.05v22.99c.05-.05-.02.06-.13.13-.09.07-.22.13-.33.13-7.49,0-14.98,0-22.6,0v-23.26Z"/><path d="m186.85,15.63h23.05v22.99c.05-.05-.03.06-.13.13-.09.07-.22.13-.33.13-7.49,0-14.97,0-22.6,0V15.63Z"/></g></svg>