<?xml version="1.0" encoding="UTF-8"?><svg id="Layer_2" xmlns="http://www.w3.org/2000/svg" viewBox="0 0 324.27 184.31"><g id="Capa_1"><path d="m312.52,4.57v146.37c-.09.09-.14.18-.2.2-.07.03-.16,0-.24,0-88.01,0-176.01,0-264.02,0-.06,0-.12-.1-.22-.19V4.59c.09-.09.14-.19.2-.2.16-.02.32,0,.49,0,87.93,0,175.85,0,263.78,0,.06,0,.12.1.22.19ZM51.74,56.69c-.11-.38-.07-.76-.5-.43.13.11.27.23.44.29,0,.08-.03.21,0,.23.64.39,1.3.39,1.94,0,.04-.02,0-.15-.01-.53,0,.1.01.2.02.3h256.97c.08,0,.17.02.24,0,.07-.03.12-.1.21-.19v-14.37h-2.6c-.24-.37-.68-.5-.64-1.03h3.12c.24-2.43.23-14.99-.02-17.1h-2.63c-.15-.7-.2-1.3.1-1.98h2.72c0-5.44,0-10.78,0-16.13,0-.07-.03-.15-.07-.21-.04-.07-.11-.12-.17-.18h-26.81c-.16,0-.33-.02-.49,0-.06,0-.11.11-.25.27,0,.86,0,1.82-.01,2.79,0,.12-.17.23-.27.35-.38-.08-.81.17-1.14-.2-.14-1.03.07-2.08-.14-3.22-9.12,0-18.2,0-27.29,0-.07,0-.16.02-.22.06-.07.04-.12.11-.19.19,0,.47.02.95,0,1.44-.03.55.16,1.12-.16,1.69h-1.12c-.33-.56-.1-1.13-.17-1.68-.07-.54.19-1.12-.17-1.63h-27.47c-.28.59-.09,1.16-.15,1.71-.07.54.23,1.13-.2,1.62-.39-.01-.79.16-1.24-.17v-2.32c-.34-.43-.54-.68-.7-.88h-26.88c-.24.24-.47.47-.72.72,0,.39.02.8,0,1.2-.03.47.15.96-.17,1.44h-.71c-.18-.9-.03-1.78-.1-2.65-.23-.23-.46-.46-.69-.69-12.24-.17-23.73-.12-26.5.12-.17.17-.34.34-.6.6v2.57c-.3.04-.52.07-.71.09-.26-.26-.49-.49-.72-.72.16-.17.32-.35.47-.51v-1.46c-.24-.24-.47-.47-.7-.7-14.39-.17-24.69-.12-27.49.13-.3,1.07.19,2.22-.26,3.28-.46-.11-.89.15-1.31-.29v-2.95c-.15-.11-.21-.19-.27-.19-9.02,0-18.04,0-27.06,0-.08,0-.16,0-.23.04-.07.04-.12.11-.17.17-.11,1.03.05,2.07-.12,3.32-.49-.29-.98.14-1.38-.36,0-.48.03-.97,0-1.45-.04-.55.17-1.12-.17-1.67h-27.46c-.31.57-.1,1.14-.17,1.69-.07.54.21,1.12-.18,1.63-.4.04-.79.15-1.28-.14,0-.48.04-1.04,0-1.59-.04-.54.25-1.13-.23-1.63-9.09,0-18.18,0-27.28,0-.06,0-.12.09-.22.18-.01.19-.05.43-.05.66,0,5.12,0,10.24,0,15.36,0,.31-.08.65.26.86.73,0,1.46,0,2.19,0,.14,0,.28.11.42.18v1.16c-.95.35-1.95-.13-2.87.31,0,5.54,0,11.07,0,16.59,0,.06.09.12.14.19.9.33,1.9-.18,2.82.32-.05.25-.09.47-.15.76h-2.72c-.04.31-.09.53-.09.76,0,3.82,0,7.64,0,11.46,0,.14.12.27.19.41.54.03,1.09.06,1.56.09.19.19.31.31.42.42.17-.16.35-.31.53-.48h.94c.19-.17.37-.33.57-.52.35.15.8-.15,1.17.32-.15.47.15,1.04-.17,1.57-.28.1-.57.19-.83.59-.65,0-1.3,0-1.89.14Zm21.09,93.31c.26-.65.37-.93.49-1.23h2.06c.16.16.28.28.37.37.41-.19.8-.38,1.29-.62v-1.51c.3-.29.53-.5.75-.71.26.26.49.49.72.72,0,.65,0,1.3,0,1.95,0,.06.11.11.21.21.15-.12.31-.26.5-.4.52-.04,1.07-.15,1.61.08.1.29.2.57.33.95.2-.43.35-.76.5-1.06h1.96c.19.16.35.31.52.46.13-.13.25-.25.41-.41h2.02c.2.16.36.28.51.4.18-.18.29-.29.47-.47.48.14,1.04-.13,1.57.16.1.28.2.57.33.94.2-.43.36-.76.5-1.06h1.96c.19.16.36.31.52.45.14-.14.25-.25.37-.37,2.05-.14,2.05-.13,2.24.1.06.28.11.51.2.93.24-.49.39-.79.53-1.09.56-.02,1.11-.16,1.64.09.1.29.2.58.33.95.2-.43.36-.76.5-1.06h1.96c.19.16.36.31.52.45l.37-.37q2.04-.1,2.24.11c.06.28.11.5.2.91.23-.48.38-.78.57-1.17.51.21,1.08-.15,1.61.19.1.28.19.56.33.96.54-1.01.05-2,.36-2.92.21-.19.43-.4.63-.58.28.26.51.48.74.69v1.5c.44.21.88.43,1.29.63.18-.18.29-.29.41-.41.32,0,.65-.03.97,0,.38.04.81-.17,1.14.14.1.29.18.56.33,1,.17-.47.27-.75.39-1.09h1.59c.18.14.34.27.49.39l.39-.39h2.07c.17.17.29.29.41.41.17-.16.34-.31.52-.47.32,0,.64-.03.96,0,.38.04.81-.17,1.14.14.09.29.17.55.32,1.02.18-.49.28-.77.4-1.11h1.58c.18.15.34.27.5.39.17-.17.28-.28.39-.39h2.07l.41.41c.17-.16.34-.31.51-.47.65,0,1.3,0,1.95,0,.06,0,.12.11.17.16.08.26.16.53.3,1.01.19-.52.29-.8.41-1.14h1.58c.19.15.35.27.5.39.17-.17.28-.28.45-.45.59,0,1.24,0,1.88,0,.06,0,.13.08.19.12.1.28.2.57.33.95.2-.43.35-.75.45-.97.45-.24.89.1,1.25-.31.03-.52.05-1.07.08-1.62.07.05.14.1.21.15.14-.28.28-.55.38-.76.36.31.61.51.81.68.1.62-.2,1.21.21,1.71.55.03,1.1.06,1.22.07.66.3.93.42,1.17.53.25-.23.43-.39.6-.56.54.08,1.12-.19,1.61.16.14.27-.05.66.4.78.1-.28.2-.56.3-.84q2.04-.11,2.25.1c.06.27.1.5.19.94.24-.51.39-.81.56-1.16.69.06,1.4-.05,2,.04.22.22.34.34.45.45.17-.16.35-.32.52-.48.54.08,1.12-.2,1.62.17.12.26-.06.65.39.76.1-.28.2-.56.33-.89h2.04c.21.16.37.28.52.4.18-.18.29-.29.46-.46.66.06,1.37-.05,1.96.03l.46.46c.18-.16.35-.32.53-.48.54.08,1.12-.2,1.62.18.12.26-.07.65.4.76.1-.28.2-.56.32-.89h2.04c.22.17.37.29.52.4l.42-.42c.7-.03,1.41-.06,2,0,.23.23.34.34.46.46.54-.52.54-.53.74-1.17-.15-.17-.31-.35-.42-.47.21-.42.41-.82.63-1.26.2.01.42.03.72.05v1.84c.36.71.57,1.11.79,1.53.17-.35.32-.68.47-.99h1.95c.19.16.36.31.53.44l.41-.41h2.07c.12.32.23.61.37.99.2-.4.35-.71.49-1.01.56,0,1.12-.16,1.65.11.1.29.2.57.32.94.2-.43.36-.76.5-1.06h1.95c.2.17.36.3.51.43.2-.16.36-.28.54-.42.13.35.23.64.37,1.03.2-.41.35-.72.5-1.03.72-.01,1.44-.05,2.05,0,.2.23.31.35.41.46.19-.17.37-.34.49-.45.7,0,1.35,0,1.99,0,.06,0,.12.11.17.16.1.25-.11.64.36.71.11-.28.22-.56.35-.87h1.61c.12.33.22.61.35.99.14-.17.25-.27.29-.39.08-.21.11-.43.17-.65.63,0,1.2,0,1.76,0,.14,0,.28.09.42.14.12.11.23.22.34.32.18-.16.35-.32.48-.43.71,0,1.35,0,2,0,.06,0,.12.11.17.16.1.25-.12.64.35.7.23-.4.23-.91.66-1.19.04-.71-.09-1.43.12-2.16.31.03.53.05.83.08v1.84c.36.69.56,1.09.8,1.55.12-.34.22-.63.32-.91.06-.04.13-.12.19-.12.64,0,1.29,0,1.86,0,.23.19.39.32.55.45.15-.15.27-.27.4-.4h2.08c.12.33.22.61.36,1,.2-.41.35-.73.53-1.11.53.2,1.11-.14,1.62.22.09.27.18.55.33.99.16-.46.26-.74.36-1.03.06-.04.13-.12.19-.12.64,0,1.29,0,1.88,0,.16.16.28.28.45.45.15-.12.31-.24.51-.39h2.06c.12.33.22.62.36,1.01.2-.42.35-.74.5-1.05.57.05,1.14-.17,1.64.14.14.12.25.22.37.32.11-.11.23-.23.34-.34.06-.04.13-.12.19-.12.64,0,1.29,0,1.88,0l.45.45c.15-.12.31-.25.5-.39h2.07c.12.34.22.62.36,1.01.2-.42.35-.74.5-1.06h1.48c.17.16.34.31.51.47.12-.12.24-.24.35-.35.73-.34,1.59.14,2.3-.32v-1.51c.23-.2.47-.42.58-.52.3.17.64.36.58.33.55.81,0,1.44.55,1.9h1c.15.32.3.64.5,1.07.14-.39.24-.67.36-1.01.52,0,1.07,0,1.61,0,.11.11.22.24.35.34.03.03.11,0,.17,0,.11-.11.23-.23.34-.34h2.1c.12.34.22.62.36,1.01.2-.43.35-.75.5-1.06.68,0,1.33,0,1.98,0,.06,0,.12.11.17.16.08.27.17.53.31.99.17-.49.27-.77.39-1.11h1.5c.35.21.6.37.82.5.35-.24.6-.41.72-.49h1.54c.12.34.22.63.36,1.01.2-.43.35-.75.5-1.06.68,0,1.33,0,1.98,0,.06,0,.12.11.17.16.08.26.16.53.3,1.01.18-.51.29-.8.41-1.13h2.09l.4.4c.16-.13.32-.26.5-.41.52-.05,1.07-.15,1.6.07.1.29.2.57.33.95.2-.43.35-.75.5-1.07h1.96c.18.16.35.31.45.4.45-.23.86-.44,1.26-.65v-1.47c.23-.22.46-.45.75-.73.27.24.55.49.53.47.35,1.06-.04,1.81.4,2.47.21-.19.39-.35.55-.5.56.09,1.15-.23,1.63.2.1.26-.12.65.35.71.12-.28.23-.56.35-.86h2.07c.17.17.28.28.41.41.17-.15.34-.3.53-.46.54,0,1.1-.01,1.67,0,.14,0,.28.1.42.15.12.11.23.21.34.31.18-.16.36-.32.52-.47.56.09,1.15-.23,1.63.21.1.25-.13.66.35.7.11-.28.23-.56.34-.85h2.07c.17.17.28.28.41.41.17-.15.34-.3.52-.47.3,0,.63-.03.95,0,.38.04.81-.17,1.14.13.1.29.19.56.34.99.16-.45.26-.73.37-1.05.6-.12,1.21-.19,1.66.03.27.32-.03.76.48.78.11-.28.22-.56.33-.85h2.08l.41.41c.17-.15.34-.3.52-.47.31,0,.63-.03.95,0,.38.04.81-.17,1.14.14.1.29.19.56.34.99.16-.45.26-.73.37-1.05.6-.11,1.21-.2,1.77.09.11.28-.13.69.49.73.09-.87.01-1.75.05-2.62.23-.23.46-.46.71-.71.22.21.45.43.76.72v1.51c.48.23.88.42,1.27.6.16-.13.35-.28.44-.36h2.01c.12.32.23.61.37.99.19-.4.34-.71.49-1.01.56,0,1.12-.16,1.65.11.12.12.23.24.34.35.18-.17.36-.33.51-.47h1.93c.2.17.36.3.53.44.15-.15.26-.26.41-.41h2.07c.12.33.22.61.37,1,.2-.41.35-.72.5-1.02.56.01,1.12-.16,1.67.13.09.1.2.22.3.34.19-.17.36-.33.51-.47h1.93c.2.17.36.3.53.44.15-.15.26-.26.41-.41h2.07c.12.33.22.61.36,1.01.2-.42.35-.73.53-1.11.52.19,1.1-.14,1.61.2.12.12.24.22.35.33.18-.16.35-.32.48-.43.71,0,1.35,0,2,0,.06,0,.12.11.17.16.1.25-.11.64.36.71.11-.28.23-.56.35-.85.37-.04.76-.08,1.12-.12.07-.09.16-.15.16-.21,0-2.76,0-5.52,0-8.23-.19-.22-.35-.39-.48-.55-.09-.62.13-1.1.44-1.49v-5c-.9-.1-1.78-.02-2.65-.06-.23-.23-.46-.46-.71-.71.21-.22.43-.45.72-.76h2.47c.12-.15.21-.21.21-.27,0-5.44,0-10.89,0-16.33,0-.08,0-.16-.03-.23-.03-.07-.11-.12-.17-.18-.86-.14-1.75.06-2.32-.48-.32-.08-.65-.15-.98-.23.4-.38.63-.6.84-.8.44,0,.85.03,1.25,0,.46-.05.97.2,1.4-.23,0-5.33,0-10.69,0-16.05,0-.06-.09-.12-.2-.27h-2.24c-.48-.35-.74-.54-.99-.72.28-.28.51-.51.74-.74.87-.07,1.75.08,2.65-.1v-16.78c-.1-.09-.16-.19-.22-.19-.81-.01-1.62,0-2.42,0-.24-.24-.47-.47-.72-.72.21-.22.43-.45.72-.76h2.47c.12-.15.21-.21.21-.27,0-5.12,0-10.24,0-15.36,0-.08,0-.16-.03-.23-.03-.07-.11-.12-.17-.17-.87-.13-1.75.06-2.43-.36-.28-.12-.57-.24-.86-.36.39-.37.62-.59.87-.83.8,0,1.61,0,2.41,0,.06,0,.11-.11.17-.17-.11-.09-.21-.26-.32-.26-.73-.02-1.46-.01-2.19-.01H51.88c-.73,0-1.46-.01-2.19,0-.19,0-.5.01-.31.37.91.33,1.91-.18,2.8.31-.08.41.16.84-.25,1.27h-2.46c-.12.15-.21.21-.21.27,0,5.12,0,10.24,0,15.36,0,.08,0,.17.03.23.03.07.11.12.25.26h2.79c-.34.52.11,1-.38,1.41-.86.06-1.74-.06-2.58.07-.05.24-.11.39-.11.54,0,5.28,0,10.56,0,15.84,0,.21.12.43.17.62.8,0,1.53,0,2.26,0,.14,0,.28.11.43.17v1.16c-.95.34-1.95-.12-2.87.29,0,5.39,0,10.74,0,16.1,0,.06.08.13.13.2.89.33,1.9-.18,2.78.31-.07.41.16.83-.23,1.26h-2.53c-.24,2.63-.22,15.09.04,17.09h2.57c.19.54.31.99-.14,1.49h-2.58v4.13c.31.31.6.6.89.89,0,.39.15.78-.09,1.15-.29.1-.57.2-.84.29,0,2.98,0,5.9,0,8.82,0,.06.1.12.18.2.36.04.74.08,1.12.12.11.31.22.59.36.98.2-.41.35-.72.5-1.02.56.01,1.12-.16,1.67.13.09.1.2.22.3.34.19-.17.36-.33.49-.45.7,0,1.35,0,1.99,0,.06,0,.12.11.09.08.21.32-.04.73.45.79.11-.28.22-.56.34-.87h2.09c.12.33.22.61.36,1.01.2-.42.35-.73.51-1.04h1.47c.24.18.47.37.76.59.31-.23.55-.42.79-.6.54.09,1.13-.22,1.52.12.22.32-.04.74.45.79.11-.28.23-.56.35-.86h2.09c.12.33.22.61.37,1,.2-.41.35-.72.5-1.05.58,0,1.14-.01,1.71,0,.14,0,.28.1.42.15.12.11.23.22.34.32.18-.16.35-.32.52-.47.56.09,1.15-.23,1.61.19.05.25.1.48.23,1.09Zm-22.29-93.02c.07-.07.12-.12.17-.17-.11-.05-.21-.13-.33-.15-.04,0-.11.1-.16.15.11.06.21.12.31.17Z"/><path d="m23.41,38.42c.24-.45.41-.79.57-1.07.57-.61,1.11-1.2,1.64-1.76.46,0,.86,0,1.27,0,.64.4,1.47.53,1.89,1.26.08.38-.17.81.2,1.14.68-.24.69-.95,1.02-1.43.39-.56,1.15-.47,1.56-.96.41,0,.81,0,1.07,0,.63.64,1.2,1.2,2.14,2.14-.03-.04.26.38.6.87.33-.73.59-1.35.9-1.96.31-.62,1.17-.45,1.52-1.05h1.46s.11.08.17.14c.52.52,1.03,1.03,1.55,1.55v.96c.17.18.33.36.49.53v2.92c-.12.12-.24.24-.43.43-.03.3-.06.68-.09,1.07-.52.52-1.03,1.03-1.61,1.61h-2.55c-.3-.34-.79-.58-.68-1.17-.52-.22-.36-.84-.68-1.18-.16-.01-.32-.02-.48-.03-.58.3-.13.89-.36,1.28-.34.34-.69.69-1.15,1.15-.74,0-1.61,0-2.44,0-.39-.39-.74-.74-1.14-1.14-.03-.15-.08-.37-.14-.67-.17-.05-.39-.12-.54-.16-.46.16-.33.54-.43.81-.35.35-.69.69-1.04,1.04-.06.04-.13.12-.19.12-.81,0-1.61,0-2.17,0-.62-.32-1.02-.52-1.42-.73v-.49c-.23-.23-.46-.45-.69-.68-.41.11-.18.53-.35.73-.37.42-.79.8-1.14,1.15h-2.79c-.7-.64-1.3-1.19-1.83-1.68v-.98c.26-.27.48-.51.69-.73h.99c.56.52.04,1.24.28,1.76.42.34.83.09,1.17.19.27-.27.5-.5.73-.73v-1.48c-.65-.32-1.31-.66-1.95-.98.02-.21.03-.36.05-.52q.93-.43,1.87-1.87c-.34-.38-.55-.98-1.27-.69-.31.52-.08,1.1-.17,1.64-.3.4-.74.16-1.16.24-.21-.2-.45-.42-.72-.68v-1.59c.15-.14.41-.6.72-.63.46-.04.69-.34,1-.53.42,0,.83,0,1.23,0,.49.35,1.19.39,1.56.92.29.41.5.89.74,1.34-.11.11-.23.23-.43.43v1.46c-.2.2-.31.31-.44.44.33.4.55.96,1.22.72.09-.08.2-.14.2-.19.01-.81,0-1.62,0-2.28Zm16.09,4.24v-3.89c-.17-.18-.33-.36-.48-.52-.09-.4.17-.83-.21-1.16-.39-.02-.78-.15-1.26.16,0,.24.06.56-.02.85-.08.28-.31.52-.43.71v2.42c.32,1.06.49,1.62.65,2.13h1.03c.25-.25.48-.48.71-.71Zm-7.07-5.61c-.73,0-.85.48-1.22.71,0,1.73,0,3.48.01,5.24,0,.13.15.26.23.39h1c.19-.21.4-.45.67-.75v-4.87c-.25-.26-.48-.49-.69-.72Zm-7.04,5.66c.36.23.49.72.99.68.44-.05.59-.5.92-.72v-4.87c-.35-.28-.53-.84-1.27-.73-.2.19-.49.45-.64.59v5.05Z"/><path d="m41.45,78.24c-.17.18-.33.35-.5.53v.95c-.36.36-.7.7-1.05,1.04-.29.4-1.14-.2-1.05.65-.55,0-.95,0-1.36,0-.4-.21-.8-.41-1.33-.69-.01-.08,0-.33-.09-.52-.1-.2-.32-.36-.46-.51-.07-.4.12-.82-.21-1.22-.25.23-.47.43-.74.69-.01.26-.03.58-.05,1.05-.19.18-.46.63-.76.66-.46.04-.67.37-1,.53h-1.27c-.52-.58-1.65-.42-1.85-1.52-.06-.34-.44-.63-.69-.96-.38,1.27-1.34,1.9-2.7,2.45h-1.29c-.27-.33-.63-.77-1.18-1.44-.06-.18.24-.83-.4-1.16-.14-1.03.07-2.08-.12-3.12-.48.03-.62.43-.9.65v.48c-.81.81-1.61,1.61-2.41,2.41q.61.23,1.35.18c.04-.2.09-.43.14-.7.36-.38.82-.2,1.3-.08.31.69-.04,1.41.17,2.11-.67.42-1.32.16-1.94.21-.65.05-1.3.04-1.95,0-.63-.03-1.28.14-1.89-.09-.05-.18-.09-.32-.09-.34,1.18-1.18,2.32-2.32,3.43-3.43-.33-1.1.62-1.73.42-2.7-.17-.19-.39-.42-.65-.7h-1.11c-.34.35-.1.78-.17,1.16-.07.38.16.8-.15,1.15-.17.03-.32.06-.6.1-.39-.39-.83-.84-1.24-1.25.37-1.06.81-1.96,1.79-2.63h2.95c.19.47.24,1,.71,1.21.55.24.26.91.68,1.19.23-.23.46-.46.71-.71v-.89c.31-.65.9-.18,1.3-.41.11-.11.23-.23.39-.39h2c.47.54,1.35.9,1.29,1.9h.7c.09-.26.13-.59.3-.81.29-.38.67-.7,1.06-1.09h1.94c1.11.62,1.66,1.88,2.47,2.89.43-.39.18-.82.26-1.21.32-.34.65-.68.9-.95.09-.32.15-.54.22-.76h2.55c.49.55,1.04,1.15,1.67,1.85v.77c.17.18.33.36.5.54v2.91Zm-4.02-.1c.28.65-.09,1.24.31,1.78h1.38c-.51-.7.2-.82.37-1.2v-4.33c-.42-.44-.81-.85-1.2-1.25-.24.24-.47.47-.7.7-.03.38-.06.77-.08,1.06-.2.2-.32.32-.44.44v2.43c.15.16.31.34.36.39Zm-6.22-4.29c0,1.81,0,3.59,0,5.38.37.27.56.82.98.76.44-.31.76-.54.93-.67v-4.74c-.48-.62-.82-1.05-1.14-1.46-.32.3-.56.52-.78.73Zm-5.13,6.11c.73,0,.85-.48,1.19-.69v-4.88c-.28-.32-.49-.56-.68-.78-.42.1-.84-.16-1.2.22v5.41c.26.27.48.5.69.72Z"/><path d="m18.32,20.52c-.26-.36-.69-.52-.76-.95,0-.09-.04-.2,0-.25.55-.59,1.1-1.17,1.66-1.76h1.98c.15.14.33.3.51.47.15,0,.31,0,.48,0,.17.66.9,1.15.71,1.88-.17.64-.57,1.22-.88,1.85.22.22.51.51.8.8.1.28.19.57.27.79.45-.23.85-.44,1.27-.66-.14-.16-.29-.33-.46-.53,0-1.42,0-2.88,0-4.33,0-.06.09-.12.14-.18.55-.13,1.01-.18,1.53.28.28.25.92.1,1.41.14.19-.16.37-.31.56-.48.36-.01.76-.15,1.12.09.04.15.08.3.15.58-.42.36-.9.78-1.42,1.23-.73-.11-1.33.46-2.03.75,0,.16,0,.32,0,.5.05.05.11.15.17.16.8.05,1.6.08,2.51.12.15.14.39.35.63.58.07.44.15.88.23,1.38.14-.11.25-.15.25-.2.05-.96.1-1.92.13-2.79.77-.77,1.5-1.5,2.4-2.4h1.17c.37.49,1.15.37,1.53.95.32.48.35,1.18,1.01,1.43.27-.57.52-1.11.82-1.75.29-.15.69-.35,1.25-.64h1.29c.15.14.33.31.51.47.15,0,.32,0,.48,0,.4.4.8.8,1.21,1.21v.95c.17.18.33.36.49.53v2.92c-.12.12-.23.23-.43.43-.02.29-.05.68-.09,1.06-.52.52-1.03,1.03-1.61,1.61h-2.07c-.32-.52-1.01-.73-1.18-1.45-.12-.5-.46-.94-.7-1.41-1.02.69-.94,2.12-1.93,2.89h-2.55c-.25-.32-.6-.76-1.18-1.5.04.12-.06-.16-.14-.41h-.6c-.1.27-.19.56-.31.88-.2.04-.42.09-.65.13-.28.28-.57.57-.89.89h-2.02c-.58-.58-1.25-1.25-1.92-1.92-.67.67-1.31,1.31-1.94,1.94h-2.46c-.54-.56-1.1-1.14-1.69-1.75v-.93c.23-.22.46-.45.7-.69.37-.05.76-.09,1.19.06.03.57.06,1.11.09,1.65.34.4.78.07,1.16.26.23-.27.44-.52.72-.85v-1.4c-.15-.17-.37-.4-.61-.65-.36-.04-.75-.09-1.2-.14-.05-.2-.1-.42-.14-.63.49-.29.95-.56,1.33-.78.27-.64.16-1.19.11-1.8-.2-.05-.42-.11-.6-.16-.6.34-.15.92-.43,1.36-.31.34-.75-.02-1.09.18Zm20.42-1.5c-1.3-.09-.99,1.29-1.67,1.73v2.89c.17.19.33.36.47.52.09.4-.17.84.21,1.16.16.01.31.03.35.03.54-.46,1.01-.87,1.35-1.16v-3.81c-.31-.59-.52-.98-.71-1.36Zm-5.62.62c-.38-.13-.47-.67-1.05-.62-.37.03-.5.48-.86.71,0,1.74,0,3.5.01,5.26,0,.12.16.24.25.36.32,0,.64,0,.96,0,.23-.23.45-.45.69-.69v-5.02Zm-5.81,4.5v-1.48c-.39-.38-.79-.77-1.04-1.01-.5.34-1.02.68-1.59,1.07.26.4.43.65.65.99.02.43.05.97.08,1.56.27.03.49.06.67.08.44-.43.84-.82,1.23-1.21Z"/><path d="m21.46,60.52c.3-.17.53-.36.87-.63.27.16.58.34.92.53.11-.29.21-.57.34-.9.29-.01.6-.03,1.12-.05.16.21.4.51.67.86v1.45c.22.06.44.12.69.2.38-.43.76-.85,1.21-1.36v-1.44c-.34-.29-.77-.65-1.31-1.1-.17.32-.39.74-.43.83-1.02.23-1.25-.28-1.59-.57v-4.04c.12-.08.19-.16.25-.16,1.45,0,2.91,0,4.42,0,.07.24.13.46.2.71-.43.39-.85.76-1.42,1.28h-2.05c.05.38.08.65.13,1.02.28-.25.45-.41.62-.56.29.29.57.57.89.89.35.04.73.09,1.1.13.3.3.58.58.87.87q.29-.12.29-1.97c.35-.5.39-1.19.91-1.56.43-.31.91-.53,1.41-.81.52,0,1.09,0,1.66,0,.13.08.26.15.39.23.83.53.96,1.62,1.75,2.23.28-.62.56-1.24.84-1.86.33-.14.68-.29,1.32-.56h1.5c.58.58,1.14,1.15,1.71,1.72.39.34-.16,1.09.66,1.29v2.55c-.12.14-.28.31-.45.51v1.39c-.57.82-1.35,1.33-2.46,1.77h-1.16c-1.01-.72-1.5-1.76-1.92-2.86-.5.26-.89.59-.87,1.21-.52.52-1.03,1.03-1.6,1.6h-1.6c-.13-.25-.35-.7-.43-.85-.57-.05-.72-.07-.88-.08-.57-.08,0-1.05-.77-.98-.08,0-.2-.04-.24,0-.62.63-1.24,1.28-1.85,1.91h-2.06c-1.01-.42-1.09-1.75-2.09-2.46-.08.53-.15.98-.23,1.46-1.88,0-3.72,0-5.56,0-.06,0-.11-.11-.21-.2.64-.62,1.27-1.24,1.91-1.86.09-.99,1.06-1.34,1.54-2.09.07-.34.21-.65.46-.94v-1.51c-.61-.24-1.22-.2-1.91-.05v1.58c-.14.14-.19.24-.26.25-.35.08-.58-.09-.84-.31-.21-.18-.55-.22-.94-.36.25-.59.45-1.14.72-1.66.31-.6,1.13-.51,1.52-1.05h2.5c.32.36.69.78,1.15,1.3v2.32c-.11.13-.27.31-.45.51v.97c-.33.16-.66.31-.99.47,0,.27,0,.51,0,.81-.45,0-.92-.18-1.45.13.02.22.05.49.08.74q.81.05,1.38-.23v-.64Zm16.84,1.41c.35-.39.73-.81,1.14-1.25v-3.61c-.29-.69-.43-1.04-.57-1.39-.45-.09-.92-.29-1.32.15v.97c-.17.18-.33.35-.48.51v2.91c.18.2.33.37.38.43.2.5-.09.95.31,1.26.16,0,.32.02.53.03Zm-5.14-.74v-4.88c-.23-.23-.46-.45-.69-.69-.38-.02-.77-.15-1.2.12v4.82c.43.53.78.96,1.13,1.38.3-.3.53-.53.76-.76Z"/><path d="m36.81,117.51c-.4-.4-.8-.8-1.2-1.21-.11-.37.15-.8-.17-1.15-.39.1-.58.43-.84.73v.91c-.25.25-.48.48-.71.71-.97,0-1.95,0-2.93,0-.39-.4-.79-.8-1.2-1.23v-.57c-.26-.06-.53-.12-.87-.19-.05.33,0,.62-.13.77-.36.43-.79.82-1.19,1.22h-2.94c-.21-.22-.43-.45-.67-.71-.09-.48.11-1.11-.52-1.45v-4.4c.14-.15.31-.33.48-.51v-.97c.23-.23.46-.46.71-.71h.9c.27-.2.51-.39.73-.55q2.11,1.11,2.66,2.3c.58-.58,1.18-1.18,1.42-1.42.87-.36,1.21-.51,1.7-.71.04.03.19.15.42.32h1.38c.24.22.47.43.74.68.04.35.08.73.12,1.07.24.26.46.5.68.74.36-.69.64-1.4,1.06-2.02.41-.6,1.18-.65,1.78-.96.21.19.39.34.58.52h1.01c.09.27.19.54.28.82.29.29.57.57.88.88v.94c.17.18.33.36.51.55v.22c0,.73,0,1.46,0,2.19-.11.12-.22.23-.34.35-.34.51,0,1.09-.23,1.68-.34.34-.74.74-1.15,1.15h-2.92Zm1.48-.86c.32-.16.7-.29.69-.36-.07-.48.26-.72.52-1v-4.36c-.4-.4-.8-.8-1.08-1.08-.33.2-.66.4-.86.52-.02.68.1,1.19-.44,1.48v2.54c.17.17.28.28.41.41v.96c.25.29.5.58.77.88Zm-10.98-6.21c-.37-.27-.56-.82-1.14-.73-.32.25-.62.49-.77.61v5.6c.38.16.49.69,1,.62.44-.08.59-.51.91-.74,0-1.79,0-3.57,0-5.36Zm5.12,6.1c.21-.4.41-.8.67-1.31v-4.35c-.4-.4-.74-.75-1.09-1.09-.02-.02-.11.02-.18.03-.21.22-.43.45-.6.63v5.38c.25.25.48.48.71.71h.49Z"/><path d="m32.39,99.91c-.29-.29-.57-.57-.9-.9h-1.05c-.19-.25-.43-.56-.72-.95v-.9c-.23-.06-.45-.11-.62-.16-.51.29-.24.75-.44,1.38-.1.06-.44.27-1,.61.02,0-.3,0-.61,0-.3.3-.59.59-.96.96-.2-.2-.42-.39-.6-.61-.22-.26-.47-.37-.82-.39-.19-.01-.36-.3-.53-.46-.23-.23-.46-.46-.69-.69-.04-.55-.15-1.1.1-1.69h1.62c.46.53-.08,1.25.33,1.8.15.03.3.06.59.12.37-.4.79-.87,1.21-1.32v-.91c-.39-.34-.86-.75-1.4-1.22-.56.08-1.08.81-1.87.41-.04-.04-.14-.09-.14-.15,0-1.3,0-2.59,0-3.89.3-.41.73-.24,1.11-.25,1.2-.02,2.41,0,3.7,0-.06.61-.56.78-.81,1.12-.24.32-.52.61-.7.81-.71.11-1.29-.18-1.86.27.74.5,1.56.06,2.09.23.55.49.97.86,1.27,1.12.11.38.17.6.26.89.6-.69.1-1.44.6-2.53.22-.34.5-1.27,1.5-1.86h2.82c.31.27.55.47.78.66v1c.24.24.47.47.7.7.46-.27.19-.71.32-1.32.27-.2.73-.53,1.45-1.04h1.9c.58.58,1.14,1.15,1.94,1.95,0-.01.04.37.08.74.13.13.25.25.4.4v2.46c-.09.11-.24.29-.43.51v1.41c-.22.23-.44.46-.68.72-.36.04-.75.08-1.11.12-.31.31-.59.59-.9.9-.34-.32-.68-.64-1.03-.96h-.99c-.28-.61-.55-1.22-.84-1.87-.43.18-.68.46-.84.93-.12.35-.45.62-.69.93-.78-.12-.97.71-1.52.95Zm5.87-1.44c.74-.44.69-1.3,1.22-1.75v-3.85c-.41-.42-.81-.82-1.23-1.25-.2.04-.43.09-.71.14v1.6c-.2.2-.31.31-.43.43v1.99c.21.28.34.46.5.67v1.35c.23.23.4.4.65.65Zm-5.14-6.18c-.38-.14-.47-.68-.68-.66-.76.08-.9.53-1.23.75v4.92c.38.34.79.72,1.05.95.31-.15.66-.32.86-.42v-5.54Z"/><path d="m41.45,129.95v2.42c-.17.18-.33.35-.5.53v.95c-.53.53-1.04,1.04-1.57,1.57-.43.25-.92.09-1.39.12-.4.03-.8,0-1.13,0-.46-.44-.87-.83-1.25-1.19-.07-.43.11-.85-.21-1.26-.25.23-.47.43-.71.66-.04.37-.09.75-.12,1.03-.27.31-.48.55-.65.76h-2.8c-.55-.28-.95-.49-1.37-.7v-.93c-.21-.36-.49-.37-.82-.24-.34.33-.08.76-.17,1.15-.39.2-.79.41-1.38.71h-2.82c-.27-.36-.61-.82-1.13-1.51v-1.15c.15-.16.36-.39.62-.67h1.12c.34.33.11.76.17,1.13.07.38-.15.8.14,1.15.17.03.31.06.65.13.27-.37.6-.83,1.11-1.54v-1.26c-.31-.26-.78-.66-1.25-1.06-.25.25-.54.54-.85.85h-1.08c-.09-.11-.18-.17-.18-.23,0-1.46,0-2.91,0-4.34.33-.43.77-.15,1.13-.28.2.17.38.33.58.51h1.45c.15-.14.33-.31.51-.47h1.02c.07.19.16.4.22.58-.81,1.3-2.08,1.77-3.5,2.05.15.15.2.25.26.25.64.01,1.29,0,1.88,0,.7.56,1.3,1.14,1.57,1.98.1-.1.2-.15.2-.21.01-.97,0-1.94,0-2.89.41-.25.89-.4,1.15-.73.42-.54,1.16-.46,1.56-1,.09-.12.46-.02.7-.04.51-.05.69.71,1.26.49.24.3.63.58.7.92.09.47.47.62.67.95.62,0,.18-.62.5-.86.27-.21.36-.64.54-.99h.95c.18-.17.36-.33.54-.5.67-.2,1.18.2,1.73.48.47.24.94.47,1.42.71v1.45c.17.18.33.36.5.53Zm-2.98-2.09c-.39.23-.72.43-.9.54-.03.53-.04.84-.06,1.09-.17.17-.29.29-.4.4v2.54c.17.17.28.28.4.4.03.54.06,1.08.09,1.6.22.06.36.1.65.18.37-.4.85-.81,1.26-1.29v-3.84c-.54-.49-.5-1.36-1.03-1.62Zm-5.31,5.98v-4.37c-.17-.18-.33-.35-.48-.52-.09-.39.17-.82-.17-1.13-.47.4-.93.8-1.25,1.07v5.07c.38.17.49.69,1.01.62.42-.09.58-.5.89-.74Z"/><path d="m36.28,0h3.47c.41.41.82.81,1.22,1.21v.48c.17.18.33.35.48.51v2.92c-.13.13-.24.24-.42.42-.03.32-.07.7-.11,1.08-.52.52-1.03,1.03-1.6,1.6h-2.44c-.48-.42-.9-.8-1.3-1.15v-1.01c-.27-.28-.55-.31-.91-.05-.03.5-.05,1.05-.08,1.53-.26.28-.48.52-.68.73h-2.95c-.4-.4-.8-.8-1.17-1.17-.05-.26-.1-.49-.17-.81-.34.07-.61.13-.86.18v.59c-.41.41-.81.81-1.21,1.21h-2.91c-.72-.33-.64-1.23-1.22-1.69V1.74c.56-.43.44-1.34,1.21-1.72h3.39c.58.24.68.91,1,1.45.45-.47.89-.94,1.36-1.42h3.56c.71.46.66,1.46,1.46,1.91.28-.6.55-1.2.89-1.95Zm1.27,5.61c0,.48,0,.96,0,1.45,0,.06.11.11.19.18.12.02.27.05.24.04.59-.44,1.1-.82,1.48-1.11V2.16c-.14-.14-.26-.26-.37-.37-.08-.44-.16-.88-.24-1.3h-.58c-.72.35-.65,1.24-1.22,1.69v2.92c.15.16.31.33.48.51Zm-10.24.97V1.16c-.39-.17-.53-.79-1.07-.69-.36.28-.67.52-.85.66v4.77c.47.59.81,1.01,1.15,1.43.31-.3.54-.53.77-.75Zm3.94-.12c.29.37.48.62.65.85.46-.44.87-.83,1.26-1.21V1.86c-.28-.53-.48-.93-.7-1.34-.15-.01-.3-.03-.47-.04-.3.24-.6.49-.75.61v5.37Z"/><path d="m135.07,160.17c.17.18.33.35.48.51v1.95c-.13.13-.24.24-.42.42v1.46c-.53.53-1.09,1.09-1.71,1.71h-2.55c-.71-.36-.59-1.27-1.18-1.72v-3.92c-.22-.06-.43-.13-.61-.18-.55.27-.26.73-.49,1.38-.62.62-1.46,1.46-2.3,2.3.09.09.14.19.2.19.32.04.64.05,1,.07.16-.32.32-.65.48-.98.4.02.8-.1,1.25.14-.16.21-.29.37-.51.65v1.92c-.15.11-.21.19-.27.2-1.46,0-2.91,0-4.34,0-.25-.25-.48-.48-.71-.71-.17-.6.32-.88.66-1.16.4-.32.21-.9.66-1.21.4-.27.7-.67,1.04-1.02.35-.34.69-.68,1.03-1.01v-.98c.16-.18.31-.35.44-.49-.4-.43-.79-.84-1.15-1.22h-.52c-.56.53.02,1.26-.35,1.81-.53.29-1.09.02-1.55.15-.41-.29-.26-.64-.28-.95-.02-.24,0-.49,0-.77.56-.53,1.15-1.08,1.81-1.7h2.37c.34.37.72.79,1.16,1.28v.86c.22.23.44.46.67.71.11-.06.31-.13.31-.19,0-.71.81-1.2.52-1.96.43-.22.83-.43,1.37-.7h1.8c.55.57,1.11,1.15,1.7,1.75v1.4Zm-1.46-.31c-.28-.53-.49-.93-.7-1.34-.38-.02-.77-.15-1.25.16,0,.24.06.56-.02.85-.08.28-.31.52-.43.71v2.42c.32,1.06.49,1.62.65,2.13h1.04c.22-.42.43-.83.71-1.36v-3.57Z"/><path d="m246.22,162.81c.03-1.17.03-2.39.03-3.54.76-.79,1.49-1.54,2.18-2.26h1.94c.44.42.84.82,1.24,1.2v.98c.12.12.23.23.35.35.05.14.13.29.13.43.01,1.21,0,2.42,0,3.5-.65.92-.56,2.02-1.24,2.79-.96,0-1.93,0-2.91,0-.86-.68-.98-1.99-2.11-2.44-.61-.04-.63.32-.53.82.26.09.54.19.87.31v1.12c-.06.06-.12.17-.18.17-1.13,0-2.27,0-3.41,0-.29-.39-1.04-.58-.59-1.41.33-.02.71-.05,1.1-.08.26-.25.29-.53.02-.91h-2.5c-.43-.59-.16-1.17-.25-1.75.89-.45.9-1.63,1.71-2.16.84-.55.71-1.81,1.71-2.12v-.63c.19-.07.4-.15.64-.24.25.23.48.44.79.73v4.44c.39.28.56.7.98.69.08.29.04.66.47.33-.13-.11-.27-.23-.47-.33Zm1.98-3.62v4.9c.44.21.88.43,1.3.64l.61-.61v-4.98c-.36-.24-.49-.73-1.15-.66-.26.09-.46.47-.76.71Zm-4.53,1.81c-.06-.01-.14-.05-.17-.03-.4.37-.79.74-1.49,1.4.82-.15,1.31.28,1.79-.25-.07-.37.14-.78-.14-1.12Z"/><path d="m300.85,159.45c.04.41.07.63.1.94h2.57c.37.37.66.66.99.99.22-.2.44-.4.7-.64.04-.51.08-1.06.13-1.6.68-.32.25-1.03.51-1.49.45-.13.87-.3,1.2-.63.41,0,.81,0,1.21,0,.47.25.93.5,1.4.75v.47c.29.29.58.58.87.87.03.07.11.15.09.2-.36,1.08.75,1.91.5,2.97-.02.08,0,.16,0,.29-.13.15-.28.33-.47.55v1.43c-.59.54-1.18,1.09-1.86,1.72h-2.28c-.74-.29-.65-1.21-1.23-1.67v-1.89c-.26-.3-.45-.63-.84-.74-.29.45-.12.94-.15,1.41-.03.4,0,.81,0,1.2-.58.46-.51,1.36-1.22,1.7h-2.39c-.61-.59-1.19-1.15-1.75-1.69v-1.48c.29-.29.58-.58.93-.93-.12-.15-.24-.31-.41-.53v-4.02c.15-.14.43-.4.67-.62.87.12,1.62,1.1,2.41.07.54,0,1.09,0,1.6,0,.27.42.14.82.12,1.26-1.1.23-1.91,1.25-3.38,1.14Zm8.3,4.13v-3.72c-.27-.52-.48-.92-.69-1.34h-1.3c.13.68.03,1.28-.43,1.71v3.38c.58.45.48,1.36,1.24,1.65.69-.34.63-1.23,1.18-1.68Zm-8.29-.96c0,.64,0,1.29,0,1.94,0,.06.11.11.19.2h1.09c.24-.53.45-1.01.68-1.52-.17-.25-.4-.48-.49-.75-.12-.35.14-.81-.38-1.16-.48.23-1.02.49-1.59.76.17.19.33.36.49.53Z"/><path d="m2.44,73.86c0-.32,0-.64,0-.97.4-.4.8-.8,1.21-1.21h1.94c.17.15.34.31.56.51.08-.24.15-.45.2-.59-.29-.86-1.22-.76-1.65-1.32-1.29-.18-1.62-1.35-2.18-2.23-.17-.26-.13-.89.08-1.1.31-.32.24-.74.53-1.13h2.04c.23.49.29.97.71,1.29v1.42c.44.36.89.27,1.39.06v-1.68c-.22-.05-.44-.1-.73-.16-.4-.34-.18-.81-.1-1.27.36-.28.76-.09,1.14-.12.72.35.64,1.24,1.19,1.7v2.43c-.47.47-.92.92-1.38,1.38.19.71.94.66,1.38,1.03.03.71,0,1.42.02,2.17h-3.22c-.16-.16-.27-.27-.39-.39-.55,0-1.09,0-1.61,0q-.12.24,1.12,1.42h.91c.21.18.39.33.54.47h1.42c.34.39.76.86,1.21,1.37,0,.07-.02.23-.05.49-.67.18-1.4.05-2.11.09-.17-.16-.35-.33-.53-.49-.87,0-1.74,0-2.69,0,.53,1.05,1.4,1.41,2.37,1.92h1.24c.19.17.37.33.56.5h.93c.52.38.24.86.2,1.31-.06.05-.12.16-.18.16-.81.01-1.62,0-2.41,0-.19-.18-.37-.34-.57-.52-.21.06-.43.13-.69.21.2.22.36.39.54.6-.68.38-1.42.12-2.17.22-.21-.19-.44-.41-.73-.67v-1.53c.04-.06.18-.24.42-.55.42-.78-.77-1.42-.45-2.37.11-.13.27-.31.45-.51v-1.45c-.14-.15-.3-.33-.47-.51Zm1.68-5.5c.4-.65.32-1.09.05-1.59-.3.3-.52.52-.54.54.16.33.31.67.49,1.04Z"/><path d="m319.88,163.34c-.19.11-.41.2-.58.34-.55.44-.54,1.26-1.18,1.69-.52.35-.92.89-1.4,1.37-.22-.21-.44-.41-.65-.61.17-.4.29-.81.5-1.17.27-.45.83-.65.92-1.32.05-.38.6-.7.93-1.05v-1.19c.34.01.5-.15.42-.46.31-.08.69-.04.36-.47-.11.13-.23.27-.36.47-.27-.04-.43.12-.42.46-.41-.07-.48.37-.75.47h-1.44c-.76-.35-.65-1.27-1.22-1.71v-2.98c.27-.1.6-.14.83-.31.32-.24.58-.56.85-.83.53-.19.72.28,1.07.49h.92l.4.4c.35.04.73.09,1.11.13.12.12.24.24.34.34.4-.17.81-.31,1.18-.53.4-.24.57-.78,1.12-.85.49-.01.56.54.89.64.15.41,0,.65-.23.91-.14.15-.17.41-.27.68-.48.22-1.26.4-1.34,1.03-.09.77-.9.9-1.04,1.61.06.13.15.31.25.52l.45-.45h2.05c.19.19.36.36.53.53.05.06.13.12.14.18.02.16,0,.32,0,.49v3.86c-.26.26-.49.49-.72.72h-1.99c-.19-.21-.4-.45-.67-.75v-.98c-.36-.24-.77-.51-1-.66,0-.53,0-.78,0-1.02.51-.11.78-.47,1-.96-.07-.14-.16-.32-.26-.51-.28.28-.51.5-.74.72v.74Zm2.09-.87c-.05.06-.13.12-.13.18,0,.8,0,1.59,0,2.39,0,.06.1.11.19.21.68.27.89-.39,1.27-.71v-1.43c-.08.08-.16.15-.24.23-.17-.37-.34-.74-.46-1.01-.34.08-.48.12-.63.15Zm-5.5-2.79c.41.27.59,1.01,1.36.61.25-.57.04-1.2.09-1.81.01-.13-.09-.27-.14-.41-.19-.19-.39-.38-.53-.52-.34.28-.58.48-.78.64v1.5Zm3.07.14c.06.01.14.05.17.03.4-.37.79-.74,1.48-1.4-.82.14-1.31-.28-1.79.25.07.37-.14.78.14,1.12Z"/><path d="m147.01,156c.75.08.89.53,1.3.81-.21.45-.43.92-.72,1.56-.26.21-1.04.18-1.16.74-.16.76-.84,1.1-1.14,1.69.34.81.35.81,1.2.17h1.62c.09.14.31.47.62.93v1.21c.18.2.33.37.56.63-.13.25-.27.52-.56,1.06v1.24c-.26.26-.43.43-.72.72-.58.06-1.29.02-1.99,0-.24-.24-.47-.47-.78-.78v-3.99c-.86.11-.77.89-1.12,1.32-.34.42-.69.78-.91,1.33-.22.55-.86.94-1.33,1.4v.6c-.26.05-.53.1-.78.15-.34-.63-.15-1.19-.18-1.73.89-.69,1.18-1.81,1.92-2.61.05-.06-.07-.28-.13-.48h-1.17c-.7-.7-1.26-1.26-2.05-2.06v-2.68c.74-.36,1.47-.72,2.22-1.09.21.3.55.39.98.43.43.04.83.39,1.26.44.42.05.78.09,1.02.46.67-.51,1.59-.62,2-1.45Zm-.62,6.5c-.25.57-.05,1.21-.09,1.82-.02.29-.15.63.14.89.73.35.92-.37,1.31-.66v-1.51c-.44-.14-.57-.98-1.36-.54Zm-4.77-5.03c-.26.37-.26.86-.6,1.21-.2.21-.09.72-.11.95.32.36.53.59.71.79.21,0,.37.02.52,0,.06,0,.11-.1.2-.19v-2.02c-.25-.25-.47-.47-.73-.73Zm2.47,2.48c.39-.42.84-.79,1.2-1.25-.5-.36-.98-.39-1.48.07.17.33-.15.75.28,1.18Zm-.49,1.49c.32-.44.46-.75-.07-.95-.26.29-.25.55.07.95Z"/><path d="m86.31,162.37c-.7.13-.92.85-1.45,1.2v1.01c-.89.44-.9,1.59-1.7,2.15-.37,0-.77.15-1.24-.18,0-.23-.11-.6.02-.83.29-.52.38-1.18.89-1.57.77-.59,1.15-1.43,1.46-2.24.31-.08.69-.04.36-.47-.11.13-.23.27-.36.47-.5-.03-1.07-.03-1.64-.03-.23-.23-.48-.44-.68-.69-.19-.24-.51-.36-.56-.75-.04-.28-.28-.54-.46-.86v-1.85c.12-.12.27-.22.35-.36.14-.26.21-.77.36-.79.44-.05.68-.39,1.02-.51.31-.11.74-.14,1.14.12.76.49,1.59.86,2.42,1.29.91-.31,1.78-.78,2.32-1.5.7.18.99.52,1.17.98-.05.14-.06.31-.14.43-.42.56-1.17.87-1.32,1.65-.12.65-.97.76-1.03,1.54-.03.38-.59.72-.92,1.1v.7Zm-1.97-3.64c-.41-.28-.43-.76-.68-1.25-.24.05-.51.1-.77.15,0,.91,0,1.7,0,2.5,0,.06.08.12.21.28.21-.03.48-.06.74-.1.02-.5.04-.87.05-1.14.22-.22.33-.33.44-.44Zm.79,2.21c.14-.43.67-.46.7-1.02.03-.6.72-.75.95-1.28-.59-.29-1.19-.18-1.77-.1-.28.46-.13.94-.14,1.39,0,.29-.15.63.27,1.01Z"/><path d="m259.83,161.91c-.5-.03-1.07-.03-1.64-.03-.23-.23-.48-.44-.68-.69-.19-.24-.51-.36-.56-.75-.04-.28-.28-.54-.46-.86v-1.85c.12-.12.27-.22.35-.36.14-.26.21-.77.36-.79.44-.05.68-.39,1.02-.51.31-.11.74-.14,1.14.12.76.49,1.59.86,2.43,1.3.44-.19.94-.36,1.4-.61.4-.23.57-.78,1.1-.85.51.13.8.47.98.93-.05.14-.06.31-.14.43-.42.56-1.17.87-1.32,1.65-.12.65-.97.76-1.03,1.54-.03.38-.59.72-.92,1.1v.7c-.7.14-.9.87-1.45,1.14v1.06c-.88.46-.91,1.6-1.69,2.17-.38,0-.77.15-1.25-.18,0-.23-.11-.6.02-.83.29-.52.38-1.18.89-1.57.77-.59,1.15-1.43,1.46-2.24.31-.08.69-.04.36-.47-.11.13-.23.27-.36.47Zm-.67-1.49c.33-.22.19-.56.26-.85.08-.33.25-.64.34-.87-.23-.45-.43-.83-.64-1.25-.23.06-.45.12-.61.16,0,.93,0,1.79,0,2.64,0,.05.11.11.16.16h.47Zm1.34.41c.46-.03.57-.46.86-.65-.11-.68.5-.92.84-1.31.13-.15.16-.23-.07-.36h-1.79c.17.79-.12,1.54.16,2.32Z"/><path d="m203.83,161.39c-.48-.04-.34.44-.51.6-.74.71-.99,1.78-1.79,2.43-.23,1.1-1.26,1.56-1.81,2.34-.24-.02-.4-.03-.56-.04-.38-.32-.13-.75-.21-1.13.25-.49.92-.67.97-1.3.05-.7.9-.8,1.03-1.53.08-.47.64-.88,1.05-1.24.48-.43.39-1.16.99-1.56.38-.25.52-.86.77-1.32-.32-.38-.76-.05-1.16-.25-.22.77-.91,1.3-.68,2.3-.41.29-.88.61-1.64,1.14h-1.14c-.2-.2-.37-.37-.54-.54-.05-.06-.14-.12-.14-.18,0-1.29,0-2.58,0-3.86.41-.41.81-.81,1.22-1.22h.82c.97.52,1.84.98,2.76,1.47.77-.38,1.7-.61,2.21-1.49.26.04.48.07.74.11v1.59c-.45,1.07-1.47,1.96-1.9,3.2-.34-.01-.5.15-.49.49Zm-2.96-3.9h-.7c-.22.23-.45.46-.68.69.12.34.63.5.43,1.01-.15.16-.31.33-.47.5.23.23.45.45.74.74.28-.25.55-.5.68-.61v-2.33Z"/><path d="m76.07,159.19c.17.18.33.35.48.51v3.88c-.17.19-.33.36-.48.53v.85c-.25.52-.83.85-1.23,1.31h-2.48c-.52-.74-1.06-1.49-1.65-2.32v-4.66c.76-.79,1.49-1.54,2.18-2.27h1.96c.42.42.82.82,1.22,1.22v.96Zm-3.41,5.37c.39.44.86.23,1.16.18.35-.27.6-.47.79-.63,0-1.69,0-3.3,0-4.9-.36-.27-.52-.84-1.33-.72-.15.16-.41.44-.62.67,0,1.87,0,3.63,0,5.39Z"/><path d="m187.73,159.44c.14-.06.38-.09.4-.17.26-1.36,1.49-1.67,2.45-2.24.21-.13.78-.06.88.1.39.64,1.08.16,1.57.54.02.18.04.41.06.64.02.15.03.31.05.46.11.11.23.23.39.39v4.82c-.17.34-.37.74-.65,1.28-.22.22-.57.57-.96.96h-1.75c-.58-.58-1.14-1.15-1.7-1.71-.37-.11-.07-.73-.74-.68v-4.39Zm1.99,4.59c.28.32.49.56.66.76.39,0,.71,0,1.03,0,.06,0,.11-.11.2-.19v-5.44c-.35-.22-.47-.7-1.21-.69-.19.04-.36.45-.68.68v4.88Z"/><path d="m187.73,163.83v.71c-.58.58-1.14,1.16-1.7,1.73h-2.93c-.71-.34-.64-1.24-1.21-1.7v-1.24c.29-.45.51-.78.7-1.07.91.29,1.28.91,1.82,1.5-.16.26-.32.52-.47.77q.5.27,1.64.24c.06-.06.16-.11.16-.17.01-.64,0-1.29,0-1.95-.7-.34-1.35-.91-2.31-.85-.04-.21-.08-.44-.13-.7.24-.08.45-.16.71-.26.5-.53,1.06-1.11,1.69-1.77-.18-.15-.47-.38-.75-.61-.16.03-.32.05-.47.07-.34.34-.08.77-.17,1.15-.55.58-1.2.03-1.74.28-.36-.65-.17-1.22-.2-1.76.4-.4.8-.8,1.2-1.2.65,0,1.29,0,1.84,0,.86.53,1.82.81,2.3,2.07,0-.12,0,.13,0,.37-.35.32-.88,1.27-.98,1.6-.18.57.36.81.45,1.1.05.6.07,1.07.14,1.53.01.07.25.11.39.17Z"/><path d="m37.34,144.81c.4,0,.81,0,1.2,0,.93.43,1.84.86,2.43,1.79v.9c.13.13.24.24.42.42v3.04c-.53.29-.42.8-.43,1.14-.63.63-1.2,1.19-1.94,1.93h-2.21c-.14-.12-.37-.33-.69-.62-.02-.31-.05-.69-.07-1.06-.17-.19-.32-.37-.43-.5v-4.88c.14-.14.25-.25.4-.4.04-.35.08-.73.12-1.11.41-.22.92-.25,1.2-.67Zm1.39,1.45c-1.23-.02-1.02,1.28-1.66,1.75v2.91c.51.3.49.78.49,1.27,0,.13.13.26.21.41h1.04c.16-.2.37-.44.64-.77v-4.2c-.31-.59-.52-.98-.72-1.37Z"/><path d="m177.98,180.16c.11-.11.23-.22.43-.41v-1.93c.25-.28.41-.46.53-.6.1-.42-.17-.61-.36-.87-.11-.15-.06-.42-.08-.6.11-.1.17-.21.23-.21.65-.01,1.3,0,1.94,0,.42.4.31.9.11,1.31-.13.27-.44.45-.35.86.22.47.69.17,1.32.4.22.25.63.73,1.08,1.26v2.1c-.43.84-.77,1.51-1.17,2.29-.09.02-.34,0-.53.1-.2.1-.36.31-.51.45h-1.24c-.47-.25-.94-.49-1.4-.74,0-1.13,0-2.27,0-3.41Zm2.44,2.63v-1.16c.17-.18.33-.36.49-.53-.09-.55.21-1.14-.24-1.69-.29.26-.57.5-.71.62-.03.56-.04.87-.05,1.09-.36.57-1.29.75-.78,1.66h1.3Z"/><path d="m22.92,5.57v.54c-.32.15-.64.3-1.07.5.39.13.67.23,1.01.35v1.15c-.31.33-.74.13-1.12.16-.32.03-.65.02-.97,0-.39-.02-.79.09-1.21-.11v-1.14c.1-.48.87.13.84-.54-.44-.3-.93-.12-1.39-.15-.4-.03-.81,0-1.21,0-.23-.23-.46-.46-.78-.78.19-.42.4-.88.81-1.78.2-.31,1.17-.65,1.25-1.64.71-.53,1.01-1.37,1.41-2.08h1.27c.06.15.18.29.18.42.01,1.54,0,3.07,0,4.65.32.15.65.3.98.46Zm-2.68-.22q.32-1.36.02-2.91c-.55.61-.54,1.52-1.15,2.12-.23.22-.13.58.18.79h.95Z"/><path d="m65.28,164.79h1.79c.48-.53.14-.8-.21-1.15v-3.48c.16-.22.33-.4.42-.61.05-.12-.04-.3-.07-.45-.52-.3-1.09-.08-1.69-.17-.06-.19-.14-.4-.22-.63.48-.28.9-.63,1.37-.79.43-.14.99.11,1.34-.56.35.46.68.9,1.19,1.57v5.09c-.07.25-.78.48-.28,1.13.32.03.71.07,1.1.1.37.32.12.76.2,1.14-.12.09-.23.27-.35.27-1.45.02-2.91.01-4.29.01-.41-.41-.15-.84-.3-1.48Z"/><path d="m18.29,117.51c-.34-.34-.51-.51-.71-.71.2-.22.41-.44.63-.68.37-.04.75-.08,1.12-.12.06-.16.17-.29.17-.43.01-1.54,0-3.07,0-4.61-.05-.06-.1-.16-.16-.17-.54-.06-1.09-.11-1.62-.16-.06-.16-.12-.29-.17-.43.14-.98,1.23-.84,1.69-1.44.71-.03,1.42,0,2.19-.02v7.18c.28.07.5.12.81.19.46.31,0,.81.2,1.14-.16.15-.22.25-.28.25-1.29,0-2.59,0-3.89,0Z"/><path d="m19.33,92.22c-.24.14-.49.28-.72.41-.52.07-.63-.45-.97-.6.13-.91,1.12-.7,1.54-1.29h2.08c.06.12.18.26.18.39.01,2.25,0,4.49,0,6.7.4.14.68.24.99.35-.03.26-.06.48-.1.75h-4.66c-.05-.2-.11-.41-.16-.59.28-.52.73-.26,1.37-.38.09-.13.3-.47.61-.93,0-1.39,0-3,0-4.62,0-.06-.11-.11-.16-.17Z"/><path d="m3.9,85.79v1.25c.44.5,1.33-.08,1.65.68.56.04,1.11.15,1.66-.08-.05-.52-.64-.62-.78-1.06-.14-.29-.16-.59.36-.82.57.32,1.23.68,1.95,1.09.07.74.03,1.45.02,2.15-.41.21-.81.42-1.36.7h-1.28c-.11-.1-.22-.2-.35-.32-.5-.36-1.08,0-1.65-.23-.12.35-.22.63-.34.97-.19.02-.41.05-.6.08-.44-.35-.13-.79-.32-1.23-.04-.03-.13-.19-.26-.22-.37-.09-.74.04-1.14-.22-.51-.34-1.13-.5-1.46-1.08.02-.16.03-.31.05-.47.06-.06.11-.16.17-.16.81-.01,1.62,0,2.5,0,.09-.28.18-.55.31-.94.25-.02.56-.05.87-.08Z"/><path d="m6.34,82.89c0-.24,0-.48,0-.72.91-.86,1.51.32,2.3.33.27.52.09,1.08.12,1.62-.4.4-.79.79-1.18,1.18-.49.16-.75-.15-.98-.46h-1.06c-.09.26-.18.54-.27.82-.14.05-.27.14-.42.15-.32.02-.64,0-.96,0,.05-.66-.56-.37-.83-.58-.14-.73-.96-1.27-.53-2.21.16-.16.38-.38.62-.62h1.45c.17.16.34.32.51.48.4,0,.81,0,1.21,0q.29.5.93.29c-.18-.52-.62-.2-.93-.29Z"/><path d="m261.85,162.37c.08,0,.19.03.24,0,.51-.49,1.02-1,1.48-1.46h.81c.98.46,1.29,1.47,1.86,2.27v1.19c-.48.88-.83,1.85-1.86,2.39h-.64c-.48-.12-.7-.58-1.06-.88-.31-.26-.6-.53-.83-.74v-2.77Zm2.19,0c-.23.23-.46.46-.69.69-.03.55-.15,1.1.28,1.45.12.28.23.57.36.86.37-.39.59-.62.77-.81v-1.48c-.25-.25-.48-.48-.71-.71Z"/><path d="m86.31,162.37c.08,0,.19.03.24,0,.51-.49,1.02-1,1.48-1.46h.81c.98.46,1.29,1.47,1.86,2.27,0,.4,0,.8,0,1.19-.48.88-.83,1.85-1.86,2.39h-.66c-.77-.38-1.19-1.21-1.87-1.65v-2.74Zm2.91.76c-.24-.24-.41-.6-.82-.67-.22.24-.44.47-.6.64v1.42c.27.31.48.55.69.79.26-.26.49-.49.73-.73v-1.45Z"/><path d="m204.31,160.91h1.72c.37.39.76.79,1.19,1.24v3.25c-.21.43-.42.82-.64,1.27-.01,0-.08.08-.14.09-.64,0-1.28,0-1.88,0-.26-.26-.49-.49-.72-.72v-.95c-.16-.18-.33-.35-.5-.53,0-.47,0-.95,0-1.44.16-.17.32-.35.49-.52v-1.2c.34.01.5-.15.49-.49Zm.98,4.26c.25.05.53.1.87.16.05-.33.03-.57.12-.76.13-.26.53-.37.47-.77-.23-.45-.45-.92-.7-1.41-.2.02-.42.03-.59.05-.08.11-.16.17-.16.24,0,.8,0,1.59,0,2.5Z"/><path d="m0,83.17C0,82.79,0,82.48,0,82.16c.37-.46.84-.21,1.29-.18.34.32.09.74.19,1.17-.22.17-.47.37-.79.62-.3-.02-.37-.5-.69-.61Z"/><path d="m277.43,136.53c.6,0,1.17,0,1.74,0,.57.56.04,1.21.28,1.75-.42.15-.7.26-1.03.38.18.21.33.38.48.56.09.52-.13,1.09.16,1.62.53,0,.27-.42.36-.67.45-.45.91-.91,1.41-1.41-.13-.16-.26-.32-.41-.5-.05-.52-.15-1.07.1-1.67h1.71c.06.42.13.87.2,1.32.58,0,.27-.45.4-.64.18-.26.45-.47.68-.7.38-.03.77-.1,1.19.07v1.73c-.21.05-.43.1-.74.17-.05.13-.14.33-.29.68.27.24.55.48.77.69.48-.43.9-.81,1.3-1.17v-1.99c.59-.5,1.22-.04,1.88-.29v4.76c-.6.38-.46.94-.35,1.49.11.21.17.12.36,0,.59-.37.41-1.21,1.03-1.54v-3.92c.57-.38,1.19-.22,1.89-.15.16.92,0,1.88.1,2.86.68-.26.41-.71.44-1.05.04-.4.01-.8.01-1.16.27-.27.5-.5.73-.73h.99c.16.33.31.68.51.99.11.18.32.3.58.53.08-.55.15-.99.22-1.48h1.65c.39.37.04.81.34,1.32.12.02.4.06.72.11.07-.33.12-.55.17-.81.3-.37.74-.06,1.07-.21.56.38.96.83.92,1.57.68-.4.86-.92,1.02-1.45.8-.49,1.4.49,2.11.39.31-.63.16-1.19.15-1.71-.15-.18-.29-.35-.41-.48.25-.27.46-.51.65-.72h1.5c.48.49.14,1.08.24,1.64-.14.16-.3.34-.47.54.14.16.3.33.46.51v1.51c-.26.09-.55.19-.94.32-.02.34-.04.72-.05,1.09-.17.19-.32.37-.5.57.07.21.14.43.22.66.22-.19.39-.34.6-.53.36.7.12,1.43.21,2.26-.38.3-.82.66-1.39,1.12-.16-.26-.4-.66-.56-.9h-1.22c-.33.31-.67.63-.94.88-.59-.59-1.16-1.16-1.77-1.77,0-.07-.01-.23-.05-.38-.02-.07-.11-.12-.22-.23-.08.24-.09.48-.21.63-.51.61-1.06,1.2-1.67,1.88-.35-.46-.67-.89-1.2-1.59v-1.17l.39-.39v-2.15c-.55-.04-.35.36-.45.57-.1.21-.3.37-.47.56v1.09c-.3.24-.68.54-1,.79v1.53c-.35.4-.78.14-1.17.23-.34-.32-.68-.64-1.02-.96-.47.47-.93.93-1.42,1.42-.16-.14-.33-.28-.52-.45h-.94c-.22.17-.46.36-.6.47-.23,0-.35.04-.39,0-.59-.56-1.17-1.12-1.71-1.65v-1.5c.16-.18.31-.35.46-.52-.25-.25-.48-.48-.71-.71-.16,0-.32,0-.49,0-.5.47-.15,1.07-.27,1.73-.26.26-.58.62-.94.93-.35.3-.57.7-1.14.8-.4.07-.72.59-1.02.85-.74-.38-1.48-.75-2.22-1.12-.1-.38.1-.8-.14-1.16-.59,0-.25.45-.41.64-.75.94-1.99,1.06-2.88,1.78-.67-.31-.99-.9-1.47-1.3v-3.9c.12-.12.23-.23.43-.43v-1.92c.25-.29.4-.46.62-.72-.14-.25-.28-.52-.52-.94.17-.07.45-.19.74-.31.35-.42.9-.31,1.45-.27.23.23.46.46.69.69,0,.25,0,.49-.03.74-.47.07-.69.47-.97.88.06.17.13.38.21.6.26-.03.47-.06.73-.1,0-.49,0-.94.03-1.38Zm19.53,4.77c.28.21.52.39.77.58.35-.32.1-.77.23-1.12.12-.34.37-.64.59-1.01-.29-.15-.48-.25-.86-.44-.19.33-.39.68-.73,1.26,0,.03,0,.43.14.78-.38.11-.76.07-.43.5.11-.13.23-.27.29-.54Zm-16.54,2.05h.7c.4-.4.8-.8,1.25-1.26-.12-.81.08-1.69-.13-2.59-1.09.42-1.24,1.53-1.82,2.21v1.64Zm19.47-2.22c0,.52,0,1,0,1.47,0,.06.1.11.09.1.43-.39.87-.79,1.36-1.22,0-.53,0-1.17,0-1.8,0-.06-.1-.11-.24-.25-.21.05-.47.11-.72.16v1.12c-.15.13-.33.29-.49.42Zm-23.65-1.2c-.55.36.02,1.05-.48,1.48-.48.42-.42.96,0,1.44.17,0,.33,0,.49,0,.24-.46.48-.92.73-1.39-.09-.49.27-1.09-.25-1.53-.16,0-.32,0-.48,0Zm14.97,2.8c.34-.21.68-.41.9-.55-.03-.51-.05-.82-.06-1.11-.37-.24-.81-.15-1.09-.52-.21-.28-.57-.17-.81.1.05.38-.16.8.15,1.15.22-.11.44-.23.71-.36.08.51.15.96.21,1.29Z"/><path d="m241.13,127.75c.63-.63,1.26-1.26,1.92-1.92h1.94c.66.47,1.2,1.1,1.55,1.93.29-.64.57-1.25.87-1.91h4.11c.05.25.1.47.15.75.27.36.71.08,1.17.25.29-.37.59-.75.82-1.04h2.59c.47.38.18.9.23,1.36.05.4.01.81.01,1.26-.13.15-.28.33-.46.54.42.21.84.43,1.27.65.36-.51.01-1.1.25-1.71.09-.1.25-.28.42-.46v-1.43l.42-.42v-1.57l-.5-.5c.31-.1.62-.19.93-.29-.08-.11-.17-.21-.25-.32h1.75c.15.68.04,1.4.08,2.11-.17.18-.33.35-.5.54v1.45l-.36.36c-.24.52-.11,1.07-.08,1.67.27.1.55.2.94.34,0,.27.11.64-.02.88-.45.81-.76,1.73-1.67,2.26-.4-.12-.65-.53-.94-.86-.24-.27-.35-.66-.56-1.07-.12.34-.15.68-.33.9-.35.43-.77.8-1.1,1.13-.82.05-.99-.63-1.46-.95-.33.31-.67.63-1,.94-.52-.36-.68-1.21-1.5-.94-.09-.25-.19-.39-.19-.53-.01-.89,0-1.78,0-2.66-.24-.24-.47-.47-.72-.72h-1.03c-.16.53-.33,1.09-.65,2.13v1.44c-.22.24-.43.47-.69.75h-1.12c-.37-.5-.1-1.08-.18-1.62.16-.18.33-.35.48-.52v-.99c-.54-.26-1.08-.53-1.55-.76-.44.25-.45.54-.29.94.17.04.4.08.68.14.45.42.1,1.02.19,1.53-.59.56-1.17,1.11-1.84,1.74-.15-.27-.37-.7-.44-.82-1.19-.18-1.38.67-1.98.93-.8-.06-1-.92-1.56-1.18-.1-.5.15-.94-.35-1.34-.42.46-.76,1.12-1.29,1.36-.6.27-1.05.65-1.53,1.11-.16-.14-.33-.28-.5-.42-.94.8.39,1.49.23,2.18-.17.13-.23.21-.29.22-.81,0-1.62,0-2.39,0-.26-.26-.49-.49-.74-.74.47-.44.93-.89,1.36-1.29.05-.22.1-.37.11-.52.05-.54-.19-1.15.42-1.53.03-.54.06-1.09.09-1.66-.33-.07-.55-.12-.81-.17-.36-.29-.11-.73-.19-1.12.15-.17.31-.35.49-.54v-.95c.13-.09.25-.25.37-.26,1.22-.02,2.44-.01,3.65-.01.77.46,1.29,1.11,1.59,1.95Zm1.22,2.19c.09.38-.17.81.07,1.05.49-.36.98-.72,1.32-.97.14-.56-.04-.96.31-1.31.45-.45.43-.97-.02-1.44-.6-.09-.82.43-1.18.71-.1.54.12,1.11-.16,1.63-.12.12-.24.23-.35.34Zm-3.41-.96c.17-.18.33-.35.53-.56-.17-.34.16-.78-.23-1.11-.16-.02-.32-.03-.4-.04-.35.26-.66.5-.87.66,0,.57.04.99-.02,1.38-.03.2-.3.36-.38.56-.08.21-.1.46-.08.69.02.2.12.4.19.63.46-.45.86-.85,1.26-1.24v-.97Zm15.19-1.55l-.51.51c-.04.38-.08.76-.12,1.09-.32.32-.61.61-.96.96.18.15.38.28.54.44.35.34.66.34.98-.04v-.95c.31-.45.97-.63.97-1.54-.2-.1-.55-.29-.91-.48Zm-13.43,2.4c.21-1.2.2-1.2-.15-1.5-.22.43-.25.87.15,1.5Zm-4.51-1.67c.1-.06.21-.11.31-.17-.05-.05-.12-.16-.16-.15-.11.03-.22.1-.33.15.05.05.11.11.17.17Zm11.84,0c.07-.07.12-.12.17-.17-.11-.05-.21-.13-.33-.15-.04,0-.11.1-.16.15.11.06.21.12.31.17Zm10.97,1.85c.07.07.12.12.17.17.05-.11.13-.21.15-.33,0-.04-.1-.11-.15-.16-.06.11-.12.21-.17.31Z"/><path d="m254.61,139.61c.49-.76.77-1.37,1.05-1.99q.86-.08,2.09.44c.24-.34.51-.74.71-1.02.59.02.99-.15,1.4.16v1.67c-.23.05-.45.09-.74.15,0,0-.1.06-.11.12-.05.8-.08,1.6-.12,2.44-.34.39-.53.88-.45,1.49-.15.16-.29.38-.48.5-.31.21-.68.33-.99.53-.33.2-.47.66-.91.72-.65-.04-.82-.71-1.3-.96-.29.29-.57.57-.87.87-.47-.13-.67-.59-1.03-.86-.16-.01-.32-.02-.58-.04-.08-.24-.11-.55-.26-.78-.17-.26-.48-.43-.37-.93.07-.25.64-.39.41-1.03-.19-.06-.46-.16-.75-.26-.12-.27-.26-.57-.42-.92-.4.46-.19.88-.24,1.26-.03.32,0,.65,0,.89l-1.78,1.78s-.14-.03-.21,0c-.54.27-1.08.54-1.7.86-.36-.1-.56-.56-.92-.83-.16-.01-.32-.02-.51-.04-.45-.38-.27-1.24-1.06-1.39,0,0-.11.06-.12.12-.04.48-.05.96-.08,1.51-.21.25-.46.55-.64.76-.91-.09-1.17-.78-1.72-1.18v-3.37c0,.08.81-.1.24-.78-.11-.02-.33-.07-.6-.12-.35-.28-.11-.72-.19-1.13.2-.22.42-.45.66-.7.36-.04.75-.08,1.1-.12.79-.7-.49-.91-.3-1.44.04-.49.55-.59.69-.94h1.51c.58.45,0,1.08.3,1.5-.2.31-.35.54-.55.85.5.05.89.09,1.37.14.06.42.13.87.2,1.32.81-.12.74-.89,1.09-1.35h.99c.14.13.32.29.51.46h.96c.17-.16.35-.32.51-.47h.95c.19.17.37.33.62.56.25-.13.52-.27,1-.52h1.38c.38.62.03,1.28.24,2.06-.15-.16-.26-.19-.31-.15-.52.42.05,1.3-.67,1.65-.04.02-.06.14-.06.21,0,.24,0,.48,0,.72,0,.16-.03.33.01.48.04.13.17.22.33.43.09-.52.16-.96.24-1.39.3-.3.58-.58.87-.87-.39-.32-.55-.73-.4-1.08Zm-7.87,3.55c.19.07.4.15.57.22.88-.36.86-1.3,1.38-1.86-.09-.69.19-1.43-.2-2.06-.66-.11-.89.4-1.25.7v.95c-.17.18-.33.36-.5.54v1.51Zm9.26-2.58c0,.76,0,1.39,0,2.03,0,.06.1.11.24.26.21-.04.48-.09.73-.14v-1.11c.15-.13.33-.29.49-.42-.06-.57.13-1.13-.14-1.64-.07-.01-.15-.05-.18-.03-.41.37-.82.74-1.16,1.06Zm-9.9-1.13c-.88,0-1.35.02-1.81,0-.31-.02-.45.14-.47.39-.03.4-.03.8,0,1.2.01.13.15.25.26.42.34-.18.77.15,1.1-.19.2-.55-.12-1.24.92-1.8Z"/><path d="m287.21,117.51v-.7c.34-.38.83-.69.93-1.1.11-.44.35-.69.62-.97.33-.35.69-.69,1.08-1.09h2.55c.34.44.14.93.18,1.4.03.4,0,.81,0,1.22-.16.17-.31.35-.51.56.31.11.59.2.87.3.1.28.2.56.3.86.1-.07.2-.1.21-.14.04-.47.01-.96.12-1.41.1-.43.62-.71.48-1.26-.06-.23,0-.48,0-.77.13-.15.28-.33.46-.55v-1.93c-.12-.13-.28-.31-.43-.49.74-.24,1.33-1.06,2.27-.65.05.06.13.12.13.19,0,.81,0,1.61,0,2.37-.18.21-.32.38-.52.61.29.07.51.12.71.17.21-.19.38-.35.55-.51h.97c.23.23.46.46.69.69,0,.38.15.78-.16,1.23h-2.11c-.07.29-.12.51-.16.71.19.21.35.38.52.56.08.54-.19,1.12.18,1.63.66-.26.11-.84.4-1.29.15-.04.37-.1.58-.16.2.19.38.35.56.52.41-.29.18-.73.22-.98.98-.98,1.89-1.89,2.91-2.91h1.24c.63.39.81,1.11,1.14,1.77-.08.09-.24.26-.4.44v.96c-.13.08-.26.23-.39.23-.8.02-1.6.01-2.31.01-.13.16-.21.22-.22.28-.01.48,0,.97,0,1.43.27.29.56.34.85.11.61-.46,1.44-.63,1.82-1.34.21.02.37.03.53.04.38.32.13.76.21,1.13-.11.1-.21.25-.34.29-.89.29-1.71.7-2.33,1.46h-1.18c-.37-.41-.86-.94-1.31-1.43-.42-.1-.62.17-.86.38-.41.37-.69.89-1.24,1.07-1.03-.1-.88-1.2-1.48-1.66.12-.39.88-.61.28-1.18-.39.09-.57.43-.83.72v.92c-.25.25-.48.48-.7.7-.5.18-.7-.26-1-.47h-.97c-.3.3-.58.58-.88.88-.48-.11-.67-.58-1.05-.86-.33.31-.67.62-1.01.94-.29-.29-.58-.58-.89-.89-.35-.04-.74-.07-1.11-.15-.09-.02-.12-.26-.18-.4.46.04.5-.28.48-.61-.02-.35.17-.85-.48-.85Zm14.49-1.9c.38-.11.76-.07.42-.5-.11.13-.23.27-.15.39-.38.11-.76.07-.43.5.11-.13.23-.27.15-.39Zm-11.08,1.49c0-.48,0-1.13,0-1.78,0-.06-.1-.12-.24-.26-.16.34-.25.66-.44.92-.22.3-.51.53-.78.79.18.18.3.3.41.41-.08.39-.74.65-.24,1.23.17.02.39.04.58.05.23-.44.44-.84.72-1.37Z"/><path d="m262.12,132.6c-.44-.42-.85-.81-1.23-1.18v-1.97l.44-.44c.02-.45.05-1,.08-1.54.11-.11.23-.23.43-.43v-1.95l.58-.58c-.44-.19-.88-.38-1.71-.73.86-.29,1.07-.33,1.25-.43.2-.1.39-.25.65-.43h1.5c.32.41.13.81.16,1.18-.16.19-.32.36-.46.52v1.33c-.1.13-.24.31-.49.65,0,.23-.05.63.01,1.01.08.49-.46.63-.49,1.02-.03.31,0,.62,0,1.11.36-.22.58-.34.78-.46.17.13.33.26.48.38.44-.47-.1-1.21.56-1.54.18-1.04,1.14-1.47,1.68-2.18.11-.07.17-.14.24-.14.57,0,1.13,0,1.87,0,.32.39.73.87,1.21,1.45-.02.05-.07.28-.2.46-.23.32-.52.59-.75.91-.08.11-.07.29-.12.56-.67.11-1.39,0-2.1.06-.36.36-.33,1.03.07,1.94.16-.01.37.03.46-.05.53-.48,1.02-1,1.59-1.56.33.23.58.41.83.58.06-.08.21-.18.23-.31.1-.6-.25-1.31.43-1.77.03-.48.06-.95.1-1.51.1-.12.25-.3.43-.51v-1.93c-.13-.14-.29-.32-.47-.53.24-.2.48-.4.78-.65h1.57c.22.75,0,1.47.12,2.12-.17.17-.29.29-.46.46v1.36c-.16.21-.3.39-.5.65v1.6c.25.05.47.1.72.15.06.1.17.22.2.36.04.15.05.34,0,.48-.14.35-.41.67-.46,1.02-.11.75-.92.87-1.14,1.59-.58-.66-1.39-.98-1.34-2.05-.69.38-1.22.88-1.81.95-.76.1-.84.98-1.54,1.02-.14-.05-.32-.06-.42-.15-.59-.56-1.15-1.14-1.81-1.8-.65.65-1.3,1.3-1.93,1.93Zm4.52-5.41c.1.54.14.75.22,1.17.35-.36.6-.6.93-.95-.34-.06-.61-.11-1.15-.22Zm4.65,2.58c-.07.07-.12.12-.17.17.11.05.21.13.33.15.04,0,.11-.1.16-.15-.11-.06-.21-.12-.31-.17Z"/><path d="m276.48,117.02v-2.2c.39-.38.8-.77,1.23-1.2h1.42c.52.34.82.86,1.02,1.44h.48c.27-.46.53-.92.8-1.4h4.12c.64.48.76,1.29,1.18,1.95-.18.31-.36.64-.53.95.23.47.49.84,1,.95v1.46c-.74.22-1.06.94-1.68,1.41-.45-.25-.75-.71-1.19-1.1,0-.82,0-1.69,0-2.55.61-.38.46-.94.34-1.56-.19-.04-.42-.08-.62-.12l-.74.74v1.42c-.17.18-.32.36-.5.56v1.21c-.31.47-.53.79-.64.97-.84.06-1.01-.47-1.39-.87.13-.24.27-.5.52-.95v-1.4c-.44-.21-.9-.28-1.24-.64-.08-.09-.42.07-.71.13.21.24.36.41.52.6v1.92c-.34.42-.73.72-1.3.89-.42.12-.59.74-1.1.85-.15-.05-.32-.07-.42-.16-.7-.66-1.39-1.33-2.1-2.01.6-.39.81-1.11,1.52-1.24-.01.34.15.5.49.49v.74c.22.21.45.43.8.76.23-.23.47-.47.7-.7-.33-.35-.55-.58-.76-.8h-.74c.01-.34-.15-.5-.49-.49Zm5.19-1.39c-.1.06-.21.11-.31.17.05.05.12.16.16.15.11-.03.22-.1.33-.15-.05-.05-.11-.11-.17-.17Z"/><path d="m261.12,141.4c-.22.23-.45.46-.76.77.42.34.85.68,1.29,1.04.56-.4,1.47-.53,1.86-1.31.59-.1.84.1.77.63-.62,1.22-2.11,1.3-2.73,2.35-.32-.12-.49-.13-.59-.23-.53-.5-1.04-1.03-1.55-1.54v-2.94c.45-.44.91-.89,1.45-1.41v-1.53c.6-.4,1.17-.16,1.78-.23.09.27.19.55.3.9.19.03.41.06.67.1.11-.31.21-.59.33-.95.28-.02.58-.04.85-.06.53.16.76.62,1.27,1.04.24-.37.49-.76.66-1.02h1.26c.09.25.18.53.31.88.18.03.41.07.68.12.11-.31.2-.59.3-.87.53-.3,1.09-.02,1.59-.17.52.65.08,1.27.29,1.83-.38.1-.6.16-.86.22-.1.26-.2.54-.34.9h-2.53c-.37.6-.14,1.17-.21,1.7-.17.18-.33.36-.5.54v1.38c-.43.45-.81.86-1.2,1.27-.25-.25-.48-.48-.72-.72v-1.47c.14-.15.3-.32.47-.51,0-.31,0-.63,0-.57-.37-.56-.59-.89-.75-1.13-.82.01-1,.67-1.44.98-.65,0-1.3,0-1.95,0Zm.87-1.52c-.38.11-.76.07-.42.5.11-.13.23-.27.15-.39.38-.11.76-.07.43-.5-.11.13-.23.27-.15.39Zm2.21-.85c-.1,0-.21.01-.31.02-.03.22-.07.43-.08.65,0,.05.12.17.15.16.12-.03.3-.11.31-.17.01-.21-.05-.43-.08-.65Z"/><path d="m302.39,105.85c.41-.31.82-.67,1.23-1.02.16.02.31.04.48.06.38.33.04.77.19,1.05-.79.78-1.52,1.52-2.42,2.41-.48-.48-.98-.99-1.56-1.57-.66.23-1.02,1.03-1.72,1.48-.46.17-.62-.37-1.09-.55-.19.1-.45.25-.94.51-.06,0-.37.02-.87.04-.27-.36-.6-.81-1.11-1.49v-2.08c-.36-.41-.73-.81-1.05-1.17.07-.24.07-.42.16-.52.55-.58,1.12-1.13,1.7-1.72.3.2.49.31.67.45.13.1.23.23.38.38v2.9c-.36.46-.71.98-.3,1.7.19.01.41.03.59.05.4-.37.14-.8.23-1.18.16-.17.32-.35.49-.53v-1.44c.17-.19.33-.36.5-.55v-.94l.72-.72c.22.23.44.47.7.75v1.94c-.11.32-.91.53-.26,1.18.15-.12.31-.25.49-.38.09.07.25.13.27.23.09.37-.15.81.24,1.15.23-.21.45-.43.71-.67v-2.42c-.32-.39-.53-.87-.45-1.45.5-.33,1-.66,1.46-.96v-1.1c.58-.34,1.19-.23,1.79-.14.28.39.12.79.13,1.15-.15.18-.29.34-.42.5.32.53,1.24.69.8,1.62-.36.03-.74.07-1.14.11-.4.5-.11,1.08-.19,1.64-.15.16-.32.34-.48.52,0,.24,0,.48.07.76-.31.01-.69-.02-.36.4.11-.13.23-.27.36-.4Zm-7.07-2.41c-.1.06-.21.11-.31.17.05.05.12.16.16.15.11-.03.22-.1.33-.15-.05-.05-.11-.11-.17-.17Z"/><path d="m302.39,130.23c.41-.31.82-.67,1.23-1.02.16.02.31.04.47.06.36.33.1.76.17,1.08-.76.76-1.5,1.49-2.39,2.38-.48-.48-.98-.99-1.55-1.56-.7.18-1.02,1.02-1.68,1.43-.29-.29-.57-.57-.92-.92-.38.34-.76.68-1.07.96-.77-.05-.95-.72-1.31-.92-.35-.09-.57-.15-.79-.21v-2.58c-.33-.26-.71-.56-1.09-.87.11-.31.14-.57.28-.73.48-.55,1-1.06,1.45-1.53h1.06c.08.14.22.27.22.4.02,1.05.01,2.11.01,3.2-.14.16-.29.34-.46.53.01.37-.16.77.15,1.18h.61c.39-.35.04-.79.33-1.31.02-.02.18-.19.35-.37v-1.45c.62-.35.44-.97.52-1.46.24-.25.46-.49.68-.72l.72.72v1.95c-.15.34-.9.56-.26,1.2.16-.12.32-.25.49-.39.71.25-.11,1.08.58,1.39.16-.21.36-.46.64-.83v-2.28c-.26-.4-.76-.79-.38-1.47.31-.47,1.18-.29,1.39-1.03v-1c.58-.33,1.2-.22,1.79-.13.28.39.12.79.12,1.15-.15.18-.29.34-.42.5.37.5,1.14.74.87,1.61-.43.04-.82.08-1.21.12-.4.5-.1,1.08-.19,1.64-.15.16-.32.34-.48.52,0,.24,0,.48.07.76-.31.01-.69-.02-.36.4.11-.13.23-.27.36-.4Zm-7.07-2.06c.07-.07.12-.12.17-.17-.11-.05-.21-.13-.33-.15-.04,0-.11.1-.16.15.11.06.21.12.31.17Z"/><path d="m210.12,137.48v1.78c-.16.16-.28.28-.42.42.21.22.41.44.63.67.12-.06.22-.13.34-.18.21-.09.43-.14.63-.24.12-.06.2-.18.3-.28-.11-.12-.23-.23-.4-.4v-1.57c.35-.36.78-.1,1.17-.19.22.23.44.46.7.74v.95c-.12.13-.27.31-.43.49.34.57.86.03,1.15.28.88-.77-.39-.99-.21-1.51.03-.49.55-.59.68-.95h1.05c.39.55.22,1.17.16,1.77-.13.13-.25.25-.39.39.14.16.28.33.43.51.06.53,0,1.07.04,1.66h-1.67c-.15-.1-.41-.27-.76-.5-.21.13-.47.29-.78.49h-1.53c-.12-.34-.22-.62-.38-1.08-.15.44-.24.71-.33,1-.33.31-.76.1-1.14.14-.32.04-.65,0-1,0-.15-.32-.3-.64-.5-1.07-.14.39-.24.67-.36,1.01h-1.54c-.12-.09-.37-.26-.72-.49-.22.13-.47.29-.83.5h-1.49c-.28-.58-.13-1.14-.12-1.73.27-.09.55-.2.93-.33-.14-.18-.26-.34-.43-.56v-1.52c.39-.34.81-.13,1.19-.18.23.23.46.46.7.7v.98c-.14.15-.3.33-.47.5.39.44.86.23,1.44.12-.18-.26-.32-.47-.44-.64v-.94c.26-.28.48-.51.69-.73h1c.55.57.04,1.21.25,1.69-.23.23-.35.35-.49.49.21.22.42.45.63.67.4-.19.78-.37,1.27-.6-.11-.15-.23-.3-.4-.54v-1.53c.54-.35,1.11-.11,1.85-.2Z"/><path d="m285.54,125.8h1.52c.26.4.55.84.93,1.43.13,0,.44.03.9.06.44-.44.95-.94,1.47-1.47h1.97c.19.18.42.4.69.66v3.45c-.07.09-.31.24-.36.44-.15.65-.39,1.1-1.13,1.32-.48.14-.87.63-1.27.94-.64.04-.78-.55-1.17-.8-.38-.24-.91-.22-1.18-.67-1.01.22-1.83.77-2.46,1.52-.57-.25-1.09-.4-1.52-.68-.4-.26-.7-.67-1.07-1.04v-1.97c.18-.5,1.08-.65.94-1.47.57-.56,1.15-1.12,1.75-1.7Zm2.65,2.68c-.49-.53-.83-.17-1.15.18-.74-.17-.6-1-1.05-1.39-.9.68-.96,1.9-1.69,2.69.4.4.8.8,1.2,1.2.27-.57,1.04-.35,1.34-.85.31-.52.95-.49,1.34-.85,0-.33,0-.65,0-.97Zm1.96.29c-.23.67-.95.8-.99,1.65.37.15.46.83,1.19.74.25-.44.51-.88.77-1.33-.35-.72.47-1.11.49-1.93-.18-.15-.46-.39-.75-.63l-.71.71v.79Z"/><path d="m290.11,108.25c-.51-.09-.7-.62-1.09-.86-.38-.23-.81-.38-1.26-.59-.79.36-1.72.58-2.2,1.44h-1.02c-.58-.57-1.16-1.14-1.72-1.7v-1.92c.34-.38.82-.69.93-1.11.11-.44.36-.68.62-.96.33-.35.68-.69,1.08-1.08h1.46c.48.26.97.62.79,1.39h1.34c.36-.43.82-.98,1.19-1.42h1.45c.56.29.97.5,1.37.7v3.4c-.59.42-.4,1.56-1.17,1.64-.84.09-1.01,1.01-1.77,1.08Zm-4.21-5.39c-.1.44-.7.48-.64.99.05.41-.49.5-.46.77.04.46-.31.66-.42.88.39.46.75.88,1.08,1.28.25-.2.43-.46.62-.46.37-.01.59-.19.8-.43.16-.18.32-.39.52-.51.25-.14.64.02.78-.38-.08-.36.18-.8-.21-1.11-.16-.01-.32-.02-.49-.04-.17.15-.34.31-.58.53-.32-.49-.64-.98-1.01-1.53Zm5.72.68c-.2-.14-.51-.36-.83-.59l-.65.65v.83c-.24.61-.92.76-.99,1.39.2.53.44,1.02,1.18.96.25-.43.51-.87.77-1.31-.33-.71.43-1.12.51-1.94Z"/><path d="m202.41,105.16v-1.62c2.17-.22,12.64-.23,15.03-.01v1.62c-2.17.22-12.64.23-15.03.01Z"/><path d="m282.83,103.11l-1.16,1.16c.28.36.46.59.65.84v1.43c-.59.79-1.72.84-2.19,1.7h-.77c-.08,0-.18.01-.23-.03-.58-.56-1.14-1.14-1.66-1.65-.17-.72.5-.83.64-1.24.75-.07,1.04.39,1.28.91.09.19.17.39.23.53.7.1.87-.44,1.22-.73-.64-.82-1.87-.91-2.4-2.11v-1.34c.36-.31.78-.68,1.32-1.14h1.79c.73.24.63,1.17,1.27,1.67Zm-2.38.57c.07.07.12.12.17.17.05-.11.13-.21.15-.33,0-.04-.1-.11-.15-.16-.06.11-.12.21-.17.31Z"/><path d="m277.29,130.47c.35-.28.65-.53.95-.77.6-.09.79.46,1.16.73,0,.16,0,.32,0,.54.19.07.4.15.64.24.25-.23.48-.45.73-.68-.05-.11-.09-.23-.14-.34-.24-.49-.82-.4-1.17-.7-.37-.32-.7-.68-1.04-1.02,0-.5,0-.98,0-1.47.4-.4.8-.8,1.21-1.21h1.95c.63.38.81,1.1,1.15,1.75-.26.27-.58.62-.97,1.03.12.25.25.52.51,1.05,0,.25,0,.79,0,1.34-.17.17-.32.4-.52.51-.8.4-1.68.66-2.26,1.19-.73-.73-1.34-1.34-2.2-2.2Zm3.41-2.31c.07-.07.12-.12.17-.17-.11-.05-.21-.13-.33-.15-.04,0-.11.1-.16.15.11.06.21.12.31.17Z"/><path d="m205.03,115.56c.18.16.35.32.51.47.13-.13.24-.24.41-.41h5.52c.24.57.18,1.18.04,1.84h-2.12c-.2-.17-.38-.31-.64-.52-.26.16-.51.31-.86.52h-1.95c-.17-.17-.28-.28-.41-.41-.17.15-.34.3-.52.47-.78,0-1.59,0-2.4,0-.06,0-.12-.1-.22-.19v-1.57c.47-.33.96-.14,1.42-.18.4-.03.81,0,1.2,0Z"/><path d="m217.43,115.56v1.78c-.58.35-1.14.05-1.6.2-.24-.2-.41-.34-.57-.48-.14.14-.26.26-.42.42h-2.55c-.34-.56-.13-1.13-.17-1.68.06-.06.11-.16.17-.17.87-.13,1.74-.01,2.48-.08.24.24.36.36.48.48.17-.15.34-.31.52-.47h1.64Z"/><path d="m172.52,137.36s.21-.19.36-.33h1.03c.28.6.21,1.21.08,1.88h-1.64c-.18-.14-.34-.27-.49-.39-.16.16-.28.28-.39.39-.38,0-.76,0-1.12,0-.31-.59-.05-1.15-.18-1.62.39-.45.82-.19,1.2-.27.33.18.48.73,1.16.35Z"/><path d="m273.11,129.7v-1.26c.1-.09.16-.19.22-.19.97,0,1.93,0,2.9,0,.25.61.25.61.17,1.3-.06.05-.12.15-.17.15-.97,0-1.93,0-3.12,0Z"/><path d="m163.95,138.86c-.04-.19-.07-.33-.15-.68.43-.28.96-.63,1.78-1.16-.17,0,.15,0,.47,0,.55.56.04,1.2.26,1.69-.16.15-.21.23-.28.25-.07.03-.16.01-.24,0-.61-.07-1.25.15-1.84-.11Z"/><path d="m232.6,138.72c-.23.23-.46.46-.71.71h-.96c-.28-.22-.58-.47-.74-.59-.1-.85.46-1,.74-1.31h.96c.22.35.7.47.7,1.2Z"/><path d="m307.69,138.72c.23-.23.46-.46.71-.71h.96c.28.22.58.47.74.59.1.85-.46,1-.74,1.31h-.96c-.22-.35-.7-.47-.7-1.2Z"/><path d="m66.83,138.92h-1.79c-.35-.55-.12-1.12-.19-1.68.56-.39,1.18-.21,1.78-.17.34.53.11,1.09.19,1.85Z"/><path d="m75.05,137.01v1.76c-.54.4-1.12.03-1.61.24-.12-.17-.27-.29-.28-.42-.03-.4-.04-.8,0-1.2.02-.25.17-.41.48-.39.4.03.8,0,1.42,0Z"/><path d="m81.48,138.96v-1.76c.54-.4,1.12-.03,1.61-.24.12.17.27.29.28.42.03.4.04.8,0,1.2-.02.25-.17.41-.48.39-.4-.03-.8,0-1.42,0Z"/><path d="m89.7,137.05h1.79c.35.55.12,1.12.18,1.68-.57.38-1.18.21-1.79.16-.33-.53-.1-1.1-.19-1.85Z"/><path d="m99.96,138.92h-1.77c-.35-.54-.12-1.11-.18-1.65.12-.09.24-.24.37-.25.4-.03.8-.04,1.2,0,.25.02.41.17.39.48-.03.4,0,.8,0,1.42Z"/><path d="m100.92,137.06h1.79c.34.56.12,1.12.18,1.69-.57.37-1.19.21-1.79.15-.32-.53-.1-1.1-.19-1.84Z"/><path d="m106.28,137.06h1.79c.34.56.12,1.12.18,1.69-.57.37-1.19.21-1.79.15-.32-.53-.1-1.1-.19-1.84Z"/><path d="m111.14,137.01v1.76c-.55.39-1.13.04-1.62.24-.61-.59-.09-1.24-.31-1.74.16-.15.22-.25.28-.25.48-.01.96,0,1.65,0Z"/><path d="m113.37,137.01c.23.32.66.47.73.91.06.51-.47.61-.63,1-.33.02-.64.03-1.13.05-.16-.23-.38-.56-.71-1.04-.05-.36.49-.56.77-.93.32,0,.65,0,.97,0Z"/><path d="m116.5,136.99v1.79c-.56.34-1.12.12-1.69.18-.37-.57-.21-1.19-.15-1.79.53-.32,1.1-.1,1.84-.19Z"/><path d="m117.49,137.05h1.79c.35.55.12,1.12.19,1.68-.56.39-1.18.21-1.78.17-.34-.53-.11-1.09-.19-1.85Z"/><path d="m124.79,137.01v1.76c-.55.39-1.13.04-1.62.24-.61-.59-.09-1.24-.31-1.74.16-.15.22-.25.28-.25.48-.01.96,0,1.65,0Z"/><path d="m125.78,137.05h1.79c.35.55.12,1.12.19,1.68-.56.39-1.18.21-1.78.17-.34-.53-.11-1.09-.19-1.85Z"/><path d="m133.15,138.92h-1.79c-.35-.55-.12-1.12-.19-1.68.56-.39,1.18-.21,1.78-.17.34.53.11,1.09.19,1.85Z"/><path d="m134.1,137.06h1.77c.35.54.12,1.11.18,1.65-.12.09-.24.24-.37.25-.4.03-.8.04-1.2,0-.25-.02-.41-.17-.39-.48.03-.4,0-.8,0-1.42Z"/><path d="m144.34,138.92h-1.77c-.35-.54-.12-1.11-.18-1.65.12-.09.24-.24.37-.25.4-.03.8-.04,1.2,0,.25.02.41.17.39.48-.03.4,0,.8,0,1.42Z"/><path d="m152.65,138.92h-1.79c-.35-.55-.12-1.12-.19-1.68.56-.39,1.18-.21,1.78-.17.34.53.11,1.09.19,1.85Z"/><path d="m159.01,138.96v-1.77c.54-.35,1.11-.12,1.65-.18.09.12.24.24.25.37.03.4.04.8,0,1.2-.02.25-.17.41-.48.39-.4-.03-.8,0-1.42,0Z"/><path d="m167.3,138.99v-1.79c.55-.35,1.12-.12,1.68-.19.39.56.21,1.18.17,1.78-.53.34-1.09.11-1.85.19Z"/><path d="m209.64,127.73v1.79c-.56.34-1.12.12-1.69.18-.37-.57-.21-1.19-.15-1.79.53-.32,1.1-.1,1.84-.19Z"/><path d="m201.9,139.41h-1.79c-.35-.55-.12-1.12-.19-1.68.56-.39,1.18-.21,1.78-.17.34.53.11,1.09.19,1.85Z"/><path d="m176.97,136.99v1.79c-.55.35-1.12.12-1.68.19-.39-.56-.21-1.18-.17-1.78.53-.34,1.09-.11,1.85-.19Z"/><path d="m56.56,137.54h1.77c.35.54.12,1.11.18,1.65-.12.09-.24.24-.37.25-.4.03-.8.04-1.2,0-.25-.02-.41-.17-.39-.48.03-.4,0-.8,0-1.42Z"/><path d="m185.25,137.5v1.77c-.54.35-1.11.12-1.65.18-.09-.12-.24-.24-.25-.37-.03-.4-.04-.8,0-1.2.02-.25.17-.41.48-.39.4.03.8,0,1.42,0Z"/><path d="m191.61,137.54h1.79c.35.55.12,1.12.19,1.68-.56.39-1.18.21-1.78.17-.34-.53-.11-1.09-.19-1.85Z"/><path d="m203.47,129.71c-.33-.02-.64-.03-.92-.04-.35-.56-.13-1.13-.19-1.69.56-.4,1.17-.2,1.77-.18.36.34.1.77.2,1.18-.22.19-.47.4-.85.73Z"/><path d="m206.75,129.66c-.47.02-.78.04-1.29.06-.15-.21-.37-.53-.65-.95v-.82c.57-.35,1.18-.21,1.77-.14.07.08.17.14.17.2.01.48,0,.96,0,1.65Z"/><path d="m212.61,128.97c-.22.22-.45.44-.71.68h-1.07c-.36-.56-.04-1.13-.23-1.65.62-.39,1.23-.24,1.83-.19.34.35.09.77.18,1.16Z"/><path d="m215.04,129.66c-.46.02-.76.04-1.29.07-.13-.22-.34-.55-.66-1.09,0,0,0-.32,0-.64.13-.08.25-.22.38-.24.4-.03.8-.04,1.2,0,.25.02.41.17.39.47-.03.4,0,.8,0,1.42Z"/><path d="m63.9,138.92h-1.78c-.4-.37-.05-.8-.25-1.15.27-.25.5-.47.77-.72h1.07c.31.56.1,1.12.19,1.87Z"/><path d="m67.82,138.99v-1.77c.37-.37.79-.12,1.19-.21.21.22.43.46.68.72v1.07c-.56.31-1.12.1-1.87.19Z"/><path d="m72.19,138.92h-1.78c-.4-.34-.06-.78-.26-1.15.27-.23.52-.43.85-.71h.98c.35.55.12,1.11.21,1.87Z"/><path d="m76.11,139.13v-1.92c.35-.37.77-.11,1.19-.21.19.22.39.47.67.8v.96c-.54.41-1.12.03-1.87.36Z"/><path d="m78.55,138.96c-.02-.46-.04-.76-.07-1.29.22-.13.55-.34,1.09-.66,0,0,.32,0,.64,0,.08.13.22.25.24.38.03.4.04.8,0,1.2-.02.25-.17.41-.47.39-.4-.03-.8,0-1.42,0Z"/><path d="m84.44,137.01h1.15c.2.22.41.45.67.74v1.05c-.56.31-1.12.1-1.69.17-.38-.65-.18-1.3-.13-1.96Z"/><path d="m88.77,138.92h-1.78c-.4-.34-.06-.78-.26-1.15.27-.23.52-.43.85-.71h.98c.35.55.12,1.11.21,1.87Z"/><path d="m93.83,136.98c.26.26.49.49.72.72v1.1c-.57.34-1.13.04-1.66.22-.38-.63-.24-1.24-.17-1.83.36-.36.79-.03,1.12-.2Z"/><path d="m95.05,137.78c.26-.26.49-.49.72-.72h1.11c.29.57.11,1.13.15,1.69-.57.34-1.18.2-1.77.14-.36-.36-.03-.79-.2-1.12Z"/><path d="m137.02,137.06c.46-.02.76-.04,1.29-.07.13.22.34.55.66,1.09,0,0,0,.32,0,.64-.13.08-.25.22-.38.24-.4.03-.8.04-1.2,0-.25-.02-.41-.17-.39-.47.03-.4,0-.8,0-1.42Z"/><path d="m139.5,138.99v-1.36c.15-.11.47-.34.83-.61h.89c.33.58.21,1.19.13,1.79-.54.29-1.1.09-1.84.18Z"/><path d="m145.39,137.01h1.15c.2.22.41.45.67.74v1.05c-.56.31-1.12.1-1.69.17-.39-.65-.18-1.3-.13-1.95Z"/><path d="m149.72,138.92h-1.77c-.37-.37-.12-.79-.21-1.19.22-.21.46-.43.72-.68h1.07c.31.56.1,1.12.19,1.87Z"/><path d="m153.64,138.99v-1.77c.37-.37.79-.12,1.19-.21.21.22.43.46.68.72v1.07c-.56.31-1.12.1-1.87.19Z"/><path d="m156.04,138.88v-1.15c.22-.2.45-.42.73-.67h1.06c.31.56.1,1.12.17,1.69-.65.39-1.3.18-1.95.13Z"/><path d="m177.96,137.05h1.36c.11.15.34.47.61.83v.85c-.57.55-1.2.04-1.73.27-.35-.64-.15-1.21-.23-1.95Z"/><path d="m272.13,138.99v-1.77c.37-.37.79-.12,1.19-.21.21.22.43.46.68.72v1.07c-.56.31-1.12.1-1.87.19Z"/><path d="m51.24,139.48v-1.77c.37-.37.79-.12,1.19-.21.21.22.43.46.68.72v1.07c-.56.31-1.12.1-1.87.19Z"/><path d="m54.37,137.5c.32,0,.64,0,.96,0,.09.12.24.24.25.36.03.47.01.94.01,1.46-.65.2-1.25.16-1.9.03v-1.17c.23-.23.45-.45.68-.68Z"/><path d="m59.57,137.5h1.15c.2.22.41.45.67.74v1.05c-.56.31-1.12.1-1.69.17-.39-.65-.18-1.3-.13-1.96Z"/><path d="m182.37,139.4h-1.75c-.37-.34-.11-.76-.21-1.19.22-.18.47-.37.85-.67.04,0,.27-.03.5-.03.33,0,.64.01.62.48-.02.4,0,.8,0,1.42Z"/><path d="m186.32,139.45v-1.75c.34-.37.76-.11,1.19-.21.18.22.37.47.67.85,0,.04.03.27.03.5,0,.33-.01.64-.48.62-.4-.02-.8,0-1.42,0Z"/><path d="m190.68,139.41h-1.77c-.37-.37-.12-.79-.21-1.19.22-.21.46-.43.72-.68h1.07c.31.56.1,1.12.19,1.87Z"/><path d="m194.61,139.45v-1.75c.34-.37.76-.11,1.19-.21.18.22.37.47.67.85,0,.04.03.27.03.5,0,.33-.01.64-.48.62-.4-.02-.8,0-1.42,0Z"/><path d="m197,139.37v-1.15c.22-.2.45-.42.73-.67h1.06c.31.56.1,1.12.17,1.69-.65.39-1.3.18-1.96.13Z"/><path d="m218.41,137.5v1.75q-.25.25-1.87.05c-.02-.3-.03-.6-.06-1.13.22-.13.56-.32,1.14-.66-.06,0,.26,0,.79,0Z"/><path d="m219.51,137.5h1.15c.2.22.41.45.67.74v1.05c-.56.31-1.12.1-1.69.17-.38-.65-.18-1.3-.13-1.96Z"/><path d="m226.77,139.41h-1.77c-.37-.36-.12-.78-.21-1.19.22-.2.46-.41.75-.68h1.03c.34.55.12,1.12.2,1.87Z"/><path d="m228.94,137.5c.22.22.44.45.68.71v1.07c-.56.36-1.13.04-1.65.23-.39-.62-.24-1.23-.19-1.83.35-.34.77-.09,1.16-.18Z"/><path d="m235.06,139.41h-1.77c-.37-.37-.12-.79-.21-1.19.22-.21.46-.43.72-.68h1.07c.31.56.1,1.12.19,1.87Z"/><path d="m236.05,139.48v-1.78c.35-.37.77-.11,1.19-.21.19.22.39.47.67.8v.98c-.55.35-1.11.12-1.87.21Z"/><path d="m238.98,139.45v-1.75c.34-.37.76-.11,1.19-.21.18.22.38.46.67.81,0,.08.03.31.03.54,0,.33-.01.64-.48.62-.4-.02-.8,0-1.42,0Z"/><path d="m102.91,138c.66-.48.97-.71,1.34-.99h.86c.36.57.2,1.18.15,1.77-.35.35-.77.1-.98.15-.39-.27-.72-.48-1.38-.92Z"/><path d="m122.41,138.5s-.48.08-.69.42h-1.08c-.39-.54-.04-1.12-.23-1.58.3-.51.74-.27,1.3-.37.12.26.29.63.71,1.52Z"/><path d="m128.58,137.06c.6-.03.91-.05,1.42-.07.11.25.28.61.45.98.4.38-.19.55-.4.95h-1.13c-.39-.54-.04-1.12-.34-1.86Z"/><path d="m222.6,137.5c.32,0,.63,0,.98,0,.42.54.19,1.16.2,1.75-.33.37-.75.12-1.16.21-.27-.24-.56-.49-.72-.63-.12-.79.45-.96.7-1.33Z"/><path d="m307.16,138.61v1.15c-.17.07-.31.18-.44.17-.46-.03-.94.14-1.42-.16v-1.11c.3-.22.47-.62.61-.65.79-.07.87.48,1.25.6Z"/><path d="m217.48,129.65h-1.28c-.35-.54-.12-1.11-.18-1.64.22-.25,1.06-.39,1.29-.18.1.09.16.26.17.4.02.4,0,.8,0,1.42Z"/><path d="m215.99,139.98h1.31c.33.56.12,1.12.18,1.66-.39.44-.86.23-1.31.16-.31-.51-.09-1.08-.17-1.82Z"/><path d="m162.27,137.05c.55.31.89.5,1.05.6.13.86-.55.91-.64,1.33-.26-.01-.42-.02-.6-.03-.31-.57-.18-1.17-.11-1.83.22-.04.43-.08.3-.06Z"/><path d="m240.65,32.15h-2.38c-.19.17-.36.32-.56.5h-1.44c-.16-.15-.33-.31-.51-.47-.11.11-.23.23-.44.44-.28.02-.66.04-1.04.07-.11.11-.23.23-.34.34-.6.19-1.19.31-1.56-.39-.22.22-.33.33-.47.47h-1.41c-.19.17-.37.32-.58.5h-3.39c-.15-.13-.32-.29-.55-.5-.1.3-.19.57-.29.86-.52.29-1.09.1-1.63.14-.48.03-.97,0-1.51,0-.1.28-.19.56-.29.84-.06.04-.12.13-.19.13-.81,0-1.61,0-2.36,0-.22-.18-.38-.32-.55-.46-.32.32-.6.6-.89.89h-2.09c-.32-.59-.05-1.15-.18-1.62.38-.45.82-.2,1.22-.28.16-.15.33-.31.52-.48h.96c.17.16.34.31.51.47.12-.12.24-.24.35-.35.15-.04.29-.11.44-.12.72-.01,1.45,0,2.09,0,.23.19.4.32.56.45.38-.38.12-.81.21-1.18q.25-.25,2.29-.15c.11.11.23.23.45.45.27-.38.55-.76.74-1.03h3.1c.12-.12.23-.23.36-.36.51-.25,1.07-.1,1.61-.1.12.12.23.23.39.39.49-.25,1-.51,1.7-.87h1.29c.12.11.3.26.5.43.16-.14.33-.29.51-.45h.95c.18-.17.35-.33.52-.48h1.03c.1.27.19.56.29.84.06.03.11.05.17.08.11-.28.23-.55.35-.86.37-.04.75-.08,1.12-.13.13-.13.24-.24.44-.44h3.41c.2-.2.31-.31.42-.42h3.55c.32.59.05,1.15.19,1.66-.73.53-1.49,0-2.13.3-.23-.21-.41-.37-.6-.55-.27.29-.54.58-.75.81-.45.29-.86.13-1.25.16-.32.03-.64,0-.88,0-.25-.21-.42-.36-.57-.48-.75-.07-.92.63-1.4.95Z"/><path d="m157.01,40.99h4.18c.21-.35.46-.77.72-1.21.64.31,1.04.51,1.52.74.22-.17.46-.35.68-.52h1.91c.2.17.36.3.56.46.13-.33.24-.61.36-.92h2.55c.16.16.27.27.39.39.43-.09.24-.48.35-.73.05-.05.11-.16.17-.16,1.29,0,2.59,0,3.87,0,.2-.18.37-.34.64-.6.28.16.6.34.93.52l.41-.41h2.93c.2-.2.31-.31.48-.48h2.53c.14.14.26.26.5.5.26-.39.51-.78.68-1.03h2.17c.17.15.34.31.51.47q1.45-.95,2.99-.89c.34.34.08.77.17,1.15-.39.65-1.14.78-1.89,1.21h-3.19c-.18.17-.36.33-.53.48-.17-.15-.34-.3-.51-.45-.13.13-.25.25-.41.41h-2.06c-.13-.13-.24-.24-.5-.5-.19.44-.39.88-.46,1.03h-2.39c-.16-.15-.33-.31-.5-.47-.17.16-.35.32-.53.49h-.95c-.38.61-.95.5-1.53.41-.1-.27-.21-.55-.31-.83-.5.02-.26.43-.37.73-.69.38-1.52.03-2.19.21-.19.19-.31.31-.43.43-.17-.15-.34-.31-.51-.47-.11.11-.22.23-.33.34-.15.05-.29.14-.44.14-.73.01-1.45,0-2.13,0-.21-.18-.37-.32-.58-.5-.12.33-.22.61-.34.94h-2.52c-.22-.17-.37-.29-.6-.46-.07.34-.12.56-.18.86-.18.04-.42.04-.61.14-.21.11-.37.3-.56.47h-.95c-.17-.16-.35-.32-.52-.48-.64-.25-.82.68-1.51.54-.42-.09-.95.3-1.37.45-.15-.14-.26-.2-.26-.25-.01-.65,0-1.3,0-2.16Z"/><path d="m304.52,23.89c-.11.11-.23.23-.45.45-.27.02-.65.04-1.02.06-.19.17-.37.32-.55.49h-5.8c-.14.14-.25.25-.42.42h-3.93c-.08-.07-.27-.21-.45-.36-.5.27-1.02.54-1.66.89h-1.3c-.17-.15-.34-.31-.52-.47-.12.12-.23.23-.34.35-.14.04-.29.12-.43.12-.72.01-1.45,0-2.1,0-.23-.19-.39-.32-.56-.46-.42.37-.06.82-.35,1.32-.52.3-1.25.03-2.11.14-.22-.31-.51-.7-.89-1.22-.17.49-.26.76-.36,1.04-.34.33-.77.07-1.13.16-.19.17-.36.33-.51.47-.54.2-.69-.36-1.18-.52-.18.1-.44.25-.86.49h-1.92c-.31-.57-.12-1.13-.15-1.68.13-.08.26-.21.39-.22.96-.02,1.92-.01,2.76-.01.23-.23.34-.34.49-.49,1.75,0,3.53,0,5.32,0,.06,0,.12-.09.19-.13.06-.22.11-.44.17-.66.14-.06.28-.17.41-.17,2.03-.01,4.06,0,6.09,0,.12-.11.23-.22.35-.33.14-.05.28-.14.42-.15.57-.02,1.13,0,1.67,0,.2.18.38.34.54.49,1.06-.14,1.77-1.34,2.98-.88.1.28.2.56.31.84.45-.12.27-.5.38-.75.06-.06.11-.16.17-.16.81-.01,1.62,0,2.45,0,.15.14.33.3.5.46.29-.29.57-.57.91-.91h2.03c.19.15.35.27.5.39.17-.17.28-.28.39-.39h2.59c.31.59.05,1.15.18,1.63-.49.43-.99.21-1.45.25-.4.04-.81,0-1.23,0-.17-.16-.34-.32-.52-.48Z"/><path d="m70.68,52.64c.02-.47.51-.59.73-.94h1.95c.21.16.46.34.65.49.71-.1.9-.75,1.35-.98h1.46c.13.13.25.25.43.43.15-.11.31-.24.53-.41h1.21c.51-.13.65-.71,1.2-.51.14.13.32.29.5.45.16-.15.34-.31.51-.46h2.42c.18.16.35.31.56.5.12-.32.22-.6.34-.94h2.58c.42.51.02,1.11.24,1.6-.18.13-.3.28-.43.29-.8.02-1.6.01-2.31.01-.2-.2-.32-.32-.43-.43-.44.09-.24.48-.35.72-.05.05-.11.16-.17.16-.81.01-1.62,0-2.47,0-.14-.13-.31-.29-.49-.46-.28.28-.57.57-.9.91h-2.11c-.1-.27-.2-.55-.31-.84-.51.01-.26.42-.35.68-.29.39-.73.14-1.16.22-.14.12-.32.28-.53.46h-3.85c-.18.17-.36.33-.55.5h-3.54c-.24.3-.53.68-.77.98-.3,0-.46-.01-.62,0-.64.06-1.03-.87-1.74-.48-.48.26-.9.58-1.51.5-.17-.02-.37.26-.58.42-.32-.29-.65-.61-1.03-.96-.11.31-.2.59-.31.9-.68.25-1.4-.03-2.01.12-.26-.21-.42-.34-.58-.48-.32.32-.61.61-.94.94-.6,0-1.24,0-1.89,0-.06,0-.13-.08-.25-.16v-1.71c.68-.15,1.4-.04,2.11-.08.17-.16.35-.32.52-.49h3.89c.12-.12.23-.23.41-.41,1.28-.2,2.65.01,4.01-.1.29-.29.57-.57.91-.91.16.12.32.25.51.41.15-.13.32-.27.51-.43h1.92c.22.17.46.36.73.46.08.25.05.63.47.3-.13-.11-.27-.23-.47-.3Z"/><path d="m255.29,28.75c.31-.46.38-1.05.94-1.41h1.47c.1.08.28.23.51.42.43.21.67-.16.95-.45h.94c.25-.2.48-.39.76-.62.32.24.56.42.89.67.23-.11.5-.24,1.01-.5h1.79c.51.1-.12.88.69.82.02-.37.03-.76.05-1.14.06-.06.11-.16.17-.16.81-.01,1.61,0,2.5,0,.11.1.28.25.44.4.52-.3,1.04-.6,1.57-.91h1.38c.2.17.37.3.53.43l.41-.41h2.56c.35.57.04,1.14.21,1.65-.2.11-.33.24-.47.24-.73.02-1.46,0-2.22,0-.16-.15-.34-.31-.49-.44-.53.3-1.05.6-1.58.91h-1.38c-.2-.17-.37-.3-.53-.43-.15.15-.27.27-.47.47h-2.93c-.2.2-.32.32-.45.45h-2.89c-.19.17-.36.33-.55.5h-1.93c-.17-.15-.34-.31-.5-.46-.19.16-.42.47-.55.43-.9-.25-1.54.9-2.46.43-.11-.11-.23-.23-.37-.37-.16.14-.33.27-.53.44h-2.42c-.15-.14-.32-.3-.5-.46-.26.45-.53.91-.81,1.39h-1.65c-.25-.23-.49-.45-.7-.65v-1.01c.14-.08.27-.22.4-.22.96-.02,1.92-.01,2.89-.01.07-.33.12-.55.19-.88.65-.2,1.38-.06,2.09-.1.34.32.68.64,1.03.97Z"/><path d="m98.21,48.28h2.01c.13.13.24.24.43.43.14-.11.3-.23.53-.4h1.13c.59-.12.73-.71,1.3-.5.14.27.3.6.52,1.04.12-.36.21-.63.29-.89.06-.06.12-.17.17-.17.65-.01,1.3,0,1.94,0,.18.16.35.32.52.47.3-.3.59-.59.92-.92h2.04c.16.16.27.27.39.39.45-.08.22-.48.49-.91.1-.13.45.02.75,0,.32-.02.65-.03.97,0,.31.02.65-.13.97.18v1.58c-.54.35-1.11.11-1.66.18-.11.11-.23.23-.34.34-.14.05-.29.13-.43.14-1.05.01-2.1,0-3.11,0-.21-.18-.38-.32-.58-.49-.12.33-.23.61-.35.94h-2.55c-.15-.15-.27-.27-.5-.5-.27.38-.53.77-.72,1.03h-2.14c-.18-.16-.35-.32-.52-.48-.35.63-.98.43-1.49.53-.29.29-.58.58-.9.9-.22-.2-.44-.4-.7-.65v-1.54c.11-.12.32-.36.64-.71Z"/><path d="m123.13,45.83c.11-.11.22-.23.32-.34.16-.05.3-.14.44-.15.73-.01,1.45,0,2.14,0,.2.17.37.32.53.46.48-.48.94-.94,1.4-1.4.55-.03,1.1-.15,1.69.11v1.62c-.32.38-.77.04-1.27.3-.04.04-.21.2-.39.37h-.95c-.19.17-.36.33-.54.5h-2.89l-.42.42h-2.06c-.11-.11-.23-.23-.35-.35-.49.11-.62.65-1.28.88h-1.72c-.15-.13-.32-.3-.46-.42-.53.3-1.06.6-1.59.91h-1.4c-.47-.51-.03-1.12-.3-1.63.46-.24.85-.44,1.44-.75h3.09c.32-.2.57-.37.83-.52.06-.03.16,0,.27,0,.16.14.34.3.53.46.16-.15.33-.3.51-.46h2.43Z"/><path d="m195.93,36.49c.05-.23.09-.45.15-.71.03-.03.08-.13.15-.14.87-.11,1.74-.01,2.56-.07.15.42.24.7.38,1.08.2-.43.35-.75.5-1.07h.99c.18-.17.35-.33.51-.48h.98l.38.38c.3-.13.61-.35.94-.37.42-.03.72-.18,1.06-.41.27-.18.74-.09,1.08-.11.32.64.16,1.2.16,1.74-.23.23-.46.46-.7.7h-1.94c-.16-.15-.33-.31-.46-.43-.54.31-1.07.61-1.57.9h-1.42l-.42-.42c-.15.12-.31.25-.59.47h-2.39l-.45.45h-3c-.24.33-.53.72-.73.99h-2.17c-.35-.58-.22-1.19-.13-1.89h2.53c.37-.37.66-.66.94-.94q1.79-.09,2.68.32Z"/><path d="m156.49,41.44v1.22c-.14.16-.36.39-.62.67h-2.06c-.17-.14-.33-.27-.58-.46-.07.32-.11.55-.17.81-.02.02-.08.12-.13.13-.87.01-1.74,0-2.57,0l-.4-.4c-.34.32-.68.64-1.01.95h-1.98c-.32-.59-.22-1.2-.12-1.8.57-.29,1.34.08,1.72-.63.47.03.99-.14,1.32.46.17-.14.33-.27.54-.44h2.42c.13.12.31.27.54.48.1-.29.19-.56.27-.8.07-.08.13-.19.18-.19.81-.01,1.62,0,2.64,0Z"/><path d="m211.85,34.12c.3.27.41.37.53.47l.91-.91h2.05c.43.5.01,1.1.23,1.55-.31.52-.76.25-1.11.37-.28.09-.5.41-.77.45-.46.07-.98.13-1.29-.44-.17.14-.34.28-.54.45h-1.92c-.14-.13-.32-.28-.55-.49-.1.29-.18.56-.27.83-.06.06-.11.16-.17.16-.87.01-1.74,0-2.64,0v-1.77c.45-.34.95-.14,1.41-.18.4-.03.8,0,1.21,0,.12-.11.23-.22.35-.33.13-.05.27-.15.41-.15.72-.02,1.45,0,2.16,0Z"/><path d="m94.86,51.19c-.29-.26-.4-.37-.51-.48-.29.29-.57.57-.91.91h-2.04c-.19-.16-.37-.31-.52-.44-1.07.11-1.76,1.37-2.98.87-.24-.53-.1-1.08-.09-1.62.4-.2.8-.41,1.35-.69h4.2c.15.13.33.29.56.5.1-.29.18-.56.28-.83.24-.32.59-.13.89-.16.32-.03.65-.03.97,0,.3.03.64-.15.99.24,0,.29,0,.69,0,1.08,0,.33,0,.64-.48.63-.56-.02-1.13,0-1.69,0Z"/><path d="m139.19,43.39c.31.27.43.36.54.46.29-.29.57-.57.91-.91h1.98c.09.07.27.22.49.4.14-.12.31-.26.51-.42h.92c.18-.17.36-.33.55-.5h.96q.26.24.17,1.79c-.42.17-.88.27-1.18.62h-1.41c-.2-.17-.37-.3-.53-.43-.15.15-.26.26-.41.41h-2.04l-.39-.39c-.42.1-.24.48-.35.73-.06.06-.11.16-.17.17-.87.06-1.74.01-2.7.04,0-.63-.02-1.1,0-1.57.02-.25.17-.41.48-.39.57.03,1.13,0,1.68,0Z"/><path d="m130.23,46.31c-.02-.47-.04-.78-.06-1.29.21-.16.51-.4.86-.67h.86c.21-.18.38-.33.63-.55.3.16.61.32.92.48.11-.11.23-.23.36-.36h2.56c.31.57.12,1.13.15,1.67-.39.44-.9.17-1.36.22-.47.05-.94.01-1.31.01-.21-.21-.33-.33-.54-.54-.28.38-.55.75-.75,1.03h-2.33Z"/></g></svg>