<?xml version="1.0" encoding="UTF-8"?><svg id="Layer_2" xmlns="http://www.w3.org/2000/svg" viewBox="0 0 285.84 153.2"><g id="Capa_1"><path d="m284.79,136.01H.24c-.1-.11-.21-.17-.22-.24-.03-.18,0-.37,0-.55C0,90.24,0,45.27,0,.3.34-.16.84.05,1.27.02c.46-.03.92,0,1.38,0h281.87c.15.15.25.21.26.29.03.18,0,.37,0,.55v135.15ZM98.44,63.61c-.1-.35.27-.85-.32-1.06q-.24.73.32.6c0,1.47,0,2.48,0,3.5.32.23.48.7.94.72.59-.69-.27-.93-.36-1.39-.21-.77.22-1.62-.58-2.36Zm-25.99,7.69c-.78.04-.47.85-.82,1.2-.4.4-.57,1.02-.84,1.55.1.56-.26,1.21.31,1.69.28-.28.54-.54.8-.8,0-.36,0-.73,0-1.09.18-.2.37-.39.55-.59v-1.91q.57-.33.32-1.06c-.59.21-.22.7-.32,1.01Zm27.58-.5v-1.51c-.22-.07-.38-.16-.53-.15-.15.01-.29.13-.44.2.16.26.4.51.46.8.08.36.09.68.57.65v.82c.19.2.38.4.57.61v1.05c.2.23.38.44.53.6.12.66-.27,1.33.3,1.91.24-.27.49-.54.79-.88v-1.51c.42-.4.6-.89.77-1.44h1.56c-.52.75.21.93.48,1.42v2.14l.51.51v3.32l.58.58c0,.82-.01,1.73.01,2.64,0,.14.19.27.3.42h1.37c.17.28.44.73.88,1.45.13-.69.17-.94.25-1.34-.39-.3-.83-.63-1.2-.91v-2.3l-.53-.53v-2.76l-.54-.54c0-.86,0-1.78,0-2.69,0-.07-.09-.14-.14-.22l-.4-.4v-2.89c-.91.07-.31-.86-.77-1.2h-2.36c-.3.32-.54.58-.67.72-.17.58.11,1.09-.36,1.43-.64,0-1.29,0-2,0ZM5.54,105.92c0,8.11,0,16.22,0,24.33.26.26.52.52.78.78,9.5.21,157.01.12,160.03-.1.23-.25.47-.52.62-.68v-24.4c-.31-.29-.57-.54-.78-.74H6.34c-.28.28-.55.55-.81.81ZM136.1,25.24c.12.1.19.2.26.2,22.1,0,44.19,0,66.29,0,.07,0,.14-.11.25-.21V2.03c-.31-.38-.54-.66-.74-.9h-64.71c-.18,0-.37-.02-.55,0-.07.01-.14.11-.2.17-.2.2-.39.39-.6.6v23.35Zm67.47.21c8.05,0,15.89,0,23.72,0,.16,0,.32-.12.45-.18.32-.45-.23-1.13.43-1.47.43.09.92-.2,1.29.23.04.44.08.87.13,1.43,13.5,0,26.94,0,40.38,0,.08,0,.18-.02.25-.07.08-.05.13-.13.21-.2V1.92c-.24-.22-.51-.46-.81-.74h-65.54c0,1.79,0,3.51,0,5.19-.18.18-.31.31-.5.5v18.58ZM67.42,1.35c-.12-.1-.18-.22-.25-.22-21.73,0-43.47,0-65.25,0-.22.25-.46.52-.75.84v23.29c.13.1.2.2.27.2,21.83,0,43.65,0,65.48,0,.09,0,.2.03.27,0,.08-.03.13-.13.24-.25V1.35Zm1.2,24.11c22.15,0,44.07,0,65.99,0,.07,0,.14-.1.33-.24,0-7.81,0-15.72,0-23.62,0-.08-.02-.18-.07-.25-.05-.08-.13-.13-.19-.2-26.79-.2-61.75-.14-65.43.13-.23.25-.47.52-.63.69v23.5Zm155.31,85.71h-19.59c-.18,0-.37-.02-.55,0-.07.01-.13.12-.23.23v17.79c.18.18.32.32.5.5v1.58c0,.64-.02,1.29,0,1.93.02.53-.13,1.09.2,1.74,21.85,0,43.76,0,65.67,0,.09,0,.18,0,.25-.05.08-.04.13-.13.23-.23,0-7.7,0-15.43,0-23.17,0-.07-.1-.14-.19-.27h-43.21c-.31.28-.58.52-.84.76,0,.77,0,1.5,0,2.24,0,.07-.12.13-.18.19h-1.26c-.3-.32-.54-.58-.78-.85v-2.4ZM1.11,27.38v18.25c0,.18-.02.37,0,.55.01.07.12.13.26.29,21.82,0,43.73,0,65.63,0,.08,0,.17-.03.24-.07.08-.05.13-.13.21-.2,0-6.43,0-12.88,0-19.32,0-.07-.11-.14-.21-.26H1.9c-.27.26-.54.52-.79.77Zm133.78-.6c-.11-.1-.18-.22-.25-.22-21.74,0-43.49,0-65.23,0-.26.26-.52.52-.83.83,0,6.21,0,12.47,0,18.73,0,.07.09.14.18.28h54.89c.25-.25.51-.5.77-.76.08-.62-.2-1.28.21-1.88h2.1c-.46,1.14.44,1.8.71,2.71,2.41,0,4.81,0,7.2,0,.07,0,.13-.11.25-.22v-19.46Zm26.04,17.76c.07.61-.2,1.26.2,1.87h17.49v-5.2c.16-.16.29-.29.52-.52v-6.08c.23-.23.36-.36.49-.49.09-.5.18-1,.27-1.47h1.22c.27.27.53.53.82.82,0,1.62,0,3.28,0,4.93,0,.07.1.14.15.21.13.13.26.26.39.39,0,2.21,0,4.42,0,6.63,0,.07.12.13.05.06.35-.23.71-.46,1.08-.69v-3.21c.31-.34.55-.61.78-.87.47.11.96-.19,1.35.24.03.6.07,1.22.1,1.76.21.21.34.34.5.5,0,.43-.02.89,0,1.34.04.53-.15,1.09.18,1.64.24.02.5.06.76.06,4.33,0,8.66,0,12.99,0,.35,0,.74.1.99-.28v-2.75c.19-.21.38-.4.57-.61v-4.39c.15-.15.28-.28.51-.51v-3.87c.23-.23.36-.36.53-.53v-6.2c-.31-.29-.57-.54-.79-.75h-65.27c-.28.28-.54.54-.81.81v18.24c0,.18-.02.37,0,.55.01.07.12.13.21.23h15.71c.05-.3.04-.58.15-.79.12-.23.35-.4.54-.61v-1.57c.3-.32.55-.58.78-.83h1.68c.46.46.92.92,1.36,1.36.1.28-.21.75.5.74v-2.32c.23-.23.36-.36.59-.59v-2.71c.37-.4.62-.67.84-.91h1.14c.23.46.47.92.8,1.56v4.19c.19.21.38.41.57.61ZM1.11,90.43v18.83c.25.22.52.47.82.74h2.33c.32-.67.14-1.31.16-1.93.03-.74-.03-1.47.02-2.21.04-.61-.26-1.28.27-1.9h62.57c.26-2.64.25-11.88,0-14.31H1.9c-.27.27-.53.53-.79.79Zm67.52,13.34c.13.1.2.2.27.2,21.82,0,43.65,0,65.47,0,.09,0,.19.02.27,0,.08-.03.14-.12.24-.22v-13.93c-.12-.1-.18-.21-.25-.21-21.64,0-43.28,0-64.92,0-.16,0-.32.11-.48.16l-.6.6v13.4Zm72.94-9.47v-3.87c-.26-.26-.52-.52-.83-.83-.59,0-1.23-.03-1.86,0-.72.04-1.45-.16-2.13.1-.27.29-.51.56-.66.72v13.32c.11.1.17.19.25.22.08.03.18,0,.27,0h.83c10.04,0,20.08,0,30.12,0,.09,0,.19-.02.27,0,.08.03.13.12.3.29v5.79h26.25c.28-.28.54-.54.83-.83,0-.99,0-2,0-3.01,0-.16-.1-.32-.17-.51-.12-.11-.25-.23-.38-.35v-7.74c-.19-.21-.38-.41-.59-.64,0-1.08,0-2.18,0-3.28,0-.07-.12-.13-.19-.2-.07.04-.18.06-.19.11-.08.62-.14,1.23-.2,1.78-.19.27-.36.47-.48.7-.11.22-.16.47-.23.67h-1.18c-.24-.47-.48-.93-.8-1.56v-3.09c-.19-.21-.38-.4-.57-.61-.08-.61.21-1.26-.21-1.86h-15.65c-.24,1.27-.57,2.43-1.57,3.25h-1.08c-.21-.18-.4-.35-.66-.58-.09.32-.15.56-.24.89-.54.44-.88,1.28-1.82,1.41-.64-.69-1.27-1.36-1.98-2.12v-1.08c-.92.07-.32-.86-.62-1.08-.55-.25-.94-.43-1.61-.74-6.3,0-12.93,0-19.56,0-.07,0-.14.09-.29.19-.03.56-.06,1.18-.09,1.78-.15.15-.28.28-.51.51v2.23c-.35.34-.62.59-.83.79h-1.13c-.29-.29-.55-.55-.81-.81Zm26.55,37.33h-31.27c-.24.25-.49.52-.75.79v2.37c.23.07.4.15.56.15,21.92,0,43.85,0,65.77,0,.09,0,.19,0,.26-.03.08-.04.13-.12.18-.17v-23.57c-.87,0-1.68-.02-2.5,0-.8.02-1.62-.12-2.4.12v3.97c-.5.33-.51.91-.78,1.38h-1.39v-1.78c-.28-.33-.46-.53-.55-.63-.18-1.09.09-2.1-.19-3.06-8.98,0-17.82,0-26.66,0-.07,0-.14.11-.3.24v20.21Zm59.16-41.2v12.15c-.19.2-.38.4-.55.59,0,2.14,0,4.26,0,6.38,0,.09,0,.19.04.26.04.08.12.13.19.2,8.01.18,39.91.11,42.79-.1.23-.25.47-.52.62-.68v-18.86c-.31-.29-.57-.54-.78-.75h-35.41c-.28.28-.54.54-.81.81v8.28c-.19.2-.38.4-.55.59-.1.63.23,1.29-.26,1.91-.4-.08-.86.16-1.32-.17-.05-.41-.1-.84-.14-1.24-.19-.23-.36-.44-.54-.66v-4.89c-.18-.18-.31-.31-.54-.54v-3.93c-.7-.31-1.33-.18-1.95-.14-.26.26-.52.52-.78.78ZM1.11,48.4c0,6.27,0,12.53,0,18.8,0,.06.12.13.22.22h.81v-2.88c.28-.32.46-.53.65-.74v-4.71c.35-.67.58-1.11.81-1.56.62.09,1.28-.22,1.88.22.03.62.07,1.24.09,1.77.21.21.34.34.49.49v1.7c.25.21.53.45.86.72.13-.1.31-.26.54-.45h1.02c.34.27.69.54.84.65.06,1.21.11,2.11.17,3.02,0,.06.12.1.19.15l.88-.88v-3.34c.22-.21.36-.33.49-.45v-2.77c.26-.26.52-.52.78-.79.44,0,.89-.17,1.23.06.27.53.5.99.8,1.6v4.17c.3.28.55.51.81.75.47-.62.15-1.28.25-1.9.37-.39.74-.78,1.12-1.18v-6.05c.15-.15.28-.28.53-.53,0-1.15,0-2.43.01-3.7,0-.15.17-.29.26-.44.62.06,1.27-.2,1.95.24v2.81l.49.49c.02.08.05.17.05.25,0,2.49,0,4.98,0,7.46,0,.07.09.15.13.22l.41.41c0,.62,0,1.26,0,1.9q0,1.05.37,1.6c.06-.07.18-.13.18-.2,0-2.03,0-4.05,0-6.05.2-.22.38-.42.6-.65,0-.89,0-1.81,0-2.72,0-.07.12-.13.21-.21h1.18c.17.21.4.5.78.97v2.06c.23.23.36.36.46.46.07,1.01.15,2,.23,2.98,0,.03.12.05.37.14.06-.85.02-1.66.03-2.47.18-.2.37-.4.55-.6.1-.43-.2-.92.21-1.3h1.26c.3.32.54.58.67.72.18.58-.11,1.09.36,1.43.26-.26.52-.52.78-.78.14-1.16-.06-2.35.1-3.42.22-.22.35-.35.49-.49v-2.74c.19-.21.38-.41.42-.45.3-.58-.08-1.08.35-1.45h1.26c.33.38.09.78.21,1.11.12.32.35.59.58.95v3.12c.22.28.39.49.51.65,0,1.83,0,3.58.01,5.33,0,.12.19.24.3.35.26-.26.52-.52.79-.79v-2.23c.26-.24.53-.49.77-.72.44.21.88.42,1.39.66.05,1.13.09,2.3.15,3.48,0,.07.12.13.22.22.23-.05.48-.1.81-.17v-7.35l.51-.51v-5.09c.87.03.36-.83.8-1.24h1.23c.29.31.54.57.79.84v3.29l.52.52v4.36c.28.36.44.56.62.8v4.31l.47.47v1.07c.19.21.38.41.57.62v1.66c.26.25.52.5.85.82,1.39,0,2.86,0,4.32,0,.07,0,.15-.09.35-.22.13-.46-.27-1.23.46-1.61.06-.62.12-1.24.18-1.84.15-.15.28-.28.51-.51v-2.21c.23-.23.36-.36.49-.49.14-1.54-.11-3.09.12-4.55l.46-.46v-4.41c.19-.2.38-.4.57-.61v-1.08c.28-.28.54-.54.8-.8.43.06.9-.19,1.4.24v1.68c.23.23.36.36.59.59v2.76c.23.23.36.36.51.51v2.73c.19.21.38.41.57.61.07.61-.2,1.26.25,1.95.19-.4.36-.74.56-1.17.58.17,1.22-.14,1.76.15.26.51.48.97.79,1.58v1.34c.23.3.39.51.5.66v1.51c.16.18.34.38.62.71v2.27c.51.27.73,1.01,1.54.48.02-.36.05-.79.08-1.21.19-.22.36-.42.6-.69-.52-1.01.32-1.81.5-2.75.12-.65.53-1.25.86-1.84.12-.22.39-.36.5-.46h1.23c.42.67.83,1.33,1.27,2.06v2.22c1.12.17.04,1.36.83,1.76.43-.09.92.2,1.34-.28,0-6.02,0-12.09,0-18.16,0-.07-.09-.15-.22-.36H1.94c-.31.31-.57.57-.83.83Zm235.3-1.93c11.23,0,22.45,0,33.67,0,.07,0,.14-.1.27-.19v-18.94c-.25-.25-.51-.51-.77-.77h-38.08c-.18,0-.37-.01-.55,0-.08,0-.15.09-.26.16-.21.23-.45.49-.6.66v2.76c.22.29.39.5.56.72v14.06c.35.67.59,1.11.84,1.59.43-.18.94.16,1.39-.42v-1.63c.23-.23.36-.36.49-.49,0-.92,0-1.84,0-2.76,0-.06.13-.12.24-.23h1.2c.29.31.54.57.79.84v3.07c.34.65.57,1.11.8,1.56Zm-112.54,4.15c0-.46.03-.93,0-1.38-.04-.53.18-1.09-.21-1.62h-54.17c-.4.33-.69.56-.9.74v18.31l.82.82c1.17,0,2.37,0,3.56,0,.16,0,.32-.11.46-.16.18-.41.35-.8.71-1.63v-2.15c.39-.74.62-1.18.82-1.56h1.04c.36.31.64.55.89.77v2.22c.2.22.38.43.53.6.11.65-.26,1.32.25,1.87.19,0,.37.02.61.03.21-.25.45-.52.83-.95v-6.54c.23-.23.36-.36.49-.49.13-1.17-.05-2.35.12-3.57h1.93c.29.43.25,1.05.77,1.35v3.28c.2.22.38.42.57.63v3.06c.33.65.57,1.11.85,1.67.09-.33.18-.57.22-.82.03-.18-.05-.39.02-.55.11-.24.31-.43.5-.68.13-.93-.07-1.93.1-2.82.22-.22.35-.35.49-.49,0-1.27,0-2.56,0-3.84,0-.07.11-.14.17-.2.13-.13.25-.26.38-.4v-3.84c.2-.21.38-.41.57-.63v-1.62c.28-.28.54-.54.81-.81h1.11c.23.45.47.91.82,1.59.11.72-.11,1.72.08,2.62l.48.48v3.29c.67.5.52,1.56,1.44,1.97.35-.1.81.18,1.32-.22v-2.14c.38-.44.61-.71.81-.94h1.16l.66.66c.32.55-.06,1.05.31,1.42.65.39,1.49-.28,2,.33.07.33.13.58.19.85.41-.23.77-.43,1.16-.65.5.57.93,1.04,1.51,1.7v2.07c.23.23.36.36.46.46.2.83-.13,1.66.21,2.57.35-.07.66-.13.95-.18v-1.77c.19-.21.38-.41.54-.59.1-.64-.25-1.31.3-1.94.56.17,1.2-.15,1.93.27.24.41.45,1.01.86,1.43.5.51-.04,1.22.53,1.75.41.37.54,1.04.8,1.58.26.54.52,1.07.81,1.65.9,0,1.82,0,2.73,0,.07,0,.14-.1.31-.22v-3.34l.58-.58v-2.52c.4-.76.63-1.2.84-1.6h1.64c.66.36.75,1.02,1.04,1.55.28.53.59,1.05.94,1.67v1.44c.22.27.38.47.47.58.06,1.04.1,1.94.16,2.85,0,.06.13.12.24.21.22-.05.47-.12.73-.18v-2.25c.19-.22.37-.42.65-.74v-2.18c.29-.29.49-.49.69-.69,1.3.14,2.17-.99,3.33-1.21q.33.31.92.39v-3.98c.23-.23.36-.36.49-.49.09-1.72-.04-3.45.06-5.05.26-.25.39-.38.52-.51Zm-56.4,38.38c0-5.48,0-10.73,0-15.98,0-.16-.12-.31-.23-.57h-1.87c-.06-.34-.05-.62-.16-.84-.12-.23-.35-.4-.54-.62v-1.48c-.32-.38-.55-.66-.78-.94-.3.3-.56.56-.92.92v2.23c-.22.21-.36.34-.49.46v1.65c-.19.21-.38.41-.43.46-.26.57.1,1.08-.35,1.44-.62.03-1.25.18-1.86-.1-.05-.8-.97-1.32-.68-2.22-.9-.52-.14-1.82-1.09-2.32v-1.16c-.59-.35-.88-1.1-1.6-1.34h-.87c-.38.36-.77.74-1.15,1.09h-1.34c-.23-.33-.54-.78-.79-1.13-.8.16-1.48-.27-2.01.34v1.63c-.2.22-.38.42-.57.63v6.04l-.51.51v4.16c-.4.77-.64,1.22-.86,1.64h-1.11l-.81-.81v-1.64c-.32-.25-.48-.71-1.11-.75,0,1.19,0,2.37,0,3.49-.18.18-.31.31-.44.44-.33.84.18,1.8-.36,2.6-.64-.08-1.3.2-1.98-.26v-2.25l-.51-.51c-.07-1.52.03-3.07-.05-4.48l-.53-.53c0-.54.03-1.09,0-1.64-.04-.62.19-1.27-.18-1.88-.43-.05-.87-.09-1.25-.14-.83-.54-.75-1.7-1.63-2.14-.63,1.14-1.02,2.44-2.15,3.25-.13.09-.35.05-.52.06-.65-.37-.93-1-1.27-1.82-.37.5-.7.94-.91,1.23h-1.14c-.39-.32-.67-.56-.92-.76v-1.15c-.28-.28-.54-.54-.81-.79,0,0-.12.1-.29.24v3.89l-.59.59v6.08l-.52.52c0,1.44,0,2.91,0,4.38,0,.07.1.14.2.26h37.95Zm36.43-11.52c-.23.11-.44.15-.47.24-.08.24.09.54-.21.75-.14.1-.24.26-.36.4-.09.43.2.92-.23,1.29-.62.04-1.25.18-1.79-.07-.25-.51-.48-.97-.79-1.58v-1.34c-.23-.3-.39-.5-.5-.66v-1.51c-.16-.18-.33-.38-.59-.68.39-.9-.43-1.54-.73-2.33-.33-.88-1.06-1.6-.96-2.58-.27-.31-.52-.58-.74-.82h-3.56c-.25.33-.57.77-.84,1.13-.77-.14-1.45.26-1.94-.25-.06-.32-.12-.57-.16-.78-.91-.34-1.15.38-1.58.84v1.36c-.34.66-.57,1.11-.8,1.55h-1.56c-.1-.2-.34-.68-.58-1.17-.54.54-.25,1.02-.35,1.46-.45.45-.91.91-1.38,1.37h-1.09c-.28-.51-.56-1.04-.91-1.69v-2.59c-.08.06-.16.12-.24.18-.15-.31-.31-.63-.46-.94-.34.94-.34,1.75-.34,2.54-.19.2-.38.4-.57.61v3.82c-.2.23-.38.43-.57.65v3.81c-.42.42-.85.78-1.19,1.21-.31.38-.54.84-.76,1.21h-.99c-.38-.32-.66-.55-.91-.77v-1.7l-.5-.5v-2.21l-.52-.52c-.26-.8.22-1.76-.34-2.6-.28.06-.53.12-.75.17-.16.67.1,1.39-.6,1.77-.03.63-.06,1.25-.08,1.75-.24.24-.37.37-.34.34-.33.58.07,1.08-.38,1.49h-1.79c-.29-.31-.54-.57-.79-.84v-2.21c-.75-.03-.12-1.24-1.02-1.12v12.31c.32.29.58.54.75.7,13,0,25.89,0,38.78,0,.07,0,.13-.12.2-.19-.28-1.09-1.17-2.79-1.9-3.62h-1.09c-.28-.53-.57-1.05-.92-1.71v-2.51l-.55-.55v-2.93Zm130.78-8.82c-.08.08-.2.14-.2.21-.01.74,0,1.47,0,2.2-.19.2-.38.4-.57.61v14.88c-.2.23-.38.43-.51.58v1.06c.3.34.55.61.78.86h35.42c.26-.26.52-.52.83-.83,0-4.01,0-8.05,0-12.1,0-.07-.09-.14-.17-.26-.72.37-1.45.74-2.08,1.06-.46-.35-.81-.61-1.09-.82.16-.84-.19-1.36-.58-1.97v-4.07c-.23-.41-.37-.63-.49-.86-.11-.21-.2-.43-.27-.6-.8-.12-.99.52-1.41.85v1.08c-.27.27-.53.53-.89.89h-1.16c-.32.63.13,1.42-.63,1.79-.05.62-.09,1.24-.13,1.79-.19.19-.32.32-.45.45-.03.62-.06,1.24-.1,2.08-.77-.34-1.5.26-2.03-.27-.29-.72.11-1.39-.29-1.95-.14-.15-.26-.29-.39-.43v-3.82c-.2-.23-.38-.43-.53-.6-.11-.65.26-1.32-.32-1.94-.55.2-1.21-.17-1.89.28v2.73c-.28.36-.44.56-.56.72v4.82c-.15.18-.33.38-.61.71v2.17c-.29.29-.49.49-.72.72h-1.4c-.02-.48-.04-.92-.06-1.35-.13-.13-.26-.26-.49-.49v-2.4c-1.19-.19-.13-1.36-.9-1.79-.18.38-.36.75-.53,1.1-.24.02-.42.03-.87.07-.19.28-.49.74-.71,1.07-.59-.03-.95-.05-1.42-.08-.03-.49-.05-.93-.07-1.34-.19-.21-.37-.42-.59-.67,0-1.06,0-2.16,0-3.26,0-.07-.12-.13-.3-.31-.1.58-.19,1.08-.27,1.57-.13.13-.26.26-.46.46v4.42c-.26.26-.39.39-.53.53v2.72c-.48.34-.53.91-.78,1.39h-1.25c-.29-.31-.54-.57-.86-.92.5-.7-.16-1.12-.45-1.65.37-.82-.69-1.29-.52-1.97.19-.77-.75-1-.6-1.72.16-.75-.6-1.22-.73-1.92h-1.41c-.13,1.22,0,2.4-.07,3.35-.33.65-.57,1.1-.8,1.56-.43-.06-.9.19-1.3-.16-.03-.17-.08-.34-.1-.52-.03-.26-.04-.53-.06-.74-.17-.17-.3-.3-.47-.47v-6.58c-.19-.22-.37-.42-.61-.7-.21-.32.44-1-.32-1.26Zm10.3-8.45c.31-.6.55-1.06.79-1.52.61-.04,1.24-.18,1.92.13.03.59.06,1.21.09,1.8.16.16.29.29.45.45.05,1.14.1,2.31.17,3.48,0,.06.13.12.23.21.22-.05.47-.12.8-.2v-3.02c.12.09.24.18.36.26.33-.56.66-1.12.88-1.49.94-.05,1.14.53,1.52.96v.96c.22.27.38.48.51.63.09.86-.17,1.69.23,2.49.35-.09.6-.15.82-.21.19-1.24-.08-2.43.15-3.53.19-.19.32-.32.47-.47,0-.9,0-1.81,0-2.73,0-.07.11-.14.26-.32.03-.03.16-.15.3-.27,0-1.12,0-2.23,0-3.33,0-.07.12-.13.2-.2h1.8c.3.32.54.58.79.85v1.02c.22.28.38.48.57.71v2.92c.92.1,1.6-1.02,2.56-.46.13.13.33.33.52.52.32.32.2.8.55,1.18.3.32.24.97.33,1.46.42-.3.77-.55.95-.68q.07-1.12.62-1.87v-2.18c.23-.23.36-.36.49-.49.1-.61-.16-1.27.21-1.9h1.95c.15.84,0,1.66.08,2.44.19.21.37.41.43.48.22.56-.11,1.07.37,1.44h1.08c.29.53.58,1.05.87,1.58v1.35c.3.5.59.98.9,1.5.28-2.39.29-13.35.02-15.93-.2-.2-.39-.39-.59-.59-6.28-.16-30.67-.1-33.44.09v6.84l.48.48v7.67c.28.36.44.57.49.64.07,1.07.13,1.98.2,2.88,0,.04.12.07.19.11.07-.07.19-.13.19-.2.01-1.47,0-2.94,0-4.38.5-.36.55-.92.8-1.41h2.09c-.32.81.07,1.37.43,1.99.23.41.08.97.44,1.49.31.44.12,1.22.16,1.85.01.17.06.34.04.26.35.67.59,1.11.86,1.64.58-.33,1.27.21,1.92-.44v-1.66c.23-.23.36-.36.49-.49v-4.79Zm-114.47,12.77v-1.33c-.19-.2-.38-.4-.57-.61v-1.63c-.28-.28-.54-.54-.81-.81-1.82,0-3.66,0-5.5,0-.07,0-.14.11-.24.19-.04.4-.09.84-.14,1.25-.16.16-.29.29-.51.51v2.36c-.36.85-.52,1.24-.7,1.67-.68.11-1.37.23-2.03-.14-.05-.84.05-1.66-.06-2.43-.65-.07-1.19-.36-1.62.2v1.06c-.2.22-.38.42-.57.63v1.03c-.21.25-.38.45-.57.67v1.49c-.86,1.15-1.02,2.6-2.18,3.34v1.13c-.2.21-.38.41-.55.6.15.97-.49,1.65-.82,2.44h-1.66c-.49-.46-.37-1.37-1.17-1.6-.07.07-.19.13-.19.2-.01,1.1,0,2.2,0,3.29-.2.22-.39.42-.58.62v.99c-.07.38-.74.41-.35.86h25.24v-9.06c-.17-.17-.3-.3-.53-.53v-3.87l-.58-.58c0-.81.01-1.72-.01-2.63,0-.13-.18-.26-.38-.54-.34.46-.67.9-.88,1.19h-2.04Zm96.72-46.41h-22.9c-.25.26-.51.52-.83.84,0,1.22,0,2.51,0,3.79,0,.07.09.14.15.24.49.08.99.17,1.49.26v1.2c.19.21.38.41.57.62v1.62c.2.22.38.42.57.63v1.61c.15.15.28.28.51.51v2.21c.23.23.36.36.59.59v1.66c.23.23.36.36.49.49.14,1.17-.06,2.35.12,3.51,4.19.27,7.58.22,9.32-.13v-3.3c.19-.21.38-.41.57-.62v-6.6c.2-.22.38-.42.57-.63v-5.45c.21-.25.38-.45.46-.54.17-.56-.12-1.06.35-1.4.37,0,.73,0,1.1,0,.26.26.52.52.78.78.14.98-.06,1.99.11,2.87.22.22.35.35.48.48v6.61c.19.21.38.41.56.61,0,2.3,0,4.61,0,6.91,0,.09-.01.19.02.27.04.08.12.13.19.2h4.02c.09-.14.18-.21.18-.28,0-3.31,0-6.62,0-9.88.18-.18.31-.31.5-.5v-9.18Zm-66.3,21.84v1.09c.19.2.38.4.57.61v4.37c.2.23.38.43.57.65v3.26c.16.16.29.29.52.52v2.21c.23.23.36.36.58.58v2.21c.23.23.36.36.49.49.03.44.06.87.08,1.19.24.24.37.37.5.5.11.43-.18.91.23,1.34h12.28c.1-.12.21-.18.21-.25.01-1.29,0-2.57,0-3.83.2-.23.39-.43.58-.64v-5.49c.15-.15.28-.28.51-.51v-7.69c.25-.32.39-.5.54-.68-.32-.31-.59-.55-.82-.78-5.3,0-10.55,0-15.8,0-.09,0-.17.03-.26.05-.26.26-.52.52-.78.78ZM1.11,88.22l.78.78c7.2.16,22.28.1,25.14-.1v-2.96l-.48-.48v-4.98l-.56-.56c0-1.76,0-3.6-.01-5.43,0-.11-.2-.22-.31-.33-.26.26-.52.52-.78.78v1.65c-.19.2-.38.4-.57.61v1.08c-.27.27-.54.54-.8.8-.43-.05-.9.18-1.33-.18-.04-.41-.09-.84-.13-1.19-.21-.28-.37-.49-.42-.55-.08-.72-.14-1.25-.21-1.78,0-.04-.12-.07-.23-.13-.12.33-.23.65-.39,1.08-.86,0-1.77.01-2.67-.01-.15,0-.29-.17-.43-.26-.09-.27.21-.75-.5-.74v2.29c-.28.32-.46.53-.65.74v6.61c-.89.37-.2,1.4-.8,1.86h-1.12c-.23-.46-.47-.92-.8-1.56-.11-1.31.12-2.87-.09-4.32-.21-.21-.34-.34-.47-.47v-7.18c-.19-.2-.38-.4-.58-.62,0-1.09,0-2.19,0-3.29,0-.07-.12-.13-.23-.23-.22.02-.47.05-.78.08-.04.67-.07,1.29-.1,1.84-.29.32-.54.59-.76.83h-1.79c-.17-.45-.25-.97-.67-1.36-.34-.31.35-1.05-.6-1.41,0,.89,0,1.69,0,2.49-.19.2-.38.4-.57.61v3.27c-.2.23-.38.43-.57.65v1.53c-.31.35-.55.62-.78.88h-1.73c-.31.69-.63,1.39-.95,2.1-.62.38-1.46-.28-2.04.38v7.19ZM283.47,25.41c.1-.12.21-.18.21-.25,0-7.73,0-15.46,0-23.2,0-.18.02-.37,0-.55-.01-.07-.13-.13-.25-.23h-11.69c-.1.12-.21.18-.21.25,0,7.82,0,15.65,0,23.47,0,.09-.03.2,0,.27.03.08.13.13.25.24h11.69Zm-11.95,85.81c0,7.96,0,15.69,0,23.42,0,.07.11.14.26.3,3.49,0,7.06,0,10.64,0,.43,0,.92.18,1.26-.27,0-7.73,0-15.46,0-23.19,0-.07-.11-.14-.21-.25h-11.95Zm-270.41,0c0,7.96,0,15.69,0,23.43,0,.07.11.13.26.29,21.82,0,43.72,0,65.63,0,.08,0,.18-.02.25-.07.08-.05.13-.13.21-.21,0-.9,0-1.82,0-2.74,0-.07-.11-.14-.26-.3-20.71,0-41.51,0-62.31,0-.08,0-.18-.02-.25-.06-.08-.05-.13-.13-.22-.21v-19.31c0-.18.02-.37,0-.55,0-.08-.1-.14-.2-.26H1.11Zm144.59-22.18h18.81c.18,0,.37.02.55,0,.07-.01.13-.13.23-.24v-3.96c-.18-.18-.31-.31-.45-.44-.17-1.16.09-2.35-.13-3.45-.19-.19-.32-.32-.46-.46v-2.74c-.19-.21-.38-.41-.57-.61v-2.19c-.47-.95-1.84-.76-2.21-1.81q-.05-.83-.59-1.59v-2.2c-.35-.32-.62-.56-.84-.77-1.64,0-3.21,0-4.78.01-.15,0-.29.18-.43.27v2.2c-.19.21-.38.4-.57.61v4.32c-.56.65-.61,1.57-1.38,1.97-.46-.46-.92-.91-1.37-1.36,0-1.85,0-3.69,0-5.53,0-.06-.12-.13-.2-.2-.35-.16-.67-.13-.91.27v1.03c-.2.23-.38.43-.57.65v2.71c-.16.16-.29.29-.52.52v2.76c-.23.23-.36.36-.58.58v2.77c-.23.23-.36.36-.58.58v1.81c-.36.85-.52,1.24-.72,1.73h-1.91v1.26c-.27.31-.43.5-.58.68.28.29.53.56.77.81Zm42.6-20.46h-8.28c-.18,0-.37-.02-.55,0-.07.01-.13.11-.3.26v2.15c-.28.36-.43.57-.61.8v2.1l-1.04,1.04v1.44c-.6.59-1.38,1.36-2.27,2.24v4.12c-.19.19-.32.32-.49.49-.02,1.5,0,3.04-.02,4.44-.26.26-.39.39-.57.57.28.23.55.46.91.76h15.15c0-1.58,0-3.12,0-4.64-.2-.22-.38-.42-.57-.62v-7.7c-.14-.14-.28-.27-.5-.5v-6.07c-.35-.36-.61-.62-.87-.88Zm83.27,41.47h11.56c.09,0,.2.03.27,0,.08-.03.13-.13.24-.24.01-.21.04-.48.04-.74,0-6.17,0-12.33,0-18.5,0-.35.1-.74-.3-.98h-11.04c-.18,0-.37-.02-.55,0-.07.01-.13.12-.24.24v20.21Zm.14-83.45c-.26,2.62-.25,17.33,0,19.81h11.79c.26-2.62.25-17.33,0-19.81h-11.79Zm-124.06,40.83c0-.88-.01-1.52,0-2.17,0-.16.12-.32.18-.47.13-.14.25-.27.37-.41v-8.24c.19-.21.38-.41.56-.61v-6.58c.19-.22.35-.41.49-.57-.28-.3-.53-.56-.77-.82h-11.05c-.18,0-.37-.02-.55,0-.07.01-.14.11-.2.17-.19.19-.39.39-.65.65,0,5.25,0,10.57.01,15.89,0,.14.18.28.28.42h1.65c.26.26.52.52.78.78.03.44.07.87.1,1.23.35.32.61.55.78.71h8.01Zm-79.03,67.51c22.16,0,44.07,0,65.98,0,.07,0,.14-.1.33-.24,0-.45.04-.99-.01-1.52-.05-.52.26-1.11-.26-1.56h-64.62c-.18,0-.37-.01-.55,0-.08,0-.15.09-.26.16-.21.23-.45.49-.61.66v2.49ZM200.19,61.13v-5.52c.19-.2.37-.4.56-.6v-5.53c.36-.28.71-.57.48-1.13-.25-.25-.51-.51-.77-.77-4.41,0-8.82,0-13.24,0-.07,0-.14.11-.26.21v5.64l.44.44c.06.96.11,1.95.18,2.93,0,.05.12.09.29.21.09-.56.18-1.07.26-1.58.39-.22.55-.77,1.14-.67.96.32.88,1.45,1.55,2.06v3.22c.16.16.29.29.52.52,0,1.82,0,3.74,0,5.65,0,.43-.18.92.28,1.26,2.11,0,4.23,0,6.34,0,.16,0,.32-.12.5-.19.05-.42.09-.86.13-1.19.22-.29.38-.5.56-.74v-1.54c.2-.2.33-.33.55-.55v-1.67c.22-.22.36-.35.48-.47Zm80.13-4.07c.44-.85.68-1.3.91-1.74.63.1,1.3-.23,1.91.26,0,.33-.02.69,0,1.05.02.31-.16.71.33.84.28-2.16.3-6.86.05-9.78-5.05-.27-10.27-.21-12,.16,0,6.62,0,13.25,0,19.87,0,.07.1.14.16.21.53.35.82-.04,1.23-.45h6.34c.03-1.07-.02-2.06.03-3.03.19-.22.37-.42.56-.63v-3.27c.16-.16.29-.29.47-.47v-3.02Zm3.37,31.95v-11.01c0-.74.04-1.47-.01-2.21-.05-.71.2-1.45-.12-2.12-.23-.04-.4-.07-.49-.08-.6.61-1.17,1.2-1.6,1.64h-1.92c-.26-.26-.77-.56-.74-.78.11-.73-.88-.97-.66-1.7,0-.03-.23-.14-.35-.21-.26.27-.51.54-.74.78.16,1.47-.99,2.37-1.38,3.55h-1.68c-.24-.47-.48-.93-.8-1.55v-.88c-.19-.21-.38-.4-.56-.6-.1-.42.19-.91-.24-1.34-.21,0-.46.02-.7.03-.25,3.04-.22,14.21.04,16.47h11.96Zm-79.35,21.06h7.46c.09,0,.19.03.27,0,.08-.03.13-.12.23-.22v-3.42l-.54-.54v-3.32c-.22-.22-.35-.35-.58-.58v-2.21c-.23-.23-.36-.36-.49-.49v-4.41c-.19-.2-.37-.4-.56-.61v-3.84c-.27-.27-.53-.53-.82-.82h-4.36c-.18,0-.37-.01-.55,0-.08,0-.14.09-.26.18-.2.22-.44.48-.6.66v18.82c.23.23.42.42.8.8Zm11.89-19.63c0,2.11,0,4.22,0,6.34,0,.16-.11.32-.17.47-.13.14-.25.27-.38.4v6.05c-.19.2-.38.4-.55.59,0,1.76,0,3.51,0,5.25,0,.09-.01.19.02.27.04.08.12.13.2.21h7.87c.28-.3.51-.55.74-.79-.17-.17-.3-.3-.52-.52v-9.9c-.27-.33-.43-.53-.62-.76v-1.57c-.18-.18-.31-.31-.53-.53v-5.55c-.35-.33-.61-.57-.81-.77h-4.44l-.8.8Zm-.55-24.9c0-1.92,0-3.85,0-5.77,0-.16.11-.32.17-.47.13-.14.25-.27.38-.4v-4.39c.19-.2.38-.4.56-.6v-4.32c.24-.34.44-.62.57-.8-.11-.67-.6-.84-.86-1.21-2.57,0-5.13,0-7.7,0-.07,0-.14.1-.26.2v3.44c.15.15.28.28.49.49v6.02c.27.34.43.54.61.77v4.32c.18.18.31.31.53.53v3.34c.35.32.61.57.84.78,1.26,0,2.45,0,3.64-.01.15,0,.3-.16.46-.25v-1.09c.19-.2.38-.4.56-.6Zm-11.34,23.51h4.42c.18,0,.37.02.55,0,.07-.01.12-.13.23-.25v-3.39c-.18-.18-.31-.31-.54-.54v-4.42c-.22-.22-.35-.35-.48-.48-.09-1.35.02-2.71-.05-3.93-.26-.26-.39-.39-.53-.53v-4.41c-.19-.2-.37-.4-.37-.4-.39-.8.08-1.48-.4-2.04h-2.91c-.3.32-.54.58-.72.78v18.81c.29.29.55.55.8.81Zm-15.76-25.15c-.19-.21-.42-.39-.54-.62-.11-.22-.11-.49-.16-.72-1.51-.02-1.41-1.44-2.13-2.18v-2.08c-.19-.19-.32-.32-.45-.45-.03-.62-.07-1.24-.1-1.75-.23-.23-.36-.36-.49-.49-.1-.61.15-1.26-.22-1.91-.47.11-.33.5-.36.8-.26.26-.52.52-.78.78-.44,0-.89.17-1.18-.03-.48-.95-.91-1.79-1.29-2.55-.07-.96-.12-1.86-.2-2.76,0-.04-.12-.07-.35-.19-.19,1.67.08,3.3-.15,4.82-.2.2-.33.33-.47.47,0,2.83,0,5.68,0,8.53,0,.16-.1.32-.16.48-.13.13-.26.26-.39.39,0,.46-.03.92,0,1.38.04.53-.17,1.09.24,1.66,2.6,0,5.25,0,7.9,0,.43,0,.92.18,1.25-.28v-3.29Zm32.85,25.09c.37-.31.65-.54.87-.73v-1.15c-.2-.23-.38-.43-.56-.63v-11.01c-.15-.15-.28-.28-.5-.5v-5.5c-.36-.37-.61-.64-.85-.89h-1.67c-.26.26-.52.52-.87.87v4.98l-.51.51c0,2.36,0,4.75,0,7.13,0,.07-.1.14-.15.21l-.4.4c0,2.01,0,4.03,0,6.05,0,.07.11.14.21.26h4.43Zm-45.06-20.41c-3.53,0-6.83,0-10.13,0-.07,0-.14.1-.21.15-.45.65.31.91.49,1.56v1.32c.23.3.39.51.57.74v1.54c.19.19.32.32.54.54v2.21c.22.22.35.35.49.49v2.18c.5.31.5.9.76,1.34.25.06.5.13.75.19.15.5.33.98.74,1.38v1.37c.34.65.57,1.11.8,1.56.06-.06.13-.13.29-.29v-2.21c.22-.22.35-.35.58-.58v-2.21c.22-.22.35-.35.48-.48.03-.43.06-.87.08-1.19.24-.24.37-.37.5-.5v-1.09c.38-.4.75-.79,1.13-1.18v-3.31c.9-.36.24-1.37.62-1.72.59-.33,1.08.04,1.52-.39v-1.45Zm25.77,21.01h-2.22c-.26.26-.52.52-.87.87v7.19c-.22.22-.35.35-.51.51,0,3.46,0,6.95,0,10.44,0,.07-.09.14-.14.21-.13.13-.26.26-.41.41.27.24.54.49.83.75h3.41c.3-.32.54-.58.72-.78v-18.8c-.29-.29-.55-.56-.8-.81Zm-3.61-19.99c-.31-.45-.56-.82-.67-.97h-5.74c-.1.12-.2.19-.21.26,0,2.02,0,4.04,0,6.03.21.23.39.43.58.64v7.69c.15.15.28.28.41.41.34.84-.18,1.8.37,2.61.21-.2.41-.38.53-.49.34-.09.59-.15.72-.19.33-.74.59-1.37.89-1.98.07-.15.26-.25.38-.35v-1.69c.19-.21.38-.41.57-.62v-1.04c.21-.24.38-.44.57-.66v-1.55c.22-.27.38-.47.57-.7v-2.12c.18-.18.31-.31.54-.54v-3.32l.5-.5v-.93Zm-42.56-12.79c-.31.79-.53,1.1-.54,1.42-.03,2.1-.02,4.2-.02,6.2-.22.22-.35.35-.49.49v2.55h1.92c.55,0,1.1.03,1.65,0,.61-.05,1.27.23,1.84-.2v-5.66c-.19-.19-.32-.32-.53-.53v-6.64c-.22-.22-.35-.35-.48-.48-.1-1.53.05-3.07-.38-4.4-.14-.32-.28-.64-.57-1.31-.18,1.49-.76,2.06-1.76,2.21-.05.45-.1.88-.15,1.28-.19.23-.36.44-.5.6v4.47Zm47,31.4v-18.86c-.45-.19-.6-.9-1.41-.75-.26.23-.59.52-.84.74v1.72c-.22.28-.38.49-.57.71v2.66c-.18.18-.31.31-.53.53v11.06c-.21.21-.34.34-.48.48-.04.62-.17,1.24.09,1.87.25.23.52.47.73.67.73,0,1.37,0,2.01,0,.08,0,.16-.05.24-.08.19-.19.39-.39.74-.74Zm20.08-40.59c-.24,2.66-.24,8.98,0,11.46.12.13.25.26.37.4,0,2.57,0,5.13,0,7.7,0,.07.11.13.26.3.36,0,.8.02,1.25,0,.43-.03.92.18,1.25-.28,0-5.04,0-10.09,0-15.13,0-.16.09-.33.14-.49l.41-.41c0-.44.02-.9,0-1.35-.04-.53.15-1.08-.14-1.56-.21-.21-.41-.41-.63-.63h-2.92Zm-94.01,1.61h1.21c.23.45.46.91.86,1.69v2.49c.22.22.35.35.57.57v2.76c.22.22.35.35.49.49v2.18c.51.31.49.91.76,1.34.75-.05,1.08.51,1.46.99.05.8-.11,1.61.14,2.46.17-.13.3-.18.3-.23.04-5.3.08-10.61.11-15.91,0-.09,0-.19-.03-.26-.04-.08-.12-.13-.18-.19h-6.97c0,.95-.01,1.85,0,2.74,0,.15.14.31.21.46.36-.54.73-1.1,1.06-1.6Zm77.24,11.34v-4.42c-.19-.2-.38-.4-.57-.6v-3.82c-.2-.22-.38-.43-.57-.64v-1.95c-.34-.65-.57-1.11-.8-1.56-.26.26-.52.52-.77.77v18.95c.47.34.94.14,1.37.18.36.03.74.04,1.1,0,.43-.04.92.19,1.28-.21.02-.19.03-.37.05-.57-.17-.19-.35-.39-.56-.62,0-1.62,0-3.27,0-4.92,0-.07-.11-.14-.22-.28-.07-.06-.2-.19-.32-.3Zm5.53,11.6v5.53c.19.2.38.4.56.6v7.14c.2.22.38.42.59.66,0,.89,0,1.8,0,2.72,0,.07.12.13.19.2.28-.51.57-1.01.91-1.62v-6.98c.18-.18.31-.31.53-.53v-6.64c.22-.22.35-.35.52-.52,0-1.24,0-2.52,0-3.8,0-.07-.09-.14-.23-.34-.53,0-1.16-.04-1.79.01-.61.05-1.28-.29-1.85.26,0,.81,0,1.64,0,2.46,0,.16.1.32.17.51.12.11.25.23.37.35Zm-72.41.57c-.08-1.11-.99-3.04-1.93-4.12-.45.45-.9.9-1.4,1.4v7.67c.15.17.34.37.38.41.33.56-.07,1.07.35,1.47.63.32,1.45-.31,2.03.38v1.07c.2.22.38.42.54.6.11.64-.25,1.31.25,1.88.29-.51.57-1.02.81-1.44v-4.95c-.18-.18-.31-.31-.47-.47v-3.26c-.19-.21-.37-.42-.55-.63Zm88.45-3.33v17.13c-.19.2-.38.4-.54.58v1.11c.28.28.54.54.8.8.62-.04,1.26.2,1.9-.19v-10.08c-.18-.18-.31-.31-.54-.54v-9.52c-.9-.4-1.17.35-1.63.7Zm-7.19-6.07v-11.06c-.19-.2-.38-.4-.58-.62,0-1.27,0-2.56,0-3.84,0-.07-.12-.13-.26-.27-.31.28-.63.57-.85.77v8.36c-.22.29-.39.49-.57.72v8.74c-.38.38-.77.68-.25,1.33.42,0,.96.04,1.49-.01.52-.05,1.1.25,1.57-.26,0-.99,0-2,0-3.01,0-.16-.11-.32-.17-.52-.11-.1-.25-.22-.37-.34Zm-108.43,16.11c.05.54.08.89.11,1.17.5.21.82.19,1.01-.19.18-.41-.19-.91.25-1.28.48-.4.43-1.12.95-1.56.44-.37.64-1.01,1.02-1.64v-3.75c-.16-.17-.35-.37-.54-.58,0-.73,0-1.46,0-2.2-.26-.26-.52-.52-.86-.86-.54.16-1.18-.15-1.88.23v2.26l-.58.58v5.53c-.23.23-.36.36-.49.49.32.59.65,1.17,1,1.81Zm15.53-18.88c0-.73,0-1.46,0-2.2,0-.07-.11-.13-.17-.2-.17-.03-.34-.06-.51-.09-.9.27-.97,1.2-1.35,1.84-.42.7-.9,1.48-.81,2.4-.87.43-.05,1.66-.95,2.06v2.95c3.5.26,5.1.24,5.4-.06.27-.55-.13-.82-.54-1.22v-2.77c-.22-.22-.35-.35-.42-.42-.23-.67.12-1.32-.25-1.91-.13-.13-.26-.26-.39-.39Zm13.82,11.07c0,1.09,0,2.19,0,3.28,0,.07.11.13.21.25h1.63c.39-.32.67-.55.92-.75v-1.7c.27-.27.53-.53.83-.83.39.11.84-.16,1.25.15.11.33.22.65.33.97.24,0,.42.02.6,0,.07-.01.14-.11.26-.21v-3.38c-.28-.31-.53-.58-.76-.82h-5.52c-.18,0-.37-.02-.55,0-.07,0-.14.11-.28.22.01.28-.58.25-.48.7.33.33.66.66.99.99v.53c.19.2.38.4.56.6Zm82.95,11.6c0,1.84,0,3.69.02,5.53,0,.06.24.12.5.25.1-1.99-.01-3.9.07-5.81.13-.13.26-.26.39-.39.04-.17.12-.33.12-.5,0-4.42,0-8.85,0-13.27,0-.15-.16-.3-.25-.45h-1.15c-.22.24-.46.51-.73.81v1.74c.2.2.33.33.49.49,0,3.65,0,7.33,0,11.01,0,.07.1.14.16.21.13.13.26.26.39.39Zm7.19-18.25q0,1.94.38,2.38c.06-.07.16-.14.16-.21,0-3.85,0-7.71,0-11.56.18-.2.37-.4.55-.6,0-2.29,0-4.59,0-6.88,0-.16-.12-.31-.2-.5h-1.28c-.23,2.59-.24,14.35,0,16.98.13.13.26.25.39.38Zm-89.03,13.49c0,2.7,0,5.24,0,7.79,0,.16.12.32.19.51h.9c0-1.21,0-2.38,0-3.55.26-.26.52-.52.78-.78.44-.02.88-.17,1.29.09q.4.4.64.2v-2.33c-.16-.16-.29-.29-.42-.42-.29-.83.23-1.79-.34-2.56h-.58c-.48.57-.41,1.62-1.48,1.65-.26-.16-.53-.33-1-.61Zm11.61-23.44v-3.87c.19-.2.37-.4.56-.6v-2.09c.2-.1.68-.34,1.17-.58-.53-.54-1.02-.25-1.46-.35-.25.26-.51.52-.86.89v2.19c-.22.22-.35.35-.49.49-.08,1.71.03,3.43-.06,5.03-.24.24-.37.37-.59.59.07,2.92.14,5.92.21,8.93,0,.03.12.05.23.09.41-1.03-.06-2.15.24-3.07.22-.22.35-.35.48-.48,0-2.11,0-4.22,0-6.33,0-.16.11-.32.17-.51.11-.1.25-.23.37-.34Zm-24.33,4.97v1.65c.19.2.38.4.57.61v2.18c.14.14.27.27.4.4.39.83-.16,1.79.36,2.6.46-.04.93.18,1.33-.14.07-.25.1-.52.21-.75.09-.2.27-.35.41-.52-.2-.2-.33-.33-.56-.55v-2.34c-.57-.34-1.09-.64-1.62-.96v-.52c-.2-.22-.38-.42-.57-.63v-2.72c-.15-.15-.28-.28-.53-.53,0-.42.04-.96-.01-1.49-.05-.52.26-1.1-.27-1.57-.25.27-.49.53-.75.81v1.2c.2.2.33.33.55.55v2.21c.23.22.36.35.49.48Zm-22.12,8.61c0,.88-.01,1.53,0,2.17,0,.16.12.31.18.47.12.14.25.27.38.42v2.7c.2.23.38.43.59.67,0,1.07,0,2.17,0,3.26,0,.07.12.13.31.32.39-1.11,0-2.2.26-3.22.13-.13.26-.26.48-.48v-4.92c.24-.32.37-.5.5-.67-.35-.32-.61-.56-.79-.72h-1.94Zm60.83,14.61c-.57-.57-1.09-1.09-1.57-1.57-.11-.33-.2-.62-.37-1.15-.38.95-.31,1.63-.19,2.25.19.19.32.32.47.47,0,.99,0,1.99,0,2.99,0,.16.1.32.15.48.13.13.26.26.39.39v.76c.36.59.6.97.75,1.21.61-.03.96-.05,1.25-.07.37-.47.16-.93.2-1.35-.19-.21-.37-.41-.55-.61v-1.59c-.2-.23-.38-.43-.53-.61v-1.6ZM38.16,57.26c0,1.5,0,2.76,0,4.02v3.71c-.24.24-.37.37-.51.51-.04.62-.18,1.25.12,1.93.77.08,1.58.09,2.38-.02.07,0,.13-.12.21-.2v-.55c-.18-.19-.36-.39-.55-.6v-1.62c-.2-.22-.38-.42-.57-.63v-3.8c-.21-.25-.38-.45-.52-.61-.12-.67.28-1.35-.57-2.15Zm190.44-6.47c-.26,2.52-.29,13.66-.04,16.7.32-.05.64-.1.94-.14,0-2.24,0-4.35,0-6.46,0-.16-.1-.32-.16-.48-.13-.13-.26-.26-.39-.39,0-2.94,0-5.88,0-8.81,0-.07-.11-.14-.34-.42ZM3.32,72.18c0,.92,0,1.84,0,2.76,0,.07.12.13.21.22h1.55c-.57-.79.24-.94.47-1.5v-3.04c.26-.43.44-.72.65-1.06-.4-.37-.72-.67-1.05-.98-.41.08-.91-.2-1.36.36v2.75c-.23.23-.36.36-.49.49Zm192.44,17.62v5.05c.19.2.37.4.47.5.3,1.81-.2,3.53.28,5.23,0,.02.12,0,.2,0,.34-.59.13-1.23.16-1.85.03-.73-.02-1.46.02-2.19.03-.62-.18-1.26.16-1.86.13-.12.26-.24.39-.36v-3.85c-.45-.34-.66-1.17-1.66-.66Zm-57.51-2.7v-1.64c-.19-.2-.38-.4-.42-.45-.27-.57.09-1.08-.35-1.44-.18-.02-.36-.03-.53-.05-.35.28-.7.56-.86.68v4.08c.31.29.57.54.82.78.64-.11,1.31.25,1.88-.26v-1.12c-.16-.17-.35-.37-.54-.58Zm63.59-26.51v2.73c-.19.2-.37.4-.55.59,0,1.02,0,2.02,0,3.03,0,.16.12.31.2.49h1.24c.1-.12.21-.19.21-.26,0-2.92,0-5.85,0-8.77,0-.09-.22-.17-.34-.26-.4.59-.12,1.24-.2,1.85-.18.2-.37.4-.55.59Zm-174.74,8.05c0,1.24,0,2.24,0,3.25,0,.16.11.32.18.52.1.09.24.21.33.29.16,1.95-.19,3.86.21,5.74,0,.02.12.01.19.02.06-.07.18-.13.18-.2.01-.91,0-1.83,0-2.74.18-.2.37-.4.55-.59,0-2.01,0-4.02,0-6.03,0-.07-.11-.13-.21-.25h-1.44Zm23.23-4.25c0,.98,0,1.89,0,2.8,0,.07.11.13.29.32.56-.27,1.3.35,1.92-.3,0-.55,0-1.09,0-1.64-.18-.2-.37-.39-.55-.59v-2.73c-.06-.07-.12-.13-.18-.2-.12-.13-.25-.26-.37-.39q0-1.38-.38-1.81c-.06.07-.16.13-.16.2,0,1.27,0,2.55,0,3.85-.12.11-.26.23-.55.49Zm232-3.01c-.28.28-.53.53-.87.87v2.7c-.26.34-.42.54-.48.62v1.8c.73.16,1.41.19,2.12-.01v-2.96c-.17-.17-.3-.3-.43-.43-.27-.84.19-1.78-.34-2.59Zm-194.4-.26c0-1.66,0-3.32-.02-4.97,0-.06-.24-.12-.47-.24v1.79c-.28.32-.46.53-.65.74v3.81c-.16.16-.29.29-.47.47v2.32c.29.28.55.51.98.92.12-.89.04-1.61.09-2.32.05-.71-.17-1.45.09-2.08.2-.2.33-.33.46-.46Zm-43.58,7.52c-.04.29-.08.54-.1.79-.02.27,0,.54,0,.81s-.01.54,0,.81c.01.25.06.5.08.68.42.32.6.83,1.43.67.13-.16.39-.51.7-.92v-.95c.2-.21.37-.41.55-.6-.1-.44.19-.92-.23-1.29h-2.44Zm238.23,2.44c0-.74,0-1.47,0-2.21,0-.07-.12-.13-.22-.22h-1.23c-.29.31-.54.58-.78.83.51,1.06-1.34,1.9-.15,3.07.83-.39,1.74-.69,2.38-1.47Zm-20.05-3.59c.05-.29.1-.61.21-1.22-.99.42-1.23-.33-1.71-.71v-1.28c-1.35.53,0-1.15-1.17-1.13.23.78-.26,1.34-.43,1.98-.19.71-.27,1.61.16,2.35h2.95Zm-136.31-15.07c-.31-.74.1-1.41-.34-1.98-.02-.02-.12.02-.29.04v1.71c-.28.32-.46.53-.62.71,0,1.24,0,2.43.01,3.63,0,.15.16.3.27.48.44-.47.88-.94,1.36-1.47v-2.69c-.16-.17-.35-.37-.4-.43Zm-13.19,9.6c-.1.1-.21.17-.21.23-.01,1.09,0,2.17,0,3.28-.17.19-.36.38-.54.58.07.42-.18.88.18,1.3.67.09,1.36.22,2.01-.14-.03-.65.16-1.27-.12-1.85l-.41-.41v-1.61c-.5-.32-.47-1-.89-1.38Zm144.73,5.47c-.15-1.02-.8-1.72-.71-2.58-1.01-.56.03-1.76-.83-2.45-.42,1.06,0,2.16-.27,3.18-.13.13-.26.26-.38.38-.05.51-.32,1.04.2,1.47h1.99Zm-228.63-1.58c-.81.57-1.68.69-2.58.23,0-.58.01-1.13-.02-1.67,0-.08-.22-.15-.54-.34,0,.73,0,1.35,0,1.96-.18.2-.37.39-.59.62.05.22.1.47.17.78,1.14,0,2.22.01,3.29-.01.15,0,.29-.17.43-.25-.07-.43.17-.89-.18-1.31Zm210.6,2.68c-.26.26-.51.51-.83.83.06.8-.17,1.68.2,2.6.69-.28,1.34.12,1.77-.19.68-.79-.28-.97-.34-1.67-.27-.36.39-1.07-.27-1.57h-.55Zm-198.8,2.72v-1.91c-.24-.22-.51-.46-.9-.82-.7.18-1.58-.26-2.44.27.04.26.09.5.13.76.49.05.92.1,1.31.14.28.27.54.52.74.72.06.32.11.56.17.84h.99Zm156.45,12.86c-.69,1.36-1.15,2.26-1.56,3.07v1.95c.55-.35,1.06.14,1.56-.36v-4.65Zm72.48-12.54v-1.08c-.75-.4-.4-1.72-1.51-1.82-.05.16-.14.32-.14.48-.01,1.17,0,2.34,0,3.52,0,.07.11.13.21.25h.96c-.44-.71.15-.95.48-1.34Zm-172.91-4.21c-.33-.62.05-1.11-.37-1.51-.68-.07-1.38-.24-1.97.14-.06.32-.11.57-.15.79-.58.1-1.07.18-1.65.28.17.17.23.29.3.29,1.16.01,2.32,0,3.84,0Zm146.71,6.09c.08-.08.2-.14.2-.21.01-1.37.01-2.73,0-4.1,0-.16-.1-.32-.19-.61-.29.04-.6.09-.9.13v2.89c.16.17.34.37.55.6.22.37-.43,1.03.34,1.29ZM6.14,67.44c-.45-.79-.79-1.38-1.16-2.03q0-1.81-.39-2.24c-.06.07-.16.13-.16.2-.01.9,0,1.81,0,2.71-.18.19-.37.39-.59.62.05.22.1.47.15.74h2.14Zm97.27-1.37c-.26.4-.98.68-.35,1.34.66.07,1.35.22,1.99-.15,0-.12.05-.22.02-.29-.39-.92-.95-1.76-1.29-2.7,0-.02-.12,0-.36,0v1.81Zm-72.99-1.95c0-1.7,0-3.16-.01-4.61,0-.09-.22-.17-.33-.25-.5.62.08,1.43-.43,2.11-.07.06-.2.19-.33.3,0,.75,0,1.48,0,2.21,0,.07.11.13.22.25h.88Zm3.56,7.82l.89-.89c-.27-.56.34-1.3-.35-1.93-.22.05-.47.1-.78.16v1.76c-.24.3-.38.48-.6.75.37.07.62.12.84.16Zm241.77-1.2c.34-.31.08-.87.55-1.15.36-.22.28-.59.04-.9-.52-.09-1.04-.31-1.49.17v1.16c.21.17.49.39.9.72Zm-197.47,1.78c.41-.75.23-1.39.23-2s.18-1.24-.14-1.83q-.95.66-.95,1.18c.13.16.34.43.37.47.36.81-.07,1.47.48,2.18Zm186.45-7.2c.32.83-.06,1.48.4,2.17.26-.05.57-.1.97-.18-.27-.71.11-1.36-.32-1.99h-1.05Zm2.92,1.89c.38.39.75.41,1.1-.02.19-.56-.33-.78-.55-1.13q-.01-1.36-.4-1.77c-.05.07-.15.14-.15.21-.01.91,0,1.81,0,2.72Zm-98.72,24.62c.27-.27.52-.52.78-.78,0-.5.33-1.05-.28-1.48-.21.05-.45.1-.69.16-.04.76-.24,1.46.2,2.1Zm-18.79-29.88c.38-1.61.38-2.26,0-3.87-.38,1.61-.38,2.26,0,3.87Zm-93.94,3.25c-.24.83-.53,1.49-.15,2.29.29-.04.6-.09.9-.13v-1.05c-.29-.42-.52-.76-.75-1.1Zm178.55,2.3c.15-.19.26-.26.26-.33.01-1.09.01-2.19,0-3.28,0-.06-.24-.12-.36-.18-.07.09-.17.15-.17.22-.01,1.09-.01,2.19,0,3.28,0,.07.12.13.28.29Zm25.43,4.41c.37-1.59.37-1.73,0-3.32-.37,1.59-.37,1.73,0,3.32Zm-138.77-4.32c.37-.59.19-1.05.27-1.55.15-.13.36-.3.57-.49-.05-.26-.1-.51-.23-1.17-.38.61-.59.96-.89,1.44.04.36-.21,1,.28,1.77Zm98.4-23.89q-.35,1.38,0,2.76.35-1.38,0-2.76Zm33.3,29.86c.23-.78.25-1.45-.02-2.24-.34.06-.65.12-1.1.21.35.3.55.47.69.59.21.49-.29,1.09.43,1.44Zm-2.69-4.93c.09.48.14.73.21,1.09.38-.07.69-.13,1.04-.19-.07-.37-.12-.62-.17-.9h-1.07Zm-189.12,1.79c-.31-.28-.61-.27-.92-.02-.09.52-.3,1.03.16,1.49.25-.49.5-.97.76-1.47Zm144.11-29.39c-.34,2.55-.33,2.55.16,2.57.23-.67.21-1.35-.16-2.57Zm-51,5.44c.95-.09.94-.09.68-.58-.19-.36-.35-.72-.53-1.1-.49.47-.27.99-.15,1.68Zm-65.11,18.63c-.39.89-.39,1.63,0,2.53.39-.89.39-1.63,0-2.53Zm-74.08,10.01q.27-2.06-.15-2.61c-.24.72-.23,1.39.15,2.61Zm189.71-34.03c.24-1.36.23-1.36-.17-1.71-.25.49-.28.98.17,1.71Zm-134.27,27.57c-.51.1-.69.51-.99.76.37.39.74.39,1.13-.05-.04-.22-.09-.46-.14-.71Zm79.43-5.77c-.26,1.3-.26,1.3.12,1.74.3-.49.27-.98-.12-1.74Zm89.62,4.6c.46-.56.46-1.11,0-1.68-.46.56-.46,1.11,0,1.68Zm-164.3,1.5c-.24,1.36-.23,1.36.17,1.71.25-.49.28-.98-.17-1.71Zm176.64-1.75c-.84-.18-.89-.76-1.39-.77-.25.33-.27.63.1,1.03.25-.05.55-.11,1.29-.26Zm-47.56-29.54c-.12,0-.23.01-.35.02-.03.25-.08.49-.09.74,0,.06.13.19.18.18.13-.04.34-.12.35-.2.01-.24-.05-.49-.09-.73ZM17.98,65.31c.36-.5.52-.85-.08-1.08-.3.32-.28.63.08,1.08Zm75.76-2.81c.4-.37.4-.74,0-1.11-.4.37-.4.74,0,1.11Zm91.24-11.61c.4-.37.4-.74,0-1.11-.4.37-.4.74,0,1.11Zm28.2,38.71c-.4.37-.4.74,0,1.11.4-.37.4-.74,0-1.11ZM22.21,67.29c.07.07.14.14.2.2.06-.12.14-.24.17-.37.01-.05-.11-.12-.17-.18-.07.12-.13.24-.2.36Zm54.03,4.82c-.07-.07-.14-.14-.2-.2-.06.12-.14.24-.17.37-.01.05.11.12.17.18.07-.12.13-.24.2-.36Zm155.67-2.88c-.07.07-.14.14-.2.2.12.06.24.14.37.17.05.01.12-.11.18-.17-.12-.07-.24-.13-.36-.2Zm-141.13-6.52c.06.12.13.24.2.36.06-.06.18-.14.17-.18-.03-.13-.11-.25-.17-.37-.06.06-.12.12-.2.2Zm61.22-14.22c-.06-.12-.13-.24-.2-.36-.06.06-.18.14-.17.18.03.13.11.25.17.37.06-.06.12-.12.2-.2ZM1.74,69.5c.07.07.14.14.2.2.06-.12.14-.24.17-.37.01-.05-.11-.12-.17-.18-.07.12-.13.24-.2.36Zm223.8,29.15c-.07-.07-.14-.14-.2-.2-.06.12-.14.24-.17.37-.01.05.11.12.17.18.07-.12.13-.24.2-.36ZM29.23,65.07c-.06-.12-.13-.24-.2-.36-.06.06-.18.14-.17.18.03.13.11.25.17.37.06-.06.12-.12.2-.2Zm176.96-20.46c-.06-.12-.13-.24-.2-.36-.06.06-.18.14-.17.18.03.13.11.25.17.37.06-.06.12-.12.2-.2Zm-2.61,1.5c.06.12.13.24.2.36.06-.06.18-.14.17-.18-.03-.13-.11-.25-.17-.37-.06.06-.12.12-.2.2Z"/><path d="m60.27,144.66v5.39c-.37.63-.63,1.19-1,1.66-.4.5-.9.92-1.41,1.44h-2.2c-.8-.51-1.85-.84-2.68-2.25-.04-.08.39-.86-.4-1.23v-4.46c.12-.14.3-.34.5-.58v-1.03c.66-.91,1.52-1.52,2.84-2h1.31c.5.63,1.4.65,1.96,1.3.48.56.45,1.37,1.08,1.76Zm-1.64,4.38v-3.22c-.7-.95-.97-2.2-2.29-2.62-.67.29-1.02.98-1.58,1.42v1.65c-.19.2-.37.4-.55.59v1.08c.2.22.38.42.57.63v1.45c.52.6.94,1.08,1.32,1.51h1.16l.8-.8v-1.08c.19-.2.38-.4.56-.6Z"/><path d="m217.04,141.9c.56.92.92,1.51,1.35,2.21v1.49c.18.22.35.42.54.65v2.3c-.19.19-.32.32-.47.47v1.49c-.35.62-.56,1.23-.96,1.64-.41.42-1.01.64-1.64,1.02h-2.01c-.53-.3-1.14-.51-1.55-.91-.42-.41-.64-1.01-1.02-1.64v-6.48c.38-.62.78-1.28,1.15-1.88.27-.06.46-.17.6-.11.81.31,1.15-.76,1.98-.61.69.13,1.09,1.18,2.04.36Zm-.28,2.8l-.37.02c-.33-.55-.67-1.09-.92-1.51-.59.03-.94.05-1.33.07-.42.68-.83,1.34-1.21,1.96v4.38c.65.52.56,1.54,1.38,1.91h1.09c.46-.46.91-.91,1.37-1.37v-5.46Z"/><path d="m127.75,150.7c-.31.3-.58.6-.6,1.12-.01.27-.44.67-.74.74-.45.12-.85.22-1.11.62h-2.2c-.49-.73-1.77-.45-1.98-1.56-.13-.67-.86-1.17-.54-1.98-.18-.19-.36-.39-.56-.6v-3.29c.17-.19.36-.38.55-.58v-1.1c.36-.28.55-.62.62-1.11.04-.29.45-.69.74-.74.48-.09.84-.25,1.11-.62h1.66c.5.64,1.38.66,1.96,1.3.5.55.34,1.44,1.1,1.68v6.13Zm-1.66-1.11v-4.28c-.25-.43-.46-.8-.93-1.61.12.12-.14-.14-.39-.39-.44,0-.87,0-.86,0-.81.58-1.32.96-1.66,1.2v5.54c.52.59.94,1.06,1.3,1.47h1.17c.28-.28.53-.53.8-.8v-.53c.19-.2.38-.4.56-.6Z"/><path d="m259.62,141.58c.2.19.4.38.6.57h1.14c.24.34.51.69.75,1.06.18.29.33.6.56,1.04v1.5c.12.12.26.24.37.35.07.18.17.34.17.5.02.64,0,1.28,0,1.89-.2.22-.38.42-.55.61,0,.48,0,.94,0,1.4-.27.53-.55,1.06-.81,1.59-.31.64-1.15.44-1.61,1.09-.7.07-1.5.03-2.17.01-.63-.37-1.23-.59-1.64-1-.41-.41-.62-1.01-.96-1.6v-6.52c.37-.27.53-.64.62-1.11.05-.3.48-.53.75-.79h1.08c.2-.19.4-.38.6-.56h1.08Zm-1.09,9.95h1.11c.44-.45.88-.9,1.31-1.34v-5.29c-.58-.78-.95-1.29-1.25-1.69-.56.02-.92.04-1.18.05-.79.52-.78,1.46-1.37,1.98v4.37c.65.52.57,1.53,1.37,1.92Z"/><path d="m79.06,141.58h1.26c1.29.74,2.74,1.3,3.15,2.97v6.04c-.26.49-.46,1.09-.86,1.51-.4.42-1,.65-1.62,1.04h-2.09c-.6-.49-1.69-.51-2-1.42-.25-.72-.81-1.36-.66-2.2-.8-.62-.43-1.5-.45-2.27-.02-.68-.26-1.41.42-2.03.25-.22.07-.87.24-1.25.24-.54.55-1.09.97-1.51.35-.34.89-.49,1.64-.88Zm2.79,8v-4.38c-.66-.49-.51-1.54-1.39-1.93-.31,0-.67,0-.59,0-.85.57-1.45.97-1.85,1.23v5.37c.57.73.96,1.24,1.28,1.65h1.16c.88-.4.73-1.45,1.39-1.93Z"/><path d="m193.95,142.14c.41.66.77,1.25,1.2,1.95v6.52c-.22.42-.51.94-.77,1.48-.31.65-1.18.39-1.6,1.1h-2.25q-1.51-.99-2.46-2.49v-2.16c-.22-.22-.35-.35-.54-.54v-1.23c.13-.13.26-.26.44-.44v-2.03c.44-.74.84-1.41,1.24-2.08.86.03,1.53-.39,2.26-.63.31-.1.69-.07.99.24.16.17.45.22.7.28.17.04.36,0,.79,0Zm-1.79,1.11h-1.09c-.81.38-.72,1.4-1.33,1.88v4.74c.58.79.95,1.3,1.25,1.7.57-.03.92-.04,1.31-.06.42-.68.83-1.33,1.23-1.96v-4.38c-.65-.52-.57-1.53-1.37-1.92Z"/><path d="m141.56,147.96v3.28c-.48.49-.92.95-1.38,1.41-.55-.17-.82.26-1.09.52h-3.14c-.64-.33-1.1-.57-1.56-.8v-1.1c.53-.61.92-.21,1.34.23h2.89c.3-.37.7-.87,1.27-1.59,0-.03.02-.38.03-.7-.26-.83-1.16-.78-1.63-1.26-.63-.64-1.42-.04-2.15-.42-.04-.19-.09-.44-.13-.66.44-.68,1.3.02,1.73-.62.36-.54,1.04-.05,1.55-.39v-1.84c-.25-.26-.51-.53-.75-.78h-2.21c-.21.19-.4.38-.58.53h-1.11c-.54-.48-.05-1.01-.39-1.58h1.88c.24-.18.44-.34.72-.55.69-.02,1.48-.32,2.18.38.19.19.69.09,1.26.14.26.38.63.9,1.23,1.77v1.91c-.27.19-.72.5-1.18.82.5.53.87.92,1.21,1.28Z"/><path d="m66.93,143.72v-1.33c.52-.55,1.53.12,1.89-.79h2.23c.17.16.37.35.58.54h1.09c.81.39.81,1.34,1.33,1.95.2.23.3.95-.12,1.24-.46.31-.21.86-.56,1.16-.13.11-.21.26-.27.32.3.56.58,1.09.97,1.83v2.75c-.33.24-.84.61-1.36.99-.37.47-1.18-.04-1.56.78h-2.72c-.42-.21-.88-.44-1.4-.7-.23-.34-.06-.79-.06-1.29.23-.07.47-.14.71-.21.23.21.43.39.64.59h2.78c.41-.44.85-.91,1.34-1.44v-1c-.32-.84-1.36-.73-1.87-1.38-.61-.03-1.22-.07-1.89-.1-.03-.32-.06-.57-.08-.79.41-.44,1.01-.05,1.3-.29.42-.36.94-.44,1.37-.72.23-.15.4-.38.62-.6v-1.11c-.4-.21-.84-.44-1.48-.78-.54-.02-1.35-.36-2.02.39-.09.1-.33.09-.51.09-.26,0-.52-.04-.93-.07Z"/><path d="m205.9,142.18h1.83c.08.21.19.36.19.52.01,1.93,0,3.86,0,5.9.49.09,1,.19,1.5.28.34.41.04.88.21,1.4-.58.09-1.08.17-1.66.27-.03.64-.07,1.26-.1,1.86-.4.43-.89.14-1.31.23-.1-.14-.28-.27-.29-.41-.03-.54-.01-1.08-.01-1.53-.16-.15-.22-.23-.29-.26-.08-.03-.18,0-.27,0h-4.14c-.56-.54-.16-1.22-.27-1.82.23-.67,1.12-.84,1.16-1.75.03-.54,1.01-.72,1.06-1.48.06-.76,1.22-.86,1.1-1.75.42-.47.84-.95,1.28-1.45Zm.11,2.18c-.64,1.02-.93,2.25-1.95,3.03.5.59-.76.76-.31,1.38.72,0,1.45,0,2.18,0,.07,0,.14-.09.28-.19,0-1.31,0-2.66,0-4.02,0-.07-.12-.13-.19-.2Z"/><path d="m275.39,148.69c.62.07,1.06.12,1.47.16.35.44.13.9.18,1.44-.5.08-1,.17-1.58.26-.04.63-.07,1.25-.1,1.86-.38.43-.87.14-1.3.23-.71-.56-.06-1.39-.38-2-.08-.08-.14-.21-.21-.21-1.47-.01-2.94,0-4.42,0-.57-.53-.17-1.21-.29-1.86.59-.52,1.2-1.07,1.67-1.49v-.87c.9-.37.9-1.48,1.58-2.03.65-.53.64-1.48,1.44-1.99h1.76c.08.19.19.35.19.51.01,1.93,0,3.86,0,5.99Zm-1.93-3.84c-.39.53-.88.77-.91,1.45-.01.34-.66.61-.91.99-.26.4-.39.88-.59,1.37.43.22.89.12,1.33.1.43-.01.92.2,1.34-.26,0-1.06,0-2.16,0-3.25,0-.07-.09-.14-.26-.4Z"/><path d="m279.54,142.14h5.66c.05.29.11.6.17.93-.82.35-1.55.12-2.27.17-.64.04-1.28,0-1.95,0-.35.69-.26,1.38-.12,2.1.73.24,1.47.04,2.17.11.46.24.91.47,1.59.82.21.21.6.6,1.05,1.05v3.99c-.37.32-.92.79-1.56,1.35h-.89c-.15.15-.28.28-.47.47h-2.75c-.43-.24-.94-.52-1.45-.8v-1.09c.37-.47.87-.14,1.28-.3.23.2.43.38.65.58h1.54c.43-.24.79-.45,1.57-.89-.08.08.18-.18.46-.46v-1.73c-.41-.36-.89-.79-1.48-1.3h-2.08c-.32.14-.51.73-1.08.52-.45-.37-.48-3.62-.04-5.53Z"/><path d="m145.97,145.41h2.28c.62.34,1.23.55,1.65.95.42.4.65,1,1.04,1.63v2.66c-.36.59-.76,1.26-1.16,1.91-.5.06-.94.11-1.35.15-.15.15-.28.28-.45.45h-2.68c-.44-.22-.89-.45-1.41-.71-.22-.35-.07-.8-.05-1.31.23-.06.47-.13.71-.2.23.21.43.4.64.59h2.19c.71-.68,1.39-1.39,1.95-1.93,0-.37.04-.5,0-.54-.64-.66-1.28-1.31-1.91-1.94h-2.22c-.2.19-.4.38-.63.59-.23-.06-.48-.13-.79-.22.23-.26.39-.45.59-.67,0-1.43,0-2.89,0-4.36,0-.07.1-.14.2-.27h5.19c.06.24.12.49.17.71-.09.11-.15.23-.21.23-1.17.07-2.34.12-3.49.17-.39.61-.13,1.26-.23,2.11Z"/><path d="m197.37,151.03h2.04c.41.43.13.91.23,1.34-.62.64-1.36.05-1.92.31-.48-.5-.2-.98-.35-1.64Z"/><path d="m132.12,150.96v1.48c-.63.39-1.27.13-1.88.2-.52-.43-.26-.97-.19-1.48.58-.36,1.22-.11,2.07-.2Z"/><path d="m265.49,152.69v-1.49c.43-.4.91-.13,1.33-.22.5.44.26.97.18,1.48-.39.36-.86.09-1.51.23Z"/><path d="m62.56,150.98h1.3c.6.41.08.99.32,1.35-.49.5-.98.21-1.4.31-.65-.55-.12-1.11-.22-1.66Z"/><path d="m108.39,126.1v.83c-.53.56-1.21.16-1.88.29-.24-.22-.5-.46-.85-.78v-2.74c-.37-.39-.62-.66-.83-.9-.77-.21-.93.53-1.37.71-.12,1.24.05,2.42-.11,3.63-.34.02-.59.03-.8.04-.11-.11-.23-.17-.23-.24-.01-1.29,0-2.58,0-3.86-.19-.21-.38-.4-.61-.66.34-.87.67-1.76,1.45-2.4h1.79c.05.3.1.61.15.97-.64.1-1.14.18-1.76.27.71.72,1.44.22,2.13.5.09-.39.14-.64.24-1.05.21-.04.52-.1.9-.17.08.37.13.63.21,1,.43.07.94.16,1.5.26.02.26.05.51.08.86-.55.08-1.05.16-1.6.24v2.98c.51.39,1.08.14,1.6.21Z"/><path d="m23.18,110.24v1.29c-2.38.26-10.91.27-13.72.02v-1.29c2.38-.26,10.91-.27,13.72-.02Z"/><path d="m66.76,122.81h-1.22c-.2.19-.47.44-.81.76v3.48c-.32.07-.57.13-.81.18-.12-.17-.31-.31-.31-.45-.02-1.64-.01-3.28-.01-4.92.75-.4,1.49-.13,2.2-.19.64-.05,1.28-.01,1.92-.01.28.79,1.02,1.43.83,2.52.23.25.51.55.79.86.53-.5.24-.99.34-1.41.18-.2.37-.39.56-.6v-1.09c.46-.48.98-.27,1.57-.14.02.23.14.64.04.7-.52.32-.35,1.03-.77,1.34-.62.46.06,1.28-.57,1.7-.57.38-.05,1.05-.4,1.51-.38.33-.85.02-1.24.16-.3-.3-.56-.56-.82-.82.12-1.41-1.06-2.32-1.29-3.59Z"/><path d="m23.29,124.4h-13.65c-.42-.43-.13-.91-.23-1.34.15-.09.29-.26.44-.26,4.4-.01,8.8-.01,13.12-.01.46.47.17.95.33,1.62Z"/><path d="m82.22,127.11c-.53.31-.83-.05-1.17-.42-.19.16-.37.31-.6.5h-1.7c-.35-.41-.77-.89-1.3-1.49v-2.75c.36-.28.86-.67,1.63-1.26h1.92c.48-.47.19-.96.32-1.52.25-.05.56-.11.8-.16.15.17.26.24.26.31,0,2.2,0,4.39,0,6.59,0,.07-.11.13-.17.2Zm-2.43-4.4c-.25.13-.69.28-.67.35.1.56-.32.81-.58,1.16-.04.06,0,.18,0,.39.1.13.3.32.41.54.15.3.23.64.34.95h.66c.22-.24.47-.51.74-.81v-1.76c-.32-.3-.58-.54-.89-.82Z"/><path d="m31.53,123.93h-1.94c-.18.16-.44.41-.79.73v2.29c-.25.12-.4.2-.56.25-.08.03-.18,0-.27,0-.1-.14-.29-.27-.29-.41-.02-2.01-.01-4.03-.01-6.1.32-.06.57-.11.8-.16.69.62.03,1.45.5,2.21.71.07,1.52.03,2.32,0,.61-.6-.06-1.43.44-2.12h1.26c.31.31.34,3.13.04,6.51h-1.28c-.08-.19-.19-.34-.19-.5-.02-.83,0-1.66,0-2.72Z"/><path d="m61.94,113.79v-4.54c.33-.47.82-.27,1.25-.28,1-.02,2,0,2.97,0,.24.92,1.01,1.57.79,2.59.24.07.49.14.69.2.72-.37.2-1.03.46-1.48.26-.44.52-.88.78-1.31h1.14c.21.6-.44.98-.39,1.61.04.52-.33,1.17-.71,1.59-.45.49-.25,1.01-.36,1.52-.06.06-.12.18-.2.19-.62.08-1.24.18-1.89-.08-.02-1.43-.96-2.5-1.5-3.71h-1.1c-.27.27-.53.53-.89.89v3c-.43-.07-.74-.13-1.04-.18Z"/><path d="m145.73,121.68h1.71c.1-.3.21-.62.34-1.01.21-.03.46-.07.77-.12.12.35.23.67.37,1.07.4.04.84.07,1.34.12.06.22.13.47.2.71-.66.32-1.31.58-1.69,1.19v1.65c.27.27.53.53.79.79.18.01.36.02.53.03.38.22.4.54.25.92-.57.4-1.23.11-1.86.19-.24-.25-.49-.52-.85-.9v-3.31c-.5-.35-.95-.17-1.38-.18-.83.38-.7,1.42-1.35,1.92v2.33c-.3.05-.61.09-.86.13-.14-.19-.24-.26-.24-.33,0-1.65,0-3.3,0-4.92.61-.65.97-.14,1.36.26.19-.18.38-.35.58-.53Z"/><path d="m160.93,127.16h-3.59c-.76-.24-.75-1.22-1.24-1.81-.32-.38-.32-1.04.15-1.46.42-.38.2-.85.29-1.37.18-.2.43-.46.75-.81h2.23c.51-.47.22-.96.35-1.53.24-.05.55-.12.79-.17.16.17.27.24.27.3,0,2.21,0,4.41,0,6.86Zm-3.32-3.55v1.66c.42.31.64.93,1.28.84.48-.16.29-.62.46-.89.19-.29.56-.48.47-.89-.3-.52-.59-1.03-.88-1.54-.69-.1-.91.52-1.33.83Z"/><path d="m138.25,125.73v-2.77c.36-.24.89-.6,1.42-.95.23-.47.7-.29,1.14-.32.36-.03.72,0,.94,0,.55.55,1,1,1.46,1.46v1.65c-1.02.5-2.15-.06-3.23.35-.02.25-.04.5-.05.74.62.44,1.28.14,1.89.23.2-.18.4-.37.59-.55h.62c.08.23.16.47.25.73-.27.29-.52.55-.81.86h-2.97c-.2-.34-.54-.89-.87-1.44-.13,0-.25.02-.38.02Zm3.04-1.84c.42-.95.39-1-.61-1.11-.1.39-.67.44-.68.93.41.34.87.09,1.29.18Z"/><path d="m108.39,125.94v-2.31c.18-.2.37-.4.56-.6v-.53c.46-.24.92-.47,1.56-.8h1.53c.35.4.76.88,1.27,1.48v1.73c-1.08.2-2.17,0-3.63.17.66.49.99.74,1.36,1.03h.76q1.35-.38,1.56.02c-.07.15-.11.33-.21.46-.17.21-.38.39-.6.61h-2.73c-.44-.38-.9-.78-1.44-1.25Zm1.55-2.36c.67.42,1.16.39,1.77.09-.04-.27-.09-.58-.13-.87-.3,0-.48,0-.08,0-.75.38-1.13.57-1.55.79Z"/><path d="m76.87,123.06c0,.55,0,1.1,0,1.65-.14.09-.29.26-.43.27-.91.03-1.81.01-2.63.01-.13.17-.23.28-.22.29.25.27.51.53.79.8h1.1c.34-.23.56-.74,1.2-.51.07.19.16.43.26.7-.26.29-.51.55-.8.87h-2.11c-.59-.26-.98-.43-1.39-.61-.19-.44-.28-.98-.72-1.32,0-.46,0-.92,0-1.38.23-.45.47-.91.78-1.51.08-.02.33-.07.65-.15.14-.13.34-.31.53-.49h1.65c.46.46.92.92,1.37,1.37Zm-3.48.65q1.84.2,2.28-.2c-.36-.23-.49-.76-1.32-.71-.2.05-.4.5-.96.91Z"/><path d="m51.2,127.19h-2.82c-.08-.08-.16-.13-.2-.21-.04-.07-.06-.17-.06-.25,0-2.19,0-4.38,0-6.61.37-.04.62-.07.98-.11.08.54.16,1.05.25,1.62.65.03,1.27.06,1.85.09.43.43.82.82,1.27,1.27.2.91-.02,1.9.09,2.71-.54.6-.97,1.07-1.36,1.49Zm.22-3.64c-.43-.16-.55-.89-1.34-.75-.27.25-.59.55-.83.76v1.76c.4.25.54.81,1.34.78.26-.06.46-.52.82-.79v-1.75Z"/><path d="m118.35,127.16h-3.16c-.25-.34-.63-.85-1.2-1.62v-2.61c.31-.21.83-.58,1.77-1.22.04,0,.65-.04,1.27-.07.45-.37.08-.88.5-1.74-.05.08.27.05.62.2.08.08.21.14.21.2,0,2.21,0,4.41,0,6.86Zm-2.49-1.06c.82,0,.96-.55,1.42-.83-.16-.56.14-1.2-.18-1.81-.35-.26-.52-.79-1.38-.63-.13.16-.4.5-.66.82v1.64c.28.29.55.55.81.81Z"/><path d="m78.82,113.93c-.2.19-.4.38-.64.6-.89-.32-1.78-.66-2.42-1.43v-2.76c.45-.45.91-.9,1.37-1.36.6-.11,1.24.13,1.87-.19.05-.43.1-.86.15-1.37.24-.05.49-.1.71-.15.4.38.43,1.57.23,6.45-.07.08-.13.2-.2.21-.37.02-.73,0-1.09,0Zm-1.94-3.04v1.11c.45.44.91.89,1.31,1.29.35-.24.71-.49.85-.6v-1.88c-.41-.27-.56-.82-1.14-.76-.48.09-.66.57-1.02.83Z"/><path d="m49.39,114.49c-.51-.03-1.02.1-1.48-.42-.22-.25-.83-.15-1.24-.21-.08-.09-.17-.14-.2-.22-.03-.08,0-.18,0-.27v-5.92c.29-.05.61-.11,1.06-.18.03.58.05,1.01.07,1.45.07.07.13.19.2.19.73.01,1.46,0,2.2,0,.25.48.48.92.84,1.59v2.67c-.38.35-.9.83-1.44,1.32Zm-.76-4.68c-.42.52-.7.87-1.04,1.29v1.47c.65.66.66.66,1.38.82.23-.26.48-.53.75-.82v-1.76c-.32-.3-.58-.54-1.09-1Z"/><path d="m94.01,120.07h.89c.41.42.12.91.24,1.4.73.4,1.56.12,2.44.22.2.18.46.42.85.78,0,.69,0,1.5,0,2.31,0,.73,0,1.46,0,2.16-.19.1-.34.23-.49.24-.16.01-.32-.09-.58-.16v-3.36c-.35-.37-.61-.63-.86-.89-.46.46-.92.92-1.37,1.37-.08.98.09,1.98-.11,3h-.81c-.08-.19-.19-.34-.2-.5-.01-2.18,0-4.36,0-6.58Z"/><path d="m152.08,125.27c.26.26.52.52.8.8h1.66c.15-.13.35-.3.6-.52.1.21.2.42.4.84-.36.21-.75.44-1.39.82h-1.61c-.6-.31-1.05-.55-1.54-.8v-3.44c.37-.26.9-.62,1.77-1.23h1.14c.37.19.82.42,1.46.74.21.23-.03.71.02,1.14.04.36,0,.73,0,1.09-.14.1-.28.27-.42.27-.82.03-1.64,0-2.46.03-.15,0-.29.17-.43.26Zm.19-1.51c.54.25,1.27.21,2.31-.16-.75-.2-.82-.93-1.67-.8-.16.25-.41.61-.64.96Z"/><path d="m43.97,108.96l1.37,1.37v2.73c-.42.85-1.36,1-2.09,1.41-.85.48-1.34-.73-2.27-.54-.03-.54-.06-.97-.08-1.4-.13-.13-.26-.26-.45-.45-.02-.19-.12-.46-.06-.7.23-.83.51-1.64.73-1.83.53-.46.6-.57.66-.57.73-.01,1.46,0,2.19,0Zm-1.14,4.36c.51-.47.98-.9,1.4-1.28v-1.16c-.42-.33-.66-.92-.74-.9-.82.48-1.21.7-1.41.82v1.83c.3.28.55.51.75.7Z"/><path d="m72.73,113.28c1.01.62,1.38-.61,2.21-.44.09.17.21.39.29.55-.04.17-.04.29-.09.33-.41.31-1.05.24-1.33.76h-1.08c-.22-.2-.42-.38-.63-.57h-1.06c-.25-.49-.49-.94-.8-1.54,0-.37,0-.92,0-1.47.64-.51.56-1.53,1.39-1.93h2.74c.27.86,1.21,1.54.68,2.69-.94.18-1.94-.02-3,.13-.06.22-.13.47-.21.76.29.24.57.47.89.74Zm.9-2.16c-.09-.49-.14-.73-.19-.96-.59-.08-1.12-.33-1.59.21.04.22.09.47.15.75h1.63Z"/><path d="m61.66,127.21h-2.21c-.45-.46-.91-.91-1.37-1.38v-2.79c.44-.42.9-.86,1.41-1.34h1.58c.31.46.89.49,1.36.75v2.43c-1.07.37-2.2-.14-3.29.34.28.3.51.55.79.84h1.71c.11-.09.31-.26.52-.42q.45.58-.5,1.58Zm-.23-3.54c-.46-.34-.62-.98-1.55-.85-.12.18-.37.54-.62.91.65.27,1.37.27,2.16-.06Z"/><path d="m42.63,126.29v-3.86c.52-.23,1.05-.31,1.38-.74h1.59c.5.48.96.92,1.41,1.35,0,.95,0,1.86,0,2.78-.45.45-.91.91-1.37,1.37h-2.27c-.19-.23-.42-.51-.74-.91Zm3.27-1.02v-1.72c-.45-.2-.61-.9-1.31-.77-.35.28-.69.56-.86.69v1.87c.41.27.56.82,1.14.76.49-.08.66-.57,1.03-.83Z"/><path d="m57.2,108.96h2.81c.26.26.52.52.76.76v1.95h-3.04c-.1.31-.17.55-.25.8.27.28.51.54.76.8.52.1,1.05.32,1.49-.17.28-.31.58-.37,1.02-.14.03.19.08.44.12.66-.36.5-1.13.18-1.35.81-.43-.03-1.01.1-1.26-.12-.53-.48-1.45-.32-1.83-1.36,0-.75.03-1.74-.01-2.73-.03-.56.4-.76.8-1.26Zm.4,2.04c.58.34,1.21.11,1.81.15.08,0,.17-.21.25-.33-.37-.23-.5-.77-1.28-.76-.14.26-.65.39-.78.94Z"/><path d="m90.97,123.89h1.09c.21.19.39.42.62.54.22.11.49.11.75.16v1.82c-.16.07-.39.14-.61.25-.23.12-.45.27-.82.5h-2.06c-.39-.32-.68-.55-.91-.74.02-.27.03-.45.05-.7.22-.07.47-.14.7-.21.23.21.43.39.65.59h1.21c.06-.28.12-.58.17-.82-.49-.46-.98-.17-1.4-.29-.26-.26-.52-.52-.8-.8v-1.73c.21-.17.5-.4.9-.72h2.19c.38.45.14.92.2,1.36-.47.53-.48-.32-.54-.29h-1.35c-.45.34-.41.71-.02,1.09Z"/><path d="m54.5,126.09h1.24c.04-.3.08-.62.14-1.03-.48-.03-.83-.06-1.36-.1-.52-.25-.88-.91-1.45-1.38,0-.96.95-1.24,1.4-1.9.72,0,1.45,0,2.17,0,.07,0,.14.1.27.2v1.25q-.52-.09-.79-.34h-1.23c-.05.29-.1.61-.17,1.03h1.37c.5.65,1.19,1,1.5,1.72-.29.74-1,1.07-1.43,1.65h-2.21c-.31-.26-.65-.54-.89-.74.06-.37.09-.54.12-.71.65-.63.93.11,1.32.35Z"/><path d="m128.85,127.15h-.89c-.1-.12-.21-.19-.21-.26,0-1.65,0-3.3,0-4.95.55-.54.96-.27,1.32.28.22-.19.41-.36.62-.54h1.69c.19.23.42.51.74.9v4.51c-.29.05-.54.09-.76.13-.1-.1-.22-.16-.22-.23-.01-1.09,0-2.18,0-3.42-.28-.25-.61-.55-.85-.77-.81-.12-1.02.51-1.43.82v3.53Z"/><path d="m51.68,112.65c.46.27.83.48,1.24.71h1.09c.08-.24.15-.48.23-.72-.9-.71-2.16-.79-2.79-1.78v-1.1l.81-.81c.91,0,1.83,0,2.74,0,.07,0,.13.11.25.21v.68c-.68.4-1.45.06-2.28.31.36.39.59.64.84.91.42.05.85.1,1.27.15.08.08.2.14.2.21.01.73,0,1.47,0,2.23-.36.18-.74.38-1.12.56-.74.36-.87.34-1.69-.07-.3-.15-.63-.26-.94-.39-.04-.08-.12-.16-.1-.23.05-.25.13-.49.24-.89Z"/><path d="m133.83,125.26v-.83c-.44-.9-.8-1.58-1.08-2.29-.04-.11.26-.35.37-.5.95.18,1.21.82,1.38,1.52.78.36.21,1.18.58,1.69.06.03.17.09.19.07.27-.25.53-.5.78-.74v-.94c.31-.6.55-1.06.81-1.56.22.02.47.05.7.07.16.57.37,1.13-.12,1.54-.52.44-.02,1.16-.4,1.48-.53.45-.42.96-.46,1.71-.2.18-.53.47-.78.69h-1.18c-.47-.39-.1-.9-.39-1.48-.04-.04-.22-.24-.41-.44Z"/><path d="m34.29,109.04c-.63-.07-1.06-.12-1.48-.17-.57-.87.33-1.09.64-1.57h1.65c.09.13.28.27.28.41.02,1.65.01,3.29.01,4.84.48.49.98.1,1.56.44.02.15.06.46.1.71-.2.13-.27.22-.34.22-1.28,0-2.57,0-3.91,0-.08-.28-.14-.53-.2-.73.38-.69,1.05-.17,1.49-.45.07-.07.19-.13.19-.2.01-1.11,0-2.21,0-3.51Z"/><path d="m37.06,120.85v4.53c.46.3.96.62,1.6,1.03,0,.08.02.33.04.55-.42.43-.9.2-1.34.23-.55.04-1.11.04-1.66,0-.44-.03-.91.18-1.36-.19v-.68c.43-.44.93-.05,1.49-.38-.08.08.04.01.05-.05.01-1.36,0-2.71,0-4.14-.49-.04-.93-.08-1.37-.12-.34-.29-.26-.61-.1-.98.84,0,1.64,0,2.45,0,.07,0,.13.12.2.19Z"/><path d="m27.7,113.93v-6.51c.27-.06.52-.11.74-.16.1.1.22.16.22.22.06,1.72.1,3.43.15,5.2,1.04.41,2.16-.11,3.22.29v.74c-.11.1-.18.22-.25.22-1.28.01-2.56,0-4.09,0Z"/><path d="m86.27,126.36c0-1.51,0-2.87,0-4.24.53-.67.59-1.66,1.46-2.09.59.12.98.54.74.75-.56.48-.42,1.37-1.09,1.75v3.16c.22.39.39.69.55.99.19.38.42.75.53,1.15.04.14-.24.37-.33.51-1.25-.11-1.14-1.32-1.85-1.97Z"/><path d="m162.58,126.92c0-.36,0-.72,0-1.09.19-.2.37-.39.55-.59,0-.92,0-1.83,0-2.74-.68-.38-.51-1.3-1.1-1.74-.04-.03-.04-.2,0-.26.12-.19.27-.37.37-.5,1.25.13,1.12,1.35,1.8,1.92v3.83c-.24.47-.92.87-.35,1.66-.38.36-.7.66-.96.91-.3-.03-.47-.05-.72-.08-.06-.22-.12-.47-.18-.7.22-.23.4-.42.59-.63Z"/><path d="m125.58,127.29v-5.5c.28-.06.53-.11.75-.15.1.1.22.16.22.23.01,1.71,0,3.43,0,5.23-.24.05-.49.1-.98.2Z"/><path d="m101.2,127.15h-.89c-.1-.12-.2-.19-.21-.26,0-1.65,0-3.29,0-5.07.29-.05.6-.11.85-.15.15.18.25.25.25.32,0,1.65,0,3.29,0,5.16Z"/><path d="m121.11,127.48c-.25.25-.51.51-.85.85-.24-.06-.54-.14-.75-.19-.21-.69.23-.94.5-1.24v-1.23c.3-.04.61-.09.89-.13.36.7.15,1.33.21,1.94Z"/><path d="m126.37,121.12h-.67c-.06-.28-.12-.59-.2-.97.36-.07.61-.12.82-.17.46.39.44.76.05,1.14Z"/><path d="m100.93,121.12h-.67c-.06-.28-.12-.59-.2-.97.36-.07.61-.12.82-.17.46.39.44.76.05,1.14Z"/></g></svg>