<?xml version="1.0" encoding="UTF-8"?><svg id="Layer_2" xmlns="http://www.w3.org/2000/svg" viewBox="0 0 282.9 34.09"><g id="Capa_1"><path d="m85.48,33.37c-.21-.14-.45-.3-.8-.53l-1.33-.03c-.14.12-.31.27-.51.43"/><path d="m25.78,32.25c.19-.49-.27-.69-.44-.98l.05-2.38c.13-.12.24-.23.42-.4.01-.64.03-1.33.04-2.02-.11-.12-.22-.23-.37-.39.07-3.04.13-6.12.2-9.17.39-.32.79-.11,1.17-.15.07.13.21.26.2.39-.02,1.67-.06,3.34-.1,5.04.13.16.28.34.47.55-.06,2.56-.11,5.16-.17,7.81l.78.02c.07-.16.17-.29.18-.43.03-.56.03-1.11.05-1.78.26-.04.53-.07.91-.13.01.66.03,1.19.04,1.73.22.23.44.46.67.7h.47c.08-.1.24-.22.25-.35.06-2.31.11-4.61.16-6.97-.12-.15-.26-.33-.44-.56.01-.57.03-1.2.04-1.9.17-.17.39-.39.65-.66l1.06.02c.08.09.18.15.18.21-.01,1.11-.04,2.23-.07,3.33-.12.12-.24.23-.37.35-.25.5-.13,1.05-.12,1.58.11.12.22.23.41.43-.03,1.4-.06,2.89-.09,4.3.63.66.89.03,1.23-.18l.96.02c.28.28.5.67,1.05.37,0,0,.1-.05.1-.1.04-1.43.07-2.86.1-4.27.18-.19.34-.36.51-.52.19-.49-.29-.68-.47-1.04.02-1.07.05-2.18.07-3.24-.17-.21-.32-.39-.44-.54-.08-.65.48-.79.76-1.12l.95.02c.2.41.4.81.66,1.35l-.05,2.22c-.1.1-.21.22-.33.33-.05.13-.15.27-.15.41-.04,1.19-.06,2.38-.08,3.54.17.2.33.38.45.52.18.54-.38.67-.51,1.11.22.46.47.99.7,1.48.54.21.71-.32,1.18-.48.32.1.74.22,1.34.4.03-.1.12-.41.2-.72.09.09.19.19.28.28.04-.06.11-.12.12-.19.02-.16.01-.32.02-.48.03-1.58.07-3.17.1-4.71-.16-.16-.27-.28-.42-.44.02-1.05.05-2.16.08-3.51.32-.22.83-.55,1.33-.89.07.08.24.25.4.42.05.06.13.12.13.18.02.16,0,.32,0,.48-.07,3.18-.14,6.36-.21,9.59.21.07.42.15.64.22.37-.34.72-.65,1.16-1.05.27.38.55.77.77,1.08.3-.04.45-.06.6-.08.06-.06.16-.11.17-.17.08-3.5.16-7,.24-10.5.4-.43.85-.22,1.29-.12.05.06.11.12.13.18.02.07,0,.16,0,.24-.06,2.62-.11,5.24-.17,7.84l.44.46c-.01.61-.03,1.3-.05,2.09.72.03.79-.75,1.32-.81.66-.08,1.07,1.04,1.89.42.06-.05.17-.11.17-.16.07-2.86.13-5.73.19-8.59-.11-.11-.22-.23-.33-.34-.04-.14-.12-.28-.12-.42.02-1.19.05-2.38.07-3.55.35-.22.49-.68.85-.68.6-.03.66.52,1.04.64-.09,4.33-.19,8.62-.28,12.93.21.23.42.47.67.74.66.01,1.35.03,2.02.04.2-.19.37-.36.55-.52.05-.06.12-.12.13-.18.02-.16.01-.32.02-.48.04-1.75.08-3.49.11-5.2-.14-.15-.25-.26-.41-.43.03-1.28.06-2.6.08-3.86.25-.28.47-.51.64-.71.64-.09.85.42,1.2.72l-.05,2.36c.16.19.31.36.47.53-.11.11-.23.22-.35.33-.05.14-.13.28-.13.42-.04,1.51-.07,3.01-.1,4.48l.42.44c0,.41-.02.88-.03,1.54.23.16.55.38,1.03.72.57.09,1.19-.39,1.87-.69-.04-.7.86-1.15.53-1.91-.17-.19-.32-.37-.54-.62.13-.24.27-.5.56-1.03.06-.23.21-.76-.4-1.18.04-1.72.08-3.46.12-5.42.15-.13.43-.39.65-.59.44.02.72.02.77.48.03.27.26.53.45.88-.03,1.48-.07,3.07-.1,4.65l.34.35c.19.54.25,1.06-.34,1.49-.02.81-.04,1.67-.05,2.49l.53.56c.42.25.9.11,1.36.15.39.03.79.02,1.15.03.09-.09.16-.13.2-.2.04-.06.04-.15.04-.22.08-3.42.15-6.84.23-10.26,0-.06.08-.12.17-.23l1.08.02c.39.31-.14,1.09.65,1.05-.07,3.31-.14,6.49-.21,9.66.39.43.9.19,1.35.25.46.05.92.03,1.31.04.12-.18.18-.24.2-.3.02-.07,0-.16,0-.24v-.24c.08-3.26.15-6.52.22-9.79,0-.07.03-.15.04-.18.24-.25.47-.47.63-.64.43.23.82.44,1.22.66-.07,3.33-.15,6.67-.22,10.08.21.18.45.38.8.66.54.01,1.23.03,2.01.04l.04-2.04.49-.47c.05-2.07.09-4.19.14-6.32l-.37-.38c.03-1.37.06-2.79.1-4.47.14-.1.45-.33.75-.55l.91.02c.07.15.19.29.19.42-.05,2.63-.11,5.25-.16,7.89.15.17.3.34.46.52-.03,1.58-.07,3.17-.1,4.76.36.48.88.2,1.33.26.46.06.93.03,1.31.04.13-.15.2-.2.22-.27.03-.07,0-.16.01-.24.07-3.26.14-6.52.21-9.75.26-.24.49-.46.74-.71.36.41.73.82,1.16,1.3-.07,3.08-.14,6.26-.2,9.43,0,.06.09.12.17.23.97.02,1.98.04,2.97.06.08-.08.16-.12.19-.19.03-.07,0-.16.01-.24.03-1.35.06-2.71.09-4.06-.11-.11-.22-.23-.33-.34-.04-.14-.13-.28-.12-.42.03-1.67.07-3.33.1-4.97l.73-.69,1,.02c.08.25.12.56.28.79.17.26.45.44.34.86-.12.13-.28.3-.46.5,0,.44-.02.92-.03,1.42.14.16.3.33.46.51-.05,2.22-.1,4.45-.15,6.68.37.46.89.2,1.33.25.46.06.93.03,1.31.04.13-.16.19-.21.21-.28.02-.07,0-.16.01-.24.07-3.42.15-6.83.22-10.22l.73-.7h.48c.19.4.38.79.72,1.48-.07,3.08-.14,6.48-.21,9.82.14.1.21.17.27.18.79.03,1.58.04,2.33.06.41-.45.2-.95.25-1.4.04-.39.02-.79.03-1.19.11-.11.21-.23.33-.35.36-.48.02-1.06.23-1.53-.16-.17-.27-.28-.38-.4-.04-.14-.12-.28-.12-.43.03-1.67.07-3.33.1-4.77.32-.58.53-.97.74-1.37h.47c.63.4.76,1.13,1.08,1.77-.08.09-.24.25-.39.41-.02.96-.04,1.91-.06,2.85.16.19.32.37.45.51.18.54-.37.67-.53,1.15.1.18.24.44.51.93l-.08,3.66c.14.12.2.21.26.21.79.03,1.58.04,2.35.06.09-.08.16-.13.2-.19.04-.06.05-.14.05-.22.1-4.54.2-9.07.3-13.64.2-.2.42-.42.72-.73.2.2.39.4.6.61.23.52.06,1.07.07,1.61.01.56-.02,1.11-.03,1.67l-.04,1.61.45.47c-.06,2.68-.12,5.44-.18,8.12.25.26.41.43.58.6.51.32,1.07.04,1.54.2l.76-.72c.07-3.18.14-6.36.2-9.37.29-.53.5-.92.71-1.31.14-.01.29-.03.48-.05.2.2.43.42.69.68-.05,2.5-.11,5.03-.16,7.57.16.2.29.38.48.62-.01.56-.03,1.18-.04,1.83.21.24.42.47.66.75l1.49.03c.29-.24.53-.44.76-.63.08-3.55.15-7.04.23-10.53l.74-.71c.19.24.38.49.7.89-.04,1.93-.09,4.05-.13,6.09.19.2.3.32.44.46-.03,1.3-.06,2.63-.09,4.01.99.02,1.84.04,2.68.06.07-.07.15-.11.18-.18.03-.07.01-.16.02-.23.07-3.26.14-6.52.21-9.8.23-.21.46-.43.7-.65.36-.02.75-.13,1.19.15l-.22,10.02c.31.35.52.58.71.8l2.42.05c.34-1.48.44-4.34.29-7.98-.11-.11-.22-.23-.35-.36.01-.62.03-1.25.04-1.97.37-.31.8-.66,1.26-1.04.14.14.36.35.65.64-.06,2.85-.13,5.77-.19,8.61l.43.45c.02.52.03,1.05.05,1.54.13.09.19.17.25.17.79.03,1.58.04,2.33.06.1-.1.18-.14.21-.21.03-.06.03-.15.04-.22.1-4.38.19-8.75.28-12.96.32-.39.57-.68.74-.89.64-.09.77.39,1.15.67-.09,4.3-.19,8.65-.28,12.85.31.37.52.61.7.81l1.47.03.71-.68c.01-.62.03-1.25.04-1.88.17-.18.33-.34.49-.51-.11-.11-.22-.23-.33-.34-.04-.14-.12-.28-.12-.42.04-2.3.09-4.61.14-6.89.34-.24.52-.64.73-.68.7,0,.81.48,1.15.7-.07,3.32-.15,6.66-.22,10.01.21.23.42.47.67.74.66.01,1.35.03,2.01.04.21-.2.38-.36.55-.53.05-.06.12-.12.13-.18.02-.16.01-.32.02-.48.06-2.86.12-5.72.19-8.51-.19-.23-.34-.41-.46-.56-.08-.65.48-.79.76-1.12l.94.02c.23.24.45.47.68.71-.07,3.33-.15,6.67-.22,10.05.22.2.45.42.74.69l1.4.03c.17-.15.4-.36.68-.61.06-2.81.12-5.67.19-8.64-.06-.08-.2-.26-.34-.45.35-.46.55-.99.39-1.65l1.25.03c.26.24.49.46.7.66-.07,3.38-.15,6.72-.22,10.05.39.44.9.19,1.34.25.39.05.79.03,1.24.04.21-.18.44-.39.71-.64.04-1.7.07-3.44.11-5.25-.11-.18-.26-.43-.48-.79.14-.21.31-.45.54-.79l.02-.87c-.12-.14-.28-.32-.45-.51,0-.29-.12-.74.04-.91.49-.5.48-1.34,1.24-1.69.18.23.37.47.69.88-.01.49-.03,1.18-.04,1.79l.45.47c-.06,2.67-.12,5.37-.17,8.07,0,.06.08.12.16.24l2.03.04c.19-.18.36-.34.53-.51.05-.06.13-.11.14-.18.02-.16.01-.32.02-.48.03-1.59.07-3.18.1-4.74-.13-.14-.24-.25-.41-.43.05-2.38.11-4.83.15-7.1.43-.5.78-.91,1.14-1.32.28.3.5.53.73.76-.06,2.55-.11,5.09-.17,7.64.11.11.22.22.31.32.06.09.15.15.15.21-.03,1.75-.07,3.49-.11,5.22.41.44.92.2,1.37.26.39.05.79.03,1.23.04.21-.19.44-.4.67-.61.13-.55.28-1.09-.33-1.5.06-2.68.12-5.38.18-8.19.21-.18.49-.44.72-.64.58-.11.73.35,1.03.58.04.06.11.12.13.19.02.07,0,.16,0,.24-.05,2.46-.11,4.92-.16,7.36.14.15.25.26.44.46l-.04,1.91c.14.14.19.25.25.25.63.03,1.27.04,1.55.04.57-.31.91-.49,1.32-.71-.29-.44-.45-.69-.66-1,.06-2.77.12-5.63.18-8.3.32-.4.56-.7.73-.91.64-.08.77.39,1.15.67-.07,3.18-.14,6.42-.21,9.5.32.38.52.62.69.82l2.43.05c.07-.07.14-.11.18-.18.04-.06.05-.14.06-.22.08-3.42.15-6.84.23-10.31.2-.2.42-.42.63-.64.82.17.64,1.11,1.24,1.57-.07,3.02-.13,6.1-.2,9.09.25.26.41.43.7.73.56.07,1.26.05,1.95.05.24-.23.47-.45.71-.68l.02-.95c-.15-.17-.3-.34-.45-.51l.03-1.41c.17-.18.33-.35.56-.59-.12-.25-.25-.51-.48-1l.11-5.18c.31-.25.78-.63,1.21-.99.22.2.45.42.66.62-.04,1.79-.08,3.53-.11,5.27.12.12.23.24.34.35.04.14.11.29.11.43,0,.71-.03,1.42-.04,2.08l-.45.43c.11.15.23.31.4.53.01.46.02,1,.03,1.48.12.1.18.18.24.18.79.03,1.58.04,2.34.06.09-.09.16-.13.2-.2.04-.06.04-.15.05-.22.1-4.54.2-9.07.3-13.61,0-.06.08-.12.17-.24l1.08.02c.34.34.08.76.16,1.13.16.18.31.35.53.6-.11.23-.24.5-.37.76-.32.32-.17.73-.21,1.11-.03.31-.02.62-.02.85.2.25.34.43.55.69-.15.25-.31.5-.55.88l-.03,1.32c.1.12.25.3.42.51-.04,1.87-.08,3.77-.13,5.75.21.18.45.38.8.67l1.35.03c.15-.13.38-.34.7-.61.07-3.33.15-6.73.22-10.01.32-.33.54-.56.75-.77.62-.09.83.41,1.18.72-.07,3.33-.15,6.66-.22,10.07.21.18.45.39.79.68.32,0,.79.02,1.34.03.11-.09.26-.28.46-.38.19-.09.43-.09.7-.13.05-2.31.1-4.6.15-6.88-.11-.12-.22-.23-.37-.39.02-.9.04-1.84.06-2.95.35-.28.82-.65,1.28-1.02l.46.48c.04.06.12.12.13.19.02.16,0,.32,0,.48-.06,2.7-.12,5.4-.18,8.07l.43.44c.01.47.03,1,.05,1.61.23.04.44.1.66.12.24.02.48.01.72.02s.48.02.72.01c.22,0,.44-.05.69-.07.05-2.19.09-4.32.14-6.4l-.4-.42c.02-1.08.05-2.19.07-3.44.34-.27.77-.61,1.29-1.02.24.33.55.76,1.07,1.48-.07,2.99-.14,6.39-.21,9.71.14.12.2.21.26.22.79.03,1.59.04,2.36.06.08-.08.15-.12.19-.19.04-.06.05-.14.06-.22.08-3.42.15-6.84.23-10.32.23-.26.48-.54.6-.67.74-.13.89.34,1.16.52.07.1.13.16.15.23.02.07,0,.16,0,.24-.07,3.42-.15,6.83-.22,10.22.43.42.93.22,1.38.25.46.02.93.15,1.46-.13.1-4.63.2-9.3.3-13.75.34-.4.53-.64.72-.86.43.45.81.85,1.21,1.26-.07,3.16-.14,6.34-.21,9.52l.41.43c.14,1.09-.1,2.27.02,3.53.65.22,1.37.09,2.12.16.18-.21.38-.45.67-.78.05-2.39.11-4.93.16-7.55-.09-.11-.23-.29-.41-.51l.04-1.9c.18-.18.4-.4.66-.66l1.07.02c.15.39.28.73.25.65.29.45.35.51.36.58.02.07,0,.16,0,.24-.07,3.1-.14,6.19-.2,9.24.26.28.48.51.7.74.48.01.96.02,1.44.03.23-.22.46-.44.71-.68.08-3.48.15-6.97.23-10.48.22-.22.44-.45.74-.74.31.43.62.85,1.16,1.61-.06,2.91-.14,6.31-.21,9.65.5.37.99.2,1.44.24.39.04.79.02,1.19.03.06-.06.13-.11.17-.17.04-.06.07-.14.07-.21.08-3.42.15-6.84.23-10.44.18-.17.46-.44.66-.62.48.03.76.02.8.49.02.27.26.53.45.87l-.07,3.22c.12.13.23.24.4.42-.04,1.75-.08,3.55-.12,5.35-.13.16-.27.32-.39.47l.54.56c.06.04.12.13.18.13.79.03,1.58.04,2.33.06.1-.09.17-.14.21-.2.03-.06.04-.15.04-.22.03-1.35.06-2.71.09-4.08-.15-.17-.3-.34-.46-.52.04-1.74.08-3.49.11-5.25.4-.38.8-.76,1.24-1.17.19.23.39.47.65.79-.04,1.64-.07,3.38-.11,5.12.16.19.31.37.48.57l-.02.93c-.17.21-.36.44-.59.72.22.29.39.53.59.79-.02.77-.03,1.56-.05,2.35.4.42.91.21,1.36.23.46.03.93.15,1.44-.11.09-4.01.18-8.04.26-12.05-.16-.2-.3-.38-.49-.62.38-.64.77-1.27,1.18-1.97.53.32.81.77,1.27,1.2-.09,4.28-.19,8.63-.28,12.9.25.26.41.43.7.73.55.06,1.25.04,1.94.05l.71-.68.06-2.86c-.14-.16-.3-.34-.45-.51.05-2.07.09-4.14.13-6.04.28-.52.49-.91.72-1.32l1.02.02c.14.51.3,1.07.58,2.07-.02.69-.04,1.87-.07,2.99l-.41.4c.14.17.28.33.43.52l-.02.93c-.15.16-.32.33-.47.49l-.02.95c.12.12.23.24.42.44l-.04,1.91c.3.32.52.55.74.78.48.01.95.02,1.43.03.23-.22.46-.44.71-.68.05-2.2.1-4.42.15-6.69-.12-.14-.27-.32-.44-.51.02-.93.04-1.89.06-2.88.39-.35.8-.73,1.26-1.15.32.4.67.83,1.12,1.39-.07,3.18-.14,6.58-.22,10.03l2.68.06c.06-.06.14-.11.17-.17.03-.07.02-.15.02-.23.08-3.42.15-6.84.22-9.88.35-.58.55-.92.63-1.07.77-.08.89.4,1.2.62.23.47-.18,1.14.5,1.49-.04,1.89-.08,3.79-.13,5.79-.09.25-.63.39-.45.92.13.15.29.33.45.51-.01.62-.03,1.26-.04,1.89.12.09.24.24.37.25.78.04,1.57.05,2.27.06.13-.15.22-.21.22-.27.05-1.75.08-3.49.12-5.22-.13-.14-.24-.25-.41-.43.03-1.43.06-2.92.09-4.26.46-.44.85-.81,1.2-1.15.36.34.76.73,1.15,1.09-.07,3.39-.15,6.72-.22,10.05.4.42.9.21,1.35.24.46.03.93.14,1.44-.1.09-4.01.18-8.04.26-12.06-.15-.19-.29-.37-.42-.54.37-.76.55-1.61,1.26-2.02.59-.11.74.34,1.03.58.04.06.11.12.13.19.02.07,0,.16,0,.24-.06,2.62-.11,5.24-.17,7.84l.41.43c-.03,1.27-.06,2.6-.08,3.82-.21.33-.37.58-.54.85.26.3.47.53.66.76.37.25.77.1,1.15.14.31.03.62.02.89.02.1-.1.21-.15.21-.21.03-.95.05-1.9.07-2.83.13-.14.24-.25.35-.37.05-.13.15-.26.16-.4.03-.56.03-1.11.04-1.66-.11-.12-.22-.23-.33-.35-.04-.14-.12-.28-.12-.42.02-1.35.05-2.7.08-3.82.31-.58.53-.97.74-1.36l.96.02c.19.39.39.79.72,1.48-.07,3.08-.14,6.48-.22,9.91.93.19,1.79.05,2.57.16.13-.12.2-.17.24-.23.03-.06.03-.15.03-.23.08-3.58.16-7.16.23-10.51.31-.46.53-.79.65-.97,1.26.07,1.07,1.19,1.73,1.71-.07,3.34-.15,6.73-.22,10.24.77.09,1.47.07,2.16.07.06-.06.14-.11.18-.17.04-.06.05-.14.05-.22.08-3.42.15-6.84.23-10.37.39-.29.83-.61,1.34-.98.07.07.28.27.47.46.27.48-.17,1.17.52,1.51-.07,3-.13,6.01-.2,9.16.24.2.54.44.93.77.26-.15.56-.4.9-.5.28-.09.61,0,.84,0,.13-.14.22-.19.23-.26.02-.16.01-.32.02-.48.07-3.34.15-6.68.22-10.01l.72-.69.96.02c.18.37.38.76.66,1.34l-.03,1.27c-.1.11-.25.28-.43.49-.03,1.22-.05,2.49-.08,3.8.12.14.28.32.43.5-.15.16-.31.33-.54.57.1.23.22.5.33.77.28.81.06,1.68.19,2.54.31.34.74.18,1.11.19.38,0,.78.17,1.22-.16.1-4.62.2-9.29.3-13.74.34-.41.54-.65.77-.92.25.11.49.16.64.3.35.32.66.68.97.99-.1,4.81-.21,9.58-.31,14.15-.25.49-.42.82-.65,1.26-.1.02-.31.07-.6.14-.12.1-.29.26-.47.42-7-.15-14-.31-20.99-.46-.12.11-.23.22-.35.33-.06.04-.13.12-.19.12-9.86-.21-19.72-.42-29.52-.64-.22.17-.38.31-.55.43l-.4-.42-1.46-.03c-.1.08-.28.23-.49.39-.15-.13-.31-.28-.49-.44l-.93-.02c-.16.15-.34.3-.52.46-6.84-.15-13.68-.3-20.52-.45-.12.11-.23.22-.35.33-.06.04-.13.12-.19.12-9.07-.19-18.13-.39-27.16-.59-.15.15-.27.26-.47.45-9.36-.2-18.81-.41-28.17-.61l-.47.45c-.15-.13-.31-.26-.51-.43l-2.85-.06c-.13.11-.31.27-.51.43-8.25-.18-16.52-.36-24.78-.54-.18.16-.36.32-.53.47-1.91-.04-3.82-.08-5.71-.12-.18-.17-.35-.33-.59-.56-.25.12-.51.24-1.01.48-5.93-.13-12.12-.26-18.25-.4-.32.2-.57.35-.93.57"/><path d="m247.27,2.13c.8-.38,1.46-.7,2.22-1.07l1.55.03c.54.4,1.19.59,1.7,1.08.48.45.4,1.18,1.04,1.55-.01.68-.03,1.37-.04,1.98l.43.45c-.03,1.25-.05,2.51-.08,3.8-.35.28-.37.81-.66,1.11-.38.4-.27,1.08-.85,1.33-.41.17-.8.38-1.35.64l-.76-.02c-.18.15-.35.3-.52.45-.28-.52-.79-.4-1.23-.52-.48-.13-.94-.44-1.35-.75-.37-.28-.66-.66-.9-.91l.02-1.03c.54-.39,1.11-.01,1.5-.17.62.37,1.13.68,1.68,1.01.71-.3,1.57-.44,2.03-1.18l.02-.95c-.08-.08-.13-.18-.19-.19-.95-.03-1.9-.05-2.84-.07-.29-.56-.97-.44-1.34-.86-.4-.47-.47-1.09-.81-1.58-.17-.25-.28-.52-.46-.85l.03-1.16c.46-.85.85-1.57,1.15-2.12Zm1.19,3.92c.22.23.43.45.65.68l1.55.03c.26-.26.48-.48.67-.68,0-.44.05-.83.02-1.22-.03-.45.2-.93-.15-1.33-.85-.02-1.7-.04-2.68-.06-.02.89-.04,1.73-.06,2.58Z"/><path d="m228.35,4.64c-.27.49-.52.94-.9,1.63,0,.2-.06.67,0,1.13.04.36.62.55.43,1-.24.58.44.78.47,1.3-.15.28-.33.59-.5.92-.17.32-.39.64-.48.98-.07.26-.17.44-.43.43-.68-.02-.77.74-1.65.93l-1.54-.03c-.31-.6-1.11-.46-1.48-1.02-.3-.45-.74-.81-1.12-1.2.16-.49-.25-.7-.51-1.08.3-.56.62-1.14,1.04-1.92l.04-1.67c-.29-.55-.6-1.14-.89-1.71.14-.53.42-1.01.72-1.38.3-.37.25-.85.64-1.19.42-.37,1.09-.22,1.36-.78l1.78.04c.79.48,1.65.79,2.05,1.56.34.65.58,1.35,1.01,2.07Zm-2.42,5.7c.01-.48.02-.95.03-1.43-.22-.23-.44-.46-.66-.69-.53-.05-1.07-.18-1.61.05-.2.22-.42.44-.54.57l-.03,1.5c.51.25.97.47,1.42.69.47-.23.94-.46,1.4-.69Zm-3.33-6.16c.3.76.9,1.07,1.27,1.57l.81.02c.51-.25.91-.44,1.31-.64.01-.52.02-1.06.04-1.73-.91.03-1.75-.07-2.6-.01-.24.23-.47.45-.82.79Z"/><path d="m282.9,4.22c-.04,1.95-.09,4.17-.14,6.4-.48.23-.39.8-.69,1.13-.32.35-.68.67-1.01,1-.51-.19-.7.27-1,.43l-2.09-.05c-1.44-.57-2.33-1.35-2.79-3.1.04-1.69.08-3.9.13-6.14.36-.67.74-1.39,1.14-2.14.41-.17.88-.48,1.37-.52.5-.04.88-.19,1.18-.54.87.41,1.65.82,2.42,1.24.75.41,1.08,1.26,1.48,2.28Zm-5.73.06c-.04,1.93-.08,3.83-.13,5.75.21.21.44.44.67.67l2.6.06c.04-.42.08-.8.11-1.08.22-.31.38-.55.54-.77-.22-.34-.37-.59-.57-.9.03-1.36.06-2.78.09-4.04-.28-.35-.47-.6-.61-.79l-1.44-.03c-.45.41-.86.78-1.26,1.14Z"/><path d="m176.69.91c.25.57.94.42,1.32.85.37.41.25,1.06.77,1.36-.23.22-.46.44-.7.67l-.96-.02c-.3-.3-.64-.63-.95-.95l-1.41-.03c-.43.4-.83.78-1.23,1.15-.12.6.37.83.67,1.2l2.79.06c1.19.77,1.47,2.11,2.17,3.28,0,.37-.02.85-.03,1.32-.61.3-.48,1.1-1.03,1.49-.44.31-.76.79-1.05,1.12l-1.07-.02c-.22.18-.39.32-.55.45-.18-.03-.39,0-.47-.09-.58-.63-1.49-.67-2.12-1.22-.65-.57-.6-1.52-1.13-2.16-.05-.06-.11-.12-.18-.19.04-1.73.08-3.47.11-5.25.13-.14.29-.31.47-.49l.02-.88c.57-.82,1.39-1.25,2.38-1.69.61.01,1.4.03,2.2.05Zm-.72,9.53c1.15-.82.65-1.81.82-2.6-.32-.31-.54-.53-.72-.71l-1.36-.03c-.49.42-.9.79-1.27,1.11l-.02.83c.27.56.46.95.66,1.36l1.89.04Z"/><path d="m25.31,0l1.41.03c.18.17.35.33.53.5l.8.02c1.25.73,1.37,2.08,2.14,3.18-.03,1.59-.07,3.33-.11,5.13-.38.54-.71,1.19-.96,1.9-.26.74-1.19.63-1.65,1.19-.6-.01-1.23-.03-1.9-.04-.29-.29-.69-.49-1.13-.61-.12-.57-1.22-.08-1.04-.97-.3-.36-.59-.72-.92-1.12.05-2.16.1-4.38.14-6.61.58-.4.55-1.2,1.14-1.68.49-.39,1.2-.35,1.54-.92Zm3,3.23c-.42-.49-.79-.9-1.11-1.28-.7-.02-1.33-.03-1.95-.04-.24.23-.47.45-.72.69-.04,2.03-.09,4.09-.13,6.15,0,.16-.02.32,0,.47,0,.07.08.13.14.23.19.18.41.39.55.52l1.74.04c.59-.46,1.03-.8,1.36-1.06.04-2.05.09-3.95.12-5.73Z"/><path d="m153.49,2.32l-3.62-.08c-.38.59-.09,1.15-.32,1.77.76.23,1.47.12,2.19.18.15.14.32.3.5.47.14,0,.29.02.56.04.37.41.77.91,1.23,1.34.41.38.27,1.06.78,1.35-.02.8-.03,1.59-.04,2.05-.4,1.1-.85,1.85-1.59,2.27-.7.4-1.51.6-2.19,1.07-.57-.33-1.28-.42-1.73-.97-.87.03-1.07-.83-1.63-1.21,0-.38-.13-.77.11-1.13.15-.03.33-.14.43-.09.53.27,1.04.58,1.7.95l1.75.04c.74-.42.98-1.23,1.26-2,.15-.43-.27-1.17-1.08-2.23l-1.53-.03-.41.39-1.46-.03c-.16-.16-.38-.37-.65-.63.03-1.45.06-2.94.1-4.42.35-.34.7-.67,1.04-1,.14-.04.29-.11.43-.11,1.19.02,2.37.05,3.51.07.26.27.48.5.7.73,0,.32-.01.64-.03,1.21Z"/><path d="m125.71,1.23l.86.02c.15.2.33.46.66.92,0,.42-.02,1.11-.04,1.72l.44.46c-.14.16-.28.31-.44.5-.02.91-.04,1.85-.06,2.87.59.61,1.22,1.27,1.8,1.88-.61,1.08-1.88,1.19-2.54,2.08-.5-.28-1-.56-1.63-.91-.78-.02-1.73-.04-2.68-.06-.17-.17-.34-.33-.51-.5h-.47c-.19-.41-.39-.8-.59-1.23.21-.36.48-.79.71-1.24.24-.45.45-.92.68-1.38.23-.46.43-.95.74-1.35.33-.41.7-.75.89-1.3.16-.47.92-.62.85-1.3.42-.36.83-.73,1.35-1.19Zm-.77,4.21c-.2.23-.53.45-.57.71-.1.7-.67,1-1.05,1.47-.08.1-.03.3-.04.46.34.28.48.85,1.15.76.24-.21.52-.47.71-.64.02-.92.04-1.7.05-2.49,0-.06-.1-.11-.25-.27Z"/><path d="m73.59,3.56c-.34-.36-.56-.59-.8-.84l.02-.98c.54-.48,1.13-1.01,1.81-1.61.65.01,1.44.03,2.17.05.35.21.67.4,1.21.73.36.36.92.92,1.48,1.48-.16.46.21.69.42.98-.5.32-.6.76-.47,1.13-1.56,1.5-3.05,2.92-4.41,4.22-.01.57-.02.89-.03,1.21.06.06.11.16.17.17,1.33.08,2.66.14,3.95.21.29.41.12.8.12,1.18-.4.19-.8.39-1.34.65-1.26-.03-2.69-.06-4.13-.09-.16-.16-.33-.32-.51-.49h-.46c-.2-.42-.39-.82-.6-1.25.53-.62.77-1.5,1.27-2.23.25-.36.36-.8.72-1.13,1.11-1.02,2.19-2.08,3.31-3.15l.02-.98c-.17-.19-.38-.42-.62-.69l-1.88-.04c-.45.47-.93.98-1.42,1.49Z"/><path d="m102.34,4.27l.02-.83c-.23-.51-.79-.84-1.18-1.31l-.79-.02c-.4.01-.6.7-1.16.5-.33.32-.67.64-.92.88-.73.02-.89-.48-1.18-.82.02-.15,0-.35.08-.44.67-.68,1.37-1.33,2.09-2.02l1.93.04c.12.1.29.26.49.44l.88.02c.96.66.97,1.87,1.68,2.72l-.02.9c-.15.16-.32.33-.49.51l-.02.92c-.17.18-.33.35-.56.59.28.58.57,1.17.96,1.97l-.03,1.21c-.46.44-.6,1.14-1.08,1.66-.45.49-1.25.3-1.48.97l-1.91-.04c-.35-.21-.67-.4-1.34-.81-.19-.2-.69-.72-1.18-1.24-.05-.05-.08-.11-.12-.17.23-.22.46-.44.68-.65.86-.26,1.46.34,2.08.71.37.22.7.28,1.2.28.49-.23.83-.78,1.28-1.17l.02-.95c-.32-.37-.91-.2-1.16-.7-.21-.43-.66-.61-1.16-.59l.02-1.08c.07-.07.16-.24.28-.27.8-.24,1.57-.51,2.11-1.19Z"/><path d="m13.96,4.52c.37-.39.86-.9,1.35-1.41.3.02.61.04.89.06.19.46.25.93.65,1.24-.03,1.57-.07,3.16-.1,4.71.17.2.32.38.5.6-.1.19-.18.39-.29.59-.07.13-.19.24-.25.37-.09.2-.14.41-.2.59l-1.01-.02c-.22-.23-.44-.46-.66-.69-.07-1.17.08-2.34,0-3.59-.78-.02-1.47-.03-2-.04-.33-.25-.49-.42-.7-.51-.12-.05-.29.03-.44.06-.54.55.1.81.28,1.11l-.06,2.71c-.3.55-.51.94-.72,1.33l-.96-.02c-.19-.39-.38-.78-.66-1.36.04-1.85.09-3.9.13-6.14.32-.24.76-.57,1.23-.93.57.34,1.4.56,1.8,1.32l1.23.03Z"/><path d="m7.15,10.52c-.32.5-.53.82-.62.96-.76.1-.87-.39-1.27-.6.03-1.32.06-2.64.09-3.93-.48-.4-.51.19-.88.23l-1.29-.03c-.17-.17-.34-.33-.5-.49-.17,0-.32.01-.48.02-.06.06-.16.11-.17.17-.03.63-.03,1.25-.05,1.96.09.11.24.28.41.48l-.02.93c-.22.36-.86.49-.41,1.16l-1.34-.03c-.12-.32-.22-.6-.34-.86-.03-.07-.11-.12-.16-.17-.04-.06-.11-.13-.11-.19.04-2.06.08-4.11.13-6.1.44-.43.84-.81,1.24-1.19.59.62,1.2,1.25,1.82,1.91l1,.02c.24-.76.83-1.34,1.53-1.88.78.07,1.04.86,1.57,1.26-.05,2.22-.1,4.44-.14,6.38Z"/><path d="m203.65,2.21s-.01.47-.02.94c-.59.32-.46,1.12-.99,1.48.09.58-.11,1.05-.51,1.45.28.7-.47,1.09-.51,1.69-.04.54-.03,1.09-.04,1.55l-.5.48-.05,2.4c-.14.11-.2.2-.26.2-.31,0-.63,0-.92-.01l-.67-.7c0-.08-.02-.15-.02-.23.02-1.19.05-2.37.08-3.58.15-.16.31-.32.48-.51l.02-.92c.17-.17.33-.34.5-.51.01-.47.02-.95.03-1.41.17-.17.33-.34.48-.49l.02-.96c-.14-.08-.26-.22-.39-.22-.87-.04-1.74-.05-2.78-.07-.18-.19-.43-.46-.62-.66.02-.81.44-1.07,1-1.25.28-.09.52-.29.78-.44,1.09.02,2.19.05,3.29.07.36.66,1.39.41,1.62,1.7Z"/><path d="m272.74,9.91c.16.17.31.35.45.5.14.49-.24.71-.5.97l-.02.94c-.33.4-.76.1-1.12.24-.24-.24-.46-.46-.76-.75l.03-1.44-.44-.46c.05-2.32.1-4.69.16-7.26.33-.27.79-.65,1.22-1,.36.35.76.74,1.13,1.1-.05,2.42-.1,4.79-.16,7.16Z"/><path d="m50.64,11.06c.05-2.21.09-4.25.14-6.32-.14-.18-.27-.37-.46-.62l.03-1.35c.45-.48.46-1.36,1.26-1.67.17.33.61.45.65.93.02.26.26.5.41.75-.11.11-.23.22-.4.38-.04,1.9-.08,3.86-.13,5.83.13.15.28.33.39.47.09.42-.19.59-.37.84-.17.22-.21.53-.31.79l-1.21-.03Z"/><path d="m38.38,24.2l.83.02c.19.62.17,1.2-.02,1.8-.47-.04-.52-.52-.83-.63l.03-1.19Z"/></g></svg>