<?xml version="1.0" encoding="UTF-8"?><svg id="Layer_2" xmlns="http://www.w3.org/2000/svg" viewBox="0 0 336.86 352.18"><g id="Capa_1"><path d="m103.6,217.74c-.21-.21-.42-.42-.68-.67-2.2,0-4.45,0-6.69,0-.06,0-.12-.07-.18-.11-.38-.69.32-.86.59-1.24h6.74c.06-.06.13-.11.16-.17.03-.06.05-.13.05-.2,0-36.85,0-73.7,0-110.58-.13-.15-.27-.31-.43-.49,0-.33-.09-.7.1-1.11h3.69c.13-.13.22-.18.23-.24.02-.15,0-.3,0-.45v-3.6c.37-.4.8-.22,1.22-.13.04.06.13.11.13.17,0,1.2,0,2.39,0,3.54-.17.2-.3.35-.45.53.6.34,1.21.12,1.78.16.6.04,1.2,0,1.8,0h10.83v-4.41c.27-.05.48-.08.66-.11.24.24.45.45.68.68v3.15c-.13.14-.28.3-.43.47.12.07.24.21.36.21,4.5.01,9.01.01,13.51,0,.14,0,.27-.06.51-.12.08-1.38-.01-2.79.05-4.24.19-.06.39-.12.65-.19.19.24.37.47.64.81v3.07c-.16.22-.27.36-.38.51.14.09.2.16.26.16,4.65,0,9.29,0,13.99,0,.06-.23.11-.44.16-.62-.18-.19-.33-.35-.48-.51v-2.7c.3-.21.44-.62.84-.67.47-.04.59.41.92.63v2.77c-.07.25-.76.45-.25,1.05h14.98c.33-.26-.08-.32-.1-.38-.08-.22-.17-.35-.17-.48-.01-1.12,0-2.25,0-3.36.39-.38.81-.24,1.24-.12.22.42.09.87.11,1.3.02.52,0,1.05,0,1.58v1.3c.09.09.14.16.2.19.06.03.14.03.21.03,4.58,0,9.16,0,13.73,0,.06,0,.11-.08.23-.17-.11-.15-.23-.29-.37-.48v-3.68c.38-.28.75-.12,1.11-.14.05.05.15.11.15.16.02,1.35.03,2.69.05,4.04,0,.06.08.12.15.23h14.6c.04-.19.09-.39.14-.58-.18-.19-.33-.36-.47-.51v-2.7c.31-.21.44-.62.85-.67.47-.03.58.42.91.63v2.76c-.08.27-.79.46-.25,1.06h13.62c.06-.06.13-.11.16-.17.03-.06.01-.15.01-.22,0-1.88,0-3.75,0-5.63.51-.21.28-.96.83-1.14.48-.06.58.42.97.59v6.39c.13.12.18.21.24.22.15.02.3,0,.45,0h13.61c.23-.7.09-1.44.11-2.17.02-.74,0-1.48,0-2.14.44-.3.8-.16,1.17-.16.39.46.13,1,.18,1.5.04.45-.01.9.01,1.35.03.51-.13,1.03.14,1.57h13.64c.07-.07.14-.11.17-.17.03-.06.01-.15.01-.22,0-1.28,0-2.55,0-3.83.36-.42.79-.22,1.32-.12.08,1.38,0,2.79.04,4.18.06.06.11.13.17.16.06.03.14.05.2.05,4.65,0,9.31,0,13.96,0,.13,0,.27-.07.41-.11.26-.41.05-.68-.3-.94v-2.89c.13-.1.41-.32.72-.56.52-.08.7.43,1.04.68,0,.9,0,1.8,0,2.69-.15.17-.31.33-.45.48,0,.16.02.31.03.45.05.05.1.14.16.15.64.1,12.75.03,14.12-.07.32-.43,0-.67-.31-.97v-2.83c.16-.11.46-.32.88-.62.36-.05.54.45.88.71v2.69c-.16.17-.31.33-.45.49.01.16.02.31.03.45.05.05.1.14.16.15.65.1,13.29.02,14.65-.09v-4.26c.27-.04.48-.09.69-.11.15-.02.3,0,.45,0,.08.11.23.23.23.35.02,1.34.01,2.68.01,3.95.14.12.2.21.25.21,4.5,0,9,0,13.49,0,.44-.47.17-1.01.21-1.51.04-.45,0-.9,0-1.35v-1.47c.45-.27.81-.17,1.17-.13.06.13.17.25.17.38.01,1.13,0,2.25,0,3.38-.15.16-.3.32-.44.48.12.07.24.21.36.21,4.5.01,9.01.01,13.51,0,.14,0,.27-.06.41-.1.04-.06.1-.11.12-.17.02-.07,0-.15,0-.22v-3.79c.42-.35.84-.26,1.3-.07v3.7c-.14.18-.25.33-.37.47.11.09.16.16.23.18.07.02.15,0,.22,0h3.35c.08.08.14.12.18.18.03.06.05.14.05.2,0,37.3,0,74.6,0,111.9,0,.06.07.12.18.29.66,0,1.4,0,2.13,0,.68,0,1.35,0,2.03,0h2.16c.28.26.49.47.7.66v.47c-.12.07-.24.21-.36.21-1.88.01-3.75,0-5.63,0h-1.01c-.11.16-.17.21-.19.28-.02.07,0,.15,0,.22v111.85l-.68.68c-.26-.27-.51-.54-.81-.85h-110.92s-.11.09-.14.15c-.03.06-.02.14-.02.21,0,2.18,0,4.35,0,6.45-.21.36-.38.66-.64,1.13,0,0-.19.07-.42.15-.21-.39-.4-.75-.72-1.35v-6.56c-.13-.13-.18-.21-.24-.23-.06-.03-.15-.01-.22-.01-28.74,0-57.49,0-86.23,0-.05,0-.11.1-.16.15.24.56.63.91,1.27.79v1.52c-.14.15-.28.31-.38.42.17.33.33.64.58,1.15.48.62,1.49,1.11,1.75,2.19.69.69,1.38,1.38,2.07,2.07.01.15.02.29.04.44.41.67,1.32.98,1.4,1.9.58.58,1.17,1.17,1.75,1.75-.06.73.63.94.95,1.41.32.46.61.95.86,1.33.16.11.22.18.28.19.15.02.3,0,.45,0,2.63,0,5.25,0,7.88,0,.07,0,.14.02.21.04.21.21.42.42.64.64,0,.15,0,.3,0,.45-.12.08-.24.22-.36.22-3.29.01-6.58,0-9.91,0-.05-.29-.01-.59-.13-.69-.72-.55-.91-1.47-1.57-2.07-.69-.63-1.32-1.31-1.81-2.17-.43-.76-1.23-1.3-1.87-1.94-.13-1.09-1.46-1.41-1.59-2.49-.69-.69-1.38-1.38-1.88-1.88-.35-.59-.56-.95-.82-1.39-.2.15-.34.26-.55.42h-1.43c-.24-.32-.11-.75-.48-.98-.58-.36-.66-1.07-1.01-1.61-.1-.16-.02-.44-.02-.8-.33-.26-.74-.59-1.3-1.04h-18.39c-.16.23-.42.59-.71.99-.45-.49-.8-.88-1.2-1.31v-.83c.13-.14.28-.3.44-.47v-109.87Zm46.51,66.42c54.06,0,108.02,0,161.97,0,.13,0,.26-.09.41-.15.04-.35.08-.7.11-1.03.08-.07.14-.16.19-.16.9,0,1.8,0,2.66,0,.19.17.35.32.53.47h1.28c.21.17.37.31.47.39h1.38c.23-.24.42-.45.62-.65l-.39-.39v-1.87c.14-.17.25-.32.37-.47-.26-.25-.48-.45-.67-.63-.87,0-1.69,0-2.52,0-.12,0-.24-.13-.37-.2.04-.35-.15-.73.19-1.14.59,0,1.26.02,1.92,0,.35-.01.75.15,1.02-.23,0-4.43,0-8.86,0-13.28,0-.07.01-.16-.01-.22-.03-.06-.1-.11-.23-.24h-2.73c-.49-.77.25-.94.5-1.33.37,0,.75.02,1.12,0,.43-.03.89.14,1.31-.16v-14.09c-.53-.29-1.06-.09-1.56-.15-.5-.06-1.04.19-1.5-.17-.03-.36-.14-.73.14-1.18.45,0,.96.03,1.46,0,.5-.04,1.04.23,1.51-.21,0-4.49,0-8.99,0-13.49,0-.06-.09-.11-.21-.25-.44,0-.96.04-1.47-.01-.49-.04-1.05.26-1.47-.22.08-.35-.16-.75.25-1.14h2.76c.07-.21.14-.35.14-.48,0-4.65,0-9.31,0-13.96,0-.07,0-.15-.04-.21-.03-.06-.1-.11-.19-.19h-15.04c-.08,0-.16.02-.22,0-.06-.02-.12-.08-.17-.12-.1-.42-.27-.85.13-1.22h15.08c.08,0,.16.02.22,0,.06-.02.11-.1.2-.18v-13.27c-.68-.13-1.35,0-1.81-.05-.54-.28-.91-.47-1.28-.66,0-.15-.01-.29-.02-.49.2-.18.43-.37.77-.68h2.2c.1-.14.18-.19.18-.25,0-4.58,0-9.16,0-13.73,0-.07,0-.15-.04-.21-.03-.06-.1-.11-.15-.16-.95-.1-1.92.05-2.84-.08-.12-.5-.28-.93.07-1.27.98-.11,1.95.07,2.92-.11v-13.89c-.54,0-1.05.03-1.56,0-.5-.04-1.04.19-1.49-.15v-1.19c.57,0,1.08.03,1.59,0,.5-.04,1.04.23,1.51-.21,0-4.64,0-9.29,0-13.94,0-.06-.09-.11-.2-.25h-1.71c-.34-.22-.52-.36-.71-.45-.18-.09-.37-.14-.52-.2-.09-.63.4-.82.66-1.16.37,0,.75.02,1.12,0,.43-.03.89.14,1.31-.16v-13.28h-2.39c-.33-.41-.81-.61-.71-1.21.19-.17.41-.36.76-.67h2.24c.06-.21.14-.35.14-.48,0-4.5,0-9.01,0-13.51,0-.07,0-.15-.04-.21-.03-.06-.1-.11-.15-.16-.95-.1-1.92.05-2.84-.08-.12-.5-.29-.93.11-1.3.45,0,.9.02,1.35,0,.5-.03,1.03.16,1.54-.15v-8.71c-2.45-.22-6.77-.19-8.5.04-.05,1.1.03,2.21-.3,3.14-.11.26-.23.52-.34.79-.34-.35-.54-.57-.73-.76,0-.56.04-1.09,0-1.61-.05-.57.19-1.18-.17-1.75h-12.61c-.15,0-.3-.01-.45,0-.06,0-.12.08-.17.12-.16.16-.32.32-.56.56v2.72c-.28.26-.48.44-.66.61-.26-.24-.48-.44-.69-.63v-2.72c-.22-.22-.43-.43-.67-.67-4.47,0-8.97,0-13.47,0-.06,0-.11.08-.17.13-.16.16-.32.32-.51.51.12.15.25.3.42.51,0,.53,0,1.12,0,1.72,0,.06-.08.12-.33.49.08-.15-.09.03-.1.22-.01.43-.26.47-.66.47-.21-.22-.46-.48-.7-.73,0-.53.03-1.06,0-1.58-.05-.57.19-1.18-.18-1.74-4.37,0-8.72,0-13.07,0-.06,0-.11.08-.25.19v3.2c-.38.24-.5.69-.96.66-.41-.05-.54-.46-.85-.67,0-.67,0-1.34,0-2.02,0-.13.09-.26.14-.39.09-.11.19-.21.28-.32-.21-.21-.42-.42-.66-.66-4.63,0-9.28,0-13.93,0-.06,0-.11.09-.25.2v3.18c-.28.27-.49.46-.7.66-.23-.23-.45-.45-.66-.66,0-.52.03-1.04,0-1.57-.04-.58.16-1.18-.12-1.77h-13.21c-.24.25-.44.47-.64.68v2.64c-.24.26-.44.48-.64.7-.23-.23-.44-.44-.65-.65-.08-1.1.02-2.21-.07-3.41-4.73,0-9.37,0-14.01,0-.07,0-.14.03-.2.06-.06.04-.11.1-.17.16,0,5.4,0,10.8,0,16.2,0,.05-.1.11-.17.19h-1c-.24-.25-.44-.47-.62-.66,0-5.22,0-10.4,0-15.58,0-.07-.02-.15-.05-.2-.04-.06-.1-.11-.17-.18-4.33,0-8.68,0-13.03,0-.06,0-.11.09-.25.2v3.03c-.31.4-.5.63-.65.82-.23-.02-.37-.03-.52-.04-.19-.37-.38-.75-.64-1.25,0-.37,0-.89,0-1.41,0-.13.1-.26.15-.39.09-.11.18-.21.27-.32-.21-.21-.42-.42-.65-.65-4.63,0-9.28,0-13.93,0-.06,0-.11.09-.25.2v3.18c-.28.27-.49.46-.69.65l-.66-.66c0-.52.03-1.05,0-1.57-.04-.58.16-1.18-.12-1.76h-13.81c-.07,1.14.01,2.25-.05,3.35-.21.21-.43.43-.67.67-.19-.22-.38-.45-.69-.8v-3.13c-.21-.06-.35-.14-.48-.14-4.5,0-9.01,0-13.51,0-.07,0-.15,0-.21.04-.06.03-.11.1-.16.15-.07,1.1.02,2.21-.05,3.22-.43.34-.63.87-1.2.54-.12-.41-.28-.8-.56-1.08v-1.75c.16-.2.27-.35.39-.49-.26-.25-.47-.45-.62-.59-.82,0-1.57,0-2.31,0-.05,0-.11.1-.17.16-.02.65-.05,1.31,0,1.85.22.21.32.31.43.41v1.35c.16.17.31.33.43.47v2.91c-.27.18-.63.43-.89.6,0,54.46,0,108.71,0,162.97,0,.07.04.13.12.35Zm-33.5-160.76c-.7,0-1.23-.03-1.75,0-.58.04-1.18-.17-1.76.12v14.23h2.84c.33.41.81.61.71,1.21-.19.18-.41.38-.75.68h-2.71c-.06.21-.14.35-.14.48,0,4.2,0,8.4,0,12.61,0,.07,0,.15.04.21.03.06.1.11.15.16.95.09,1.92-.05,2.79.07.29.37.71.53.57,1.21-.12.12-.39.36-.56.52h-2.32c-.2-.16-.35-.27-.53-.42-.22,2.34-.2,12.99.03,14.88h3.55c-.3.48.11.92-.32,1.3-1.1.07-2.21-.02-3.34.05-.03.31-.06.53-.06.74,0,4.13,0,8.25,0,12.38,0,.29-.08.6.23.81.97,0,1.94,0,2.92,0,.13,0,.26.1.41.16v1.07c-.61.25-1.21.04-1.79.12-.57.08-1.18-.19-1.77.18,0,4.65,0,9.3,0,13.94,0,.06.07.12.16.26h2.83c.12.41.64.48.59,1.18-.04.17-.42.34-.65.65-.66,0-1.33,0-2,0-.13,0-.26-.08-.44-.14-.13,0-.14-.49-.45-.13v13.61c.1.08.16.16.22.16,5.25,0,10.5,0,15.73,0,.13.13.23.24.34.34.3.26.51.54.13,1.01h-16.31c-.22,2.23-.21,12.93.02,14.88h3.55c-.3.48.1.91-.32,1.3-1.1.09-2.22-.03-3.29.06-.06.23-.12.37-.12.51,0,4.35,0,8.7,0,13.06,0,.07.03.14.06.2.04.06.1.11.16.17.97,0,1.94,0,2.92,0,.13,0,.26.09.42.16v1.06c-.61.26-1.21.04-1.79.12-.57.08-1.18-.18-1.72.14v14.18c1,.2,1.97-.01,2.89.13.23.22.45.43.69.66-.04.2-.09.4-.15.67h-3.3c-.1.14-.18.19-.18.25,0,4.43,0,8.85,0,13.28,0,.07,0,.15.03.21.03.06.1.11.15.16,1.1.11,2.22-.05,3.29.08.13.5.28.92-.1,1.3-.52,0-1.04-.03-1.56,0-.58.04-1.18-.16-1.84.15.04,1.4.07,2.8.12,4.2,0,.04.1.08.14.12.17-.15.33-.29.5-.45h1.31c.13-.13.24-.24.42-.42h1.3c.29-.23.46-.36.52-.41h2.82c.07.45.14.87.2,1.27,8.45.16,25.69.1,28.27-.1,0-22.19,0-44.39,0-66.59,0-.07-.02-.14-.05-.2-.04-.06-.1-.11-.17-.18h-13.03c-.15,0-.3.01-.45,0-.06,0-.11-.09-.17-.13-.07-.42-.28-.85.15-1.21h12.98c.31.06.34.61.72.27.18-9.61.1-92.55-.08-95.18-.79-.06-1.47-.41-2.14-.8-.17-.47.29-.63.45-.94-.07-.53.09-.99.48-1.42v-2.16c.14-.14.24-.24.37-.37v-1.93c-2.53-.22-6.8-.19-8.48.05-.1,1.1.05,2.21-.06,3.25-.4.32-.6.85-1.17.54-.05-.05-.14-.11-.14-.16,0-1.05,0-2.1,0-3.13-.22-.22-.44-.44-.68-.68-4.32,0-8.67,0-13.02,0-.06,0-.11.08-.25.19v3.02c-.31.4-.49.64-.67.87-.26-.26-.48-.48-.7-.7,0-.44.02-.89,0-1.33-.03-.51.15-1.03-.12-1.49-.18-.18-.34-.34-.5-.5h-8.71c-.22,3.01-.18,7.41.08,8.93,1.1.07,2.21-.02,3.36.06v1.32Zm162.48,196.34h14.54c.08,0,.16.02.22,0,.06-.03.11-.1.24-.23v-3.18c.76-.5.94.23,1.34.49,0,.44-.02.89,0,1.34.03.51-.15,1.03.15,1.55h13.73c.18-1.13,0-2.25.1-3.35,0-.06.1-.11.15-.16.14-.02.29-.03.51-.06.23.21.49.45.66.6,0,.63-.03,1.09,0,1.53.05.49-.25,1.05.22,1.48,2.63,0,5.26,0,7.88,0,.07,0,.16.02.22,0,.06-.03.11-.1.24-.23v-7.21c.34-.34.66-.59.26-1.07-1.05-.03-2.16-.06-3.26-.1-.06,0-.11-.1-.16-.15.06-.35-.15-.74.21-1.14h2.73c.26-.28.45-.48.64-.69l-.39-.39v-11.8c.29-.29.61-.53.28-1-.54-.21-1.14,0-1.72-.09-.57-.08-1.18.18-1.77-.18.1-.36-.12-.74.2-1.15h2.56c.42-.32.65-.5.87-.66-.19-.21-.33-.37-.44-.49v-5.81c.17-.24.33-.4.41-.59.05-.11-.04-.27-.06-.41-.05-.05-.11-.14-.16-.14-1.05,0-2.1,0-3.13,0-.18.16-.34.31-.49.45-1,0-1.97,0-2.95,0-.12,0-.25-.12-.37-.19-.02-.36-.05-.71-.08-1.15h-1.17c-31.07,0-62.14,0-93.21,0-.35,0-.75-.15-1.04.21v12.21c-.37.16-.5.74-1.12.62-.24-.2-.52-.44-.65-.55v-11.38c.16-.21.27-.36.38-.5-.28-.26-.49-.46-.68-.63-21.22,0-42.38,0-63.55.01-.49,0-1.05-.24-1.49.21,0,8.78,0,17.56,0,26.34,0,.13.1.26.15.39.26.09.51.18.74.26v3.66c-.78.41-.15,1.47-.89,1.89.09.49-.25,1.05.22,1.46.91,0,1.81,0,2.71,0,.05,0,.11-.1.19-.18-.13-.15-.25-.3-.41-.49v-1.73c.15-.25.39-.48.41-.74.04-.44.3-.44.66-.46.23.22.5.47.72.67,0,.53-.03.98,0,1.43.05.5-.23,1.05.21,1.5,4.64,0,9.29,0,13.94,0,.06,0,.11-.09.24-.21v-2.72c.29-.28.5-.48.74-.7.21.06.4.13.58.18.07,1.16-.02,2.27.06,3.4.32.03.53.06.74.06,4.13,0,8.26,0,12.38,0,.29,0,.6.08.81-.23v-2.76c.41-.13.55-.94,1.35-.43,0,.52-.03,1.11,0,1.69.04.57-.18,1.18.19,1.72,4.82,0,9.62,0,14.42,0,.05,0,.11-.09.21-.18-.12-.15-.24-.3-.36-.45v-1.73c.29-.55.48-.91.64-1.22.65-.1.78.44,1.1.71,0,.45-.03.9,0,1.35.04.5-.21,1.04.2,1.53,4.33,0,8.67,0,13.02,0,.06,0,.12-.08.25-.18v-15.36c.38-.24.5-.69,1.14-.66.22.06.38.43.69.66v15.07c0,.08-.02.16,0,.22.02.06.09.11.17.21.18.01.39.05.61.05,4.28,0,8.56,0,12.83,0,.29,0,.6.08.8-.24v-2.69c.39-.25.56-.98,1.35-.48,0,.52-.03,1.11,0,1.7.04.57-.19,1.18.19,1.72h13.3c.08,0,.16.02.22,0,.06-.03.11-.1.17-.15.26-1.13-.19-2.33.23-3.43.63-.1.84.38,1.19.66,0,.43-.02.88,0,1.33.03.51-.14,1.03.15,1.55.2.02.42.05.63.05,4.28,0,8.56,0,12.83,0,.29,0,.6.08.8-.25v-2.68c.34-.26.53-.75,1.17-.66.14.18.33.41.64.79v2.6c.14.11.19.19.25.19,4.28,0,8.56,0,12.83,0,.07,0,.15,0,.21-.03.06-.03.11-.1.16-.15.13-.95-.06-1.92.1-2.82.38-.3.57-.83,1.14-.52.16.39.25.82.58,1.09v1.76c-.15.19-.28.34-.56.68Zm-165.29-33.32c-.31-.05-.33-.6-.75-.25,0,2.68,0,5.37,0,8.07,0,.06.07.12.18.28.51,0,1.1-.03,1.68,0,.57.04,1.18-.18,1.76.2-.14.34.13.73-.24,1.14-.74,0-1.56-.01-2.37,0-.35,0-.75-.15-1.02.23,0,4.43,0,8.85,0,13.28,0,.07-.02.16,0,.22.03.06.1.11.23.24h3.47c-.28.48.1.91-.34,1.33-.48,0-1.01-.02-1.52,0-.58.03-1.18-.13-1.75.09-.22,3.51-.18,7,.11,8.46,3,0,5.99,0,8.99,0,.06,0,.11-.09.2-.17.04-1.07.08-2.17.13-3.28,0-.05.1-.1.15-.15h.45c.22.22.43.43.64.64.1.95-.05,1.92.1,2.96,4.55,0,9.04,0,13.52,0,.07,0,.14-.02.2-.06.06-.04.11-.1.17-.17,0-.51-.03-1.04,0-1.56.04-.58-.15-1.18.11-1.75.7-.27.9.33,1.24.67,0,.45-.03.9,0,1.35.04.5-.22,1.04.21,1.52,2.68,0,5.38,0,8.07,0,.06,0,.11-.08.17-.12.3-.62-.04-1.09-.35-1.57,0-.53.01-1.05,0-1.58-.01-.36-.06-.73-.09-1.09-.64-.29-.15-.99-.49-1.37-.21-.23-.4-.43-.3-.84.17-.16.4-.35.68-.6.42-.02.93-.05,1.38-.07.08-.12.16-.18.16-.24,0-8.78,0-17.55,0-26.33,0-.07,0-.15-.03-.21-.03-.06-.1-.11-.14-.15h-28.1c-.08.46-.14.87-.21,1.3-1.06,0-2.03,0-3,0-.13,0-.26-.08-.4-.13-.1-.1-.21-.21-.31-.32h-2.63Zm117.65-181.93c-4.85,0-9.5,0-14.15,0-.05,0-.11.1-.18.18v1.08c.24.05.45.09.9.19.13.19.38.55.53.76.56.1.98-.13,1.26.33-.15.3.16.71-.2,1.01-.36.04-.72.08-.93.11-.33.51-.6.92-.8,1.23-.34.07-.55.11-.76.16v1.99c.1.08.16.16.22.16,34.51,0,69.03,0,103.54,0,.21.31.62.44.69,1-.11.14-.27.37-.47.62,0,34.01,0,68.08,0,102.14,0,.06.09.11.17.21h1.64c.68-.68,1.2-1.2,1.8-1.8.06-.2-.19-.62.24-.86.34.08.74-.16,1.06.2-.24.69.4,1.16.51,1.8.05.29.46.52.66.73.42-.03.71-.04,1.04-.06.03-.27.07-.48.07-.69,0-4.13,0-8.25,0-12.38,0-.12-.12-.25-.19-.39h-1.01c.07.75-.69.23-.97.58-.29.52.26,1.2-.33,1.66-.35-.08-.75.16-1.06-.19-.03-.5-.06-1-.09-1.5-1.23-.09-2.12-.8-3.1-1.29-.08-.55.42-.73.67-1.07.3,0,.6,0,.9,0,.49-.98.59-1.09,1.56-1.56.1-.35-.14-.74.16-1.06.66-.08.66-.07,1.21.17v.88c.27.27.57.51.79.81.15.21.19.51.28.77.4-.09.8.15,1.13-.19v-14.16c-.25-.02-.53-.13-.64-.03-.57.47-1.1,1-1.39,1.27-.27.66,0,1.07-.37,1.36-.36-.02-.73.15-1.09-.13-.04-.33-.08-.69-.08-.75-.69-.69-1.21-1.22-1.78-1.79-.18,0-.47-.02-.72-.04-.25-.26-.45-.48-.67-.71.07-.21.13-.41.19-.6h1.42c.51-.53,1.02-1.07,1.57-1.65v-.84c.21-.2.43-.41.71-.68.24.22.5.46.62.57.02.51.04.8.03.76.71.72,1.23,1.25,1.79,1.81.04,0,.18-.04.38-.08.02-.19.07-.4.07-.61,0-4.28,0-8.55,0-12.83,0-.13-.11-.25-.18-.4h-.8c-.46.41-.9.79-1.31,1.15v1.39c-.47.17-.88.28-1.35-.13v-1.49c-.85.1-1.08-.74-1.62-.94h-.81c-.14-.27-.55-.36-.61-.75.22-.21.44-.41.65-.62h.88c.17-.33.27-.7.51-.93.29-.28.69-.45,1.06-.67v-.87c.23-.23.44-.44.67-.67.2.22.4.44.64.7v.86c.52.52,1.04,1.04,1.57,1.56.04.04.14.03.21.04.13-.04.27-.08.4-.13.03-.14.09-.27.09-.41,0-4.5,0-9,0-13.51,0-.12-.14-.24-.21-.36h-.92c-.35.36-.72.74-1.06,1.09-.18.5.12,1.04-.19,1.52-.42.07-.85.28-1.22-.15v-.82c-.55-.58-1.07-1.12-1.54-1.62-1.44-.5-1.58-.58-1.61-.9.07-.49.43-.72.79-.91.32-.02.61-.04.82-.05.55-.55,1.03-1.02,1.5-1.51.04-.04.03-.14.02-.08.03-.41.05-.7.07-1.03.27,0,.56-.08.66.02.25.25.55.43.67.84.2.67.53,1.32,1.1,1.79.35-.08.75.16,1.08-.18v-13.17c-.38-.28-.75-.12-1.06-.14-.4.38-.78.74-1.15,1.09v.91c-.22.22-.43.43-.6.6-.29-.2-.58-.41-.72-.5-.03-.53-.05-.82-.06-1.13-.51-.32-.96-.68-1.47-.91-.31-.14-.7-.11-1.04-.15-.21-.32-.66-.44-.61-.91.08-.39.46-.54.69-.83h.82c.58-.55,1.12-1.07,1.52-1.44.25-.5-.06-.91.35-1.25.31.06.68-.13,1.06.13.04.33.08.68.12,1.04.27.27.53.53.8.8.09.25-.03.59.34.73.34-.07.74.16,1.06-.23,0-4.61,0-9.26,0-13.91,0-.06-.08-.11-.12-.17-.06-.03-.12-.09-.18-.09-.14,0-.28.04-.17.02-.67.67-1.2,1.19-1.77,1.76,0,.19-.02.48-.03.73-.25.24-.46.43-.66.62-.24-.24-.45-.45-.66-.66v-.9c-.98-.49-1.09-.59-1.57-1.57h-.92c-.19-.21-.39-.43-.69-.75.22-.22.46-.46.65-.64h.74c.68-.68,1.2-1.2,1.8-1.8.04-.2-.19-.62.23-.87.35.08.75-.16,1.08.2v1.52c.13.09.38.25.61.44.22.18.41.4.57.55.4-.02.69-.04.97-.06.27-3.39.22-13.61-.06-13.89-.15-.01-.29-.02-.44-.04-.51.32-.78.81-.96,1.31-.23.06-.43.11-.62.16-.03.56-.06,1.07-.09,1.55-.48.16-.9.28-1.29-.08v-.86c-.32-.54-.86-.73-1.36-.99-.07-.35.16-.75-.19-1.05-.51-.03-1.01-.05-1.47-.07-.4-.77.27-.94.57-1.32h.87c.47-.46.88-.99,1.57-1.11-.08-.37.15-.77-.18-1.08h-13.63c-.27.39-.13.75-.12,1.17.19.05.39.11.69.2.24.23.56.54.88.83.36.08.76-.16,1.1.23-.06.31.13.68-.12,1.04-.4.07-.82.14-1.22.21v.98c-.55.21-1.04.47-1.36.98-.07.35.16.75-.2,1.05-.36-.01-.73.14-1.07-.11-.31-.51.22-1.19-.31-1.67-.15,0-.3,0-.45,0-.25-.51-.41-1.07-.97-1.35-.36-.07-.77.16-1.05-.21.05-.36-.15-.74.2-1.14h.97c.75-.53,1.18-.83,1.54-1.08-.09-.48.13-.89-.25-1.17-4.5,0-9.01,0-13.51,0-.05,0-.1.1-.18.18v.7c.47.63.78,1.05,1.09,1.47.57.14,1.16-.42,1.57.14-.08.35.16.75-.19,1.07-.49.03-.99.05-1.51.08-.08.47-.14.88-.2,1.24-.31.06-.51.11-.67.14-.35.57.19,1.25-.35,1.73-.35-.08-.75.16-1.07-.17-.04-.34-.08-.7-.13-1.12-.41-.23-.84-.48-1.19-.68-.22-.38.1-.79-.25-1.12-.34-.04-.69-.07-1.03-.11-.21-.22-.4-.43-.58-.62.24-.25.44-.46.65-.67h.91c.27-.27.51-.57.81-.79.22-.15.51-.19.83-.3-.19-.37.12-.77-.28-1.16-4.72,0-9.52,0-14.31.01-.11,0-.22.16-.32.23v.95c.25.09.55.13.77.28.3.22.53.52.78.77.53.07,1.07-.17,1.55.17v1.13c-.4.03-.75.05-1.11.08-.21.21-.42.42-.64.64v.5c-.25.08-.51.17-.77.26-.11.55-.57.96-.65,1.53-.01.08-.23.12-.36.18-.08,0-.18.03-.22,0-.23-.19-.44-.4-.65-.6-.12-.48.09-1.07-.48-1.39.03-.61-.38-.89-.81-1.14-.31-.02-.6-.03-.84-.04-.24-.26-.42-.46-.59-.64.23-.26.43-.48.63-.69h1.37c.22-.22.43-.43.64-.64.02-.36.04-.71.08-1.27,0,0,.63.04.16-.33-4.56,0-9.2,0-13.85.01-.1,0-.2.16-.3.24.57.31.38.9.47,1.31.24.27.44.49.63.7h1.37c.22.22.43.43.61.61-.21.29-.41.57-.51.71-.53.03-.82.05-1.14.06-.05.25-.1.46-.19.91-.19.13-.55.38-.78.54-.02.5-.04.79-.05,1.04-.35.23-.47.68-.94.63-.39-.08-.54-.46-.83-.68-.08-.35.16-.75-.16-1.06-.21-.05-.41-.11-.62-.16-.13-.5-.34-.95-.8-1.22-.34-.17-.75.15-1.09-.21v-1.17c.54-.02,1.05.02,1.38-.01.65-.59,1.2-1.09,1.77-1.6-.07-.23-.13-.43-.19-.64-4.84,0-9.64,0-14.44,0-.06,0-.12.08-.22.16v1.09c.2.04.4.09.89.2.11.15.37.52.56.78.64.11,1.19-.19,1.68.26-.13.32.14.71-.14,1.02-.53.32-1.21-.23-1.68.34v.89c-.48.29-1.1.38-1.34.97-.07.36.16.77-.22,1.05-.35-.07-.74.16-1.06-.15-.29-.52.26-1.2-.25-1.6-.29-.08-.49-.13-.67-.18-.04-.42-.08-.77-.11-1.08-.57-.39-1.25.15-1.76-.39.13-.31-.15-.7.23-1.1h1.16c.62-.33.99-.52,1.41-.74-.27-.47.17-1.04-.3-1.51-4.47,0-8.97,0-13.47,0-.06,0-.11.08-.22.16v.85c.42.5.75.9,1.01,1.22.63.11,1.18-.2,1.63.23-.04.36.15.74-.15,1.09-.33.04-.69.07-1,.11-.49.32-.56.86-.82,1.25-.22.05-.43.09-.59.12-.36.57.18,1.25-.35,1.72-.35-.08-.75.16-1.03-.13-.32-.54.25-1.22-.18-1.54-.52-.25-.93.05-1.23-.31-.03-.36-.07-.72-.1-1.07-.47-.08-.88-.15-1.36-.24.19-.42-.1-.82.23-1.16.34-.04.69-.07,1.13-.12.16-.72.94-.73,1.37-1.08v-1.11Zm-30.09.16c.13.21.32.41.38.65.07.27.02.57.02.78.3.28.52.48.54.51.84.34,1.54-.1,2.15.36-.06.36.15.75-.21,1.15h-1.48c-.06.27-.1.48-.19.91-.19.14-.55.4-.85.62v1.05c-.35.13-.44.63-1.12.56-.25-.48-.57-1.07-.8-1.71-.2-.05-.41-.11-.67-.17-.04-.18-.08-.38-.13-.62-.18-.18-.4-.4-.69-.69h-.97c-.08-.5-.29-.93.14-1.29h1.5c.21-.27.48-.63.58-.76.46-.17.65-.24.9-.33-.2-.37.12-.77-.28-1.16-4.73,0-9.52,0-14.31.01-.11,0-.22.16-.32.23v.95c.26.09.56.13.77.29.3.22.53.53.77.78h.93c.22.22.43.43.67.67-.34.36-.68.65-1.2.8-.51.15-.51.82-.81,1.22h-.44c.06.06.12.13.18.19-.34.17-.67.34-.85.42-.03.51-.05.79-.07,1.07q-1.06.16-1.36-.15v-1.4c-.34-.12-.6-.21-.74-.25-.25-.43.08-.84-.17-1.07-.46-.33-1.01.12-1.3-.41.08-.35-.16-.75.18-1.05.78.16,1.31-.46,2.03-.65v-1.48c-.28-.27-.6-.16-.88-.16-4.2,0-8.4,0-12.61,0-.13,0-.25.11-.38.16v1.09c.5.32.96.67,1.47.91.31.14.7.11,1.04.15.21.23.4.43.56.6-.24.26-.44.48-.62.69h-.92c-.22.22-.43.43-.62.62-.05.23-.09.44-.13.61-.32.11-.58.2-.81.28-.07.56.16,1.1-.17,1.58h-1.15c-.02-.54-.05-1.05-.08-1.72-1.09.23-1.16-.75-1.54-1.38-.38-.08-.78.15-1.07-.17v-1.06c1.04-.2,2-.43,2.65-1.28-.08-.36.16-.77-.23-1.09-4.76,0-9.56,0-14.35,0-.06,0-.12.08-.21.14.2.4.4.81.6,1.21h.77c.12.21.35.6.54.93h.98c.23.24.42.45.62.65-.23.23-.45.45-.66.66-.35.09-.74-.15-1.08.18-.04.34-.08.69-.11,1.04-.57.19-1.18.34-1.27,1.02-.06.44-.4.61-.65.85-.1.1-.39.02-.66.02-.03-.4-.06-.75-.11-1.33-.23-.15-.6-.39-.8-.52-.11-.58.13-1-.31-1.24-.5-.08-1.04.19-1.5-.18-.02-.36-.14-.73.12-1.13.46-.02.97-.05,1.19-.06.59-.46,1-.79,1.42-1.12-.16-.38.12-.8-.29-1.11-4.62,0-9.27,0-13.91,0-.06,0-.11.08-.17.13.15.36.24.77.46,1.07.3.41.71.74.99,1.02.63.12,1.19-.23,1.64.31-.16.3.15.72-.23,1.05h-.8c-.62.3-.78.87-1.01,1.34-.23.05-.44.09-.63.13-.05.42-.09.77-.13,1.11-.24.22-.45.42-.68.64-.21-.07-.41-.14-.59-.21v-.95c-.32-.32-.58-.72-.96-.93-.48-.26-.22-.86-.62-1.1-.5-.06-1.04.17-1.51-.16-.02-.15-.04-.29-.08-.58.19-.19.45-.44.58-.58.49-.04.89.04,1.05-.12.46-.46,1.28-.4,1.55-1.18-.11-.27.16-.69-.24-.99-4.48,0-8.98,0-13.47,0-.06,0-.11.09-.21.17v1.33c.26.33.45.56.62.78.65,0,1.25,0,1.84,0,.05,0,.11.1.16.15,0,.36.14.72-.13,1.12-.46.02-.96.05-1.44.07-.65.76-1.05,1.64-1.13,2.45-.22.24-.43.46-.65.7-.21-.05-.41-.09-.6-.14-.05-.42-.09-.77-.14-1.19-.42-.24-.84-.48-1.27-.73v-.46c-.21-.21-.43-.42-.65-.63-.35-.03-.7-.07-1.03-.1-.14-.48-.28-.9.09-1.28h1.33c.33-.31.65-.62.88-.84.31-.1.51-.16.7-.21-.02-.41.14-.78-.11-1.11-.14-.03-.28-.09-.41-.09-4.35,0-8.7,0-13.06,0-.12,0-.24.14-.36.21v1.36c.21.21.42.42.72.71h1.85c.15.5.29.92-.09,1.31h-1.37c-.11.69-.64,1.1-1.17,1.64v1.41c-.5.11-.93.28-1.3-.12v-.98c-.42-.28-.89-.59-1.31-.87-.13-.37.12-.78-.29-1.09-.17.03-.38.07-.69.12.04,4.6.08,9.15.12,13.71,0,.05.1.1.22.2.87-.26,1.28-1.12,1.83-1.53.23-.49-.07-.9.34-1.23.31.07.68-.13,1.08.16.02.46.05.97.07,1.3.43.51.77.9,1.19,1.4.57-.71.93.36,1.49.07v-9.91l.71-.71h103.33c-.05-.72.03-1.37-.05-2.02-.11-.11-.22-.22-.33-.33-.08-.41-.15-.82-.23-1.21h-1.44c-.21-.21-.42-.42-.67-.68.22-.26.45-.52.62-.71h1.46c.24-.25.44-.46.69-.73-.26-.45.19-1.01-.29-1.48-4.47,0-8.97,0-13.47,0-.06,0-.11.08-.21.16Zm117.69,216.44c-33.9,0-67.81,0-101.71,0-.06,0-.11.08-.22.16v1.9c.44.44.91.83,1.28,1.3.37.47.9.67,1.41.98-.13.33.14.74-.25,1.04h-1.32c-.27.4-.74.42-1.12.63v.6c1.15.1,13.5.19,14.16.11.06,0,.11-.1.19-.19-.02-.17-.04-.38-.05-.58-.41-.27-.97.12-1.26-.32-.35-.52-1.05.06-1.37-.48.08-.35-.16-.75.17-1.06.35-.04.71-.08,1.09-.13.04-1.01,1.1-1.31,1.42-2,.03-.4.05-.68.06-.94.49-.15.91-.28,1.3.09v.87c.69.7,1.37,1.39,1.98,2.01.3.08.5.14.69.19.02.42.14.78-.11,1.18-.46.02-.97.05-1.27.07-.54.28-.91.47-1.3.68.05.2.1.41.14.6h13.69c.47-.74-.27-.91-.51-1.3h-1.34c-.26-.39-.98-.55-.55-1.29.32-.04.68-.07,1-.11.23-.22.45-.43.66-.62v-.48c.3-.15.61-.29.89-.43.09-.55-.2-1.09.23-1.59.32.09.7-.13,1.06.15.04.34.08.69.11.95.24.28.44.51.55.64.32.08.53.14.72.19-.05.67.4.94.82,1.23.35.06.76-.16,1.02.23v.45c-.22.22-.43.43-.66.66h-.87c-.17.16-.33.31-.36.33-.47.27-.88-.05-1.22.31v.73h10.79c.6,0,1.2.03,1.8,0,.58-.04,1.18.19,1.72-.13.02-.18.04-.32.05-.48-.4-.24-.8-.53-1.24-.71-.25-.1-.57-.02-.63-.02-.41-.31-.65-.49-.89-.68.07-.25.13-.45.19-.66h1c.21-.26.55-.51.64-.82.08-.32.25-.51.43-.73.18-.22.45-.45.48-.69.04-.36.29-.51.49-.7.14-.14.36-.19.64-.32.27.27.52.52.72.72v.77c.66.66,1.18,1.19,1.76,1.77.23.07.65-.17.91.23v.45c-.22.22-.43.43-.64.64-.5.02-1.01.05-1.44.07-.33.41-.86.61-.52,1.19.48.26,1.01.1,1.51.12.6.03,1.2,0,1.8,0h6.75c.53,0,1.05.03,1.57,0,.58-.05,1.18.19,1.72-.13.02-.18.04-.32.05-.4-.24-.32-.46-.61-.64-.84h-1.27c-.36-.28-.6-.46-.84-.64.07-.25.13-.45.19-.66h.93c.29-.38.73-.44,1.11-.62.23-.66.63-1.26.6-1.96.32-.23.46-.67,1.18-.55.09.11.31.39.52.65-.14.16-.26.32-.39.47.57.32,1.34.31,1.36,1.25,0,.27.44.53.56.66.53.16.95-.08,1.21.32v.45l-.67.67c-.27,0-.71-.12-.83.02-.35.43-.98.31-1.29.74-.1.14-.22.28-.37.47,1.65.11,14.04.17,14.68.07.06,0,.11-.1.19-.18-.03-.18-.06-.38-.09-.59-.94.07-1.61-.7-2.47-.59-.23-.25-.43-.46-.65-.69.08-.21.15-.41.21-.59h.88c.51-.31.78-.71.87-1.24.53-.08.93-.37,1.24-.8.08-.35-.16-.74.17-1.06h1.13c.03.4.06.75.08,1.11.21.21.46.4.63.64.15.22.2.52.33.76.15.26.34.48.38.53.62.13,1.03-.11,1.32.27v.49c-.19.17-.41.36-.68.59-.28.04-.66.04-.98.17-.37.15-.7.41-1.07.65.08.21.15.4.21.59,4.55,0,9.05,0,13.55,0,.05,0,.11-.09.2-.17v-.57c-.72-.17-1.25-.8-2.02-.65-.22-.21-.43-.42-.64-.62v-.51c.25-.08.51-.17.77-.26.64-.64,1.27-1.27,1.91-1.91.02-.36.03-.71.05-1.04.53-.09.96-.29,1.33.13v.89c.3.45.74.68,1.25.8.09.26.18.53.27.77h.52c.2.21.41.43.61.64v1.04c-1.03.2-1.98.41-2.63,1.27.07.07.12.17.18.17,1.9.1,12.09.04,13.77-.09-.04-.26-.07-.52-.11-.77h-1c-.17-.16-.33-.31-.5-.46h-.88q-.64-.67-.53-1.28c.35-.04.7-.08.68-.08.89-.89,1.57-1.57,2.32-2.32,0-.13.03-.42.04-.68.49-.16.91-.28,1.25.03.18.53-.1,1.07.2,1.55.26.09.52.18.77.26v.51c.39.25.56.98,1.25.55.03-.14.1-.27.1-.41,0-4.35,0-8.7,0-13.05,0-.12-.13-.24-.21-.37h-.93c-.34.36-.7.74-1.09,1.15v.82c-.37.31-.55.98-1.33.58-.02-.3-.04-.65-.05-.86-.58-.63-1.09-1.18-1.58-1.7-.54.09-1.08-.21-1.55.21v6.74c-.16.17-.31.33-.46.5v1.29c.19.26.36.48.47.62-.06.56-.48.7-.68,1h-1.35c-.16-.14-.32-.29-.48-.44Zm-116.68,5.4c-.12.41-.94.55-.49,1.25.14.03.27.1.41.1,4.35,0,8.7,0,13.06,0,.12,0,.24-.13.39-.22-.39-.36-.77-.71-1.19-1.11h-1.25c-.31-.37-.98-.55-.59-1.31h1.29c.85-.39.74-1.24,1.28-1.66v-1.31c.15-.17.29-.33.41-.47-.23-.24-.44-.45-.64-.66h-64.84c-.16.15-.33.3-.48.44h-.88c-.18-.16-.34-.31-.47-.42h-35.1c-.2.17-.36.31-.47.4h-.83c-.31-.26-.54-.45-.76-.63,0-3.34,0-6.64,0-9.94,0-.05-.1-.11-.17-.18-.15.13-.31.27-.48.42h-.9c-.35.37-.71.75-1.11,1.17v.81c-.37.31-.54.98-1.33.58-.02-.3-.04-.65-.05-.86-.58-.63-1.09-1.17-1.61-1.74-.22.07-.42.13-.63.2,0,4.55,0,9.04,0,13.54,0,.06.08.11.14.19.39-.16.68-.41.76-.87.12-.7.75-.79,1.27-1.01.07-.41.14-.81.22-1.23.45.1.85-.14,1.16.2.09.48-.09,1.06.48,1.37.02.36.04.72.05.99.31.28.53.47.75.67h1.4c.03.25.06.45.08.63-.24.24-.45.45-.67.67h-1.34c-.27.38-.98.55-.58,1.24,3.38.24,12.3.18,13.9-.1-.31-.25-.57-.49-.86-.68-.29-.18-.62-.31-.95-.46-.42-.05-.87.11-1.29-.12-.11-.42-.26-.84.12-1.22h.88c.43-.32.66-.73.83-1.23.18-.52.86-.45,1.22-.8.08-.35-.16-.75.16-1.06.14-.02.29-.04.57-.08.19.19.45.44.6.6.13,1.31.56,2.17,1.21,2.58.49.09,1.04-.22,1.5.21v.45c-.29.49-.82.69-1.27.91.36.39.71.77,1.01,1.11,3.82,0,7.57,0,11.32,0,.05,0,.11-.1.21-.2-.36-.32-.62-.77-1.21-.75-.3-.63-.96-.21-1.38-.48-.31-.36-.93-.63-.35-1.25h.78c.74-.74,1.43-1.43,2.16-2.15.06-.28-.17-.69.19-.98.15,0,.29-.02.29-.02.39.26.69.47.83.56.03.53.05.81.06,1.08.32.12.58.21.83.3-.04.65.39.93.82,1.2.35.06.76-.17,1.01.24v.45c-.22.22-.43.43-.66.66h-.87c-.26.41-.74.41-1.14.65,0,.18.02.39.03.61.38.19.76.1,1.12.1,4.2,0,8.4-.01,12.59-.03.05,0,.11-.1.11-.1-.37-.44-.73-.87-.99-1.18-.49-.03-.78-.05-1-.06-.36-.44-.99-.71-.39-1.32h.9c.26-.34.63-.55.72-1.07.06-.37.55-.66.85-.99.08-.35-.16-.75.18-1.05.15-.02.29-.03.43-.05.54.29.75.83.98,1.36h.48c.19.36.67.5.68,1.08,0,.26.45.52.62.72q.65.02,1.12.26c.13.57-.4.74-.65,1.09h-1.34c-.24.43-.75.39-1.13.65.01.18.03.39.04.58,3.58.27,14.04.21,14.32-.07.01-.15.02-.29.04-.51-.17-.06-.37-.11-.54-.2-.25-.13-.48-.3-.72-.44-.48-.1-1.04.26-1.48-.29.15-.31-.15-.72.21-1.02.36-.04.72-.07,1.09-.11.02-1.05,1.14-1.32,1.41-2,.03-.43.05-.71.08-.98q.71-.1,1.3.12v.77c.74.75,1.42,1.44,2.09,2.11.21.07.41.13.6.19-.03.41.14.78-.17,1.19h-1.08c-.65.5-1.05.81-1.53,1.17,2.02.24,11.8.25,14.01.04.25-.67-.35-.86-.68-1.2-.5-.08-1.04.21-1.49-.2.02-.36-.15-.73-.11-.78.68-.47,1.08-.74,1.35-.93.1-.37.16-.57.21-.73.27-.06.48-.1.65-.14.36-.56-.16-1.23.34-1.71.36.06.74-.15,1.09.16.04.34.08.69.11,1.03.63.23,1.24.4,1.33,1.24.03.28.46.52.63.71q.67.02,1.14.28c.08.55-.41.74-.67,1.08h-.89c-.17.16-.33.31-.51.47-.28,0-.58,0-.88,0-.06,0-.11.1-.19.18.02.17.03.38.05.57,1.67.11,13.06.17,14.61.06.06,0,.11-.1.15-.14-.27-.69-1.07-.65-1.53-1.1-.16-.15-.57-.05-.9-.07-.14-.13-.3-.28-.46-.43-.33-.31-.34-.61.03-.92h.88l.66-.66v-.43c.55-.2,1.04-.47,1.36-.98.07-.35-.16-.75.19-1.04.15-.01.29-.02.34-.02.35.25.64.46.79.57.03.52.04.81.04.72.75.75,1.27,1.27,1.86,1.87q.39.01.83.28c.08.55-.42.73-.68,1.07h-1.42Zm125.93-48.22c0-4.69,0-9.19,0-13.69,0-.05-.1-.1-.17-.16-1.05.17-1.83.6-2.06,1.13-.01.32-.03.61-.04.86-.26.25-.47.45-.71.68-.2-.06-.4-.12-.59-.18-.02-.56-.05-1.07-.06-1.47-.48-.25-.85-.45-1.22-.64-.31-.16-.61-.34-.94-.44-.32-.1-.75.17-.96-.3-.08-.56.43-.73.69-1.06.23,0,.45,0,.68,0,.07,0,.15,0,.22-.01.47-.97.58-1.08,1.56-1.56.06-.5-.16-1.03.15-1.51.15-.02.29-.05.59-.09.18.2.42.46.64.7v.72c.63.67,1.15,1.2,1.69,1.78.16-.06.36-.13.53-.2,0-4.7,0-9.35,0-14,0-.05-.1-.11-.15-.16-.14-.02-.28-.05-.26-.04-.63.63-1.2,1.2-1.87,1.87-.03.16.22.58-.29.82-.3-.13-.71.15-1.02-.23v-.91c-.53-.5-1.08-1-1.69-1.57h-.78c.06-.06.12-.12.18-.19-.34-.17-.67-.34-.92-.46.08-.32.12-.45.17-.66.48-.03.99-.05,1.49-.08.16-.31.26-.68.5-.91.29-.28.69-.45,1.06-.67v-.87l.55-.55c.31.19.62.38.78.48v1.11c.44.41.99.91,1.54,1.41.04.04.14.03.21.04.13-.04.27-.08.4-.12.03-.14.1-.27.1-.41,0-4.35,0-8.7,0-13.05,0-.12-.13-.24-.2-.37h-.9c-.37.42-.91.73-1.11,1.15-.03.44-.05.72-.07.98-.5.12-.93.29-1.3-.11v-.9c-.46-.6-1.15-.82-1.78-1.13h-.68c-.28-.37-.97-.54-.59-1.23.5-.38,1.18.16,1.67-.32.02-.36.05-.71.07-1.05.5-.09.91-.17,1.3-.24.08-.59-.14-1.12.16-1.6.68-.26.87.33,1.2.68q.02.85.22,1.05h.59c-.04.61.33,1.03.86,1.39.17-.05.37-.11.58-.18,0-4.84,0-9.64,0-14.44,0-.06-.08-.12-.12-.17-.14-.03-.27-.07-.29-.07-.61.61-1.18,1.17-1.83,1.82,0,.12-.02.41-.02.47-.3.4-.48.64-.66.89-.26-.08-.46-.14-.64-.19-.03-.56-.05-1.07-.08-1.54-.29-.08-.49-.13-.69-.18-.42-.42-.85-.85-1.27-1.27-.5.02-1.03-.15-1.59.16v53.49c0,2.7,0,5.4,0,8.1,0,.12.13.24.2.37.32-.3.64-.6.96-.91h.7c.66-.6,1.21-1.1,1.71-1.56.08-.42-.15-.83.27-1.14.31.14.7-.15,1.04.18.04.34.07.69.11,1.03.54.41.85.96,1.06,1.48h1.14Zm0,16.15c0-4.94,0-9.74,0-14.54,0-.05-.1-.1-.16-.16-.13-.02-.27-.04-.24-.04-.64.64-1.2,1.21-1.84,1.85v.63c-.19.21-.43.47-.67.73-.31-.12-.51-.19-.68-.26v-1.55c-1.03.07-1.33-.95-2.11-1.45-.28.15-.69-.17-.99.19v14.6c.62.13,1.18.19,1.72-.06.02-.4.05-.75.05-.9.57-.39.97-.66,1.12-.77.38-.73-.03-1.28.39-1.74.14-.01.29-.03.43-.04.29.23.57.45.78.62v1.54c.23.05.44.09.71.15.07.21.12.5.27.72.15.24.4.42.57.59.22-.04.36-.06.66-.11Zm-6.61,1.48c-.2,2.11-.2,11.8,0,13.88h.99c.58-.44.88-1.1,1.56-1.31.13-.04.26-.1.38-.15.28-.51-.26-1.19.32-1.64.55-.09.75.39,1.09.66v.98c.44.42.93.88,1.42,1.35.26.25.51.24.85-.03,0-4.43,0-8.91,0-13.39,0-.12-.13-.24-.21-.37h-1.38c-.18.2-.38.42-.62.68-.02.44-.05.94-.07,1.42-.48.18-.89.28-1.28-.05-.02-.5-.05-1.01-.07-1.43-.47-.24-.84-.42-1.18-.59h-1.78Zm-214.5-14.17c-.47-.53-.92-1.01-1.34-1.53-.12-.15-.13-.38-.2-.6-.26.06-.47.11-.65.16v14.6c.33.23.59.21.82-.04.02-.36.04-.72.05-.87.57-.39.97-.66,1.31-.89.1-.61-.18-1.15.19-1.61.15-.01.3-.03.44-.04.28.23.56.45.77.62v1.45c.31.31.57.57.81.81.05.23.09.44.15.72.32,0,.62-.05.89.02.23.06.43.25.73.44.04-.3.08-.51.08-.72,0-4.73,0-9.45,0-14.18,0-.12-.11-.25-.21-.44-.47.13-.98-.11-1.47.14-.32.3-.65.6-.64,1.09-.63.3-.2.96-.48,1.38-.36.31-.64.93-1.25.34v-.85Zm4.05-49.24c0-5.3,0-10.25,0-15.2,0-.05-.09-.11-.18-.2h-1.44c-.69.86-1.02,1.58-1.12,2.36-.26.32-.44.56-.63.8-.24-.07-.44-.12-.65-.18v-.87c-.73-.73-1.42-1.41-2.12-2.11-.04.15-.14.34-.14.54,0,4.65,0,9.3,0,13.94,0,.11.15.22.26.36.19-.05.39-.1.57-.14.05-.42.09-.77.11-.99.51-.33.92-.6,1.27-.82.11-.46-.13-.85.19-1.17.67-.24.86.34,1.21.72v.83c.24.24.49.43.65.67.19.27.31.6.46.9h.88c.19.15.34.28.68.56Zm-6.17-46.46c-.08.94-.2,13.52-.13,14.13,0,.06.1.1.2.19h.59c.11-.84.58-1.31,1.37-1.41.08-.44.16-.85.24-1.27.43.1.82-.14,1.15.19.04.34.08.69.11,1.02.29.29.56.56.79.79.05.24.09.44.15.72.33,0,.63-.05.9.02.23.06.43.25.67.41.07-.87.19-14.59.13-15.05,0-.06-.1-.1-.26-.24-.21.85-.96.23-1.55.66-.17.3-.46.7-.65,1.15-.19.43-.28.91-.43,1.42-.4-.19-.81.1-1.11-.25-.03-.36-.07-.71-.09-.91-.53-.35-.94-.62-1.24-.82-.07-.34-.12-.55-.17-.78-.26.01-.46.02-.66.03Zm0-31.07c-.08.93-.19,13.54-.12,14.13,0,.06.1.1.16.16.29.12.55.11.73-.2.08-.34-.16-.75.18-1.05.36-.04.71-.07,1.11-.12.04-.39.07-.74.11-1.09.21-.22.42-.43.63-.65l.66.66v.87c.31.32.61.64.88.91.06.26.11.46.19.81.63-.4,1.03.16,1.56.26.24-4.06.18-14.92-.01-15.12-.53-.3-.73.08-.87.21-.47.27-.87-.04-1.17.26-.27.38.05.84-.3,1.26-.28.34-.3.89-.43,1.34-.43-.09-.83.14-1.15-.22v-.86c-.16-.17-.28-.37-.46-.48-.29-.19-.61-.32-.87-.45-.06-.25-.1-.45-.15-.68-.26.01-.46.02-.66.03Zm.02-31.54c-.2,1.99-.21,11.98-.02,14.32.2,0,.4.02.66.03.16-.32.03-.76.41-.97.36-.19.7-.42.99-.6.16-.39-.11-.8.3-1.12.31.1.69-.14,1.14.23-.53.68.32,1.07.44,1.69.15.74,1.03.68,1.48,1.13.23.23.54.13.76-.12,0-4.93,0-9.87,0-14.8,0-.06-.07-.12-.15-.24-.2.13-.39.33-.63.39-.27.07-.57.02-.8.02-.73.88-1.06,1.61-1.16,2.48-.22.25-.42.47-.62.68-.23-.23-.44-.44-.65-.65-.03-.35-.05-.71-.08-1.05-.49-.09-.9-.16-1.27-.23-.12-.44.11-.83-.22-1.19h-.57Zm6.01,139.87c.19-2.03.19-13.05-.01-15.17-.18.14-.33.26-.52.41-.45.02-.96.05-1.39.07-.43.4.08.98-.39,1.28-.54.34.04,1.04-.48,1.39-.14,0-.29.01-.44,0-.21-.02-.41-.05-.62-.08-.05-.42-.08-.77-.13-1.18-.21-.04-.42-.09-.65-.13-.29-.43-.34-1.08-1.02-1.33-.15.06-.34.13-.52.2,0,4.69,0,9.33,0,13.97,0,.06.08.11.2.26.2-.03.46-.08.67-.12.11-.46-.13-.86.17-1.16.38-.24.92.18,1.2-.33.08-.5-.19-1.04.17-1.5.15-.02.3-.03.49-.05.25.21.52.45.73.63v1.01c.54.42.88.96,1.05,1.4.59.18,1.04.31,1.47.44Zm-1.43-16.07h.82c.31.05.33.6.76.25,0-4.78,0-9.58,0-14.37,0-.06-.07-.12-.15-.24-.2.13-.41.27-.69.44h-1.23c-.24.25-.44.46-.62.65-.09.54.2,1.08-.21,1.55h-1.03c-.1-1.09-1.14-1.5-1.7-2.26-.25.05-.39.07-.57.11-.25.55-.06,1.15-.1,1.73-.04.52,0,1.05,0,1.57v6.98c0,.6-.03,1.2,0,1.8.04.58-.18,1.18.15,1.77.22-.01.42-.03.65-.04.05-.24.1-.45.14-.66.41-.41.84-.84,1.26-1.27.04-.04.03-.13.02-.09.03-.4.05-.69.07-.96q.66-.05,1.31.58v.88c.53.42.46,1.25,1.12,1.57Zm-4.73-76.46c0,4.64,0,9.14,0,13.64,0,.05.1.1.19.18h.59c.11-.85.59-1.3,1.4-1.42.04-.39.08-.74.12-1.08.22-.21.43-.4.63-.6.24.24.45.45.66.66,0,.3,0,.6,0,.9.52.42.46,1.25,1.13,1.57h.87q.22.21.65.28v-14.7c-.29.19-.49.39-.72.45-.27.07-.58.02-.62.02-.57.47-.97.8-1.28,1.06-.11.64.2,1.19-.27,1.67-.31-.14-.71.15-1.11-.24v-1.41c-.34-.14-.62-.2-.84-.36-.29-.22-.53-.51-.75-.73-.22.03-.36.06-.66.1Zm6.16,139.02c.19-2.07.2-12.08,0-14.33-.24.15-.45.28-.73.46h-1.21c-.24.25-.44.46-.33.35-.48.82-.03,1.39-.52,1.86-.31-.1-.69.14-1.05-.16-.04-.34-.08-.69-.12-1.02-.29-.5-.86-.53-1.24-.83-.33-.26-.6-.39-.96-.04v1.1c0,4.04,0,8.07,0,12.11,0,.18.11.36.19.57.69-.69,1.33-1.32,1.96-1.96.05-.05.07-.12.02-.03.16-.49-.08-.9.3-1.18h.47c.19.2.39.42.66.71.01.4-.14.96.42,1.28-.04.61.38.89.76,1.11h1.38Zm-6.02-45.36c-.19,2.16-.19,11.8.01,13.84h.64c.1-.84.57-1.3,1.36-1.41.08-.44.15-.85.23-1.26.43.08.82-.14,1.14.15.23,1.34.43,1.7,1.29,2.56.22,0,.47-.05.67.01.24.08.44.25.67.4.2-2.2.19-12.27,0-14.33h-1.15c-.64.47-1.06.78-1.43,1.05v.91c-.25.28-.45.51-.66.74-.22-.05-.43-.1-.63-.15-.03-.56-.06-1.06-.09-1.63-.41-.03-.76-.06-1.11-.09-.33-.25-.51-.68-.95-.78Zm3.95-48.71c.79,0,1.39,0,1.99,0,.05,0,.1-.1.26-.26-.04-4.44-.08-8.99-.12-13.55,0-.05-.1-.1-.2-.18-.61.06-1.07.74-1.76.51-.23.23-.45.44-.66.65-.06.51.16,1.04-.17,1.53h-1.02c-.42-.55.1-1.22-.35-1.72-.49-.06-1.03.06-1.4-.46-.06-.08-.39.03-.67.06,0,4.39,0,8.73,0,13.07,0,.12.14.24.22.35h.4c.56-.54,1.1-1.06,1.62-1.56.09-.39-.15-.79.18-1.09h1.25c-.41.98.6,1.58.42,2.65Zm1.54-62.59q.21.2.62.26v-14.07c-.46-.32-.68,0-.99.18-.29.17-.69.13-.93.16-.3.25-.53.44-.74.61v1.38l-.71.71c-.14-.42-.65-.53-.67-1.1-.01-.28-.44-.56-.71-.81-.32-.29-.55-.7-.99-.84-.14.04-.27.08-.41.12-.26,3.98-.19,13.08.1,13.37.14,0,.29.02.48.03.49-.52,1.01-1.07,1.59-1.68.07-.23-.17-.63.13-.95.68-.28.86.33,1.2.66-.12.78.42,1.32.68,1.97h1.35Zm215.48-47.51c.36.36.73.73,1.07,1.07h1.04c.25-.39.13-.76.13-1.11,0-.34.16-.73-.2-1.08-.54,0-1.12-.01-1.7.01-.11,0-.22.15-.33.23v.88Zm-218.9-.97c-.36-.29-.74-.15-1.09-.15-.35,0-.73-.16-1.06.14,0,.64,0,1.29,0,1.93,0,.05.1.1.16.16h.53c.24-.28.52-.61.7-.82.36-.08.56-.13.76-.18v-1.08Zm221.15,221.95c-1.01-.35-1.56.37-2.28.6.04.2.09.4.15.65.75-.05,1.47.12,2.14-.12v-1.13Zm-223.31,1.25c.61,0,1.18,0,1.76,0,.13,0,.25-.1.38-.15-.06-.1-.09-.24-.18-.3-.4-.27-.81-.51-1.21-.78-.28-.18-.52-.17-.74.05v1.18Z"/><path d="m115.83,41.9c-.06.51-.09.86-.13,1.19-.08.07-.14.15-.2.15-1.2,0-2.4,0-3.57,0l-.39-.39h-2.81s-.12.09-.15.15c-.03.06-.02.14-.02.22,0,6.23,0,12.46,0,18.69,0,.06.09.11.17.21h13.6c.08-.09.15-.13.18-.2.03-.07,0-.15,0-.22v-4.32c.19-.07.38-.14.6-.21.23.22.45.42.74.69v4.07c.61.61.84,0,1.19-.22h2.54c.6-.34,1.09-.61,1.59-.89h1.12c.66.19.66.88,1,1.34h170.65c.26-.48.45-1.03.97-1.34.58-.22.76.7,1.39.46.53-.2.77.62,1.39.46.49-.13,1.04-.03,1.62-.03.13.11.3.24.5.4h1.46c.26-.54.11-1.07.14-1.58.02-.52,0-1.05,0-1.58v-1.61c.22-.06.42-.12.67-.19.18.24.37.48.63.83v39.13c-.37.33-.75.07-1.07.18-.09-.09-.19-.14-.19-.2-.02-10.8-.04-21.6-.06-32.4,0-.06-.07-.12-.14-.23h-1.37c-.39.21-.88.47-1.62.87h-2.06c-.19.19-.29.29-.4.4-.51.06-1.01,0-1.56.04-.03-.64-.05-1.15-.07-1.64-.16-.07-.29-.17-.42-.17-56.36,0-112.72,0-169.08,0-.5,0-1.03-.15-1.59.18v1.41c-.13.12-.19.21-.25.21-.6.01-1.2,0-1.76,0-.19-.17-.35-.32-.5-.45h-2.05c-.61-.33-1.2-.71-1.88-.89-.19-.05-.42.03-.6.04-.08.1-.14.15-.16.22-.02.07,0,.15,0,.22v31.7l-.67.67h-.45c-.08-.11-.22-.22-.22-.34-.01-5.63,0-11.26,0-16.89v-15.88c-.14-.12-.19-.21-.25-.21-4.5,0-9,0-13.49,0-.07.07-.13.11-.17.18-.03.06-.05.13-.05.2,0,10.88,0,21.76,0,32.65,0,.06-.07.12-.11.18-.34.21-.7.1-1.06.07-.05-.05-.12-.1-.15-.16-.03-.06-.03-.14-.03-.21,0-10.73,0-21.46,0-32.2,0-.06-.08-.11-.16-.22h-2.26c-.41.23-.9.5-1.52.84h-1.63c-.17.16-.34.3-.51.46h-.91c-.19-.2-.39-.42-.61-.66-.04-.32-.08-.67-.11-1-.1-.07-.16-.12-.22-.14-.07-.02-.15,0-.22,0h-.45c-10.36,0-20.71,0-31.07,0-.07,0-.14-.03-.19-.04-.22-.22-.44-.43-.64-.63-.15-.59.42-.74.6-1.12h31.99c.28-.51.46-1.06.98-1.37.22,0,.45,0,.71,0,.47.24.96.5,1.65.86h2.45c.19.15.36.29.55.44h1.47c.19-2.46.24-12.47.1-20.03-.3-.33-.7-.17-1.05-.17-.36,0-.74-.13-1.15.16v18.42c-.31.35-.5.58-.67.78-.2,0-.34-.02-.49-.02-.07-.12-.2-.24-.2-.37,0-5.63,0-11.26,0-16.89v-1.44c-.53-.42-.78-.1-1.12.24h-2.7l-.41.41h-3.37c-.03-.4-.06-.76-.09-1.11-.05-.05-.1-.12-.16-.15-.06-.03-.14-.03-.21-.03-8.93,0-17.86,0-26.79,0-.06,0-.11-.08-.22-.16v-1.02c.14-.06.27-.16.39-.16,8.93,0,17.86,0,26.88,0,.08-.39.15-.8.23-1.21.06-.05.11-.13.17-.13,1.05,0,2.1,0,3.12,0l.39.39h1.6c.74.42,1.39.8,2.13,1,.28-.72.12-1.32.14-1.9.03-.67,0-1.35,0-2.03V8.34c.43-.35.84-.26,1.33-.06v4.57c.33.29.56.28.86.07.34-.24.73-.41,1.33-.73h2.53l.44-.44h1.9c.3.52.09,1.05.17,1.55.12.07.24.2.36.2.6.02,1.2,0,1.8,0h206.72v-1.54c.53-.47,1.08-.18,1.59-.26.16.14.32.29.49.45h2.68c.33.55,1.03.46,1.45.88.15.15.56.02.83.02.4-.51.17-1.04.2-1.55.04-.6-.01-1.2.02-1.8.02-.51-.14-1.03.15-1.56h1.03c.06.16.16.29.16.41,0,30.99,0,61.99,0,92.98-.37.4-.8.22-1.22.13-.04-.06-.11-.11-.13-.17-.02-.07,0-.15,0-.22V15.09c-.47-.43-1.02-.13-1.54-.22-.15.14-.32.29-.5.45h-.87c-.17.16-.33.31-.5.46h-2.67c-.17.15-.33.29-.48.42-.23-.23-.44-.44-.61-.61-.05-.26-.09-.46-.14-.69H112.28c-.16.23-.42.59-.61.86h-3.72c-.52-.3-1-.58-1.5-.87h-1.3c-.07.14-.19.26-.19.39,0,8.18,0,16.36,0,24.54,0,.21.04.42.07.67h2c.06-.06.14-.11.16-.17.03-.06.01-.15.01-.22,0-1.43,0-2.85,0-4.28.36-.42.79-.22,1.21-.15.05.06.11.11.13.17.02.07,0,.15,0,.22v3.81q.58.21,1.12-.23h2.23c.17-.16.33-.31.49-.45h3.24c.07.4.15.81.22,1.22,2.94.23,187.32.31,201.55.1.06-.4.13-.81.2-1.27h2.88c.11.11.21.21.32.32.68.26,1.5-.22,2.11.33.45.41,1.25-.1,1.54.63.06-.04.16-.08.16-.12.05-1.55.1-3.11.15-4.65.33-.36.74-.03,1.05-.21.1.16.24.28.24.4,0,20.19,0,40.38,0,60.74-.17.16-.43.41-.64.61-.25-.03-.39-.05-.54-.07-.06-.13-.16-.25-.16-.38,0-17.49,0-34.97,0-52.46,0-.6,0-1.2,0-1.8,0-.06-.09-.11-.14-.17-.42-.23-.68.02-.97.4h-2.74c-.19.19-.29.29-.41.41-.95.05-1.9,0-2.86.02-.06-.49-.1-.85-.13-1.19-.14-.06-.27-.16-.4-.16-67.02,0-134.04,0-201.22,0Z"/><path d="m45.06,317.42c.5.06.86.09,1.26.14.23.66-.02,1.33.12,1.93-.15.15-.26.26-.42.42v2.47c-.38.74-.71,1.35-1.03,1.98.25.27.45.48.71.77h50.9c.4.39.16.79.25,1.14-.12.08-.23.22-.35.22-.67.02-1.35.01-2.03.01h-55.55c-.14-.2-.35-.49-.6-.84,0-.04.02-.18.03-.33.05-.05.11-.15.16-.15,1.35,0,2.7,0,4.08,0,.18-.22.37-.45.61-.73q.05-1.35-.84-2.66v-2.24c-.16-.17-.31-.33-.44-.48v-.9c.22-.22.44-.44.66-.66h.88c.09-.12.24-.23.25-.34.02-.6.01-1.2.01-1.8V116.41c-.53-.41-1.08-.06-1.62-.3-.15-.28-.34-.66-.55-1.08.08-.09.22-.25.37-.42v-.86c.16-.17.31-.33.46-.5v-2.23l.85-.85v-.98c-.08-.08-.13-.18-.18-.18-1.35,0-2.7,0-4.05,0-.25-.39-.98-.56-.5-1.33h5.06c.37-.78.02-1.49.23-2.23h-25.11c-.33.43-.16.71.22.99.17.92-.03,1.89.11,2.84.49.27.34.75.43,1.17.07.32.34.59.58.99-.58.47-1.1.89-1.5,1.21v208.24c.43.25.86.49,1.24.71q.08,1.03-.78,2.43v2.56c-.32.56-.6,1.05-.88,1.54.18.18.4.4.64.64h82.91c.42.69-.1.9-.36,1.21-.06.05-.11.13-.17.13-29.72,0-59.43,0-89.13,0-.38-.4-.24-.82-.11-1.24.42-.21.87-.09,1.3-.11.52-.02,1.05,0,1.58,0h1.3c.38-.43.17-.89.21-1.32.03-.37,0-.75,0-1.14-.15-.16-.3-.32-.45-.49v-.88c-.16-.17-.31-.33-.43-.47v-2.71c.23-.23.44-.44.62-.62.25-.05.45-.09.68-.14V112.76c-.5-.21-1.02-.3-1.3-.84v-3.14c.13-.14.28-.3.43-.47v-.88c.16-.17.31-.33.44-.47v-1.36c-.13-.07-.26-.2-.38-.2-1.28-.01-2.55,0-3.83-.01-.06,0-.12-.07-.23-.15v-.99c.22-.24.42-.45.61-.66h4.51c.18-.16.34-.31.57-.52.23.12.48.24.93.48h24.68c.33-.49.1-1.03.15-1.42-.28-.51-.51-.94-.86-1.6v-2.09l-.44-.44v-1.51c.13-.11.41-.33.71-.58h.86c.07-.15.19-.27.19-.4,0-4.88,0-9.76,0-14.63.36-.29.53-.97,1.22-.62.04.06.1.11.13.17.02.07,0,.15,0,.22v15.05c.44.3.98.36,1.31.87v1.35c-.08.09-.21.26-.39.47v2.63c-.16.18-.3.34-.46.53v.85c-.21.31-.63.49-.45.95.12.07.24.21.36.21,7.58.01,15.16,0,22.66,0,.44.22.81.41,1.22.61.33.53-.2.74-.46,1.05-.06.05-.1.11-.17.13-.07.02-.15,0-.22,0h-23.17c-.44.46-.13,1.01-.23,1.54.19.2.39.41.63.67h24.87c.57-.57-.1-.78-.28-1.16v-.84l-.38-.38v-2.61c-.15-.19-.28-.36-.46-.6v-1.77c.12-.27.45-.51,1.31-.91v-29.75c.21-.18.43-.38.7-.61.17.15.37.34.64.59v29.74c.38.44.8.11,1.23.35.05.14.09.43.24.65.17.24.42.41.33.8-.12.13-.26.29-.42.48v2.21c-.16.17-.31.33-.46.5v2.23c-.16.17-.31.34-.45.49.01.16.03.31.04.45.12.06.25.18.37.18,7.43,0,14.86,0,22.29,0h1.57v1.18c-.14.06-.27.16-.4.16-8.03,0-16.06,0-24.08,0-.31.2-.24.51-.24.8,0,3.98,0,7.95,0,11.93,0,.21.03.43.05.61.1.08.15.14.21.16.07.02.15,0,.22,0h23.61c.23.23.45.45.67.67v.89c-.1.08-.21.23-.32.23-7.05.01-14.11.01-21.16.01h-2.15c-.12.13-.21.18-.21.24-.01.6,0,1.2,0,1.78.16.18.31.34.47.51v2.23c.5.28.43.75.43,1.41-.17.11-.48.31-.91.6h-.68c-.07.13-.19.25-.2.38-.02.52,0,1.05,0,1.58v169.55c.61.03,1.11.06,1.68.1.05.19.11.39.16.58-.18.19-.33.35-.48.52,0,.89,0,1.79,0,2.69-.11.11-.21.21-.4.4v1.77c-.22.26-.35.41-.45.53.23.25.43.48.61.68h23.44c.37.39.23.81.11,1.23-2.29.16-24.7.22-30.78.08-.34-.3-.11-.7-.18-1.05.11-.09.21-.25.32-.25,1.49-.02,2.98-.01,4.43-.01.28-.33.26-.55.05-.84-.24-.34-.4-.73-.73-1.34v-2.07c-.19-.19-.29-.29-.43-.43v-2.34c.36-.33.76-.09,1.1-.2.07-.12.2-.24.2-.36,0-56.96,0-113.92,0-170.88-.26-.59-.86-.7-1.35-.98v-2.26c.1-.09.21-.2.39-.37v-2.27c.33-.34.69-.55.4-1.07,0,0-.04-.09-.1-.09-1.4-.05-2.81,0-4.26-.03-.02-.43-.04-.71-.05-1.06.17-.19.37-.4.53-.58.1-.07.15-.12.22-.14.07-.02.15,0,.22,0h3.77c.09-.09.16-.14.19-.2.03-.06.03-.14.03-.21,0-4.28,0-8.56,0-12.83,0-.06-.08-.11-.16-.22h-25.32c-.07.07-.12.12-.17.17.27.26.54.52.87.85v3.23c.69.33.36.96.55,1.4l.31.31c-.18.37-.35.74-.54,1.13-.33.04-.68.08-1.03.12-.06.14-.16.27-.16.4,0,66.87,0,133.74,0,200.77Z"/><path d="m60.14,227.43h5.41c.62.63,1.25,1.27,2.01,2.05.05.49.02,1.14,0,1.79q-.92,1.37-1.73,1.73c-.02.14-.04.28-.06.43.24.49.91.32,1.2.8.22.36.03.94.59,1.02v1.76c-.3.51-.53.95-.81,1.35-.34.48-.85.74-1.39.97-.67.29-.83.39-1.37.02-.35-.24-.82-.21-1.13-.59-.13-.16-.56-.07-.86-.1-.17.15-.33.29-.53.45h-2.22c-.66-.54-1.28-1.13-1.6-1.99v-1.8c.56-.55.53-1.71,1.72-1.68.02-.24.04-.45.05-.64q-.87-.4-1.77-1.76v-1.95c.33-.3.83-.65,1.2-1.1.35-.42,1.02-.24,1.26-.78Zm4.95,2.25h-4.97c-.2.4-.4.81-.58,1.19.43.21.8.4,1.14.57h3.83c.54-.29.91-.48,1.25-.66.09-.58-.42-.76-.67-1.1Zm0,7.66c.21-.21.42-.42.62-.62v-1.02c-.42-.2-.78-.37-1.07-.51-.4.21-.77.4-1.18.61.29.46-.27.58-.35.89.21.22.42.44.62.64.46,0,.91,0,1.36,0Zm-5.59-.31c.69-.29,1.22.05,1.69-.3.09-.98.09-.98-.16-1.2-.22,0-.45-.02-.67,0-.28.03-.6-.14-.86.19v1.3Zm3.05-3.14c-.06-.06-.11-.11-.16-.16-.05.1-.12.2-.14.3,0,.04.09.1.14.15.05-.1.11-.2.16-.29Z"/><path d="m194.18,58.57h-1.21c-.12.12-.23.23-.34.34-.41.11-.87.29-1.2-.12-.35-.44-.86-.07-1.3-.35-.03-.15-.07-.36-.12-.6-.23-.23-.5-.5-.76-.76-.29-.83.17-1.76-.29-2.6-.49.46-.16,1.02-.26,1.56-.11.13-.25.3-.42.5v1.02c-.14.11-.38.29-.62.47-.23.18-.44.37-.68.52-.24.15-.5.24-.93.44h-1.16c-.14-.13-.3-.28-.47-.44h-.44c-.37-.37-.74-.74-1.12-1.12v-.88c-.16-.17-.31-.33-.45-.49v-3.6c.11-.11.22-.22.4-.4.02-.42.05-.93.08-1.43.32-.32.64-.64.97-.97.33-.25.95.05.97-.57h1.3c.48.53,1.46.41,1.73,1.4.14.52.47,1.01.47,1.6.63.43.3,1.08.39,1.64.02.11.16.2.24.29.05-.05.15-.11.15-.16,0-.89,0-1.79,0-2.84.38-.34.88-.69,1.26-1.14.35-.42,1.02-.24,1.26-.78.3,0,.6,0,.75,0,.42.22.73.38.97.51.58.54,1.13,1.05,1.63,1.51v5.87c-.34.5-1.11.66-.81,1.58Zm-3.22-2.95c.16.17.31.33.45.48,0,.24-.02.47,0,.69.02.13.11.25.17.37.14.01.29.03.36.04.47-.41.9-.8,1.21-1.07v-4.16c-.25-.24-.47-.44-.63-.59h-.92c-.21.4-.4.77-.65,1.26v2.99Zm-4.5.93c0-1.56,0-3.05,0-4.53,0-.66,0-.66-.8-.67-.29,0-.57,0-.85,0-.23,2.37-.24,5.04-.02,5.31.28.21.43.63.98.53.16-.14.37-.34.69-.63Z"/><path d="m6.95,207.16h-1.72c-.55-.54-1.08-1.06-1.61-1.58.17-.48-.28-.65-.43-.93-.09-.37.18-.54.32-.79.14-.23.1-.56.16-.94.36-.73,1.16-1.09,2.14-1.57h5.23c.46.23.72.99,1.45.94.16.37.29.69.54,1.28v1.51c-.45.46-.4,1.36-1.19,1.64-.64.22-1.21.63-1.91.77.2.05.41.07.6.14.13.05.21.2.34.27.18.1.39.15.73.29.4.41.92.95,1.46,1.5v2.18c-.54.55-1.06,1.09-1.58,1.62h-.91c-.11.11-.22.22-.32.32-.13.04-.27.11-.4.12-.97.01-1.94,0-2.89,0-.29-.52-.75-.45-1.06-.45-.75-.75-1.43-1.43-2.11-2.11-.36-.3.13-.98-.63-1.16v-1.06c.17-.13.4-.32.74-.58h1.45c.12.68,0,1.35.05,1.81.27.53.46.9.67,1.3.19-.03.4-.06.64-.09v-2.15c.47-1.13,1.66-1.26,2.3-2.03-.59-.72-.87.22-1.48.22-.12-.09-.34-.26-.59-.45Zm-.38-1.8h3.13c.16-.15.33-.31.48-.45.36-.08.76.16,1.06-.17v-1.13c-.55-.03-1.05-.06-1.54-.08-.18-.15-.34-.29-.46-.39h-2.28c-.31.63-.93.32-1.38.5-.19.2-.39.41-.58.61.32.69,1.16.6,1.57,1.12Zm2.68,6.75c.16-.15.32-.3.47-.45h.89c.21-.21.42-.42.63-.63v-1.17c-.61,0-1.18-.02-1.75,0-.27.01-.59-.14-.86.18v1.43c.22.22.43.43.63.63Z"/><path d="m213.96,36.94h-2.99c-.33-.53-.21-1.1-.12-1.74h1.66c.64-.33,1.02-.52,1.4-.72v-.54c-.58-.3-1.26-.08-1.9-.15-.61-.48-1.49-.59-1.9-1.4-.47.65-.08,1.34-.38,2.18.02-.03-.11.14-.29.35v.92c-.36.3-.76.63-1.29,1.07h-2.48c-.49-.52-1-1.05-1.64-1.72v-1.55c-.15-.18-.3-.34-.46-.53v-1.34c.13-.14.28-.3.44-.47v-1.67c.48-.84.78-1.7,1.85-2.15h1.91c.58.55,1.12,1.07,1.63,1.55.15.6.14.61.67,1.13.43-.24.17-.65.21-.84.61-.6,1.13-1.12,1.82-1.8h2.07c.54.64,1.17,1.38,1.98,2.33v3.98c-.39.78-.73,1.46-1.07,2.16-.13.02-.27.03-.54.07-.19.29-.44.67-.59.88Zm-6.34-1.83c0-.72-.01-1.24,0-1.76,0-.13.1-.26.15-.38.1-.11.2-.22.29-.32v-.88c-.16-.18-.31-.35-.46-.52v-1.38c-.36-.1-.42-.62-.95-.59-.37,0-.48.45-.77.63v4.63c.26.24.48.44.62.57h1.13Zm6.86-3.81c-.48-.8-.54-1.75-1.61-2.09-.25.25-.5.5-.75.75v1.35c.21.21.42.42.66.65h.95c.2-.18.47-.42.75-.67Z"/><path d="m213.69.03h2.77c.26.56.2,1.12.07,1.76h-2.31c-.32.3-.54.5-.74.69v.48q.57.22,1.1-.21c.27.36.8.32,1.06.6.32.35.89.16,1.11.62.61.04.01.9.74.95.1-.66,0-1.32.05-1.96.15-.17.3-.33.44-.48v-.7c.01-.07,0-.16.04-.21.47-.48.95-.96,1.48-1.49h2.81c.32.32.63.63.96.96.24.49-.08,1.2.56,1.56v1.67c.19.24.3.39.41.53-.16.16-.27.26-.39.39v1.76c-.16.17-.3.34-.46.52v.45c-.53.51-1.08,1.02-1.66,1.57-.53,0-1.13,0-1.73,0-.42-.51-1.24-.46-1.56-1.11.31-.73-1.07-.76-.72-1.59-.4.56-.8,1.11-1.19,1.67-.39.56-1.12.61-1.6,1.03h-1.12c-.48-.43-1.13-.54-1.62-1.01-.44-.42-.46-1.07-.95-1.44V2.96c.12-.13.26-.29.42-.47v-.39c.7-.71,1.38-1.4,2.02-2.06Zm8.34,6.52v-3.45c-.26-.49-.45-.86-.64-1.22h-1.01c-.24.26-.44.48-.57.62v4.53c.14.14.23.25.35.34.16.13.34.24.52.36.61-.28.9-.83,1.35-1.19Zm-7.75,1.15c1.02-.18.9-1.15,1.31-1.54-.19-.45-.32-.77-.45-1.09-1.89-.13-1.89-.12-2.11.14v1.35c.44.37.74.91,1.25,1.15Z"/><path d="m181.73,340.46h4.94c.31.2.23.51.24.8,0,.29,0,.58,0,.86-.65.28-1.25.09-1.83.13-.52.04-1.04,0-1.55,0-.37.4-.24.82-.11,1.24.42.22.87.07,1.3.11.12.07.24.16.37.2.9.26,1.4,1.01,2.05,1.59.47-.42.05-1.02.25-1.45.22-.46.52-.86.43-1.35.71-.7,1.39-1.39,2.16-2.15.75,0,1.65,0,2.54,0,.06,0,.11.09.2.17v1.55c-.83.15-1.65.03-2.45.09-.19.37-.38.75-.59,1.15.48.63.78-.16,1.18-.26.5-.14.64.66,1.16.45.54.51,1.08,1.02,1.62,1.54v2.85c-.35.32-.86.68-1.21,1.15-.34.46-1.11.1-1.17.76h-1.28c-.5-.26-.9-.41-1.24-.65-.36-.26-.67-.59-.94-.83v-.89c-.12-.17-.31-.38-.44-.63-.09-.18-.11-.4-.17-.65-.13.17-.25.26-.28.38-.11.49.22,1.04-.24,1.48-.32.3-.19.86-.64,1.09-.37.19-.74.39-1.29.67h-2.1c-.1-.08-.24-.26-.43-.36-.18-.09-.4-.1-.56-.14-.19-.4-.36-.76-.49-1.05.2-.25.38-.48.53-.67h.84c.11.08.28.21.67.49.69.41,1.13-.72,1.89-.57v-1.5c-.22-.22-.43-.43-.72-.72h-2.8c0-1.63,0-3.18,0-4.74,0-.05.1-.11.15-.16Zm9.52,7.62c.3-.53.14-1.05.15-1.54,0-.35.15-.73-.19-1.13-.52,0-1.1-.01-1.68,0-.12,0-.24.13-.35.2-.21.63.25,1.06.42,1.59.15.45.45.69.84.92.28-.01.56-.03.82-.04Z"/><path d="m66.5,204.41c-.69.19-.82-.61-1.35-.4-.91-.88-1.82-1.77-2.75-2.66-.12-.01-.33.03-.39-.05-.38-.47-1.1-.36-1.43-.88-.21.21-.42.42-.65.65v1.8c.13.14.28.3.43.47v.44c-.43.47-.98.13-1.62.25-.26-.35-.58-.76-1.04-1.36v-2.13c.25-.13.65-.33.8-.41.04-.52.05-.67.07-.84.35-.18.71-.37,1.26-.66h1.61c.56.46,1.4.62,1.87,1.31.95-.06,1.1,1.07,1.94,1.29.2-.65-.02-1.33.15-2.19.2-.15.56-.41.85-.63-.04-.28-.07-.42-.1-.63-.18-.04-.39-.08-.64-.13-.22-.22-.45-.55-.76-.74-.41-.25-.88-.39-1.33-.58-.46.5-.9.99-1.25,1.36h-1.12c-.16.15-.32.29-.48.44-.22-.22-.43-.43-.65-.65v-.89c.49-.51.92-1.12,1.74-1.28,0-.2.02-.4.03-.66-.23-.05-.44-.09-.7-.15-.32-.33-.68-.7-1.07-1.1v-.92c.19-.16.42-.36.64-.55.33.15.81.22,1.03.5.56.71,1.58.79,2.07,1.61.4-.29.74-.72,1.17-.82.58-.15.72-.74,1.32-.92h1.2c.26.24.31.5.1.77-.46.58-.54,1.52-1.56,1.59-.21.01-.39.36-.67.64.33.08.54.12.75.17.73.48,1.14,1.25,1.53,2.04-.22.22-.48.48-.76.76.05.47.6.55.79,1.43v3.55c-.38.41-.77.83-1.04,1.14Z"/><path d="m211.44,58.56c-.2-.21-.41-.42-.64-.66.13-.15.26-.3.41-.48v-.89c1.06-1.04,2.13-2.09,2.89-2.83.37-.75.55-1.12.73-1.47-.05-.44-.47-.58-.67-.88h-1.8c-.16.14-.32.29-.47.44h-.45c-.45-.45-.13-1-.22-1.49.33-.73,1.17-.75,1.69-1.21h1.02c.77.38,1.45.72,2.16,1.08.12.28.26.6.5,1.17v1.46c-.32.62-.64,1.23-1.13,2.16-.34.35-.93.97-1.54,1.6.49.31.94.15,1.37.18.37.03.74,0,1.16,0,.09.26.18.52.27.79.28.19.49.11.77-.07.41-.28.37-.78.64-1.09.24-.27.57-.46.73-.58v-.92c-.61-.86-1.23-1.73-1.8-2.54-.01-.53.44-.64.63-.94.14-.02.31-.09.43-.04.32.14.5.56.94.44.16.3.3.62.49.9.12.18.31.31.46.45.51.08.73-.12.64-.69.36-.31.75-.65,1.25-1.08h.87c.16.16.42.4.62.59-.04.29-.01.48-.09.57-.41.44-.89.82-1.24,1.3-.14.19-.12.51-.33.76-.3.36-.27.8,0,1.2.32.47.41,1.07.94,1.41.3.19.52.5.72.71-.07.26-.1.39-.14.53-.06.04-.12.11-.18.11-.59,0-1.19,0-1.74,0-.25-.25-.46-.46-.67-.67,0-.15,0-.3,0-.5-.18-.07-.37-.14-.59-.23-.46.52-.9,1.01-1.24,1.4h-7.41Z"/><path d="m151.58,351.73c-.44-.02-.73-.04-.98-.05-.33-.54-.05-1.07-.16-1.4.3-.57.53-1,.81-1.54,0,.07.02,0,0-.03-.42-.43-.84-.85-1.27-1.28v-4.09c.24-.23.55-.46.77-.76.16-.21.2-.51.28-.76.2-.01.34-.02.5-.03.31-.3.63-.6.96-.91h.88c.12-.12.23-.23.33-.33.72-.51,1.19.27,1.79.35.43-.28.73-.59.87-1.15.11-.44.63-.78.97-1.16l.74.74v1.34c-.29.31-.58.62-.88.93.54.52,1.09,1,1.31,1.74v4.25c-.37.33-.96.71-1.34,1.25-.42.6-1.19.54-1.6,1.08h-2.73c-.2.27-.53.54-.59.86-.08.44-.45.57-.68.95Zm-.29-6.31c.28.5.51.92.74,1.34.15,0,.3-.02.45-.03.36-.75.71-1.51,1.1-2.24.38-.72,1.04-1.28,1.25-2.1-.71-.53-1.21.14-1.78.33-.42.14-.69.44-.85.9-.21.58-.56,1.12-.92,1.8Zm5.39-2.03c-.5.59-.96.8-.85,1.34-.99.68-1.1,1.93-1.78,2.81-.07.1.09.38.14.56h.95c.38-.55,1.25-.39,1.57-1.13.02-.44.04-.94.06-1.38l.39-.39c-.13-.15-.26-.3-.4-.47-.02-.33-.04-.68-.07-1.35Z"/><path d="m62.62,220.19h2.7c.76.76,1.45,1.45,2.24,2.24v1.61c-.13.14-.28.3-.44.47v.5c-.25.08-.51.17-.77.26-.27.27-.53.53-.8.8h-1.33c-.17.16-.33.31-.49.45h-2.25c-.11-.11-.22-.22-.4-.4-.43-.02-.93-.05-1.43-.08-.64-.64-1.28-1.28-1.95-1.95v-1.66c.7-.7,1.38-1.38,2.25-2.25h1.83c-.21-.28-.32-.42-.48-.63v-6.43c.11-.1.37-.33.62-.55.27.26.48.47.69.68v6.95Zm-1.57,4.09c1.04,0,2.08,0,3.13,0,.16-.15.32-.3.48-.45.35-.08.74.16,1.05-.16.02-.14.04-.28.08-.57-.2-.18-.46-.42-.7-.64h-.9c-.2-.17-.37-.31-.48-.4h-2.28c-.31.63-.93.31-1.38.49-.19.2-.39.41-.58.61.32.68,1.15.61,1.57,1.12Z"/><path d="m100.68,103.64c.18.47.94.22,1.12.79.06.46-.4.58-.62.92h-27.14c-.33-.24-.1-.65-.18-1.04.18-.2.38-.41.62-.67h26.2Z"/><path d="m104.72,101.79c-.3,0-.6,0-.9,0-.08-.12-.22-.24-.22-.35-.01-8.09,0-16.18,0-24.27v-11.18l.68-.68c.21.21.42.42.61.61,0,11.92,0,23.81,0,35.71,0,.05-.1.11-.15.16Z"/><path d="m181.95,54.75v2.69c-.38.38-.75.75-.83.83-.63.36-.93.53-1.29.73h-1.48c-1-.41-1.73-.87-2.24-1.61.16-.44-.3-.6-.46-.91-.12-.77.39-1.33.67-1.96.18-.4.2-.4.15-1.21-.11-.11-.21-.21-.34-.34v-2.36c.3-.21.73-.52,1.15-.82-.05-.04-.09-.09-.14-.13.32-.14.63-.27,1.2-.52h1.53c.67.43,1.5.73,2.04,1.61v2.28c-.23.16-.59.42-.96.68.4.42.7.74.98,1.04Zm-4.02,1.75c.26.3.45.52.62.71.34,0,.63,0,.92,0,.21-.21.41-.41.63-.63v-.87c-.27-.34-.45-.56-.66-.82-.5.23-1.03-.13-1.52.26v1.35Zm1.14-5.52c-.42.36-.8.7-1.19,1.04.25.25.47.47.68.68.35-.05.74.15,1.1-.17v-1c-.24-.23-.44-.42-.59-.55Z"/><path d="m240.27,59.01h-1.17c-.52-.35-1.13-.51-1.64-.95-.47-.41-.46-1.07-.98-1.47v-5.02c.23-.44.85-.74,1.01-1.45.13-.61,1.07-.39,1.34-.99h1.39c.44.5,1.4.42,1.62,1.23.14.54.75.95.45,1.62.14.16.29.32.45.5v3.13c-.14.16-.29.32-.45.49v1.33c-.38.38-.75.75-1.13,1.13-.44-.14-.66.2-.89.44Zm-.65-1.8c.4-.28.7-.48.88-.6,0-1.77,0-3.33,0-4.89,0-.07-.02-.14-.05-.2-.04-.06-.1-.11-.15-.16-.5.02-1.02-.14-1.54.13v5.07c.28.18.4.6.88.64Z"/><path d="m38.5,217.94c-.19-.36-.38-.74-.64-1.24v-1.62c-.69-.81-.72-.82-1.32-.45.11.11.21.21.36.36.01.16.1.4.04.58-.37,1.09-.77,2.16-2.08,2.48-.12.03-.21.2-.35.34h-1.84c-.24-.07-.37-.59-.91-.39-.36-.42-.76-.85-1.1-1.31-.2-.28-.34-.61-.45-.93-.07-.2-.01-.45-.01-.68.14-.15.3-.32.45-.48v-.9c.32-.31.62-.65.96-.94.32-.27.85-.19,1.08-.63h4.05c.23.55.86.47,1.28.75.4.27,1.07.41,1.15.86.11.61.56.83.9,1.29v2.34c-.28.12-.58.17-.78.34-.24.21-.46.35-.78.24Zm-5.82-3.57c-.25.34-.76.51-.68,1.07.43.75,1.25.86,1.95,1.24.44-.42.85-.82,1.22-1.17-.08-.46.14-.87-.26-1.13h-2.24Z"/><path d="m67.57,174.96v1.56c-.74.74-1.42,1.42-2.3,2.3h-2.01c-.18.18-.29.29-.41.41h-1.35c-.14-.12-.3-.27-.47-.43h-1.3c-.71-.69-1.4-1.37-2.06-2.02v-1.82c.64-.64,1.28-1.28,1.96-1.96h5.96c.62.62,1.26,1.26,1.97,1.97Zm-6.52,2.03c1.04,0,2.09,0,3.13,0,.16-.15.32-.3.48-.45.35-.08.75.16,1.06-.17v-1.14c-.55-.03-1.05-.05-1.54-.07-.17-.15-.34-.3-.46-.4h-2.27c-.31.62-.92.33-1.05.38-.49.36-.73.53-.94.68.35.72,1.17.65,1.59,1.16Z"/><path d="m59.92,76.07h1.3v-1.79c.65-.7,1.16-1.25,1.62-1.75h2.74c.69.77,1.58,1.35,1.96,2.38v1.83c-.29.48-.62,1.02-.96,1.59-.32.02-.61.03-1.08.06-.13-.22-.32-.54-.68-1.14-.03-.25.58-.43.92-.9.01-.22.02-.51.04-.85-.17-.19-.37-.4-.64-.7-.58-.09-1.24.02-1.84-.04-.11.11-.2.16-.2.21,0,.9,0,1.79,0,2.73-.22.18-.44.37-.75.63h-3.64c-.23-.29-.55-.7-1-1.28v-3.32c.17-.34.36-.72.57-1.14.29-.18.65-.06,1-.04.22.21.43.43.64.63v2.88Z"/><path d="m30.2,208.3c.16-.17.31-.33.46-.5v-.94c.2-.06.4-.12.71-.22.23-.22.55-.53.88-.84h1.78c.11-.11.22-.22.34-.34.48-.21.99-.1,1.5-.07.11.11.21.21.37.37h1.65c.83.62,2.08.67,2.18,1.99v1.7c-.54.53-1.06,1.06-1.83,1.83.04-.02-.28.13-.8.36h-4.29c-.13-.12-.29-.26-.47-.42h-.82c-.79-.52-1.21-1.28-1.65-2.21v-.71Zm6.54,1.12h.9c.2-.21.41-.42.6-.61-.18-.37-.35-.73-.55-1.14h-5.06c-.19.31-.64.42-.63,1.08.04.19.42.35.63.63.36.03.72.06.99.08.18.18.28.28.4.4h2.25c.15-.14.31-.29.47-.44Z"/><path d="m218.65,36.94c-.5-.52-1.02-1.06-1.56-1.63v-5.77c.13-.15.28-.31.44-.48v-.45c.37-.34.74-.7,1.17-1.1h2.23c.44.5.93,1.06,1.62,1.85,0,0,.15.31.38.78v1.59c.15.16.3.33.46.5v.43c-.14.16-.29.32-.45.48v1.33c-.16.17-.31.33-.45.48v.79c-.22.47-.76.76-1.13,1.21h-2.71Zm.91-1.8c.35-.08.75.16,1.14-.23v-1.35c.18-.18.29-.29.38-.38v-1.91c-.16-.16-.27-.27-.38-.38v-.87c-.34-.27-.48-.8-1.25-.69-.13.14-.37.4-.54.59v4.57c.23.23.44.45.65.66Z"/><path d="m32.82,224.72c-.88-.46-1.7-.81-2.14-1.69.13-.37-.32-.54-.48-.84,0-.22-.05-.47.01-.67.1-.33.24-.67.45-.93.45-.58.96-1.11,1.46-1.68h6.07c.13.2.37.57.51.79.38.04.52.05.7.07.18.34.37.71.66,1.25v1.48c-.54.53-1.06,1.06-1.86,1.85.07-.03-.24.11-.78.35h-1.47c-.38.15-.53.64-1.02.47-.15-.14-.31-.29-.47-.44h-1.64Zm4.74-4.12c.24.24.19.14.13.14-1.55,0-3.1,0-4.49,0-.49.25-.85.44-1.21.63.01.17.02.31.03.46.21.21.42.42.64.64h.88c.17.16.33.31.49.46h2.23c.16-.15.32-.31.49-.46h.88c.22-.22.43-.43.62-.62-.17-.3-.34-.59-.7-1.24Z"/><path d="m80.27,29.74c-.05.3-.07.44-.1.61.4.24.8.48,1.22.74h1.17c.48.25.8.76,1.21,1.15v3.05c-.56.6-1.07,1.14-1.55,1.65h-3.63l-.65-.65v-.95c.18-.14.41-.33.81-.64.25-.09.59,0,1.19.43h1.36c.22-.44.47-.92.77-1.5-.44-.39-.87-.77-1.39-1.22-.56-.26-.94.43-1.57.51-.18-.16-.39-.35-.56-.5-.08-.11-.16-.16-.16-.22,0-1.34,0-2.69,0-4.01l.68-.68c1.47,0,2.96,0,4.45,0,.06,0,.12.08.23.15v1.45c-.21.23-.42.44-.61.65h-2.85Z"/><path d="m35.91,83.33h1.6c.49.42,1.12.56,1.62,1,.47.42.34,1.14.95,1.39v2.29c-.28.28-.44.67-.57,1.13h-1.55c-.08-.11-.28-.4-.49-.69l.33-.33v-2.37c-.3-.31-.69-.14-1.04-.15-.35-.01-.73-.1-1.14.12v2.78l-.55.55c-.06.04-.11.12-.17.13-.15.02-.3,0-.45,0h-3.12l-.66-.66v-4.38c.25-.34.46-.64.55-.77.71-.12.84.32,1.21.58v2.75c.47.36.88.29,1.34.08v-1.19c.28-.52.44-1.02.77-1.36.33-.35.82-.54,1.39-.89Z"/><path d="m58.34,185.1c-.19-.37-.38-.74-.65-1.27v-3.45c.16-.17.36-.38.6-.64h1.47c.06.16.16.29.16.42.01.97,0,1.95,0,2.92.37.4.8.22,1.3.11v-1.86c.56-.56,1.03-1.03,1.52-1.52.48-.22,1-.08,1.51-.1.44-.02.89,0,1.28,0q1.23.81,1.99,2v2.19c-.25.48-.44.85-.62,1.21h-1.8c-.26-.23-.33-.51-.11-.76.2-.23.33-.44.37-.76.03-.24.3-.46.46-.66-.24-.49-.45-.93-.67-1.39h-1.38c-.17.16-.38.36-.67.63v2.7c-.13.14-.18.23-.24.24-.15.02-.3,0-.45,0h-4.05Z"/><path d="m200.83,340.46v1.16c-.23.23-.54.54-.85.85.24.59-.72.78-.47,1.37-.35.27-.7.55-1,.78.27.65.33,1.23.66,1.51.73.64.87,1.7,1.69,2.19v.93c-.45.43-1,.13-1.58.23-.35-.4-.78-.8-1.1-1.28-.29-.43-.44-.95-.66-1.42-.72.28-.57,1.08-1.04,1.42-.44.32-.48.87-.79,1.26-.59,0-1.19,0-1.78,0-.06,0-.11-.09-.16-.14-.24-.43.02-.7.32-.92.39-.28.43-.73.64-1.08.19-.31.68-.52.72-.81.05-.42.31-.64.47-.89v-1.35c-.41-.44-.76-.84-1.02-1.4-.28-.61-.48-1.39-1.25-1.7l.69-.69h1.33c.27.46.5.96.93,1.37.34.32.51.83.74,1.24.92-.18.75-1.15,1.29-1.56-.09-.55.43-.72.68-1.06.45,0,.9,0,1.54,0Z"/><path d="m88.74,56.37c-.25.5-.4.9-.64,1.23-.26.36-.62.65-.92.96h-.46c-.17.16-.33.31-.47.44h-1.81c-.32-.57-.89-.4-1.43-.49-.2-.54-.16-1.1-.03-1.7h1.42c.35.22.77.5,1.31.4.72-.24.65-1.07,1.19-1.54-.24-.41-.66-.69-1.04-1.13h-2.27c-.48-.53-.07-1.09-.43-1.78.04.04-.11-.12-.27-.29v-1.33c.15-.16.3-.32.46-.49v-.88c.13-.07.25-.2.37-.2,1.63-.01,3.26,0,4.82,0,.35.42.11.8.21,1.12l-.68.68c-.94,0-1.89,0-2.88,0v1.18c.49.33,1.02.11,1.52.17.25.52.88.4,1.26.77.38.37.24,1.02.77,1.26v1.64Z"/><path d="m34.68,91.42c.51-.7.77-1.06.97-1.33h2.42c.65.68,1.32,1.37,2.04,2.12v2.61c-.37.36-.74.72-1.13,1.11h-.93c-.15-.18-.34-.41-.56-.68.08-.1.2-.25.33-.4v-2.36c-.37-.16-.69-.29-1.1-.46-.24.1-.6.25-.98.4-.26.47-.06,1-.15,1.53-.53.29-1.09.2-1.73.09v-1.42c-.37-.45-.77-.22-1.15-.3-.26.22-.53.45-.82.69.4.79.75,1.47,1.08,2.12-.29.35-.52.62-.72.87-.58-.25-1.02-.44-1.57-.67-.02-.29-.04-.65-.06-.99-.15-.17-.3-.34-.43-.48v-1.15c.46-.42.46-1.01.52-1.64.19-.04.39-.08.65-.13.22-.22.48-.49.79-.8h1.68c.15.23.39.6.84,1.28Z"/><path d="m40.1,230.36c-.21.21-.42.42-.68.67-.55,0-1.14,0-1.74,0-.06,0-.12-.07-.18-.11-.09-.26-.18-.52-.27-.78h-.51c-.73-.75-1.46-1.49-2.02-2.07-.59-.29-.97-.47-1.37-.66-.69.19-.87.91-1.36,1.15.07.78.68.95.92,1.39q0,.39-.67,1.08h-.93c-.18-.2-.38-.42-.62-.68-.08-.42.11-1-.47-1.31v-.91c.13-.14.28-.3.44-.47v-.89c.32-.66,1.15-.6,1.57-1.12h2.25c.16.14.32.29.49.45h.43c.75.75,1.49,1.49,2.23,2.23.08-.11.22-.22.23-.33.02-.67.01-1.35.01-2.1.16-.18.35-.39.53-.58.37-.23.73-.11,1.08-.09.22.21.43.43.64.63v4.51Z"/><path d="m233.96,52.7c.24.54.9.38,1.26.78.35.38.26,1,.76,1.26v1.64c-.26.5-.41.9-.65,1.24-.26.36-.59.67-.6.67-.65.3-.9.42-1.4.66h-1.67c-.31-.57-.91-.33-1.34-.41-.34-.54-.13-1.07-.18-1.57.43-.5,1.01,0,1.42-.28.45.42.91.58,1.48.5.19-.18.41-.39.65-.62v-1.4c-.12-.13-.32-.35-.55-.6-.77-.17-1.58,0-2.38-.1-.38-.47-.15-1.01-.18-1.51-.04-.6-.03-1.2,0-1.8.02-.51-.13-1.03.14-1.57h4.58c.26.23.48.43.67.6.1.6-.38.8-.71,1.21h-2.83c-.02.29-.05.5-.06.71,0,.31,0,.6.45.58.37-.02.75,0,1.12,0Z"/><path d="m7.3,221.12c.83.42,1.52.79,2.05,1.42.52.62,1.11,1.18,1.68,1.78.47-.52.19-1.06.25-1.56.06-.51-.11-1.03.14-1.58h1.5s.11.09.15.15c.03.06.02.14.02.21,0,1.57,0,3.15,0,4.79-.19.16-.42.35-.77.65-.13,0-.45.08-.7-.02-.45-.18-.91-.4-1.27-.72-.83-.75-1.6-1.58-2.25-2.23-.79-.39-1.41-.69-2.06-1.01-.31.31-.68.68-1.05,1.05.78,1.12.87,1.36.85,2.31-.46.35-1,.09-1.55.18-.18-.2-.37-.43-.61-.7q-.08-.77-.47-1.3c-.01-.15-.03-.29-.03-.44,0-.15,0-.3,0-.45.16-.31.62-.47.44-.95.53-.52,1.06-1.04,1.6-1.58h2.07Z"/><path d="m58.86,82.04c-.2-.05-.41-.11-.71-.19-.06-.62-.03-1.27-.01-1.92.06-.06.1-.13.17-.16.06-.03.14-.05.2-.05,1.27,0,2.55,0,3.94,0,.21-.29.46-.66.6-.86.91-.16,1.07.5,1.78.83h2.13c.12.33.2.59.32.84.06.12.19.21.29.32-.37.37-.74.74-1.11,1.11h-1.79c-.08.12-.22.23-.23.35-.02.82-.01,1.65-.01,2.67-.17.14-.45.37-.72.59h-.7c-.44-.14-.62-.72-1-.8-.57-.12-.87-.49-1.23-.83-.33-.31-.64-.63-.96-.95-.32-.32-.64-.64-.95-.95Zm2.48.07c.07.37.41.51.62.76h.46c.26-.3.31-.6-.07-.93-.3.16-.69-.14-1.01.17Z"/><path d="m77.03,30.85c-.15.16-.3.32-.44.47v.88c.16.18.31.34.46.51v.84c.15.19.28.34.4.49l-.38.38v1.16c-.26.84-1.1.77-1.58,1.3h-3.21c-.23-.22-.45-.42-.65-.62v-1.37c.28-.38.68-.16,1.06-.23.15.13.32.27.52.44h1.34c.17-.16.38-.36.65-.61.01-.24.03-.53.05-1.01-.2-.13-.5-.34-.92-.62h-.69c-.22-.22-.43-.43-.65-.65v-.9c.45-.53,1.11-.06,1.5-.24.32-.28.54-.48.73-.64.1-.6-.37-.8-.65-1.14h-.9c-.14.13-.3.28-.47.44h-1.33c-.26-.22-.27-.22-.16-1.65.28-.35,1.04.18.96-.58h2.8c.42.53,1.25.46,1.56,1.12v2.23Z"/><path d="m81.53,49.75v4.23c.24.24.56.55.91.9.09.6-.67.68-.94,1.15v2.37c-.57.31-1.09.06-1.53.19-.27-.27-.49-.49-.7-.7,0-.45,0-.9,0-1.34.15-.16.29-.32.43-.48-.06-.06-.12-.16-.17-.16-1.04,0-2.09,0-3.13,0-.24-.23-.45-.43-.71-.68-.01-.25-.03-.53-.05-.92.27-.27.71-.53.85-.9.13-.35.23-.66.51-.92.33-.3.64-.63.96-.95.27-.27.53-.53.8-.8.02-.14.04-.29.06-.52.14-.06.32-.13.49-.21.19-.1.37-.21.68-.4.42-.06.98-.18,1.52.15Zm-2.47,4.3c.37-.45.37-.89.09-1.24-.29.18-.6.37-.75.47-.08.75.25.8.66.77Z"/><path d="m203.08,35.14v1.13c-.13.14-.32.35-.49.54-.09.06-.15.13-.21.13-1.64,0-3.28,0-4.89,0-.08-.08-.18-.14-.18-.19-.01-.59,0-1.19,0-1.76,1.05-1.05,2.1-2.1,3.11-3.11v-.54c.16-.17.31-.33.46-.49v-.89c-.21-.21-.42-.42-.66-.65h-.91c-.13.12-.29.26-.47.42h-1.36c-.37-.5-.19-1.08-.16-1.63.38-.2.84-.23,1.1-.6h2.59c.58.58,1.11,1.1,1.64,1.64-.16.43.34.58.5,1-.47.92-.97,1.91-1.66,3.25-.31.31-.92.92-1.52,1.52.12.13.17.23.22.23.9,0,1.79,0,2.89,0Z"/><path d="m162.99,343.64v-1.23c-.11-.08-.17-.15-.23-.15-.59,0-1.19,0-1.72,0-.22.19-.38.33-.52.44-.6.09-.76-.43-1.13-.73.07-.18.14-.38.23-.56.15-.31.31-.62.48-.94h1.78c.17-.15.33-.3.49-.45.16.15.32.3.48.45h.8c.58.58,1.1,1.1,1.64,1.64v1.55c-.71,1.54-1.42,2.88-2.82,3.79.76.36,1.44.16,2.14.23.18.16.39.36.64.6v1.01c-.26.26-3.05.28-5.76.04v-1.4c1-1.41,2.77-2.28,3.5-4.28Z"/><path d="m198.16,7.45c1.17-1.17,2.33-2.33,3.55-3.55V1.89c-.63-.14-1.29-.04-1.95-.07-.16.15-.33.3-.48.45h-.89c-.39-.28-.14-.69-.28-1.13.39-.31.79-.63,1.36-1.08h2.95c.4.39.92.73,1.18,1.4.27.67.83,1.25.01,1.9.2.7-.47,1.18-.53,1.92-.52.5-1.11,1.08-1.69,1.65-.02.02.01.1.03.23h1.64c.64.33,1.02.52,1.4.72v.89c-.1.08-.21.23-.32.23-1.94.01-3.88.01-5.78.01-.35-.54-.13-1.07-.2-1.57Z"/><path d="m172.03,348.5v.76c-.13.07-.26.2-.38.2-1.78.01-3.57,0-5.29,0-.27-.53-.13-.98-.17-1.43.19-.5.65-.77,1-1.14.46-.49,1.03-.9,1.4-1.45.36-.53.62-1.13,1.15-1.55v-1.47c-.1-.08-.16-.16-.22-.16-.75,0-1.49,0-2.21,0-.28.29-.5.62-.97.39-.34-.46-.08-.99-.16-1.53.21-.18.43-.38.71-.63h1.24c.18-.15.34-.3.52-.45.15.13.3.27.47.42h1.34c.36.37.73.74,1.11,1.14v2.6c-.19.34-.37.64-.74,1.29-.45.45-1.19,1.19-1.93,1.93.1.08.2.23.3.24.67.02,1.35.01,2.24.01.12.17.33.47.58.84Z"/><path d="m60.89,209.41c-.06.51-.1.87-.14,1.21-.51.26-1.03.11-1.54.11-.36-.29-.13-.7-.26-1.33-.33-.25-.85-.64-1.32-1,.46-.51.81-.9,1.14-1.26h6.88c.07-.41.13-.82.21-1.28h1.07c.19.37.38.74.63,1.22v2.4c-.26.5-.45.88-.65,1.26h-.91c-.49-.27-.07-.82-.3-1.18-.05-.05-.11-.15-.16-.15-1.5,0-3,0-4.66,0Z"/><path d="m206.68,7.51V2.89c-.35-.35-.76-.04-1.36-.39-.11-.09.14-.5-.01-.92.92-.22,1.43-.94,2.05-1.53.5-.09,1,0,1.57-.06v7.56c.47.07.88.14,1.34.21v1.08c-.05.05-.1.13-.16.16-.06.03-.14.02-.22.02-1.42,0-2.84,0-4.27,0-.06,0-.11-.09-.21-.17v-1c.33-.37.74-.04,1.27-.34Z"/><path d="m3.66,217.9v-1.06c.13-.15.33-.36.59-.64h6.31c.3-.29.51-.5.68-.66.06-.27.1-.47.14-.68h1.54c.08.1.16.16.16.22,0,1.35,0,2.69,0,4.01-.24.24-.45.45-.67.67h-.9c-.49-.28-.06-.83-.31-1.19-.16-.16-.32-.32-.48-.48-.06-.04-.12-.12-.17-.12-1.19,0-2.39,0-3.56,0-.29.36-.67.57-.71,1.11-.02.26-.4.6-.72.68-.53.08-.64-.4-.97-.55-.04-.38-.08-.73-.13-1.15-.2-.04-.4-.08-.81-.16Z"/><path d="m171.6,52.32c-.5-.05-.85-.09-1.19-.13-.31-.35-.1-.73-.15-1.08.53-.72,1.58-.75,2-1.56h.93c.22.22.43.43.71.71v6.87c.42.04.77.08,1.13.11.34.3.11.7.18,1.05-.11.09-.21.25-.32.25-1.49.02-2.98.01-4.41.01-.39-.35-.15-.75-.23-1.1.29-.5.83-.09,1.11-.27.13-.12.23-.17.23-.22,0-1.49,0-2.99,0-4.65Z"/><path d="m58.87,244.09h-.54c-.21-.21-.42-.42-.63-.64.29-.3.41-.7.58-1.15h7.25c.4-.38.16-.78.24-1.12.26-.4.68-.16.98-.26.1.04.2.05.22.1.14.31.27.63.44.93.27.48.13,1,.15,1.51.02.44,0,.89,0,1.11-.29.56-.48.93-.67,1.31h-.99c-.07-.39-.15-.8-.22-1.2-.16-.16-.32-.32-.48-.48-.06-.04-.12-.11-.18-.11-1.19,0-2.39,0-3.55,0-.3.36-.67.57-.71,1.11-.02.25-.4.6-.74.69-.51.07-.63-.39-.93-.58-.08-.41-.16-.82-.23-1.22Z"/><path d="m205.35,344.69v2.72c-.11.12-.25.28-.43.49,0,.25.12.62-.02.82-.36.52-.6,1.1-.87,1.66-.37.76-1.1,1.16-1.55,1.76h-.96c-.64-.86.27-1.44.39-2.15.6-.35.69-1.07,1.16-1.68v-4.45c-.59-.79-.77-1.99-1.74-2.72v-.96c.15-.05.34-.13.53-.18.65-.2.96.6,1.57.54.05.06.14.12.13.17-.07.64.52.84.85,1.28.04.31.01.69.15,1,.11.25.42.4.36.75-.07.4.07.72.43.96Z"/><path d="m60.85,89.18v1.16c-.23.18-.52.4-.84.65-.49.07-.66-.44-1-.7v-.89c-.43-.25-.85-.49-1.28-.74.18-.42.32-.78.47-1.15.06-.05.11-.11.17-.13.07-.02.15,0,.22,0h7.05c.07-.41.14-.82.22-1.23.35-.26.72-.05,1.05-.13.21.41.4.78.66,1.28v2.4c-.25.48-.44.86-.64,1.22h-1.1c-.04-.4-.08-.76-.11-1.1-.22-.22-.42-.43-.63-.64h-4.25Z"/><path d="m65.7,187.8c.06-.51.1-.87.14-1.2.35-.3.74-.05,1.07-.16.21.41.4.79.66,1.29v2.55c-.5.38-.76,1.09-1.47,1.16-.58-.31-.16-.86-.39-1.22-.16-.16-.32-.32-.48-.48-.06-.04-.11-.13-.17-.13-1.35,0-2.69,0-4.01,0-.39.32-.16.72-.23,1.07-.23.28-.45.56-.56.7-.81.13-.87-.49-1.26-.6v-1.01c-.27-.1-.53-.19-.83-.3v-1.48c.15-.06.28-.16.41-.16,2.33,0,4.65,0,7.13,0Z"/><path d="m178.35,347.43c.15.16.3.32.46.49v.77c.3.51.51.96.81,1.35.27.35.62.64.93.95v1.04c-.54.24-1.05.13-1.57.1-.17-.31-.65-.41-.62-.85.03-.38-.28-.5-.48-.69-.27-.26-.48-.54-.47-.93-.74-.34-.08-1.33-.79-1.69-.02-.36-.07-.73-.07-1.09-.01-.82,0-1.64,0-2.52.11-.13.24-.3.42-.52v-1.31c.24-.24.48-.51.76-.75.29-.25.08-.71.46-.94.31-.19.54-.51.8-.78.51-.08,1.01-.01,1.57-.05.03.41.05.69.06.96-.08.14-.13.28-.22.38-.31.33-.67.61-.93.96-.25.33-.39.73-.65,1.24v.72c-.15.16-.31.33-.46.49,0,.89,0,1.79,0,2.68Z"/><path d="m205.02,58.56c-.05-.29-.07-.43-.12-.69.59-.42,1.21-.86,1.82-1.29v-4.1c-.28-.39-.69-.15-1.26-.32-.08-.1-.31-.38-.58-.71.07-.16.14-.48.25-.5.3-.05.55-.1.78-.33.13-.13.38-.15.67-.25.06-.17.15-.43.24-.69.49-.27,1.01-.02,1.47-.15.1.19.21.32.21.44.01,2.17,0,4.35,0,6.61.58.41,1.19.85,1.82,1.29-.27.27-.48.49-.69.7h-4.63Z"/><path d="m223.84,51.08c.54-.25,1.11-.5,1.7-.77.04-.17.09-.38.14-.58.13-.06.25-.17.37-.17.43.03.88-.13,1.36.17v6.75c.49.75,1.4.71,1.8,1.4-.19.2-.39.41-.62.65h-4.22c-.1-.12-.33-.37-.56-.63.26-.27.48-.48.68-.69h.45c.21-.21.42-.42.62-.62v-4.26c-.26-.03-.47-.05-.68-.07-.14-.01-.29-.03-.43-.04-.27-.32-.74-.54-.63-1.13Z"/><path d="m70.27,57.43c.42-.24.85-.49,1.3-.75,0-1.45,0-2.85,0-4.26-.05-.05-.1-.15-.16-.15-.3-.02-.6,0-.87,0-.43-.27-.2-.68-.28-1.12.17-.17.34-.49.58-.56.6-.16.99-.56,1.41-1h1.01c.08.1.14.15.16.22.02.07,0,.15,0,.22v6.47c.42.71,1.33.68,1.78,1.36-.18.19-.37.4-.59.64h-4.16c-.34-.33-.1-.73-.18-1.08Z"/><path d="m195.8,53.39c.44-.31.87-.61,1.57-1.09h5.02c.3.25.53.45.71.6v.95c-.22.22-.44.44-.66.66h-5.4c-.25-.22-.47-.54-.92-.47-.06,0-.18-.34-.33-.64Z"/><path d="m203.08,54.96v1.62c-.09.08-.15.18-.2.18-2.08,0-4.16,0-6.15,0-.35-.25-.64-.47-.77-.56-.13-.7.31-.83.47-1.09.1-.07.15-.14.21-.14,2.08,0,4.16,0,6.44,0Z"/><path d="m65.32,219.1c-.3.3-.45.45-.63.63h-1c-.08-.1-.17-.16-.17-.21,0-2.09,0-4.17,0-6.29.52-.35,1.09-.2,1.65-.15.06.14.15.27.15.4,0,1.86,0,3.73,0,5.62Z"/><path d="m277.87,330.78c.5-.51.51-.5,1.1-.68.19.35.37.71.66,1.27v2.69c-.13.11-.41.33-.7.56-.56.11-.7-.47-1.06-.63v-3.2Z"/><path d="m153.71,330.04c.25.23.46.43.72.67v3.23c-.22.24-.42.46-.6.66h-.53c-.09-.25-.16-.52-.28-.77-.06-.13-.2-.22-.32-.34v-2.25c.21-.25.54-.46.46-.92,0-.06.34-.18.55-.28Z"/><path d="m199.97,331.38c.26-.49.45-.87.65-1.24.13-.01.28-.03.46-.04.2.19.41.39.66.63v3.32c-.13.1-.41.33-.7.56-.29,0-.56.02-.63-.41-.04-.26-.25-.5-.43-.86v-1.96Z"/><path d="m263.69,329.99c.22.52.35.84.62,1.48v2.47c-.22.24-.42.46-.59.65-.62.15-.77-.42-1.14-.6v-2.76c.21-.25.54-.46.46-.92,0-.06.34-.18.65-.33Z"/><path d="m333.91,139.58h-3.16c-.35-.31-.12-.7-.21-1.12.2-.16.43-.34.77-.61h2.06c.49.25.86.43,1.23.62v.49c-.19.16-.41.36-.7.61Z"/><path d="m331.23,154.93c-.21-.21-.42-.42-.63-.63v-1.01c.1-.08.16-.16.21-.16,1.03,0,2.06,0,2.87,0,.41.31.7.52.92.69,0,.44-.07.64-.47.68-.25.03-.48.27-.74.43h-2.17Z"/><path d="m333.96,200.41c.3.33.49.54.66.72-.01.37-.03.61-.45.65-.25.02-.48.26-.78.43h-2.17c-.18-.2-.37-.42-.62-.69v-.93c.09-.08.15-.17.2-.17,1.03,0,2.06,0,3.16,0Z"/><path d="m98.63,138.75c.06-.49.47-.62.68-.93h2.4c.5.3.82.48.95.56.1.72-.37.83-.53,1.19h-2.92c-.09-.13-.29-.42-.57-.82Z"/><path d="m102.02,200.41c.21.29.61.44.68.84.06.47-.43.57-.58.92h-2.29c-.36-.21-.77-.44-1.19-.68.18-.57.17-.58.68-1.08.9,0,1.8,0,2.7,0Z"/><path d="m102.02,153.12c.21.21.43.42.63.64.04.04.03.14.05.22.05.45-.4.57-.62.91h-2.25c-.36-.21-.77-.44-1.18-.68-.08-.56.42-.74.67-1.08.9,0,1.8,0,2.7,0Z"/><path d="m326.05,334.56h-1.18c-.06-.15-.16-.27-.16-.4-.01-1.32,0-2.64,0-3.89.8-.44.97.25,1.35.51v3.77Z"/><path d="m107.43,330.1h.46c.2.21.41.42.63.65v3.68c-.36.32-.74.11-1.09.17-.3-1.41-.3-3.18,0-4.5Z"/><path d="m168.89,330.77l.67-.67c.18.18.37.36.54.53.05.07.11.12.13.18.02.07,0,.15,0,.22v3.33c-.05.05-.1.15-.15.15-.35.04-.7.07-1.01.1-.08-.21-.18-.34-.18-.47-.01-1.11,0-2.22,0-3.37Z"/><path d="m231.49,330.77c.29-.29.45-.45.73-.73.12.25.23.51.35.76.05-.05.1-.1.15-.15.04.06.11.11.11.17.02.15,0,.3,0,.44v3.1c-.36.4-.79.21-1.21.14-.05-.05-.14-.11-.14-.16,0-1.18,0-2.37,0-3.58Z"/><path d="m185.38,334.56h-1c-.06-.15-.16-.28-.16-.4-.01-1.11,0-2.22,0-3.36.18-.19.38-.4.59-.62.34-.02.4.34.62.45.05.14.13.27.13.4.01,1.11,0,2.22,0,3.33,0,.05-.09.11-.17.2Z"/><path d="m248.12,330.89v3.53c-.31.37-.72.06-1.03.22-.12-.14-.28-.24-.28-.35-.02-1.18-.01-2.36-.01-3.51.24-.24.45-.45.7-.7.18.23.35.46.62.81Z"/><path d="m123.86,333.94q-.65.59-1.22.58c-.26-.4-.12-.85-.13-1.27-.02-1.02,0-2.04,0-2.99.81-.41.98.26,1.35.54v3.15Z"/><path d="m310.52,334.6c-.3,0-.59,0-.89,0-.08-.11-.23-.22-.23-.34-.02-1.18-.01-2.36-.01-3.49.25-.25.46-.46.68-.68.2.21.41.42.6.63,0,1.24,0,2.48,0,3.72,0,.05-.1.1-.15.16Z"/><path d="m137.96,330.19c.56-.34.75.23,1.02.39.1.12.18.17.18.23,0,1.04,0,2.07,0,3.11-.37.27-.54.95-1.21.61-.05-.06-.13-.11-.13-.17,0-1.33,0-2.66,0-3.99,0-.06.09-.11.13-.16Z"/><path d="m294.08,330.77c.29-.29.45-.45.73-.73.12.25.23.51.35.76.05-.05.1-.1.15-.15.04.06.11.11.11.17.02.15,0,.3,0,.44v3.1c-.36.4-.79.21-1.21.14-.05-.05-.14-.11-.14-.16,0-1.18,0-2.37,0-3.58Z"/><path d="m98.68,248.59v-1.17c.09-.08.15-.17.2-.18,1.19,0,2.38,0,3.58,0,.43.35.21.79.16,1.2-.05.05-.11.14-.16.14-1.19,0-2.38,0-3.77,0Z"/><path d="m102.66,106.74v1.17c-.09.08-.15.18-.2.18-1.19,0-2.38,0-3.58,0-.43-.35-.21-.79-.16-1.2.05-.05.11-.14.16-.14,1.19,0,2.38,0,3.77,0Z"/><path d="m98.68,123.22v-1.01c.16-.06.29-.16.42-.16,1.12-.01,2.23,0,3.35,0,.05,0,.11.09.2.18v1.01c-.16.06-.29.16-.42.16-1.12.01-2.23,0-3.35,0-.05,0-.11-.09-.2-.18Z"/><path d="m334.78,170.65h-4.03c-.37-.34-.05-.75-.23-1.06.16-.1.27-.24.39-.25,1.18-.02,2.37,0,3.48,0,.41.38.09.78.39,1.32Z"/><path d="m330.6,186v-1.18c.15-.06.28-.16.41-.16,1.17-.01,2.35,0,3.6,0,0,.43.02.71-.01,1-.01.12-.13.25-.22.35-.03.04-.14,0-.22,0h-3.56Z"/><path d="m102.66,294.7v1.01c-.16.06-.29.16-.41.16-1.12.01-2.23,0-3.35,0-.05,0-.11-.09-.2-.17v-1.01c.16-.06.29-.16.41-.16,1.12-.01,2.23,0,3.35,0,.05,0,.11.09.2.17Z"/><path d="m98.64,279.44c0-.3,0-.6,0-.89.12-.08.23-.22.35-.22,1.18-.02,2.37-.01,3.48-.01.38.38.14.77.22,1.12-.33.34-2.59.35-4.05,0Z"/><path d="m330.6,123.22v-1.01c.16-.06.29-.16.42-.16,1.12-.01,2.23,0,3.35,0,.05,0,.11.09.2.18v1.01c-.16.06-.29.16-.42.16-1.12.01-2.23,0-3.35,0-.05,0-.11-.09-.2-.18Z"/><path d="m102.66,310.01v1.01c-.16.06-.29.16-.41.16-1.12.01-2.23,0-3.35,0-.05,0-.11-.09-.2-.17v-1.01c.16-.06.29-.16.41-.16,1.12-.01,2.23,0,3.35,0,.05,0,.11.09.2.17Z"/><path d="m102.65,169.34v1.18c-.1.08-.15.17-.21.17-1.19,0-2.38,0-3.58,0q-.22-.59-.14-1.21c.06-.05.11-.13.17-.13,1.19,0,2.38,0,3.76,0Z"/><path d="m334.57,106.92v1.01c-.16.06-.29.16-.42.16-1.12.01-2.23,0-3.35,0-.05,0-.11-.09-.2-.18v-1.01c.16-.06.29-.16.42-.16,1.12-.01,2.23,0,3.35,0,.05,0,.11.09.2.18Z"/><path d="m102.65,232.08v1.03c-.15.06-.28.16-.41.16-1.12.01-2.23,0-3.35,0-.06,0-.11-.09-.25-.21,0-.21-.02-.5.01-.78.01-.12.13-.25.22-.35.03-.04.14,0,.22,0,1.04,0,2.09,0,3.13,0,.13,0,.26.09.43.15Z"/><path d="m102.66,184.65v1.17c-.09.08-.15.18-.2.18-1.19,0-2.38,0-3.58,0-.44-.35-.21-.79-.16-1.2.05-.05.11-.14.16-.14,1.19,0,2.38,0,3.78,0Z"/><path d="m330.6,326.32v-1c.15-.06.28-.16.41-.16,1.11-.01,2.23,0,3.34,0,.06,0,.11.08.17.12.36.68-.32.85-.59,1.22-1.04,0-2.08,0-3.12,0-.05,0-.11-.09-.2-.17Z"/><path d="m334.61,247.47v.46c-.21.2-.42.41-.65.63h-3.23c-.32-.36-.11-.74-.17-1.09,1.4-.3,2.74-.3,4.05,0Z"/><path d="m330.6,311.19v-1.17c.1-.08.15-.17.2-.17,1.19,0,2.37,0,3.56,0,.05,0,.11.09.16.14q0,.56-.46,1.08c-.06.04-.11.13-.17.13-1.04,0-2.08,0-3.3,0Z"/><path d="m330.51,231.97h3.99c.05.21.1.41.15.63-.23.21-.45.41-.72.65h-3.18c-.34-.35-.11-.74-.23-1.28Z"/><path d="m102.7,263c0,.52,0,.82,0,1.12-.11.08-.23.22-.34.22-1.18.02-2.36.01-3.59.01-.06-.24-.11-.44-.16-.66.23-.21.46-.4.78-.69,1.02,0,2.17,0,3.31,0Z"/><path d="m330.51,263.04h3.39c.29.25.51.45.7.61v.49c-.06.06-.11.16-.16.16-1.24,0-2.49,0-3.71,0-.32-.34-.09-.73-.21-1.26Z"/><path d="m333.96,278.31c.37.45.89.66.56,1.21-.06.05-.11.13-.17.13-1.19,0-2.37,0-3.56,0-.43-.35-.21-.79-.16-1.2.13-.05.26-.14.38-.14.96-.01,1.93,0,2.95,0Z"/><path d="m333.87,295.84h-3.12c-.35-.34-.11-.73-.19-1.08.11-.08.22-.23.34-.23,1.18-.02,2.36-.01,3.59-.01.06.24.11.44.17.67-.24.2-.46.38-.78.65Z"/><path d="m102.61,325.28c.35.67-.33.84-.6,1.22h-2.66q-.62-.63-.62-1.21c.05-.05.11-.14.16-.14,1.18,0,2.36,0,3.55,0,.06,0,.11.08.17.13Z"/><path d="m1.32,95.03c-.46,0-.76,0-1.05,0-.49-.34-.06-.8-.26-1.1.4-.4.79-.17,1.14-.25.53.45.1.9.18,1.35Z"/><path d="m172.8,281.08c-.24-.22-.4-.37-.56-.53h-.85c-.4-.39-.78-.75-1.15-1.11.17-.48-.28-.65-.43-.93v-5.39c.65-.65,1.28-1.28,1.97-1.97h2.29c.4.23.89.64,1.11,1.15.24.56.67,1.11.55,1.79.68.3.12,1.12.68,1.54.3-.67.06-1.34.21-2.07.08-.09.23-.26.39-.44v-.9c.66-.14,1.1-.61,1.56-1.1h1.78c.4.49,1.24.42,1.55,1.05.25.49.43,1.02.66,1.57.49-.2.59-.63.82-1.05.34-.63.98-1.11,1.42-1.57h2.33c.4.39.78.75.91.89.41.84.69,1.4,1.08,2.19,0,.99,0,2.24,0,3.49-.5.27-.38.75-.4,1.21-.69.92-1.54,1.67-2.74,2.16-.18-.12-.4-.28-.7-.48h-.77c-.96-.66-1.41-1.62-1.79-2.64-.57,0-.12.61-.47.78-.43.2-.21.81-.63,1.09-.3.2-.51.53-.73.77h-.96c-.12.12-.22.22-.34.34-.45-.08-.81-.5-1.33-.35-.81-.42-1.2-1.2-1.7-2.29v-1.54c-.13-.12-.19-.21-.23-.2-.06.01-.14.09-.16.15-.14.47.06,1.01-.46,1.4-.15.11-.05.56-.07.94-.59.44-.99,1.19-1.75,1.54-.37.17-.74.35-1.08.52Zm12.98-8.08c-.32.32-.68.68-1.08,1.08v3.6c.53.43.43,1.26,1.03,1.43.44-.37.84-.7,1.16-.97v-4.58c-.38-.2-.75-.38-1.11-.57Zm-11.94,5.09v-4.08c-.35-.32-.73-.66-1.12-1.01-.38.33-.8.7-1.11.97v4.01c.42.48.75.86,1.08,1.24.41-.41.78-.77,1.15-1.13Zm5.64-5.07c-.39.34-.78.68-1.14.99v3.6c.49.46.46,1.26,1.15,1.6.32-.36.67-.74,1.05-1.17v-4.51c-.41-.2-.78-.37-1.07-.51Z"/><path d="m217.02,204.27c-.24.17-.38.57-.78.64-.47.05-.59-.4-.93-.62v-50.56c.53-.25,1.09-.19,1.71-.06v50.61Z"/><path d="m215.28,229.6c.26-.49.45-.87.64-1.24.14-.01.28-.03.46-.04.2.19.41.39.66.63v50.15c-.13.1-.41.33-.7.56-.54.08-.72-.43-1.06-.68v-49.38Z"/><path d="m153.22,216.94q-.02-.57.45-1.09c.06-.04.11-.13.17-.13,16.79,0,33.57,0,50.36,0,.32.35.9.56.66,1.22-2.18.18-49.52.18-51.64,0Z"/><path d="m228.44,216.95c-.39-.69.32-.86.58-1.23h49.91c.33.34.94.52.66,1.2-.13.05-.26.14-.39.14-13.49.17-47.93.09-50.76-.11Z"/><path d="m217.08,222.7c-.27.23-.46.57-.7.66-.6.07-.72-.38-1.05-.6v-4.6l.46-.46c-.26-.12-.51-.25-1.22-.59h-4.41c-.3-.29-.51-.5-.72-.7.22-.22.43-.43.68-.68,1.6,0,3.25,0,4.89,0,.06,0,.12-.07.25-.16v-5.01c.38-.24.49-.68.96-.69.42,0,.53.44.91.68v5.01c.13.09.19.15.25.16.07.02.15,0,.22,0h5.12c.24.24.45.45.67.67v.44c-.11.08-.22.22-.34.23-1.94.01-3.87.01-5.74.01-.12.13-.21.17-.21.23-.02.15,0,.3,0,.45v4.95Z"/><path d="m166.63,275.62v-1.54c.16-.17.31-.33.46-.49-.36-.19-.73-.38-1.16-.59-.09.08-.24.21-.41.36-.63.01-1.29.04-1.98-.02v-1.6c.39-.21.86-.23,1.11-.61h2.59c.58.58,1.11,1.11,1.64,1.64v2.71c-.74.29-.73,1.18-1.28,1.67-.5.44-.97.9-1.47,1.36.53.49,1.07.22,1.57.26.51.04,1.02,0,1.48,0,.26.6.15,1.11.12,1.62-.05.05-.1.12-.16.16-.06.03-.14.03-.21.03-1.72,0-3.44,0-5.2,0-.2-.19-.41-.39-.67-.64-.01-.25-.02-.54-.03-.71,1.27-1.27,2.48-2.48,3.59-3.59Z"/><path d="m215.28,135.34c.3-.21.44-.61.84-.68.47-.05.59.4.93.62v12.33c-.13.11-.41.33-.69.56-.55.08-.73-.42-1.07-.68,0-4.05,0-8.1,0-12.16Z"/><path d="m284.67,216.93v-1.04c.15-.06.28-.16.41-.16,4.26,0,8.51,0,12.81,0,.19.18.4.38.62.58.06.37-.4.36-.4.63-2.24.19-11.34.18-13.43,0Z"/><path d="m136.75,179.69h1.15c.5-.26.87-.45,1.25-.64q-.16-.26-2.17-.26c-.58-.59-1.1-1.11-1.84-1.85.05.22.04.07-.02-.05-.18-.38-.63-.67-.44-1.16.2-.51.44-1.02.73-1.49.19-.31.48-.62.79-.78.31-.16.73-.11.89-.58h2.51q-.4-.39-1.55-.4c-.16-.15-.32-.3-.49-.46h-.72c-.51-.26-.88-.45-1.26-.65,0-.15-.01-.29-.02-.45-.3-.31-.6-.63-.88-.93v-1.36c.17-.17.31-.41.5-.48.57-.18.11-1.35,1.08-1.1.32-.57.89-.38,1.37-.49.12-.03.21-.2.37-.35h3.69q.52.36,1.1.4c.58.58,1.1,1.1,1.76,1.76v1.98c-.52.49-1.05,1-1.72,1.64h-1.1c-.18.15-.34.3-.53.46-.33.12-.81-.17-1.12.25.11.11.16.2.21.21.75.01,1.5,0,2.24,0,.45.35.72.96,1.41.97.06,0,.12.23.18.36.13.25.26.49.45.84v1.66c-.54.24-.37.9-.78,1.26-.39.35-1,.26-1.27.76-.66,0-1.31-.01-2.16.02.35.39.54.59.76.83h1.54c.63.64,1.15,1.16,1.86,1.87v1.8c-.54.54-1.06,1.06-1.58,1.58-.31.34-.95-.01-1.25.63h-3.64c-.24-.12-.44-.58-.86-.41-.61.24-.8-.69-1.4-.48-.03.01-.17-.2-.23-.33-.09-.18-.13-.41-.25-.57-.18-.24-.42-.43-.64-.65v-1.37c.66-.65,1.35-1.33,2.07-2.02Zm4.45-4.95h-2.69c-.17.15-.33.31-.48.45-.37.08-.77-.16-1.07.19-.02.36-.14.72.04,1.01.42.21.79.4,1.14.57h3.38c.55-.29.91-.48,1.26-.66-.08-.38.16-.78-.2-1.07-.36-.02-.71-.04-.96-.06-.21-.21-.31-.31-.42-.42Zm-4.22,8.56c1.49,0,2.96.01,4.43,0,.43,0,.88.14,1.32-.16v-.89c-.26-.32-.45-.55-.6-.74-1.64,0-3.2,0-4.77,0-.07,0-.16-.02-.22,0-.06.03-.11.1-.23.22,0,.22,0,.51,0,.8,0,.21.03.43.06.78Zm-.02-13.21c2.36.23,5,.23,5.31-.01.17-.25.59-.4.48-.97-.19-.18-.45-.43-.71-.67-1.56,0-3.12,0-4.68,0-.07,0-.16-.02-.22,0-.06.03-.11.1-.19.18v1.47Z"/><path d="m137.17,186c.24,0,.46,0,.69,0,.68.34,1.36.68,2.21,1.11.28.28.7.7,1.13,1.13h.47c.14.3.28.61.42.9h.59c.29-.98-.03-2.02.15-2.98.37-.29.75-.12,1.1-.15.21.21.42.42.64.65v4.51c-.18.18-.38.4-.62.65h-1.34c-.06-.04-.19-.1-.29-.2-.64-.63-1.31-1.23-1.89-1.91-.53-.62-1.47-.66-1.83-1.4h-1.52c-.07.12-.14.17-.14.23,0,.59,0,1.18,0,1.71.19.22.33.39.44.52.09.61-.44.75-.69,1.07h-.89c-.35-.69-.7-1.37-1.11-2.19,0-.28,0-.72,0-1.17.4-.5,1.13-.76.94-1.55.31-.02.46-.02.62-.03.31-.3.63-.6.94-.9Z"/><path d="m324.85,143.3c.56-.31.76.21,1.08.47.04.06.12.11.12.17,0,1.64,0,3.27,0,4.91-.36.4-.79.21-1.21.14-.05-.06-.13-.11-.13-.17,0-1.79,0-3.57,0-5.36,0-.05.09-.11.14-.16Z"/><path d="m326.05,133.11c-.44.36-.65.88-1.21.57-.05-.06-.14-.11-.14-.16,0-1.79,0-3.57,0-5.36,0-.06.09-.11.17-.2.18-.01.39-.04.6-.04.3,0,.6,0,.58.45-.02.52,0,1.04,0,1.56v3.19Z"/><path d="m299.57,107.95c-.32-.56.2-.76.45-1.08.06-.04.11-.13.17-.13,1.64,0,3.27,0,4.91,0,.43.35.21.79.16,1.2-.05.05-.11.14-.16.14-1.79,0-3.57,0-5.36,0-.06,0-.11-.09-.17-.13Z"/><path d="m326.05,206.49c0,1.7,0,3.39,0,5.13h-1.18c-.06-.13-.16-.26-.16-.38-.01-1.71,0-3.42,0-5.13,0-.06.07-.12.11-.18.13-.04.27-.07.52-.15.21.21.46.46.71.71Z"/><path d="m274.18,107.96c-.06.05-.11.13-.17.13-1.79,0-3.57,0-5.36,0-.05,0-.11-.09-.2-.18v-1.01c.16-.06.29-.16.42-.16,1.56-.01,3.13,0,4.69,0q.63.63.62,1.21Z"/><path d="m324.7,159.65c.31-.31.46-.46.66-.66.2.18.4.37.64.59v5.11c-.15.04-.35.11-.55.13-.21.01-.42-.03-.59-.05-.08-.1-.15-.16-.15-.22,0-1.63,0-3.26,0-4.91Z"/><path d="m324.88,174.78h1.01c.06.14.16.27.16.39.01,1.56,0,3.12,0,4.72-.18.19-.38.4-.58.61-.38.08-.36-.4-.61-.39-.07-.19-.15-.32-.15-.45,0-1.56,0-3.12,0-4.67,0-.06.08-.11.17-.21Z"/><path d="m242.75,106.97c0,.3,0,.59,0,.89-.11.08-.23.22-.34.23-1.63.01-3.25.01-4.84.01-.25-.25-.46-.46-.68-.68.21-.2.43-.41.63-.6,1.69,0,3.38,0,5.07,0,.05,0,.1.1.16.15Z"/><path d="m289.62,108.06h-5.24c-.24-.23-.45-.43-.66-.64.22-.22.43-.43.64-.64h5.03c.33.35.11.74.23,1.28Z"/><path d="m258.46,107.46c-.2.2-.36.36-.51.51-.06.04-.11.1-.18.11-.15.02-.3,0-.44,0h-4.45c-.4-.37-.22-.8-.14-1.21.06-.05.11-.13.17-.13,1.63,0,3.26,0,4.95,0,.16.2.35.42.6.72Z"/><path d="m226.95,106.74v1.17c-.09.08-.15.18-.2.18-1.63,0-3.26,0-4.97,0-.15-.19-.33-.42-.6-.77.18-.05.47-.12.77-.19-.09-.09-.17-.18-.26-.27.06-.04.11-.11.17-.12.15-.02.3,0,.44,0h4.64Z"/><path d="m326.02,190.45v5.26c-.35.34-.74.11-1.09.19-.08-.12-.22-.23-.22-.35-.01-1.63,0-3.26,0-4.83.38-.38.78-.14,1.32-.27Z"/><path d="m326.05,117.35c-.45.36-.65.88-1.21.57-.05-.06-.14-.11-.14-.17,0-1.64,0-3.27,0-4.91,0-.05.09-.11.17-.2h1.01c.06.16.16.28.16.41.01,1.41,0,2.83,0,4.3Z"/><path d="m315.28,107.91v-1c.16-.06.29-.16.42-.16,1.41-.01,2.82,0,4.31,0,.14.19.32.42.56.75-.11.11-.29.29-.47.48-.13.04-.26.12-.4.12-1.41,0-2.82,0-4.23,0-.05,0-.11-.09-.2-.18Z"/><path d="m205.86,107.92v-1.01c.16-.06.28-.16.41-.16,1.72,0,3.43,0,5.15,0,.06,0,.11.09.21.17v1.01c-.16.06-.28.16-.41.16-1.72,0-3.43,0-5.15,0-.06,0-.11-.09-.21-.17Z"/><path d="m143.27,108.09v-1.18c.1-.08.15-.17.21-.17,1.79,0,3.58,0,5.37,0,.41.36.22.79.14,1.21-.06.05-.11.13-.17.13-1.79,0-3.58,0-5.56,0Z"/><path d="m127.51,107.92v-1.01c.16-.06.28-.16.41-.16,1.72,0,3.43,0,5.15,0,.06,0,.11.09.21.17v1.01c-.16.06-.28.16-.41.16-1.72,0-3.43,0-5.15,0-.06,0-.11-.09-.21-.17Z"/><path d="m180.1,106.91v1.01c-.14.06-.26.16-.39.16-1.56.01-3.12,0-4.72,0-.19-.18-.4-.37-.61-.57-.09-.38.4-.35.38-.61.19-.07.32-.16.45-.16,1.56,0,3.12,0,4.67,0,.06,0,.11.08.21.16Z"/><path d="m195.87,106.91v1.01c-.14.06-.26.16-.39.16-1.56.01-3.12,0-4.72,0-.19-.18-.4-.37-.61-.57-.09-.38.4-.35.38-.61.19-.07.32-.16.45-.16,1.56,0,3.12,0,4.67,0,.06,0,.11.08.21.16Z"/><path d="m112.19,107.38c.21-.21.37-.37.52-.52.06-.04.11-.1.17-.11.15-.02.3,0,.44,0h3.99q.62.64.58,1.22c-.06.04-.11.12-.17.12-1.63,0-3.25,0-4.93,0-.17-.19-.36-.42-.62-.71Z"/><path d="m164.35,106.74v1.18c-.1.08-.15.17-.21.17-1.64,0-3.28,0-4.92,0-.41-.36-.22-.79-.14-1.21.06-.05.11-.13.17-.13,1.64,0,3.28,0,5.11,0Z"/><path d="m107.24,117.96v-5.18c.33-.35.72-.11,1.07-.19.08.11.24.22.24.33.02,1.48.01,2.96.01,4.41-.37.31-.58.78-1.32.63Z"/><path d="m226.95,325.15v1.17c-.09.08-.15.18-.2.18-1.64,0-3.27,0-4.91,0-.29-.36-.96-.54-.61-1.22.06-.04.11-.13.17-.13,1.79,0,3.57,0,5.56,0Z"/><path d="m242.65,325.27c.36.68-.32.85-.59,1.22-1.48,0-2.97,0-4.45,0-.29-.36-.95-.53-.63-1.21.05-.05.11-.14.16-.14,1.78,0,3.56,0,5.34,0,.06,0,.11.08.17.12Z"/><path d="m299.52,325.18h5.69c.05.19.11.39.17.64-.23.19-.46.38-.79.64h-4.47c-.28-.33-.74-.54-.6-1.28Z"/><path d="m284.42,326.5c-.28-.37-.95-.54-.6-1.22.06-.04.11-.13.17-.13,1.78,0,3.56,0,5.34,0,.06,0,.11.09.16.13q0,.56-.45,1.08c-.06.05-.11.13-.17.13-1.48,0-2.97,0-4.45,0Z"/><path d="m274.17,325.27c.36.68-.32.85-.59,1.22-1.48,0-2.97,0-4.45,0-.29-.36-.95-.53-.63-1.21.05-.05.11-.14.16-.14,1.78,0,3.56,0,5.34,0,.06,0,.11.08.17.12Z"/><path d="m257.83,325.15l.74.74c-.29.07-.58.15-.88.22.09.09.17.18.26.27-.06.04-.11.1-.17.12-.07.02-.15,0-.22,0h-4.67c-.42-.36-.21-.79-.15-1.2.05-.05.11-.14.16-.14,1.63,0,3.26,0,4.94,0Z"/><path d="m325.87,320.6h-1.01c-.06-.16-.16-.29-.16-.42-.01-1.57,0-3.13,0-4.7,0-.05.09-.11.17-.2h1.01c.06.16.16.29.16.42.01,1.57,0,3.13,0,4.7,0,.05-.09.11-.17.2Z"/><path d="m320.59,325.89c-.17.17-.38.38-.56.56h-4.61c-.29-.37-.12-.75-.15-1.1.12-.07.24-.2.36-.2,1.41-.01,2.82,0,4.44,0,.12.16.32.45.53.74Z"/><path d="m180.11,325.15v1.17c-.1.08-.15.17-.21.17-1.64,0-3.27,0-4.91,0q-.62-.64-.59-1.23c.06-.04.11-.12.17-.12,1.79,0,3.57,0,5.54,0Z"/><path d="m128.15,326.5c-.26-.38-.96-.55-.58-1.23.06-.04.12-.11.17-.11,1.79,0,3.57,0,5.35,0,.39.37.22.8.13,1.22-.06.04-.11.13-.17.13-1.64,0-3.27,0-4.91,0Z"/><path d="m195.77,325.15c.36.73-.17.92-.46,1.3h-4.58c-.24-.22-.46-.42-.66-.6v-.49c.42-.45,1.24.08,1.54-.66.17.15.33.3.49.45h3.67Z"/><path d="m206.47,326.5c-.36-.44-.88-.65-.57-1.2.05-.05.11-.14.16-.14,1.78,0,3.56,0,5.34,0,.06,0,.11.08.17.12.37.68-.32.85-.59,1.23h-4.52Z"/><path d="m149,325.29c.33.56-.24.75-.4,1.03-.11.09-.17.17-.23.17-1.48,0-2.97,0-4.45,0-.27-.37-.95-.54-.59-1.22.06-.04.11-.12.17-.12,1.78,0,3.56,0,5.34,0,.05,0,.11.09.16.14Z"/><path d="m112.29,325.69c.1-.1.31-.31.5-.5h5.13c.04.23.08.43.11.62-.24.24-.44.44-.68.68h-4.6c-.1-.17-.29-.48-.47-.79Z"/><path d="m107.37,315.28h1.01c.06.15.16.28.16.41.01,1.57,0,3.13,0,4.7,0,.06-.09.11-.16.21-.18.01-.39.04-.6.04-.3,0-.59,0-.58-.45.02-.9,0-1.79,0-2.69,0-.67,0-1.34,0-2.01,0-.06.09-.11.17-.21Z"/><path d="m164.34,325.15v1.18c-.14.06-.26.16-.39.16-1.41.01-2.83,0-4.24,0q-.64-.62-.66-1.27c.2-.03.4-.08.61-.08,1.54,0,3.09,0,4.68,0Z"/><path d="m324.7,268.45h1.18c.08.1.17.16.17.21,0,1.79,0,3.58,0,5.37-.36.4-.79.22-1.21.14-.05-.06-.13-.11-.13-.17,0-1.79,0-3.58,0-5.56Z"/><path d="m326.05,227.38h-1.18c-.08-.1-.17-.15-.17-.21,0-1.79,0-3.58,0-5.37.35-.47.81-.06,1.12-.25.14.16.22.22.22.27,0,1.79,0,3.58,0,5.56Z"/><path d="m326.05,242.51c-.21.21-.42.42-.66.66-.2-.19-.41-.38-.65-.61v-5.07c.18-.09.51-.24.84-.4.05.05.26.26.47.47,0,1.65,0,3.3,0,4.95Z"/><path d="m326.05,258.46h-1.16c-.32-.27-.18-.59-.18-.87-.01-1.62,0-3.24,0-4.78.69-.41.9.12,1.21.37.05.06.13.11.13.17,0,1.64,0,3.27,0,5.11Z"/><path d="m324.7,284.21h1.17c.08.1.17.15.17.2,0,1.63,0,3.26,0,4.96-.19.16-.42.34-.77.62-.06-.19-.14-.48-.22-.77l-.25.24c-.04-.06-.1-.11-.11-.17-.02-.15,0-.3,0-.44v-4.64Z"/><path d="m325.89,305.33c-.36,0-.66,0-.96,0-.08-.12-.22-.23-.22-.35-.01-1.78,0-3.56,0-5.28.38-.38.77-.14,1.12-.22.08.12.22.23.22.35.01,1.64.02,3.28,0,4.93,0,.2-.1.4-.16.58Z"/><path d="m107.75,289.89c-.1-.1-.31-.31-.5-.5v-5.06c.37-.29.75-.12,1.1-.15.07.12.2.24.2.36.01,1.56,0,3.12,0,4.86-.19.11-.5.3-.81.48Z"/><path d="m107.2,221.61h1.17c.08.09.17.15.18.2,0,1.79,0,3.58,0,5.37-.35.43-.79.21-1.2.16-.05-.05-.14-.11-.14-.16,0-1.79,0-3.58,0-5.57Z"/><path d="m108.52,190.33v5.37c-.09.1-.14.19-.19.2-.3.02-.6,0-.89,0-.08-.12-.22-.23-.22-.35-.01-1.63,0-3.26,0-4.83.38-.41.78-.09,1.32-.39Z"/><path d="m108.52,159.7v5.03c-.22.03-.42.08-.63.1-.15.01-.3,0-.45,0-.08-.11-.23-.22-.23-.34-.01-1.78-.01-3.56-.01-5.39.23-.06.43-.11.67-.17.2.23.39.46.65.76Z"/><path d="m107.38,127.95h1.01c.06.15.16.28.16.41.01,1.56,0,3.13,0,4.69q-.63.64-1.21.63c-.05-.05-.14-.11-.14-.16,0-1.79,0-3.57,0-5.36,0-.05.09-.11.17-.21Z"/><path d="m107.2,252.79c.72-.37.92.15,1.23.41.04.06.11.12.11.18,0,1.64,0,3.27,0,4.9-.38.39-.81.23-1.22.13-.04-.06-.12-.11-.12-.17,0-1.79,0-3.57,0-5.44Z"/><path d="m108.55,242.51c-.21.21-.42.42-.66.66-.2-.19-.41-.38-.65-.61v-5.07c.18-.09.51-.24.84-.4.05.05.26.26.47.47v4.96Z"/><path d="m108.55,179.92c-.28.28-.44.44-.73.73-.11-.26-.21-.52-.32-.78-.06.06-.11.11-.17.17-.04-.06-.11-.11-.12-.17-.02-.15,0-.3,0-.44,0-1.48,0-2.97,0-4.45.34-.48.8-.08,1.11-.26.14.15.23.2.23.26,0,1.63,0,3.26,0,4.94Z"/><path d="m108.55,305.29h-1.18c-.08-.1-.17-.16-.17-.21,0-1.79,0-3.58,0-5.37.36-.4.79-.22,1.21-.14.05.06.13.11.13.17,0,1.79,0,3.58,0,5.56Z"/><path d="m107.36,268.45h1.01c.06.13.16.26.16.38.01,1.56,0,3.13,0,4.69-.34.33-.52.93-1.2.67-.05-.13-.15-.26-.15-.39,0-1.71,0-3.42,0-5.13,0-.06.08-.11.16-.22Z"/><path d="m108.55,206.47c0,1.68,0,3.32,0,4.96-.35.48-.81.06-1.11.26-.14-.16-.23-.21-.23-.26,0-1.79,0-3.57,0-5.36,0-.06.09-.11.13-.17q.56-.01,1.21.57Z"/><path d="m108.4,149.03h-1.04c-.06-.16-.16-.29-.16-.42,0-1.77,0-3.54,0-5.23.69-.41.9.11,1.21.37.22.27.22,2.94-.01,5.28Z"/></g></svg>