<?xml version="1.0" encoding="UTF-8"?><svg id="Layer_2" xmlns="http://www.w3.org/2000/svg" viewBox="0 0 74.17 74.17"><g id="Capa_1"><path d="m37.09,56.64c-10.78,0-19.55-8.77-19.55-19.55s8.77-19.55,19.55-19.55,19.55,8.77,19.55,19.55-8.77,19.55-19.55,19.55Zm0-36.17c-9.16,0-16.62,7.45-16.62,16.61s7.45,16.61,16.62,16.61,16.61-7.45,16.61-16.61-7.45-16.61-16.61-16.61Z"/><path d="m37.09,57.52c-11.27,0-20.44-9.17-20.44-20.44s9.17-20.44,20.44-20.44,20.44,9.17,20.44,20.44-9.17,20.44-20.44,20.44Zm0-37.94c-9.65,0-17.5,7.85-17.5,17.5s7.85,17.5,17.5,17.5,17.5-7.85,17.5-17.5-7.85-17.5-17.5-17.5Z"/><path d="m37.09,18.12v18.97h18.97c0-10.48-8.49-18.97-18.97-18.97Z"/><path d="m37.09,56.05v-18.97h-18.97c0,10.48,8.49,18.97,18.97,18.97Z"/><rect x="35.62" width="2.94" height="18.12"/><rect x="35.62" y="56.05" width="2.94" height="18.12"/><rect x="56.05" y="35.62" width="18.12" height="2.94"/><rect y="35.62" width="18.12" height="2.94"/></g></svg>