<?xml version="1.0" encoding="UTF-8"?><svg id="Layer_2" xmlns="http://www.w3.org/2000/svg" viewBox="0 0 167.04 167.04"><g id="Y2K_Icon_Pack_by_Intuitive_Designs"><path id="_4" d="m164.5,80.95h0s-63.02,0-63.02,0h0c-8.5,0-15.38-6.89-15.38-15.38h0V2.54h0c0-1.4-1.16-2.54-2.57-2.54s-2.56,1.14-2.57,2.54h0v63.02h0c0,8.5-6.89,15.38-15.38,15.38h0s-63.02,0-63.02,0h0c-1.4.01-2.54,1.16-2.54,2.57s1.14,2.56,2.54,2.57h0s63.02,0,63.02,0h0c8.5,0,15.38,6.89,15.38,15.38h0v63.02h0c0,1.4,1.16,2.54,2.57,2.54s2.56-1.14,2.57-2.54h0v-63.02h0c0-8.5,6.89-15.38,15.38-15.38h0s63.02,0,63.02,0h0c1.4-.01,2.54-1.16,2.54-2.57s-1.14-2.56-2.54-2.57Z"/></g></svg>