<?xml version="1.0" encoding="UTF-8"?><svg id="Layer_2" xmlns="http://www.w3.org/2000/svg" viewBox="0 0 133.13 133.13"><g id="Y2K_Icon_Pack_by_Intuitive_Designs"><path id="_2" d="m127.92,57.18h-26.11c-4.65,0-6.97-5.62-3.69-8.9l18.46-18.46c2.04-2.04,2.04-5.34,0-7.37l-5.89-5.89c-2.04-2.04-5.34-2.04-7.37,0l-18.46,18.46c-3.28,3.28-8.9.96-8.9-3.69V5.21c0-2.88-2.33-5.21-5.21-5.21h-8.33c-2.88,0-5.21,2.33-5.21,5.21v26.11c0,4.65-5.62,6.97-8.9,3.69l-18.46-18.46c-2.04-2.04-5.34-2.04-7.37,0l-5.89,5.89c-2.04,2.04-2.04,5.34,0,7.37l18.46,18.46c3.28,3.28.96,8.9-3.69,8.9H5.21c-2.88,0-5.21,2.33-5.21,5.21v8.33c0,2.88,2.33,5.21,5.21,5.21h26.11c4.65,0,6.97,5.62,3.69,8.9l-18.46,18.46c-2.04,2.04-2.04,5.34,0,7.37l5.89,5.89c2.04,2.04,5.34,2.04,7.37,0l18.46-18.46c3.28-3.28,8.9-.96,8.9,3.69v26.11c0,2.88,2.33,5.21,5.21,5.21h8.33c2.88,0,5.21-2.33,5.21-5.21v-26.11c0-4.65,5.62-6.97,8.9-3.69l18.46,18.46c2.04,2.04,5.34,2.04,7.37,0l5.89-5.89c2.04-2.04,2.04-5.34,0-7.37l-18.46-18.46c-3.28-3.28-.96-8.9,3.69-8.9h26.11c2.88,0,5.21-2.33,5.21-5.21v-8.33c0-2.88-2.33-5.21-5.21-5.21Z"/></g></svg>