<?xml version="1.0" encoding="UTF-8"?><svg id="Layer_2" xmlns="http://www.w3.org/2000/svg" viewBox="0 0 75.64 76.15"><g id="Capa_1"><path d="m9.3,62.72c-.36-.35-.79-.7-1.14-1.11-.38-.46-.99-.71-1.1-1.47-.07-.45-.66-.82-1.04-1.25v-.51c-.52-.5-1.04-1.01-1.54-1.51-.11-1.45-.9-2.59-1.58-3.75-.32-.56.09-1.22-.52-1.73-.41-.34-.74-1.07-.69-1.58.07-.74-.65-1.05-.61-1.7.03-.63,0-1.26,0-1.79-.22-.22-.35-.35-.57-.57v-3.84c-.22-.22-.35-.35-.5-.5v-8.23c.15-.16.33-.36.52-.57v-2.71c.13-.14.26-.27.38-.4.06-.16.16-.31.16-.47.02-.45,0-.91,0-1.34.15-.15.28-.28.41-.41.27-.51.09-1.06.14-1.59.64-1.38,1.66-2.59,1.77-4.18.28-.07.52-.14.77-.2.07-.15.16-.3.2-.46.08-.33-.07-.67.17-1.03.76-1.15,1.15-2.54,2.32-3.43.3-.23.36-.76.61-1.1.21-.29.53-.49.75-.68v-.6c1.58-1.58,3.12-3.12,4.68-4.68.66.13.9-.47,1.31-.79.41-.31.63-.82,1.28-.91.37-.05.68-.54,1.01-.84.4-.38.78-.77,1-.99,1.63-.83,3.04-1.61,4.5-2.28.68-.32,1.27-.95,2.15-.79.14.02.31-.12.46-.2.52-.29,1-.69,1.56-.85.49-.15,1.06-.03,1.52-.03l.56-.56h2.19c.23-.23.35-.35.51-.51h3.79c.21-.19.41-.37.63-.56h4.36c.19.17.39.36.59.55h4.37c.13.13.26.26.49.49.51.03,1.13.06,1.74.09.13.13.26.26.45.45h2.01c.37.24.65.56.94.58.64.04.96.71,1.69.63.51-.05,1.19.31,1.58.7.41.4.98.3,1.39.71.39.39,1.06.48,1.59.74.53.26,1.18.45,1.54.87.6.71,1.61.76,2.13,1.52.62.91,1.81,1.07,2.5,1.92.69.85,1.53,1.56,2.31,2.34.71.71,1.61,1.32,2.08,2.16.49.88,1.18,1.52,1.77,2.28.31.39.37.93.77,1.33.42.41.59,1.07,1.01,1.47.42.39.43,1,.78,1.32.44.39.25,1,.73,1.38.49.38-.09,1.18.57,1.7.4.32.46,1.06.71,1.59.11.23.3.43.51.71v1.53c.19.21.37.41.56.63v1.05c.19.21.38.4.56.61v2.18c.13.13.26.26.39.39.05.16.15.32.15.48,0,3.74,0,7.48,0,11.18-.16.16-.29.29-.52.52v2.64c-.27.39-.58.63-.55.81.18.94-.86,1.58-.57,2.52-.91.43-.31,1.47-.87,2.12-.46.55-.66,1.35-1.01,2.03-.47.9-.95,1.8-1.41,2.7-.26.53-.34,1.25-.75,1.58-.79.65-.88,1.74-1.71,2.34-.94.69-1.17,1.95-2.12,2.69-.86.67-1.64,1.47-2.32,2.32-1.03,1.27-2.64,1.82-3.68,3.07-.25.3-.82.17-1.13.58-.25.34-.58.59-1.07.71-.46.12-.82.67-1.24,1.04h-1.24c-.29.29-.67.67-1.09,1.1h-1.03c-.17.28-.46.75-.59.97-.92.19-1.63-.05-2.02.66h-1.62c-.42.64-1.33.49-1.76,1.13h-2.15c-.15.15-.27.27-.5.5h-4.93c-.22.22-.35.35-.53.53h-3.39c-.17-.17-.3-.3-.53-.53h-3.84c-.23-.23-.35-.35-.5-.5h-2.71c-.21-.19-.4-.37-.61-.56h-1.07c-.2-.19-.4-.37-.6-.56h-1.07c-.14-.14-.27-.38-.4-.38-1.26-.03-2.25-.79-3.3-1.3-.91-.43-1.93-.76-2.68-1.45-.78-.72-1.93-.95-2.5-1.92-.34-.58-1.13-.39-1.55-.94-.35-.46-.75-.92-1.41-1.17-.9-.34-3.13-2.82-3.76-3.77-.04-.06,0-.18,0-.33Zm60.89-19.73c-.15-.94.11-1.94-.15-2.92h-12.98v1.76c-.28.32-.46.52-.65.73v4.88l-.51.51v2.19l-.49.49v2.46c.49.04.92.07,1.32.11.22.19.42.36.59.51.5,0,.96-.03,1.42,0,.44.03.6.65,1.15.56.43-.07.88-.01,1.13-.01.38.29.59.44.8.59.55.14,1.12-.25,1.61.09.14.14.26.26.4.4h1.06c.65-.65,1.29-1.29,1.97-1.97,0-.31-.15-.86.03-1,.59-.48.49-1.32,1.07-1.77-.34-.8.35-1.33.58-1.95.21-.56.61-1.03.54-1.71-.02-.19.3-.41.58-.76v-2.68c.23-.23.35-.35.52-.52ZM20.21,23.02h-1.3c-.2-.19-.4-.37-.6-.56h-1.59c-.23-.2-.43-.38-.64-.56h-1.59c-.16-.16-.29-.29-.52-.52-.43,0-1.02.14-1.49-.04-.56-.22-1.04-.63-1.7-.51-1.05.6-1.49,1.67-2.01,2.67-.55,1.05-1.04,2.13-1.67,3.41v1.37c-.88.37-.28,1.32-.78,1.88-.66.74-.07,1.74-.4,2.57-.13.13-.26.26-.38.38v2.35c.32.29.58.53.76.7h12.11c.29-.47.28-1.06.78-1.38v-5.43c.2-.22.37-.42.56-.63v-3.24c.15-.15.28-.28.47-.47v-1.97Zm-1.86,17H6.29c-.18,0-.37-.02-.55,0-.07.01-.13.12-.22.23v2.29l.49.49c0,.86,0,1.76,0,2.67,0,.07.09.14.14.22l.4.4v1.5c.22.4.38.7.56.99.18.29.42.56.53.88.09.24-.05.57.03.81.11.31.42.56.51.88.09.33.02.7.02,1.07,1.23.71,1.29,2.39,2.63,2.87.63.24,1.09.03,1.46-.48h1.62c.2-.19.4-.38.6-.56h1.07c.2-.19.4-.37.61-.56h2.19c.36-.89,1.36-.24,1.87-.79v-1.65c-.18-.19-.36-.39-.55-.6v-3.25c-.2-.22-.37-.42-.56-.63v-5.23c-.34-.65-.57-1.1-.8-1.55Zm37.55-14.53v2.19c.19.2.37.4.56.59v5.44c.19.21.37.41.56.62v1.06c.28.28.54.54.8.8h9.83c.26-.2.53-.41.64-.5.8-.18,1.08,1.17,1.8.29v-2.87c-.19-.19-.32-.32-.47-.47v-2.71c-.19-.2-.37-.4-.56-.61v-1.07c-.19-.2-.37-.4-.56-.6v-.92c-1.27-2.16-2.07-4.43-3.45-6.46-.25.2-.43.35-.63.52-.4.04-.83.07-1.18.11-.21.21-.34.34-.48.48h-1.07c-.2.19-.4.37-.6.56h-1.62c-.2.19-.4.37-.6.56h-1.73c-.17,1.1-1.31.12-1.82.87.18.52-.17,1.17.22,1.78.11.1.24.23.36.35Zm-3.34,14.53c-4.24,0-8.25,0-12.26,0-.07,0-.13.11-.29.25v9.13c-.32.55-.49.84-.66,1.15.37.4.66.72.93,1.01h6.61c.16.16.29.29.47.47h3.28c.38-.31.66-.54.9-.74v-2.23c.14-.14.27-.27.5-.5v-3.29c.22-.22.35-.35.53-.53v-4.71Zm-1.04-12.88v-1.46c-.31-.6-.55-1.05-.8-1.53h-4.39c-.33.17-.53.73-1.04.54-.31-.24-.58-.45-.89-.69-.35.26-.62.47-.9.67-.55,0-1.1-.04-1.64.01-.61.05-1.27-.27-1.85.25,0,3.08,0,6.18,0,9.28,0,.07-.1.14-.15.21-.13.13-.26.26-.39.39.45.45.9.9,1.37,1.37,3.55,0,7.11,0,10.67,0,.16,0,.32-.11.47-.17.19-.19.39-.39.58-.58v-3.96c-.19-.19-.32-.32-.45-.45-.1-1.16.05-2.33-.07-3.36-.25-.25-.38-.38-.51-.51Zm-20.56-3.02h-6.03c-.23.45-.46.9-.81,1.58-.11.71.11,1.71-.08,2.6-.2.2-.33.33-.47.47-.08.97.09,1.96-.09,2.87-.22.2-.35.32-.47.42v3.31c.26.26.52.52.82.82,3.79,0,7.61,0,11.44,0,.07,0,.14-.09.35-.22,0-3.54,0-7.18,0-10.81,0-.08-.02-.18-.06-.25-.04-.08-.12-.13-.22-.22-1.25,0-2.52,0-3.79,0-.07,0-.14-.1-.23-.18-.1-.11-.23-.24-.35-.36Zm4.6,15.9h-11.73c-.18,0-.37-.02-.55,0-.07.01-.13.12-.22.21v3.95c.19.19.31.31.44.44.14,1.16-.06,2.33.1,3.39.22.22.35.35.48.48.07.98-.08,1.97.07,2.81.32.32.51.51.7.7h3.97c.19-.19.32-.32.48-.48h5.71c.09,0,.19.02.27,0,.08-.03.14-.1.26-.2v-11.31Zm4.46,28.55c.71-.39,1.36-.56,1.69-.99.48-.61,1.27-.58,1.75-1.13.98-1.13,2.31-1.98,2.89-3.45.74-.33.81-1.13,1.12-1.73.31-.58.65-1.17.84-1.84.18-.63.71-1.16.99-1.77.13-.29.02-.69.02-1-.6-.19-1.09-.36-1.48-.77h-7.01c-.23-.19-.41-.34-.5-.41-.34.25-.62.47-.89.67.23.26.4.45.58.65v11.76Zm7.94-48.83c.41-.1.89.19,1.28-.19.04-.51.28-1.01-.2-1.49-.22-.22-.21-.65-.41-.9-.23-.29-.28-.65-.44-.9-.4-.65-.78-1.33-1.03-2.03-.27-.76-1.31-1-1.2-1.96-.58-.58-1.16-1.16-1.73-1.73-.58-.58-1.16-1.16-1.74-1.74h-.52c-.2-.19-.4-.37-.59-.56-.42.1-.9-.19-1.35.26v10.34c-.25.35-.44.54-.54.77-.06.13.04.33.11.69h7.8c.19-.18.38-.36.58-.55Zm-12.55,48.7c.07-.06.2-.12.2-.18,0-4.01,0-8.03,0-12.07-.25-.23-.51-.48-.81-.76-.17.14-.36.3-.59.5h-6.78c-.09,0-.19-.02-.27,0-.08.02-.14.1-.27.2-.18.21-.42.47-.62.69.11.77.92,1.24.56,2.05.53.58.86,1.31,1.05,2.02.21.74,1.07.88,1.18,1.72.1.75,1.2,1.04,1.19,1.96.52.52,1.14.96,1.52,1.56.48.75,1.46.65,1.93,1.34.41.61,1.18.59,1.69.98Zm.04-48.2c.23-2.71.23-9.49-.01-11.96h-1.24c-.56.56-1.07,1.07-1.59,1.59h-.55c-.63.64-1.26,1.29-1.83,1.87-.11.31-.13.6-.29.78-.42.48-.97.85-1.31,1.37-.36.55-.44,1.3-.81,1.83-.54.77-.75,1.72-1.34,2.45-.28.35-.13.69-.16,1.03-.01.15.12.31.19.48.42.05.85.09,1.24.14.16.16.29.29.42.42h7.29Zm-15.47,37.33h-1.62c-.2.19-.4.37-.6.56h-1.59c-.23.2-.43.38-.64.56h-1.52c-.34.3-.61.54-.87.78.8.8,1.66,1.51,2.33,2.37.68.88,1.85,1.08,2.49,1.93.51.68,1.37.79,1.91,1.35.63.64,1.52.79,2.21,1.25,1.15.76,2.62.98,3.43,2.17,1.25-.26,2.28,1.35,3.52.24-.9-.9-1.81-1.81-2.72-2.72v-.59c-1.01-.5-1.08-1.75-1.91-2.46-.3-.25-.34-.79-.61-1.1-.37-.41-.09-.88-.24-1.28-.15-.39-.68-.61-.53-1.15-.63-.41-.59-1.05-.56-1.68-.26-.26-.52-.52-.79-.79h-1.1c-.17.16-.37.34-.57.53Zm1.7-38.38c.28-.61.76-1.16.73-1.67-.05-.8.56-1.24.69-1.93.11-.55.64-.99.91-1.52.3-.6.47-1.27.79-1.85.29-.52,1.06-.74.95-1.53,1.03-1.02,2.06-2.05,3.08-3.08.06-.06.16-.12.18-.2.01-.05-.1-.13-.24-.28-.36,0-.8.03-1.24,0-.65-.06-.95.82-1.69.58-.18-.06-.45.18-.68.29-.68.34-1.36.66-2.05.98-.7.33-1.34.75-1.94,1.29-.47.43-1.21.55-1.84.81-.83.83-1.66,1.66-2.5,2.5-1.49.41-2.12,1.8-3.18,2.61.1.55-.17,1.04.31,1.37h1.63c.2.19.4.37.6.56h1.62c.14.14.27.27.49.49h2.12c.36.27.56.44.78.59.06.04.18,0,.47,0Zm25.5,49.72c.92.54,1.3-.74,2.06-.38.61-.3,1.22-.58,1.82-.9.52-.28,1.1-.45,1.6-.75.58-.36,1.21-.68,1.81-.93.7-.29,1.11-1.03,1.7-1.16.83-.18,1.14-.82,1.7-1.22.49-.35,1.05-.6,1.5-.99.56-.47,1.04-1.02,1.56-1.54.52-.51,1.04-1.02,1.56-1.53-.28-.28-.54-.54-.82-.82h-1.61c-.21-.19-.41-.37-.62-.56h-1.07c-.2-.19-.4-.37-.61-.56h-2.15c-.22-.2-.42-.38-.57-.51h-1.15c-.37.88-.74,1.74-1.3,2.5.33.89-.34,1.55-.69,2.17-.36.66-.6,1.43-1.26,1.98-.47.39-.6,1.18-.98,2-.54.54-1.25,1.25-1.79,1.79-.3.59-.49.96-.72,1.42Zm8.46-50.27h1.62c.2-.19.4-.37.6-.56h1.05c.23-.2.43-.38.64-.56h2.07c.33-.3.6-.54.87-.78-1.38-1.38-2.74-2.74-4.09-4.09-.18-.01-.36-.02-.7-.04-.41-.44-.81-1.23-1.42-1.44-.8-.28-1.23-.96-1.78-1.26-.5-.03-.85-.05-1.11-.07-.41-.41-.73-.73-1.05-1.05-.64.25-.85-.54-1.41-.58-.39-.03-.77-.5-1.14-.48-.61.03-.95-.41-1.43-.55-.36-.11-.89-.22-1.18.21.54.62,1.07,1.23,1.6,1.83-.1.93,1.32,1.02,1.1,2.01.41.56,1.2.86,1.14,1.72.62.54.7,1.35,1.05,2.03.35.68.75,1.33,1.09,1.92v1c.35.33.73.73,1.15,1.07.19.15.46.2.68.29.25-.23.45-.42.65-.6Z"/></g></svg>